<?xml version="1.0" standalone="no"?>
<!DOCTYPE svg PUBLIC "-//W3C//DTD SVG 1.1//EN" "http://www.w3.org/Graphics/SVG/1.1/DTD/svg11.dtd" >
<svg xmlns="http://www.w3.org/2000/svg" xmlns:xlink="http://www.w3.org/1999/xlink" version="1.1">
<metadata>
Created by FontForge 20170731 at Tue Apr 26 19:28:16 2022
 By Aleksey,,,
Copyright 1990 as an unpublished work by Bitstream Inc.  All rights reserved.  Confidential.
</metadata>
<defs>
<font id="SnellBT-Bold" horiz-adv-x="1024" >
  <font-face 
    font-family="Snell"
    font-weight="700"
    font-style="italic"
    font-stretch="normal"
    units-per-em="2048"
    panose-1="0 0 0 0 0 0 0 0 0 0"
    ascent="1638"
    descent="-410"
    x-height="698"
    cap-height="1438"
    bbox="-1716 -643 2154 1942"
    underline-thickness="112"
    underline-position="-415"
    slope="30"
    unicode-range="U+0020-FB02"
  />
<missing-glyph horiz-adv-x="550" 
 />
    <glyph glyph-name=".notdef" horiz-adv-x="550" 
 />
    <glyph glyph-name=".null" horiz-adv-x="0" 
 />
    <glyph glyph-name="nonmarkingreturn" horiz-adv-x="682" 
 />
    <glyph glyph-name="space" unicode=" " horiz-adv-x="550" 
 />
    <glyph glyph-name="exclam" unicode="!" horiz-adv-x="757" 
d="M-211 236q68 114 129.5 240.5t85 184t70.5 173.5q50 127 68 157q39 66 98 66q37 0 61.5 -23.5t24.5 -60.5q0 -52 -81 -155q-19 -24 -126 -150q-181 -219 -318 -441zM-295 190q43 0 71.5 -29.5t28.5 -72.5q0 -42 -29 -71t-71 -29q-41 0 -71.5 30t-30.5 70q0 42 30 72
t72 30z" />
    <glyph glyph-name="quotedbl" unicode="&#x22;" horiz-adv-x="677" 
d="M190 864h-32l-64 457q-4 28 -4 41q0 49 22 74.5t62 25.5t63 -25.5t23 -74.5q0 -9 -4 -41zM518 864h-31l-65 457q-4 28 -4 39q0 50 22.5 76t63.5 26q40 0 62 -25.5t22 -74.5q0 -25 -2 -41z" />
    <glyph glyph-name="numbersign" unicode="#" horiz-adv-x="1574" 
d="M778 1456h133l-168 -473h287l168 473h131l-166 -473h307l-40 -115h-310l-100 -286h332l-43 -115h-330l-166 -469h-133l166 469h-287l-166 -469h-131l166 469h-324l43 115h322l100 286h-348l43 115h348zM700 868l-100 -286h289l102 286h-291z" />
    <glyph glyph-name="dollar" unicode="$" horiz-adv-x="1099" 
d="M-227 -121l86 137q-102 35 -157.5 105t-55.5 160q0 80 44.5 132t108.5 52q44 0 71.5 -27t27.5 -67q0 -34 -25 -60t-57 -26q-31 0 -58 24q-24 -41 -24 -73q0 -123 137 -195l279 455q-125 152 -125 276q0 125 100 208t256 83q60 0 104 -10l84 131l19 -13l-82 -122
q94 -32 144 -86.5t50 -122.5q0 -64 -43 -108t-106 -44q-26 0 -53 8q59 95 59 178q0 88 -70 140l-229 -383q78 -103 113 -172t35 -144q0 -132 -112.5 -226.5t-289.5 -94.5q-63 0 -125 16l-84 -143zM-109 33q57 -21 99 -21q113 0 187.5 79t74.5 194q0 81 -88 192zM244 651
l223 373q-41 23 -80 23q-84 0 -146.5 -69t-62.5 -159q0 -76 66 -168z" />
    <glyph glyph-name="percent" unicode="%" horiz-adv-x="1630" 
d="M-111 -96l764 1018l-2 6q-99 -80 -176 -80q-62 0 -133 59q0 -9 -1 -20.5t-1 -14.5q0 -71 -36 -147.5t-103 -140.5q-68 -65 -155.5 -102.5t-158.5 -37.5q-84 0 -137 58t-53 151q0 77 40 154t116 141q66 55 144.5 86t152.5 31q78 0 128.5 -37t61.5 -100q66 -66 133 -66
q62 0 112.5 35.5t110.5 108.5q6 7 16.5 20t15 18t12.5 14t13 13t11.5 8.5t13 6t13.5 1.5q16 0 26 -9.5t10 -22.5q0 -20 -25 -55t-91 -115l-807 -989zM-117 461q77 0 178 125q80 100 122 203.5t42 173.5q0 84 -69 84q-68 0 -168 -109q-83 -92 -130.5 -199.5t-47.5 -181.5
q0 -46 20 -71t53 -25zM1075 408q0 -80 -46.5 -166.5t-127.5 -151.5q-67 -52 -142.5 -81t-137.5 -29q-84 0 -137.5 58t-53.5 150q0 78 40.5 156.5t115.5 140.5q65 55 144.5 85t152.5 30q90 0 141 -51t51 -141zM616 -4q76 0 179 127q80 100 121.5 203t41.5 174q0 82 -69 82
q-70 0 -168 -107q-82 -90 -130 -198.5t-48 -182.5q0 -46 20 -72t53 -26z" />
    <glyph glyph-name="ampersand" unicode="&#x26;" horiz-adv-x="1839" 
d="M414 90q-92 -59 -168.5 -88t-155.5 -29q-121 0 -195.5 72t-74.5 188q0 118 94.5 217.5t278.5 170.5q13 101 55 188.5t100.5 145t127 90t136.5 32.5q71 0 113.5 -35.5t42.5 -91.5q0 -89 -104.5 -160.5t-323.5 -140.5q15 -270 182 -452q33 25 67.5 59.5t55.5 59t60 73.5
t55 68q83 99 148.5 146.5t129.5 47.5q49 0 82 -28.5t33 -71.5q0 -38 -29 -67t-69 -29q-34 0 -55 19.5t-21 51.5q0 31 25 70q-4 0 -12.5 1t-12.5 1q-50 0 -105 -50.5t-155 -166.5t-184 -195q75 -79 174 -122.5t204 -43.5q280 0 455 283l12 -8q-104 -165 -245.5 -243.5
t-333.5 -78.5q-245 0 -387 117zM401 98q-100 87 -155.5 210.5t-55.5 254.5q0 4 1.5 18t1.5 23q-101 -40 -159.5 -119t-58.5 -176q0 -117 67 -192.5t171 -75.5q102 0 188 57zM340 666q130 35 211.5 121.5t81.5 173.5q0 42 -22 67t-58 25q-29 0 -64 -27.5t-68 -75t-56 -123.5
t-25 -161z" />
    <glyph glyph-name="quotesingle" unicode="'" horiz-adv-x="348" 
d="M190 864h-32l-66 457q-2 14 -2 39q0 102 84 102q40 0 63 -25.5t23 -74.5q0 -9 -4 -41z" />
    <glyph glyph-name="parenleft" unicode="(" horiz-adv-x="796" 
d="M883 1401q-492 -210 -887 -873q-318 -537 -318 -1163h-14q-33 206 -33 352q0 346 114.5 630t354.5 544q319 343 772 518z" />
    <glyph glyph-name="parenright" unicode=")" horiz-adv-x="796" 
d="M-918 -627q494 212 885 871q320 537 320 1165h12q33 -206 33 -352q0 -346 -114 -630t-353 -544q-319 -343 -772 -518z" />
    <glyph glyph-name="asterisk" unicode="*" 
d="M483 1196l27 238q6 53 47 53q26 0 42.5 -13.5t16.5 -35.5q0 -15 -4 -23l-112 -223zM510 1182l233 47q6 2 19 2q51 0 51 -51q0 -24 -13 -39t-34 -15h-8l-248 37v19zM502 1153l119 -207q10 -15 10 -37t-17.5 -35.5t-46.5 -13.5q-13 0 -25.5 11.5t-15.5 29.5l-41 246z
M473 1151l-162 -176q-22 -25 -43 -25q-20 0 -36.5 18.5t-16.5 39.5q0 12 7.5 24.5t19.5 18.5l221 114zM463 1178l-219 98q-37 15 -37 45q0 22 16 40.5t35 18.5q23 0 37 -14l178 -176z" />
    <glyph glyph-name="plus" unicode="+" horiz-adv-x="1705" 
d="M795 1221h118v-551h539v-117h-539v-553h-118v553h-541v117h541v551z" />
    <glyph glyph-name="comma" unicode="," horiz-adv-x="550" 
d="M-698 -260l-4 14q137 6 231.5 76.5t140.5 202.5q-31 -31 -61 -31q-39 0 -62.5 23.5t-23.5 62.5q0 44 33 74.5t84 30.5t83.5 -36t32.5 -94q0 -55 -33.5 -111t-91 -102t-144.5 -76t-185 -34z" />
    <glyph glyph-name="hyphen" unicode="-" horiz-adv-x="757" 
d="M-211 483h457l-66 -112h-459z" />
    <glyph glyph-name="period" unicode="." horiz-adv-x="550" 
d="M-373 195q43 0 74 -31t31 -74q0 -42 -31.5 -73t-73.5 -31q-41 0 -72.5 31.5t-31.5 72.5q0 42 31 73.5t73 31.5z" />
    <glyph glyph-name="slash" unicode="/" horiz-adv-x="569" 
d="M305 1407h98q-314 -612 -782 -1559h-96q108 217 379 758t401 801z" />
    <glyph glyph-name="zero" unicode="0" horiz-adv-x="1099" 
d="M-412 270q0 141 80 291t232 285q244 215 471 215q125 0 193.5 -70.5t68.5 -191.5q0 -157 -84.5 -314t-245.5 -295q-119 -101 -241 -155.5t-209 -54.5q-123 0 -194 76.5t-71 213.5zM270 1026q-75 0 -167.5 -69t-172.5 -195q-145 -233 -145 -473q0 -254 180 -254
q81 0 164.5 57t155.5 166q76 114 118.5 251.5t42.5 260.5t-46.5 189.5t-129.5 66.5z" />
    <glyph glyph-name="one" unicode="1" horiz-adv-x="1099" 
d="M-213 -4l469 764q6 11 68 96q-216 -118 -506 -199l-6 23q427 103 804 389l19 -14l-621 -1030l183 14l-7 -19q-133 -8 -403 -24z" />
    <glyph glyph-name="two" unicode="2" horiz-adv-x="1099" 
d="M-461 86q-11 -15 -25 -36l-21 -31.5t-16.5 -21.5t-17.5 -15.5t-18 -4.5q-23 0 -23 25q0 55 410 262q36 18 121 57.5t140 69.5t101 64q89 67 136 151t47 172q0 103 -64 170.5t-159 67.5q-84 0 -139.5 -59.5t-55.5 -149.5q0 -61 38 -102t87 -41q46 0 70 34h6
q-6 -67 -51.5 -108t-112.5 -41q-73 0 -120.5 48.5t-47.5 123.5q0 126 126.5 229t303.5 103q131 0 218 -75.5t87 -191.5q0 -141 -114 -248t-345 -190q-345 -124 -454 -198l4 -5q98 33 188 33q70 0 184 -33.5t164 -33.5q165 0 291 260l15 -6q-89 -184 -205.5 -282.5
t-235.5 -98.5q-36 0 -76 9.5t-65.5 19t-73.5 29.5t-67 28q-95 39 -156 39q-38 0 -74 -23z" />
    <glyph glyph-name="three" unicode="3" horiz-adv-x="1099" 
d="M-115 338q-30 18 -61 18q-51 0 -91 -44t-40 -109q0 -90 64 -147.5t165 -57.5q136 0 237 105t101 249q0 83 -49 130.5t-137 47.5q-34 0 -119 -10l10 23q496 27 496 307q0 79 -49.5 130.5t-120.5 51.5q-70 0 -116 -46.5t-46 -115.5q0 -53 26.5 -85.5t65.5 -32.5q33 0 62 26
l10 -4q-20 -56 -65.5 -89.5t-100.5 -33.5q-58 0 -95.5 37.5t-37.5 99.5q0 70 53.5 134t141.5 102.5t184 38.5q116 0 187 -58t71 -149q0 -122 -113.5 -194.5t-347.5 -106.5l-2 -12q16 2 49 2q107 0 169.5 -56t62.5 -149q0 -145 -154.5 -251.5t-396.5 -106.5
q-172 0 -271.5 70.5t-99.5 183.5q0 87 55 143.5t139 56.5q54 0 100.5 -24.5t72.5 -67.5z" />
    <glyph glyph-name="four" unicode="4" horiz-adv-x="1099" 
d="M-125 -4l238 377l-549 -8l971 843l112 2l-1026 -823l506 8q166 269 367 611l215 26q-224 -342 -400 -635l242 9l-23 -29l-233 -2l-203 -357z" />
    <glyph glyph-name="five" unicode="5" horiz-adv-x="1099" 
d="M-57 340q-49 27 -80 27q-58 0 -98.5 -44.5t-40.5 -113.5q0 -91 61.5 -151t155.5 -60q132 0 232.5 120.5t100.5 278.5q0 96 -52.5 150.5t-141.5 54.5q-94 0 -230 -88l-16 16l445 525q115 -80 219 -80q96 0 188 65l10 -10q-74 -87 -162 -133.5t-167 -46.5q-96 0 -181 51
l-272 -319l6 -9q130 68 250 68q130 0 209.5 -72t79.5 -182q0 -72 -41.5 -147t-116.5 -136q-149 -122 -362 -122q-178 0 -277.5 70.5t-99.5 185.5q0 88 57 146t143 58q54 0 106 -26t81 -68z" />
    <glyph glyph-name="six" unicode="6" horiz-adv-x="1099" 
d="M-39 621q153 184 318 184q102 0 162.5 -67t60.5 -181q0 -103 -55.5 -212.5t-159.5 -203.5q-90 -81 -184 -123.5t-173 -42.5q-113 0 -176 75.5t-63 211.5q0 209 119.5 423.5t345.5 397.5q163 132 351 205.5t339 73.5q130 0 203 -51.5t73 -136.5q0 -56 -38 -100t-97 -54
q12 62 12 86q0 98 -67 163.5t-170 65.5q-169 0 -384 -182t-425 -528zM203 766q-88 0 -195 -119q-81 -89 -126.5 -208.5t-45.5 -243.5q0 -94 36.5 -145.5t100.5 -51.5q91 0 181 100q79 85 128.5 216.5t49.5 256.5q0 92 -35 143.5t-94 51.5z" />
    <glyph glyph-name="seven" unicode="7" horiz-adv-x="1099" 
d="M-451 -240l1061 1207l-10 8q-126 -105 -246 -105q-72 0 -192 40t-164 40q-63 0 -109 -43q-35 -83 -54.5 -114t-45.5 -31q-10 0 -17.5 8.5t-7.5 20.5q0 19 26 46t83 72q52 84 117 217l18 -12q-79 -140 -90 -158l4 -2q119 107 238 107q62 0 172.5 -38t163.5 -38
q98 0 196 82l15 -8q-351 -461 -584.5 -795t-319.5 -483z" />
    <glyph glyph-name="eight" unicode="8" horiz-adv-x="1099" 
d="M90 702q-39 91 -39 179q0 153 110.5 250.5t272.5 97.5q144 0 238 -83.5t94 -205.5q0 -147 -101 -243.5t-278 -108.5l-2 14q110 17 178 104.5t68 213.5q0 129 -61.5 209.5t-155.5 80.5q-86 0 -143.5 -69t-57.5 -178q0 -103 92 -314q4 -9 22.5 -50t24 -54t18.5 -47
t17.5 -53.5t9 -48.5t4.5 -56q0 -159 -119.5 -262t-306.5 -103q-160 0 -255 91t-95 241q0 328 465 395zM96 686q-155 -15 -240 -108t-85 -244t72 -245.5t167 -94.5q94 0 161 82t67 203q0 22 -3.5 46t-7 43t-14.5 49.5t-16.5 46t-22 53.5t-22.5 51t-28 59t-28 59z" />
    <glyph glyph-name="nine" unicode="9" horiz-adv-x="1099" 
d="M-967 -59q26 -171 111.5 -262t218.5 -91q215 0 462.5 212t487.5 622l-8 6q-150 -205 -325 -205q-103 0 -166.5 63.5t-63.5 168.5q0 116 59 233.5t173 218.5q166 146 325 146q117 0 183.5 -79t66.5 -220q0 -194 -131 -426q-163 -289 -428 -490q-176 -132 -367.5 -204
t-349.5 -72q-165 0 -261.5 67t-96.5 170q0 53 30.5 93t79.5 49zM279 1034q-42 0 -91 -26t-90 -74q-83 -93 -132.5 -224.5t-49.5 -244.5q0 -96 37 -148.5t102 -52.5q92 0 183 105q84 96 132 221t48 254q0 88 -38.5 139t-100.5 51z" />
    <glyph glyph-name="colon" unicode=":" horiz-adv-x="550" 
d="M-373 197q43 0 74 -31t31 -74q0 -42 -31.5 -73t-73.5 -31q-41 0 -71.5 31.5t-30.5 72.5q0 42 30 73.5t72 31.5zM-66 694q43 0 74 -30.5t31 -73.5t-31 -74t-74 -31q-41 0 -72.5 32t-31.5 73q0 42 31 73t73 31z" />
    <glyph glyph-name="semicolon" unicode=";" horiz-adv-x="550" 
d="M-51 694q43 0 72.5 -30.5t29.5 -73.5t-30 -74t-72 -31q-41 0 -73 32t-32 73q0 42 31 73t74 31zM-698 -260l-4 14q137 6 231.5 76.5t140.5 202.5q-31 -31 -61 -31q-39 0 -62.5 23.5t-23.5 62.5q0 44 33 74.5t84 30.5t83.5 -36t32.5 -94q0 -55 -33.5 -111t-91 -102
t-144.5 -76t-185 -34z" />
    <glyph glyph-name="less" unicode="&#x3c;" horiz-adv-x="1705" 
d="M1442 1145v-127l-1000 -408l1000 -405v-129l-1178 483v103z" />
    <glyph glyph-name="equal" unicode="=" horiz-adv-x="1705" 
d="M254 860h1198v-117h-1198v117zM254 477h1198v-117h-1198v117z" />
    <glyph glyph-name="greater" unicode="&#x3e;" horiz-adv-x="1705" 
d="M264 1145l1178 -483v-103l-1178 -483v129l1000 405l-1000 408v127z" />
    <glyph glyph-name="question" unicode="?" horiz-adv-x="985" 
d="M-244 190q42 0 72.5 -30t30.5 -72q0 -41 -31 -71.5t-72 -30.5t-70.5 30.5t-29.5 71.5q0 42 29 72t71 30zM-180 240q20 30 43 55.5t59 52t54 39.5t70.5 45t66.5 41q104 65 157.5 145.5t53.5 165.5q0 106 -62 171t-156 65q-88 0 -149 -59t-61 -148q0 -67 34.5 -110.5
t85.5 -43.5q28 0 74 27l6 -4q-12 -55 -59.5 -91t-106.5 -36q-70 0 -115.5 48t-45.5 122q0 59 32.5 117.5t88.5 104.5t136 75t169 29q135 0 219 -73.5t84 -193.5q0 -71 -40.5 -138t-117.5 -120q-29 -19 -69.5 -40t-66.5 -32.5t-88.5 -37.5t-82.5 -35q-123 -51 -201 -148z" />
    <glyph glyph-name="at" unicode="@" horiz-adv-x="2019" 
d="M1098 965q-56 0 -101 -31.5t-90 -99.5q-74 -112 -115.5 -237.5t-41.5 -221.5q0 -94 41 -147.5t108 -53.5q131 0 242 178q59 96 92 204.5t33 195.5q0 94 -47.5 153.5t-120.5 59.5zM1190 336q-123 -211 -309 -211q-125 0 -201 92t-76 244q0 107 48.5 214.5t138.5 194.5
q66 65 146 100.5t153 35.5q177 0 221 -195l53 180h143l-170 -610q-18 -65 -18 -109q0 -47 25.5 -74.5t68.5 -27.5q32 0 77 17t87 49q121 90 186.5 230.5t65.5 315.5q0 276 -203 455q-90 79 -216 122.5t-267 43.5q-374 0 -617 -234q-264 -255 -264 -663q0 -174 57 -304
t181 -235q231 -196 581 -196q330 0 613 206l30 -36q-302 -222 -655 -222q-374 0 -616 185q-151 114 -229.5 275.5t-78.5 357.5q0 203 85.5 380.5t250.5 313.5q265 221 635 221q347 0 553.5 -187t206.5 -499q0 -158 -58 -297.5t-163 -235.5q-117 -108 -258 -108
q-195 0 -207 211z" />
    <glyph glyph-name="A" unicode="A" horiz-adv-x="1781" 
d="M504 608q-508 -631 -891 -631q-131 0 -212 62.5t-81 161.5q0 67 34.5 109t86.5 42q41 0 67.5 -26.5t26.5 -65.5t-25.5 -64.5t-64.5 -25.5q-12 0 -18 2q0 -3 -1 -8t-1 -8q0 -63 63.5 -107.5t159.5 -44.5q160 0 364 143q85 59 178 146.5t150.5 150t163.5 183.5
q92 105 135.5 153.5t125.5 134.5t158.5 152t159.5 125q210 149 459 248l12 -10q-188 -211 -333.5 -413.5t-232 -367t-130 -296.5t-43.5 -226q0 -111 74 -111q42 0 120 50.5t197 170t240 283.5l8 -6q-183 -262 -359.5 -403.5t-287.5 -141.5q-72 0 -115 53.5t-43 147.5
q0 176 131 438h-276zM518 623h268q192 349 529 696q-204 -105 -392 -274.5t-405 -421.5z" />
    <glyph glyph-name="B" unicode="B" horiz-adv-x="1933" 
d="M1020 729q134 -10 208.5 -82t74.5 -186q0 -100 -49 -194.5t-138 -162.5q-151 -118 -334 -118q-121 0 -193.5 53.5t-72.5 138.5q0 60 36 96.5t93 36.5q65 0 113 -51q-80 -89 -80 -147q0 -47 33 -76t84 -29q46 0 97 28.5t95 82.5q54 63 83.5 147t29.5 174q0 132 -67.5 196
t-205.5 64h-14l6 23h4q173 0 283.5 106t110.5 258q0 96 -76 181q-50 -45 -95 -99.5t-92.5 -131t-77 -127.5t-87.5 -158.5t-84 -155.5q-340 -614 -816 -614q-165 0 -263.5 69.5t-98.5 173.5q0 64 37 106t90 42q46 0 75 -29.5t29 -73.5q0 -74 -73 -108v-4q0 -71 54 -114.5
t142 -43.5q152 0 303 139q88 81 165.5 201t189.5 324q45 84 77.5 140t76 125t83.5 119t88.5 102t103.5 93.5t117 75.5q-177 86 -393 86q-353 0 -596 -231q-110 -105 -167.5 -224.5t-57.5 -238.5q0 -134 62 -211.5t167 -77.5q127 0 220.5 118.5t93.5 299.5q0 56 -17 139l15 4
q20 -102 20 -145q0 -212 -117 -347t-284 -135q-135 0 -224.5 95.5t-89.5 238.5q0 138 83.5 274.5t238.5 243.5q157 108 345 166t382 58q200 0 395 -62q198 82 334 88l2 -16q-117 -16 -254 -107q84 -49 123 -115t39 -159q0 -130 -100.5 -219t-284.5 -113z" />
    <glyph glyph-name="C" unicode="C" horiz-adv-x="1366" 
d="M160 406l-13 8q68 129 167 200.5t202 71.5q106 0 169 -63.5t63 -167.5q0 -86 -50.5 -176t-142.5 -164q-93 -73 -217.5 -114.5t-253.5 -41.5q-178 0 -285.5 110t-107.5 296q0 198 130 409t367 379q175 125 357 191.5t319 66.5q127 0 200 -61.5t73 -161.5
q0 -125 -114 -221.5t-267 -96.5q-99 0 -154 44t-55 120q0 53 28 107l11 -6q-25 -59 -25 -95q0 -60 40.5 -96.5t105.5 -36.5q95 0 188 84q125 116 125 264q0 62 -43.5 101t-124.5 39q-110 0 -268 -75t-308 -218q-194 -186 -296.5 -390t-102.5 -384q0 -158 79.5 -250
t211.5 -92q77 0 152 33t135 94q63 65 101 156t38 171q0 89 -44.5 141t-113.5 52q-71 0 -145 -59t-131 -168z" />
    <glyph glyph-name="D" unicode="D" horiz-adv-x="1933" 
d="M1630 1442l-2 -15q-218 -27 -375 -172q205 -193 205 -471q0 -166 -77.5 -326t-206.5 -265q-256 -211 -697 -211q-173 0 -342 30q-99 -30 -184 -30q-195 0 -195 59q0 16 19.5 28.5t50.5 12.5q45 0 150 -20.5t163 -26.5q112 21 211.5 116.5t198.5 268.5q39 67 101.5 188
t118.5 218.5t116 177.5q124 164 282 266q-168 133 -411 133q-134 0 -266 -47t-234 -133q-119 -99 -184.5 -239t-65.5 -288q0 -139 65.5 -222t166.5 -83q75 0 140.5 38.5t114.5 109.5t77.5 179t29.5 240l12 3v-60q0 -88 -27.5 -189.5t-70.5 -168.5q-62 -98 -155 -153.5
t-199 -55.5q-139 0 -223 92t-84 240q0 135 69 270t197 244q133 114 301 175.5t342 61.5q222 0 440 -125q233 132 428 150zM1221 1219q-60 -58 -117 -143t-96 -159.5t-96.5 -183t-102.5 -182.5q-137 -226 -283 -350t-364 -176q125 -29 270 -29q200 0 352.5 69t276.5 216
q110 132 174.5 304.5t64.5 334.5q0 190 -79 299z" />
    <glyph glyph-name="E" unicode="E" horiz-adv-x="1402" 
d="M197 389l-11 10q65 77 152.5 120.5t177.5 43.5q108 0 178 -62.5t70 -154.5q0 -143 -168 -250q-97 -62 -221 -97.5t-256 -35.5q-221 0 -344 93t-123 253q0 102 61.5 182.5t190.5 153.5q26 15 65 33.5t64 31.5t53 31t47.5 41t32.5 52q17 37 24 102.5t21.5 134.5t50.5 125
q62 98 186 157.5t269 59.5q133 0 211 -60.5t78 -158.5q0 -118 -99 -198.5t-258 -80.5q-70 0 -141 23l2 12q62 -16 113 -16q110 0 174.5 70.5t64.5 187.5q0 94 -50 148.5t-138 54.5q-70 0 -129 -39.5t-96 -110.5q-26 -50 -42.5 -163.5t-41.5 -163.5q-17 -33 -41 -59.5
t-54 -45.5t-56 -32t-62.5 -30t-57.5 -28q-119 -64 -183.5 -166.5t-64.5 -222.5q0 -149 106 -244.5t275 -95.5q165 0 275 102.5t110 245.5q0 84 -48.5 133t-127.5 49q-116 0 -239 -135z" />
    <glyph glyph-name="F" unicode="F" horiz-adv-x="1630" 
d="M-328 199v-9q0 -80 71 -138t173 -58q187 0 347.5 157t326.5 488h-39h-49l2 14h57l13 1q12 1 24 1q249 496 676 580l2 8q-204 8 -311 8q-577 0 -875.5 -104.5t-298.5 -294.5q0 -100 85.5 -167t225.5 -67q206 0 336.5 105.5t130.5 267.5q0 47 -6 76l12 2q11 -37 11 -82
q0 -63 -23 -130.5t-63 -119.5q-74 -96 -182.5 -149t-225.5 -53q-144 0 -232.5 81.5t-88.5 206.5q0 90 51.5 171.5t157.5 151.5t256.5 121t359.5 80t455 29q98 0 267.5 -6.5t235.5 -7.5q103 -2 128 -12q31 -14 32 -52q0 -33 -38.5 -53t-112.5 -20q-43 0 -106 3t-81 3
q-99 0 -165.5 -28.5t-137.5 -102.5q-118 -124 -278 -436q160 0 227 41q8 13 53 71q88 8 207 8q-152 -109 -260.5 -225.5t-177.5 -263.5l-13 8q48 137 170 363q-70 -21 -215 -21q-167 -330 -390 -499t-478 -169q-171 0 -283 79.5t-112 183.5q0 57 35 97t82 40q43 0 72.5 -28
t29.5 -68q0 -66 -70 -82z" />
    <glyph glyph-name="G" unicode="G" horiz-adv-x="1290" 
d="M-281 211q-4 -18 -4 -47q0 -73 57 -122.5t148 -49.5q158 0 303 138.5t297 424.5q-81 -93 -191 -145t-212 -52q-122 0 -193 76.5t-71 206.5q0 179 121.5 341.5t357.5 293.5q-17 47 -17 98q0 74 38 125.5t108 73.5l4 -12q-135 -48 -135 -187q0 -37 16 -90q320 146 569 146
q133 0 207 -48t74 -129q0 -94 -107 -162.5t-278 -68.5q-147 0 -252.5 43.5t-181.5 136.5q-154 -114 -244 -276.5t-90 -309.5q0 -100 45.5 -154t126.5 -54q92 0 188 61.5t154 165.5q14 24 31 59.5t28.5 55.5t24.5 30q16 12 60.5 26.5t80.5 14.5q43 0 43 -28q0 -17 -8.5 -33.5
t-28 -44.5t-30.5 -47q-8 -14 -55 -107.5t-91 -163.5q-127 -202 -313 -311t-391 -109q-150 0 -243 73t-93 183q0 69 34.5 111.5t90.5 42.5q42 0 68 -25t26 -65q0 -32 -19 -55.5t-53 -30.5zM389 1217q123 -164 334 -164q152 0 251 71t99 168q0 54 -46.5 87.5t-125.5 33.5
q-114 0 -246.5 -49.5t-265.5 -146.5z" />
    <glyph glyph-name="H" unicode="H" horiz-adv-x="1830" 
d="M625 711h266q198 338 502 540q124 81 238 122.5t196 41.5q50 0 79 -24.5t29 -63.5q0 -34 -21 -56t-54 -22q-26 0 -48 17.5t-32 48.5q-9 29 -23 42t-39 13q-75 0 -195.5 -96t-260.5 -277q-175 -226 -267 -453.5t-92 -365.5q0 -60 29.5 -94.5t77.5 -34.5q84 0 199 117.5
t300 376.5l13 -8q-201 -290 -346 -425t-277 -135q-87 0 -133.5 56.5t-46.5 163.5q0 179 158 491h-269q-374 -684 -817 -684q-117 0 -189.5 51t-72.5 121q0 44 30 74.5t72 30.5q38 0 62 -26t24 -67q0 -71 -65 -86q19 -38 62 -61t98 -23q80 0 144.5 48.5t145.5 156.5
q83 110 230 349.5t219 344.5q133 195 286 309t353 160q-295 0 -533 -41t-390.5 -112t-234 -164.5t-81.5 -200.5q0 -74 45.5 -120t124.5 -46q115 0 200 78t85 176q0 49 -31 103l14 6q33 -68 33 -113q0 -96 -82 -178q-119 -119 -289 -119q-114 0 -183 63t-69 163
q0 196 269.5 337t762.5 175q96 7 223 9.5t158 4.5q34 3 96.5 20t88.5 17q43 0 43 -29q0 -33 -82 -33h-27q-96 0 -183.5 -41.5t-174 -129.5t-168.5 -206.5t-180 -291.5z" />
    <glyph glyph-name="I" unicode="I" horiz-adv-x="1337" 
d="M-262 100q50 -84 164 -84q75 0 140 37t132 115q55 63 116.5 156t154.5 244.5t153 244.5q62 95 114.5 165t118 139t133.5 117.5t154 87.5t185 62h-52q-295 0 -533 -41t-390.5 -112t-234 -164.5t-81.5 -200.5q0 -74 46.5 -120t125.5 -46q117 0 202 79.5t85 174.5
q0 51 -33 105l15 4q30 -48 30 -100q0 -127 -108.5 -218.5t-259.5 -91.5q-114 0 -184 63.5t-70 162.5q0 196 271 337.5t765 174.5q109 7 261 8.5t196 7.5q26 4 82.5 17.5t81.5 13.5q36 0 36 -25q0 -18 -17.5 -23.5t-65.5 -8.5q-9 -1 -13 -1q-108 -6 -190.5 -40t-171.5 -119
q-80 -76 -156.5 -187.5t-170.5 -271t-155 -248.5q-88 -131 -167.5 -222.5t-168 -159t-184.5 -100t-205 -32.5q-123 0 -197.5 51t-74.5 123q0 44 29.5 74.5t70.5 30.5q38 0 63 -26t25 -67q0 -33 -17.5 -56t-49.5 -30z" />
    <glyph glyph-name="J" unicode="J" horiz-adv-x="1251" 
d="M137 76q60 105 153 273.5t146 263.5t125.5 206.5t136.5 186.5q247 284 564 376h-76q-300 0 -541 -43t-396.5 -118.5t-238 -177t-82.5 -220.5q0 -88 53.5 -142t139.5 -54q104 0 184 82.5t80 187.5q0 57 -31 121l13 4q32 -75 32 -125q0 -128 -103.5 -221.5t-250.5 -93.5
q-123 0 -200.5 74t-77.5 184q0 219 279.5 360t819.5 180q126 9 270 13t167 6q27 2 90 13t92 11q47 0 47 -26q0 -17 -23.5 -23t-76.5 -6q-61 0 -142 8q-51 -13 -101 -40t-96.5 -63t-97 -93t-94.5 -113.5t-99 -142.5t-100.5 -162.5t-107.5 -191t-112.5 -209.5t-123.5 -236
q315 68 562 407l10 -8q-240 -347 -584 -418q-185 -340 -410.5 -512t-482.5 -172q-156 0 -245 64t-89 170q0 114 101.5 189t308.5 120q109 24 313 56.5t295 54.5zM133 59q-81 -18 -260.5 -48t-263.5 -54q-157 -42 -239.5 -123.5t-82.5 -189.5q0 -94 57 -149.5t154 -55.5
q157 0 305 149.5t330 470.5z" />
    <glyph glyph-name="K" unicode="K" horiz-adv-x="1857" 
d="M1536 516q-178 -259 -354 -401t-283 -142q-63 0 -105 44.5t-42 113.5q0 50 15.5 95.5t47.5 109.5l30 60t28.5 57.5t21 46.5t16 48.5t4.5 41.5q0 48 -29 76t-83 28q-10 0 -25 -2t-20 -2q-31 0 -31 19q0 16 37 16q5 0 33 -4t49 -4q53 0 105 18.5t107 59.5t102.5 85
t115.5 115q11 11 46 47.5t48 50t44 44t49.5 47t46 39.5t53.5 41t53 34q163 97 309 97q97 0 152 -40.5t55 -107.5q0 -61 -49 -102t-127 -41q-5 0 -14.5 1t-14.5 1q53 89 53 160q0 50 -23.5 80t-58.5 30q-67 0 -159 -92q-37 -37 -150.5 -169.5t-195.5 -207.5
q-215 -197 -547 -200q85 -30 132.5 -94.5t47.5 -147.5q0 -32 -9 -69.5t-17 -59.5t-27 -70q-6 -16 -19.5 -49t-18 -46.5t-12 -34.5t-10 -34.5t-2.5 -25.5q0 -27 14.5 -42.5t37.5 -15.5q81 0 238 133.5t321 372.5zM-422 186q-2 -14 -2 -24q0 -74 54.5 -121t146.5 -47
q97 0 182.5 40t165 124t150 190.5t155.5 263.5q49 90 79 142.5t77.5 126.5t88.5 124t98 104t120 97q115 79 360 170h-65q-223 0 -432 -32t-350 -80q-205 -70 -321 -188t-116 -242q0 -86 49.5 -136.5t133.5 -50.5q105 0 188.5 84t83.5 189q0 65 -39 124l12 5q41 -68 41 -131
q0 -124 -107.5 -223t-252.5 -99q-117 0 -192.5 69.5t-75.5 172.5q0 209 269 350.5t775 183.5q106 9 198.5 13t152 5t63.5 1q22 2 84 12t96 10q33 0 45 -4t12 -20q0 -27 -73 -27q-21 0 -58.5 4t-54.5 4h-31q-153 -41 -286.5 -181t-274.5 -390q-21 -37 -73.5 -133t-80 -142
t-73.5 -117.5t-93 -125.5t-100 -101q-109 -97 -246.5 -148.5t-279.5 -51.5q-150 0 -245 69t-95 170q0 62 34.5 101.5t84.5 39.5q41 0 68.5 -28t27.5 -68q0 -34 -20 -56t-52 -22h-6z" />
    <glyph glyph-name="L" unicode="L" horiz-adv-x="1175" 
d="M-27 -281q9 37 9 70q0 116 -81.5 180t-234.5 64h-20q-244 -84 -371 -84q-74 0 -74 37q0 67 406 67h37q72 24 138.5 75t113.5 103t111.5 159.5t101 177t113.5 222.5q29 57 44 87q-151 27 -235 105.5t-84 186.5q0 94 62 159t157 65q52 0 113 -23l-5 -10q-67 18 -104 18
q-90 0 -148.5 -61t-58.5 -152q0 -100 82.5 -174t228.5 -100q102 172 241 296.5t280.5 183.5t277.5 59q104 0 162.5 -46t58.5 -122q0 -101 -102.5 -189t-300.5 -155q-201 -68 -397 -68h-48q-79 -169 -158 -295t-173 -227.5t-204 -170.5t-243 -110q90 4 123 4
q167 0 255.5 -55.5t88.5 -157.5v-4q91 117 709 694l8 -12q-208 -198 -287.5 -274.5t-195.5 -189.5t-164.5 -164.5t-69.5 -82.5q-18 -77 -66.5 -123.5t-101.5 -46.5q-19 0 -30 6.5t-11 16.5q0 5 2 9.5t7 11t9.5 11t13.5 14t15 15.5zM455 866q18 -2 34 -2h23q115 0 232.5 30.5
t193.5 76.5q99 60 155 143.5t56 161.5q0 63 -33.5 97t-93.5 34q-133 0 -282 -138.5t-285 -402.5z" />
    <glyph glyph-name="M" unicode="M" horiz-adv-x="2048" 
d="M-582 160v-8q0 -72 51.5 -112t147.5 -40q170 0 373 166q55 45 109.5 100t115.5 127.5t103.5 126.5t118.5 153t118 152q376 481 838 602l6 -20q-251 -78 -436 -457q-21 -43 -61 -129t-66 -142t-72.5 -141t-90 -151.5t-107 -146.5t-134.5 -152l4 -4q162 107 312 264
q89 94 194 232.5t205 267t190 215.5q185 176 372.5 266t348.5 90q45 0 70.5 -10.5t25.5 -26.5q0 -11 -13.5 -18.5t-35.5 -7.5q-28 0 -161 18q-77 -20 -168 -121q-47 -53 -89 -112.5t-79 -127t-63 -119.5t-64 -133.5t-60 -125.5q-241 -484 -608 -617q25 -2 70 -2
q291 0 486 120.5t343 391.5l14 -6q-138 -268 -344.5 -397t-498.5 -129q-4 0 -121 6q-58 -4 -78 -4q-84 0 -84 29q0 18 39 18q31 0 154 -22q46 22 86 52.5t75 73t63 83.5t59 100.5t53.5 106t56.5 119.5t59 122q248 489 629 680l-8 10q-176 -48 -357 -181t-340 -337
q-33 -43 -117.5 -154.5t-130.5 -170t-121.5 -144t-146.5 -150.5q-181 -169 -370 -260l-15 15q50 52 92.5 111.5t78.5 129t60.5 123t60 137.5t56.5 129q113 249 255 424t354 299l-4 11q-65 -26 -134.5 -66.5t-156.5 -105t-184.5 -162t-190.5 -217.5q-23 -30 -96 -125
t-99.5 -128.5t-86 -107t-95 -112.5t-85 -89t-95.5 -89q-212 -179 -414 -179q-130 0 -209.5 63t-79.5 159q0 65 32.5 105t84.5 40q41 0 66.5 -25t25.5 -65q0 -37 -22 -62.5t-53 -25.5h-11z" />
    <glyph glyph-name="N" unicode="N" horiz-adv-x="1783" 
d="M-383 176q6 -70 53 -107.5t127 -37.5q220 0 457.5 288.5t458.5 847.5q22 133 67.5 202t110.5 69q11 0 43 -8l-45 -97q-4 -31 -4 -78q0 -37 6 -88t13 -89.5t22 -117.5t22 -120q51 -296 51 -465q0 -6 -1 -30.5t-1 -41.5q236 544 455 818t416 274q87 0 137.5 -50t50.5 -137
q0 -83 -63.5 -142.5t-175.5 -74.5l-5 17q53 12 86 53t33 94q0 52 -41.5 87.5t-109.5 35.5q-394 0 -899 -1323h-29q6 49 6 96q0 114 -25 284t-60 392.5t-50 411.5q-484 -1157 -969 -1157q-126 0 -208.5 69t-82.5 166q0 67 42 113.5t98 46.5q41 0 69.5 -29t28.5 -72
q0 -37 -22.5 -64t-61.5 -36z" />
    <glyph glyph-name="O" unicode="O" horiz-adv-x="1593" 
d="M647 1315q-143 -21 -293 -170q-166 -165 -261 -382.5t-95 -428.5q0 -157 58 -241.5t159 -84.5q77 0 171.5 48.5t196 150.5t179.5 239q-133 72 -204 188.5t-71 262.5q0 217 160 418zM684 1331q156 -3 156 -178q0 -22 -2 -51l-17 2q2 27 2 51q0 83 -36 122.5t-111 39.5h-6
q-101 -135 -101 -387q0 -343 201 -469q93 189 139.5 347.5t46.5 315.5q0 117 -43 183.5t-110 66.5q-58 0 -119 -43zM1300 545l11 -10q-146 -146 -330 -146q-71 0 -154 25q-167 -213 -358.5 -329t-347.5 -116q-149 0 -228 91t-79 264q0 229 117.5 448.5t334.5 388.5
q187 147 393 168q109 92 215 92t171 -79.5t65 -217.5q0 -151 -68.5 -333t-201.5 -363q77 -25 143 -25q175 0 317 142z" />
    <glyph glyph-name="P" unicode="P" horiz-adv-x="1669" 
d="M2 31q-142 -56 -305 -56q-117 0 -183.5 24t-66.5 58q0 21 23 29t77 8q118 0 447 -49q87 15 187.5 114t199.5 273q30 52 97 174t102 181t92.5 148t114 154.5t120.5 122.5q122 110 262 177q-108 30 -223 30q-161 0 -335.5 -53.5t-317.5 -148.5q-170 -113 -263 -268.5
t-93 -313.5q0 -99 45 -155t122 -56q128 0 222 135q90 128 90 260q0 39 -6 76l14 2q6 -40 6 -74q0 -118 -54.5 -220.5t-144.5 -162t-190 -59.5q-115 0 -186.5 72t-71.5 194q0 149 112.5 296t331.5 278q171 102 364 157.5t361 55.5q135 0 244 -33q150 69 277 78l4 -13
q-154 -20 -232 -80q109 -49 169.5 -130t60.5 -175q0 -145 -128 -257.5t-305 -112.5q-82 0 -130 34.5t-48 85.5q0 37 31 64t78 27q43 0 78 -23q-36 -21 -57 -53.5t-21 -63.5q0 -55 61 -55q65 0 146 84q61 64 97 155.5t36 182.5q0 74 -26.5 131.5t-72.5 85.5
q-102 -72 -221 -227q-71 -92 -134.5 -198t-128 -226t-103.5 -183q-120 -197 -263.5 -318.5t-326.5 -174.5q150 -27 278 -27q701 0 1022 518l13 -8q-181 -288 -389 -417.5t-496 -129.5q-156 0 -463 56z" />
    <glyph glyph-name="Q" unicode="Q" horiz-adv-x="1478" 
d="M-74 61q-193 -79 -334 -79q-210 0 -210 84q0 47 88.5 78.5t236.5 31.5q135 0 346 -37q384 188 597.5 435t213.5 473q0 146 -83 235.5t-218 89.5q-171 0 -291 -124t-120 -302q0 -129 63 -202.5t168 -73.5q163 0 297 184l12 -10q-72 -104 -173 -161.5t-204 -57.5
q-129 0 -210.5 78t-81.5 200q0 97 57.5 192.5t165.5 174.5q195 141 420 141q177 0 281 -94.5t104 -253.5q0 -230 -246.5 -467.5t-728.5 -460.5q235 -55 364 -55q153 0 274 49.5t221 144t214 256.5l12 -6q-404 -573 -807 -573q-93 0 -192.5 27.5t-235.5 82.5zM-92 72
q-204 84 -309 84q-41 0 -70 -21t-29 -49q0 -35 38 -56.5t104 -21.5q141 0 266 64z" />
    <glyph glyph-name="R" unicode="R" horiz-adv-x="1857" 
d="M-420 190q-2 -18 -2 -34q0 -70 58.5 -115t156.5 -45q93 0 175 40.5t161.5 128t151 197t161.5 275.5q63 115 113 197.5t111 168t120.5 145t132 110.5t152.5 83q-146 82 -369 82q-380 0 -651 -217q-132 -108 -203 -235t-71 -252q0 -118 62 -186t163 -68q96 0 184.5 63.5
t144.5 176.5t56 245q0 28 -8 94l12 5q8 -47 8 -103q0 -105 -35 -199.5t-95 -162.5t-144.5 -108t-179.5 -40q-143 0 -227.5 81.5t-84.5 219.5q0 118 78.5 244.5t220.5 224.5q162 111 372.5 172.5t438.5 61.5q216 0 396 -66q137 49 254 58v-13q-118 -15 -205 -67
q180 -100 180 -271q0 -151 -132.5 -251t-365.5 -109l-8 -12q162 -61 162 -209q0 -70 -45 -193q-5 -13 -19 -50t-18.5 -51t-12.5 -40t-11 -45t-3 -37q0 -72 62 -72q75 0 226 134t321 380l12 -6q-177 -265 -342 -405t-283 -140q-78 0 -122 43.5t-44 120.5q0 90 74 254
q6 13 20 43.5t19.5 42.5t15 35t13 35.5t7 28t3.5 28.5q0 107 -152 107l11 20q14 -2 43 -2q169 0 283 116.5t114 280.5q0 100 -80 177q-114 -68 -211 -205.5t-229 -386.5q-54 -101 -87.5 -160.5t-82.5 -136.5t-100.5 -136.5t-110.5 -109.5q-110 -93 -243.5 -143t-270.5 -50
q-146 0 -242 71.5t-96 176.5q0 62 32 98.5t85 36.5q36 0 63 -27.5t27 -66.5q0 -33 -18.5 -53t-51.5 -23z" />
    <glyph glyph-name="S" unicode="S" horiz-adv-x="1138" 
d="M-416 346q-26 -57 -26 -102q0 -115 88 -186.5t235 -71.5q225 0 348 194q24 38 42.5 86.5t29.5 89.5t21 111t14.5 111t13 133.5t12.5 136.5q24 246 130 377q74 95 170.5 144.5t201.5 49.5q123 0 199 -59t76 -146q0 -73 -55 -121.5t-138 -48.5q-17 0 -41 3q72 84 72 174
q0 75 -47 125.5t-119 50.5q-116 0 -179.5 -120t-88.5 -372q-5 -47 -11.5 -136t-12 -138.5t-15.5 -117.5t-27.5 -124t-42.5 -106q-76 -149 -219.5 -232.5t-329.5 -83.5q-208 0 -328 99t-120 256q0 96 43.5 156.5t105.5 60.5q43 0 75 -27.5t32 -60.5q0 -50 -24 -79.5
t-60 -29.5q-5 0 -25 4z" />
    <glyph glyph-name="T" unicode="T" horiz-adv-x="1630" 
d="M-117 199v-4q0 -88 69 -143.5t181 -55.5q209 0 385 197q62 70 121.5 165t136.5 233.5t127 219.5q213 345 584 430l-2 4q-255 6 -377 6q-539 0 -821.5 -108.5t-282.5 -298.5q0 -96 86.5 -158.5t231.5 -62.5q205 0 334.5 108.5t129.5 267.5q0 18 -12 72l12 4q13 -44 13 -82
q0 -126 -80 -245q-68 -97 -181.5 -155t-236.5 -58q-145 0 -233 79t-88 201q0 117 87 220.5t249 182.5t414 125t562 46q117 0 300 -11.5t251 -11.5q38 0 60 -15.5t22 -41.5q0 -80 -153 -80q-23 0 -84 2t-97 2q-159 0 -266.5 -93t-239.5 -329q-24 -43 -90 -163.5t-97.5 -174
t-90.5 -134t-119 -136.5q-240 -226 -569 -226q-170 0 -276.5 75.5t-106.5 189.5q0 57 35.5 96t87.5 39q37 0 65.5 -27.5t28.5 -66.5q0 -32 -19.5 -56t-50.5 -28z" />
    <glyph glyph-name="U" unicode="U" horiz-adv-x="1705" 
d="M655 401q-171 -203 -337.5 -310t-282.5 -107q-67 0 -105.5 38.5t-38.5 106.5q0 24 6 51t22.5 64.5t30 65t46 82t51.5 85.5t65.5 105t69.5 112q183 297 226 376q77 145 77 220q0 109 -120 109q-73 0 -167 -39.5t-178 -112.5q-202 -181 -202 -377q0 -67 35 -107t90 -40
q52 0 118 42.5t132 125.5l12 -6q-73 -93 -150.5 -141t-150.5 -48q-82 0 -131 50.5t-49 136.5q0 93 73.5 200.5t208.5 198.5q103 69 219 107t209 38q102 0 159.5 -48.5t57.5 -131.5q0 -27 -7.5 -58.5t-29 -77.5t-39 -80.5t-59.5 -103.5t-67.5 -109.5l-85 -135t-91.5 -145.5
q-67 -105 -90 -143t-60 -104t-49 -104.5t-12 -72.5t19.5 -55t46.5 -21q128 0 340 188q91 80 186.5 198t177.5 255l410 686l213 10l-543 -872q-194 -310 -194 -416q0 -28 19 -48t48 -20q82 0 240 130.5t346 375.5l14 -6q-200 -265 -369 -400.5t-294 -135.5q-72 0 -113 42.5
t-41 116.5q0 107 97 252z" />
    <glyph glyph-name="V" unicode="V" horiz-adv-x="1554" 
d="M-53 -47q53 75 98 178.5t68 177t65 224t62 215.5q55 187 137.5 320.5t222.5 242.5l-2 8q-139 -50 -282.5 -92.5t-147.5 -44.5q-358 -134 -358 -353q0 -71 39.5 -115t101.5 -44q75 0 130.5 67t55.5 164v39l10 4q0 -3 3.5 -22.5t3.5 -28.5q0 -107 -69 -178.5t-175 -71.5
q-90 0 -149.5 57.5t-59.5 141.5q0 123 99.5 206.5t303.5 141.5q24 7 177.5 47.5t256 72.5t207.5 74l11 -18q-48 -29 -87.5 -70.5t-68.5 -86t-57.5 -109.5t-49 -123.5t-47.5 -145.5q-15 -49 -41.5 -138t-42.5 -141t-43.5 -130t-53 -133.5t-63.5 -119.5t-81 -118
q514 305 778.5 593t276.5 552q-52 27 -52 90q0 43 29.5 70.5t73.5 27.5q52 0 83 -39.5t31 -107.5q0 -256 -343.5 -578.5t-1034.5 -721.5z" />
    <glyph glyph-name="W" unicode="W" horiz-adv-x="2048" 
d="M8 86q20 31 39 76.5t47 137t43.5 144.5t57.5 203q26 92 47 156t53 139.5t67.5 132t86.5 114.5t114 105l-6 13q-390 -110 -570 -221t-180 -263q0 -81 38 -126.5t102 -45.5q78 0 131 70.5t53 181.5q0 5 -1 17.5t-1 19.5l10 2q0 -5 2 -21.5t2 -27.5q0 -122 -67 -195
t-176 -73q-90 0 -147.5 55.5t-57.5 142.5q0 112 93 194.5t288 153.5q48 17 278.5 88.5t386.5 131.5l11 -19q-90 -33 -169.5 -148.5t-138.5 -305.5q-12 -37 -50 -165t-54 -176t-48 -139t-63.5 -155t-68.5 -123q414 351 708 764q86 225 269 370q52 40 96.5 62t62.5 22
q27 0 27 -18q0 -11 -5.5 -21.5t-22 -26.5t-29.5 -26.5t-44.5 -36t-50.5 -41.5q-16 -19 -30.5 -40t-28 -47.5t-23 -45.5t-21.5 -53.5t-18 -51.5t-18 -58.5t-16 -56.5t-16.5 -64t-16.5 -62q-60 -228 -121 -384.5t-145 -272.5q447 257 702 557.5t281 570.5q-64 25 -64 88
q0 41 31 71t74 30q50 0 80 -40.5t30 -109.5q0 -97 -51 -210.5t-157 -243.5t-259 -265t-368 -280t-473 -283l-17 14q66 83 124 225t89.5 254t93.5 361q9 34 13 51q-278 -373 -715 -747q-58 -71 -110.5 -108.5t-86.5 -37.5q-15 0 -23.5 7t-8.5 18q0 9 4 16.5t14.5 16t21 15.5
t30.5 20t36 24z" />
    <glyph glyph-name="X" unicode="X" horiz-adv-x="1781" 
d="M508 406q-143 -196 -344.5 -309t-382.5 -113q-122 0 -192 45.5t-70 117.5q0 54 33 89.5t79 35.5q49 0 81 -29t32 -71q0 -32 -29 -72q18 -36 60.5 -56.5t103.5 -20.5q183 0 438 264q127 130 240 342q154 293 154 512q0 122 -62.5 195t-167.5 73q-139 0 -256 -117
q-78 -79 -126 -199.5t-48 -234.5q0 -111 53.5 -177.5t135.5 -66.5q91 0 174.5 74t124.5 203l14 -4q-42 -152 -151.5 -245t-235.5 -93q-118 0 -187 76.5t-69 205.5q0 120 67.5 241.5t192.5 221.5q201 160 397 160q147 0 233.5 -86.5t86.5 -226.5q0 -51 -10 -97
q178 195 383.5 301.5t367.5 106.5q96 0 151.5 -42.5t55.5 -109.5q0 -51 -31 -81.5t-82 -30.5q-38 0 -61 19t-23 50q0 6 2 17.5t2 17.5q0 41 -43.5 72t-111.5 31q-101 0 -231.5 -83t-266.5 -241q-125 -148 -215 -360q-102 -239 -102 -402q0 -120 52.5 -183t152.5 -63
q118 0 274.5 125t308.5 359l17 -10q-174 -269 -360.5 -411t-348.5 -142q-128 0 -203.5 78t-75.5 210q0 37 19 134z" />
    <glyph glyph-name="Y" unicode="Y" horiz-adv-x="1593" 
d="M-201 -195q-67 31 -104 31q-69 0 -116.5 -54.5t-47.5 -137.5q0 -106 63.5 -169t169.5 -63q157 0 330.5 169t392.5 519l193 310l-8 8q-170 -211 -340.5 -323.5t-286.5 -112.5q-72 0 -110.5 37.5t-38.5 105.5q0 80 65 202t222 370q15 22 22 34q62 97 83.5 131.5t65.5 107
t60 104.5t38.5 80t29.5 80t7 62q0 42 -34.5 72.5t-87.5 30.5q-85 0 -182 -43.5t-181 -124.5q-84 -82 -130 -177t-46 -173q0 -70 34.5 -112t86.5 -42q116 0 244 162l10 -12q-65 -88 -146.5 -135.5t-154.5 -47.5q-80 0 -127 48.5t-47 131.5q0 100 70 206.5t200 195.5
q104 71 217.5 109t214.5 38q105 0 163 -44t58 -124q0 -53 -32.5 -130.5t-68.5 -138t-123 -198.5q-28 -44 -42 -67q-178 -279 -250 -410t-72 -198q0 -32 20.5 -55t51.5 -23q96 0 275 141q207 166 329 365l502 821l219 12q-119 -185 -235.5 -372t-184 -299t-150 -250
t-104.5 -174q-116 -192 -210 -326.5t-185 -231.5q-150 -158 -327 -242.5t-347 -84.5q-161 0 -257.5 72.5t-96.5 183.5q0 101 68 167t172 66q111 0 200 -63z" />
    <glyph glyph-name="Z" unicode="Z" horiz-adv-x="1441" 
d="M358 991q-46 -85 -119 -131.5t-153 -46.5q-90 0 -145.5 53.5t-55.5 143.5q0 97 55 182.5t147.5 136.5t197.5 51q19 0 40 -2.5t37 -4.5t42.5 -9.5t38.5 -10.5t44 -14t40.5 -14t46 -17t44.5 -16q151 -57 259 -57q86 0 134 25t95 79q36 43 56.5 60.5t43.5 17.5q25 0 25 -26
q0 -22 -34.5 -46.5t-101.5 -67t-116 -87.5q-105 -97 -140.5 -129.5t-176.5 -160t-249.5 -221.5t-285.5 -243.5t-358 -296.5l6 -8q170 98 286 98t267 -65q153 -66 245 -66q131 0 256 104.5t279 327.5l12 -6q-179 -270 -363 -412.5t-339 -142.5q-31 0 -59.5 4.5t-61 17
t-48.5 19.5t-55 27.5t-49 25.5l-34 17t-35 17t-30 13.5t-32 14t-27.5 10t-30.5 9t-27 4.5t-29 2q-53 0 -108 -25t-87 -64q-26 -31 -35 -41.5t-26 -28t-28 -23t-22 -5.5q-24 0 -24 27q0 35 100 98q28 18 68.5 50.5t72 61t97 87.5t104.5 94q184 165 267 239.5t296.5 257
t417.5 345.5l-10 10q-189 -109 -319 -109q-101 0 -238 58q-14 5 -47.5 19t-49 20t-45 16t-49.5 14.5t-46.5 8.5t-51.5 4q-96 0 -164.5 -70.5t-68.5 -163.5q0 -79 58 -136.5t140 -57.5q141 0 246 163z" />
    <glyph glyph-name="bracketleft" unicode="[" horiz-adv-x="796" 
d="M-516 -403h260v-25h-422l1116 1765h402l-6 -24h-267z" />
    <glyph glyph-name="backslash" unicode="\" horiz-adv-x="1128" 
d="M236 1407q24 -82 79 -268t170 -576t211 -715h-92q-262 902 -457 1559h89z" />
    <glyph glyph-name="bracketright" unicode="]" horiz-adv-x="796" 
d="M225 1337h422l-1120 -1765h-401l6 25h266l1087 1716h-260v24z" />
    <glyph glyph-name="asciicircum" unicode="^" horiz-adv-x="2048" 
d="M934 1462h178l520 -565h-92l-518 436l-520 -436h-90z" />
    <glyph glyph-name="underscore" unicode="_" 
d="M0 -365h1024v-118h-1024v118z" />
    <glyph glyph-name="grave" unicode="`" 
d="M-37 1272h168q39 -140 39 -340v-64v-61h-18q-70 233 -189 459v6z" />
    <glyph glyph-name="a" unicode="a" horiz-adv-x="1062" 
d="M-27 156q-166 -172 -303 -172q-77 0 -121.5 48.5t-44.5 133.5q0 83 39 176t109 170q87 97 199 152t206 55q65 0 107.5 -32.5t54.5 -92.5l45 88l205 12q-188 -286 -267 -424t-79 -200q0 -24 14 -40t35 -16q65 0 218.5 135.5t346.5 387.5l13 -9q-229 -285 -382 -418
t-278 -133q-55 0 -89 35t-34 92q0 25 6 52zM-219 51q102 0 229 176q150 209 150 371q0 48 -23.5 74t-64.5 26q-117 0 -246 -172q-68 -91 -103.5 -185t-35.5 -165q0 -60 25 -92.5t69 -32.5z" />
    <glyph glyph-name="b" unicode="b" horiz-adv-x="985" 
d="M668 522q-52 -72 -102 -106.5t-107 -34.5q-84 0 -152 65q-34 -132 -128 -240t-216.5 -167t-245.5 -59q-100 0 -155.5 49t-55.5 135q0 66 36 143.5t116 204.5l522 840l211 4l-629 -983q-114 -180 -114 -281q0 -47 23 -72.5t63 -25.5q60 0 145 66.5t160 187.5
q95 154 111 287q-23 51 -23 79q0 47 26 77t60 30q51 0 78.5 -41.5t27.5 -116.5q0 -47 -8 -88q22 -35 62.5 -56.5t83.5 -21.5q100 0 200 133z" />
    <glyph glyph-name="c" unicode="c" horiz-adv-x="833" 
d="M63 442q48 122 48 174q0 86 -68 86q-39 0 -99.5 -39t-119.5 -112q-135 -167 -135 -322q0 -89 48 -138.5t130 -49.5q130 0 293.5 122.5t335.5 360.5l10 -6q-184 -262 -384.5 -401.5t-367.5 -139.5q-117 0 -182.5 61t-65.5 169q0 189 191 348q96 81 201.5 123.5t199.5 42.5
q86 0 132 -34.5t46 -96.5q0 -63 -49.5 -106.5t-126.5 -43.5q-19 0 -37 2z" />
    <glyph glyph-name="d" unicode="d" horiz-adv-x="1062" 
d="M-12 166q-73 -87 -156 -133.5t-151 -46.5q-76 0 -122 51t-46 133q0 210 174 375q90 87 190 131.5t195 44.5q65 0 107 -34.5t48 -94.5l463 774l213 10l-653 -1040q-123 -195 -123 -268q0 -22 14.5 -37t36.5 -15q41 0 119 52t196.5 174t235.5 288l12 -8
q-189 -265 -353 -402.5t-275 -137.5q-131 0 -131 122q0 19 6 62zM-209 51q44 0 106.5 45.5t122.5 128.5q70 96 109 199t39 172q0 51 -24.5 80t-63.5 29q-46 0 -102 -35.5t-113 -104.5q-84 -103 -129 -207.5t-45 -175.5q0 -62 27.5 -96.5t72.5 -34.5z" />
    <glyph glyph-name="e" unicode="e" horiz-adv-x="833" 
d="M514 518q-192 -267 -394 -406t-380 -139q-101 0 -167.5 63.5t-66.5 160.5q0 98 55 198.5t156 182.5q84 67 181.5 105t179.5 38t129 -33t47 -88q0 -93 -136.5 -166t-420.5 -139q-6 -54 -6 -57q0 -94 47.5 -145.5t132.5 -51.5q122 0 289.5 123.5t343.5 359.5zM-301 313
q183 48 292 146t109 186q0 55 -55 55q-33 0 -79.5 -26.5t-96 -73.5t-96 -123t-74.5 -164z" />
    <glyph glyph-name="f" unicode="f" horiz-adv-x="530" 
d="M-403 696h174l123 197q151 238 317 363.5t317 125.5q106 0 168 -49t62 -123q0 -63 -44 -105t-116 -42q-26 0 -63 6q45 99 45 180q0 107 -88 107q-71 0 -176.5 -115.5t-235.5 -341.5l-119 -203h475l-10 -22h-477l-295 -508q-217 -376 -459.5 -556.5t-540.5 -180.5
q-166 0 -267 73.5t-101 192.5q0 105 77.5 172t200.5 67q62 0 136 -18l-5 -20h-18q-92 0 -150.5 -62.5t-58.5 -150.5q0 -100 63.5 -165t168.5 -65q86 0 168 36t156.5 99t158.5 169.5t161 225.5t177 289l235 402h-174z" />
    <glyph glyph-name="g" unicode="g" horiz-adv-x="1062" 
d="M-791 -160h-10q-90 0 -140 -52.5t-50 -145.5q0 -104 63.5 -169t157.5 -65q119 0 257 94.5t259 268.5q59 85 118 179t92.5 147t53.5 75l-10 4q-174 -192 -313 -192q-85 0 -133 49.5t-48 138.5q0 93 53 199t146 192q81 75 174 115.5t174 40.5q149 0 170 -131l43 94l195 12
q-109 -204 -178 -327l-230 -404q167 46 333.5 188t350.5 386l13 -9q-172 -239 -346 -385.5t-367 -208.5q-153 -265 -373.5 -404.5t-474.5 -139.5q-163 0 -256.5 69.5t-93.5 186.5q0 98 81 156.5t234 58.5q21 0 58 -6zM-215 51q42 0 97 37t112 107q80 99 126 212t46 185
q0 53 -26 81.5t-72 28.5q-89 0 -209 -141q-79 -92 -124.5 -200.5t-45.5 -188.5q0 -57 26 -89t70 -32z" />
    <glyph glyph-name="h" unicode="h" horiz-adv-x="985" 
d="M664 539l8 -9q-216 -279 -359.5 -411.5t-240.5 -132.5q-57 0 -92 40.5t-35 108.5q0 91 65 180l125 170q62 86 62 136q0 26 -13.5 41.5t-36.5 15.5q-45 0 -136.5 -68t-198.5 -192q-150 -177 -246 -408l-215 -10l809 1360l215 10l-398 -637q-99 -158 -251 -379l16 -4
q138 182 268 277.5t217 95.5q61 0 95 -34.5t34 -94.5q0 -79 -82 -195l-112 -157q-72 -100 -72 -164q0 -53 49 -53q57 0 192.5 130.5t332.5 383.5z" />
    <glyph glyph-name="i" unicode="i" horiz-adv-x="550" 
d="M76 1137q43 0 73.5 -31t30.5 -74q0 -42 -31 -73t-73 -31t-73.5 31t-31.5 73q0 43 31 74t74 31zM231 520q-198 -265 -362.5 -401.5t-271.5 -136.5q-59 0 -93 36t-34 97q0 78 75 204l224 373l200 6l-295 -475q-57 -94 -57 -153q0 -19 14 -33t37 -14q71 0 219.5 129.5
t333.5 373.5z" />
    <glyph glyph-name="j" unicode="j" horiz-adv-x="548" 
d="M59 1137q43 0 74 -31t31 -74q0 -42 -31.5 -73t-73.5 -31q-41 0 -72.5 31.5t-31.5 72.5q0 43 30.5 74t73.5 31zM-1296 -154q-101 0 -155 -54.5t-54 -153.5q0 -102 63.5 -164t171.5 -62q154 0 338.5 168t353.5 486l332 624l199 8l-414 -735q353 107 680 567l10 -6
q-168 -238 -347.5 -385.5t-352.5 -195.5q-158 -266 -377 -406.5t-463 -140.5q-167 0 -263.5 67.5t-96.5 174.5q0 102 74 163.5t208 61.5q33 0 91 -4z" />
    <glyph glyph-name="k" unicode="k" horiz-adv-x="985" 
d="M-653 0l815 1362l213 12l-381 -608q-90 -145 -279 -430l13 -8q145 192 276 289.5t234 97.5q58 0 93.5 -32.5t35.5 -82.5q0 -77 -82.5 -131t-255.5 -94q48 -30 69 -62t21 -77q0 -22 -19.5 -77t-19.5 -83q0 -53 49 -53q59 0 201.5 129.5t320.5 369.5l11 -10
q-194 -265 -353 -401t-266 -136q-64 0 -100.5 34.5t-36.5 92.5q0 43 23 93.5t46 91t23 59.5q0 12 -6 21q-92 -37 -119 -37q-15 0 -24 6.5t-9 17.5q0 19 19.5 31t56.5 12q36 0 90 -14q82 14 134.5 70.5t52.5 119.5q0 35 -20.5 55.5t-53.5 20.5q-44 0 -114 -49t-152 -143
q-231 -262 -304 -451z" />
    <glyph glyph-name="l" unicode="l" horiz-adv-x="540" 
d="M217 524q-189 -266 -353.5 -404t-275.5 -138q-62 0 -95.5 33t-33.5 94q0 53 45.5 149t141.5 256l508 846l219 16q-63 -97 -191 -303l-444 -719q-129 -208 -129 -276q0 -53 55 -53q64 0 215 132t326 373z" />
    <glyph glyph-name="m" unicode="m" horiz-adv-x="1484" 
d="M1161 539l8 -9q-216 -278 -360.5 -411t-241.5 -133q-57 0 -92 40.5t-35 108.5q0 86 66 180l125 170q63 84 63 140q0 23 -14 38t-37 15q-44 0 -136.5 -69t-199.5 -193q-149 -177 -244 -406l-217 -10l267 444q34 57 46 77.5t25 52t13 51.5q0 23 -14.5 38t-37.5 15
q-44 0 -136 -68.5t-199 -193.5q-149 -177 -244 -406l-215 -10l413 698l220 9l-258 -353l16 -4q139 181 269 277t218 96q55 0 87 -32t32 -85q0 -90 -125 -252l15 -4q138 181 269 277t218 96q61 0 95 -34.5t34 -94.5q0 -71 -80 -186l-117 -166q-69 -96 -69 -158q0 -59 51 -59
q55 0 190.5 131.5t331.5 382.5z" />
    <glyph glyph-name="n" unicode="n" horiz-adv-x="985" 
d="M664 539l8 -9q-216 -279 -359.5 -411.5t-240.5 -132.5q-57 0 -92 40.5t-35 108.5q0 91 65 180l125 170q62 82 62 140q0 23 -14.5 38t-37.5 15q-44 0 -136 -68.5t-199 -193.5q-149 -177 -244 -406l-215 -10l413 698l220 9l-258 -353l16 -4q138 182 268 277.5t217 95.5
q61 0 95 -34.5t34 -94.5q0 -76 -77 -186l-117 -166q-72 -100 -72 -158q0 -59 53 -59q55 0 190 131.5t331 382.5z" />
    <glyph glyph-name="o" unicode="o" horiz-adv-x="985" 
d="M676 530q-62 -73 -116 -108t-109 -35q-86 0 -132 84q-18 -151 -145 -287q-90 -98 -201 -151t-215 -53q-118 0 -181.5 65t-63.5 184q0 99 60.5 199t176.5 188q153 117 318 117q217 0 258 -196q14 -73 42 -105.5t87 -32.5q50 0 99.5 34.5t111.5 105.5zM59 719
q-104 0 -229 -184q-79 -118 -119.5 -232t-40.5 -190q0 -55 25 -86t65 -31q114 0 252 221q140 225 140 385q0 57 -24 87t-69 30z" />
    <glyph glyph-name="p" unicode="p" horiz-adv-x="985" 
d="M0 1087l195 13l-258 -408q-73 -118 -183 -268l13 -6q114 158 208 232.5t191 74.5q70 0 115 -51.5t45 -136.5q0 -149 -154 -320q276 67 490 322l12 -9q-216 -262 -520 -333q-110 -99 -215.5 -149t-192.5 -50q-35 0 -55.5 16t-20.5 43q0 57 75 84.5t259 55.5
q141 211 141 362q0 52 -20.5 80.5t-56.5 28.5q-64 0 -173.5 -114.5t-234.5 -326.5l-489 -829l-187 -6zM-8 180q-256 -30 -256 -129q0 -41 39 -41q32 0 90.5 44t126.5 126z" />
    <glyph glyph-name="q" unicode="q" horiz-adv-x="1062" 
d="M-494 -643l187 315q175 286 303 486l-8 6q-171 -180 -314 -180q-77 0 -122.5 52.5t-45.5 145.5q0 99 57.5 209t157.5 191q78 63 172.5 99t165.5 36q75 0 114 -37.5t48 -116.5l58 119l210 18l-436 -733q171 43 343.5 184.5t334.5 376.5l12 -6q-168 -243 -347 -389.5
t-355 -189.5l-315 -576zM-215 53q99 0 209 146q83 109 125.5 215t42.5 174q0 55 -25.5 84.5t-68.5 29.5q-37 0 -87.5 -29t-103.5 -85q-87 -91 -138.5 -209.5t-51.5 -208.5q0 -55 26.5 -86t71.5 -31z" />
    <glyph glyph-name="r" unicode="r" horiz-adv-x="825" 
d="M-637 -2l393 684l230 14q-143 -213 -262 -362l10 -10q149 191 348 325q22 34 49.5 46.5t77.5 15.5l108 8q-96 -145 -96 -227q0 -41 20.5 -66t49.5 -25q105 0 198 121l9 -8q-53 -73 -129.5 -114.5t-153.5 -41.5q-78 0 -122 42t-44 114q0 57 23 107q-293 -184 -508 -609z
" />
    <glyph glyph-name="s" unicode="s" horiz-adv-x="774" 
d="M-479 199q-33 -20 -33 -74q0 -59 39.5 -96t107.5 -37q80 0 136.5 53t56.5 123q0 39 -17.5 75t-54.5 85q-33 43 -45 60t-26.5 51.5t-14.5 68.5q0 89 82.5 152t202.5 63q98 0 157.5 -43.5t59.5 -110.5q0 -53 -39.5 -92t-97.5 -39q-16 0 -55 17q49 73 49 137
q0 50 -29.5 81.5t-71.5 31.5q-44 0 -75 -37t-31 -93q0 -41 16 -76.5t49 -82.5q4 -6 20 -28.5t20.5 -29.5t17 -26t16.5 -29t10.5 -27t8.5 -32t2 -31q0 -67 -46.5 -123t-121.5 -76v-12q319 55 630 528l11 -6q-349 -553 -772 -553q-135 0 -210 57t-75 156q0 73 42 120.5
t103 47.5q41 0 65.5 -23.5t24.5 -62.5q0 -35 -21 -57.5t-52 -22.5q-9 0 -39 13z" />
    <glyph glyph-name="t" unicode="t" horiz-adv-x="569" 
d="M258 522q-386 -542 -649 -542q-70 0 -108 34.5t-38 96.5q0 83 86 231l197 342h-152l15 23h153l136 225l204 12l-145 -237h246l-17 -23h-247l-228 -383q-92 -159 -92 -231q0 -56 53 -56q85 0 239.5 133t334.5 383z" />
    <glyph glyph-name="u" unicode="u" horiz-adv-x="1011" 
d="M-18 258q-108 -135 -207 -205.5t-174 -70.5q-60 0 -98 35.5t-38 93.5q0 42 22 93.5t69 131.5l202 350l213 12q-179 -267 -261.5 -409.5t-82.5 -198.5q0 -53 54 -53q86 0 239.5 168.5t319.5 480.5l200 12q-106 -167 -151 -239.5t-101.5 -169.5t-76 -146.5t-19.5 -81.5
q0 -19 13 -31t32 -12q67 0 213 132.5t332 379.5l10 -8q-205 -272 -354 -405t-254 -133q-59 0 -94 35.5t-35 93.5q0 76 37 137z" />
    <glyph glyph-name="v" unicode="v" horiz-adv-x="985" 
d="M-233 688l208 10q-168 -232 -248.5 -379t-80.5 -233q0 -43 23 -67.5t61 -24.5q50 0 119.5 46.5t136.5 133.5q74 95 112.5 192.5t38.5 180.5q-14 32 -14 59q0 50 26.5 80.5t65.5 30.5q46 0 73 -44.5t27 -125.5q0 -31 -6 -80q67 -70 142 -70q114 0 200 127l11 -6
q-39 -66 -94 -101.5t-115 -35.5q-82 0 -148 63q-47 -179 -194 -305q-90 -76 -197 -119t-197 -43q-101 0 -159 52.5t-58 140.5q0 19 3.5 39.5t7.5 36.5t14.5 39.5t16.5 36.5t22.5 41.5t23.5 39.5t28 44.5t28 44.5z" />
    <glyph glyph-name="w" unicode="w" horiz-adv-x="1441" 
d="M-8 242q-183 -260 -348 -260q-71 0 -111.5 41.5t-40.5 113.5q0 123 115 301l157 250l216 10q-172 -232 -253 -374.5t-81 -227.5q0 -69 69 -69t168 104.5t217 306.5l148 252l207 8q-172 -238 -254 -384.5t-82 -227.5q0 -44 21.5 -68t58.5 -24q52 0 127 52.5t145 146.5
q123 164 145 342q-22 52 -22 86q0 42 24 69t58 27q50 0 78 -42.5t28 -117.5q0 -33 -10 -88q47 -74 137 -74q105 0 199 131l12 -8q-99 -141 -215 -141q-72 0 -137 65q-57 -207 -230 -334.5t-370 -127.5q-86 0 -134 46t-48 128q0 38 12 82z" />
    <glyph glyph-name="x" unicode="x" horiz-adv-x="1150" 
d="M-104 154q-93 -83 -196.5 -126.5t-197.5 -43.5q-92 0 -145 42.5t-53 110.5q0 55 35 93t86 38q35 0 58 -22.5t23 -57.5q0 -33 -21 -57.5t-50 -24.5h-10v-8q0 -43 30 -68.5t82 -25.5q60 0 137 45.5t146 128.5q78 94 122 198.5t44 174.5q0 55 -28.5 86t-72.5 31
q-92 0 -209 -156l-10 10q140 199 297 199q78 0 128 -45.5t56 -122.5q178 166 342 166q78 0 123 -34t45 -89q0 -56 -36.5 -95.5t-90.5 -39.5q-25 0 -55 12q29 74 29 121q0 100 -70 100q-39 0 -98 -37.5t-117 -107.5q-71 -87 -109 -177t-38 -163q0 -77 39.5 -119.5
t109.5 -42.5q112 0 271.5 125.5t336.5 366.5l9 -9q-192 -271 -388.5 -413t-351.5 -142q-85 0 -139 48t-63 131z" />
    <glyph glyph-name="y" unicode="y" horiz-adv-x="995" 
d="M-823 -158q-18 2 -35 2q-74 0 -125 -60t-51 -151q0 -97 61 -158t160 -61q123 0 249.5 82.5t246.5 243.5q78 105 183 288.5t134 227.5l-12 6q-110 -136 -214 -207t-182 -71q-58 0 -92.5 35t-34.5 92q0 16 3 33t6 30t11.5 33.5t13 31t17.5 35t18 33.5t22 38t22 38l178 307
l207 8q-178 -271 -258 -411.5t-80 -192.5q0 -26 16.5 -42.5t41.5 -16.5q36 0 95.5 41t132.5 117t159.5 206t162.5 289l189 10l-404 -721q152 42 325.5 186t322.5 369l14 -4q-150 -229 -327 -377.5t-349 -199.5q-159 -272 -380 -414.5t-468 -142.5q-167 0 -261.5 66
t-94.5 175q0 105 77.5 166.5t217.5 61.5q18 0 84 -8z" />
    <glyph glyph-name="z" unicode="z" horiz-adv-x="925" 
d="M612 530q-205 -274 -381 -414.5t-303 -140.5q-52 0 -113.5 27.5t-119 55.5t-98.5 28q-28 0 -54.5 -17t-44 -37.5t-36 -37.5t-31.5 -17q-11 0 -19 7t-8 16q0 15 23 30.5t87 51.5t124 78q8 6 63.5 47.5t109.5 81t153.5 107t205.5 134.5l-4 11q-47 -13 -86 -13
q-67 0 -157 28t-113 28q-43 0 -75 -17.5t-67 -58.5l-8 10q140 199 291 199q55 0 158.5 -38t154.5 -38q34 0 72 12q44 80 78 80q10 0 17 -7t7 -15q0 -16 -28 -37.5t-112 -78.5t-159 -114q-190 -145 -303 -217q-65 -41 -131 -78l4 -10q18 2 33 2q57 0 165.5 -41t168.5 -41
q48 0 97 20t93.5 52t102 92.5t107.5 120.5t126 156z" />
    <glyph glyph-name="braceleft" unicode="{" 
d="M846 1516v-52q-77 -1 -124.5 -14t-74.5 -46t-37 -80t-10 -124v-143q0 -85 -6 -141t-23 -106.5t-49 -82t-83 -55t-126 -37.5q75 -14 126 -37.5t83 -55t49 -82t23 -106.5t6 -141v-143q0 -77 9.5 -124t37.5 -79.5t75 -45.5t124 -14v-51h-10q-149 0 -230.5 33t-115 106
t-33.5 207v213q0 155 -57.5 216.5t-223.5 74.5v60q167 15 224 75t57 215v213q0 134 33.5 207t115 106.5t230.5 33.5h10z" />
    <glyph glyph-name="bar" unicode="|" 
d="M449 1565h126v-2048h-126v2048z" />
    <glyph glyph-name="braceright" unicode="}" 
d="M178 1516h10q218 0 298.5 -75t80.5 -272v-213q0 -155 57 -215t224 -75v-60q-166 -13 -223.5 -74.5t-57.5 -216.5v-213q0 -197 -80.5 -271.5t-298.5 -74.5h-10v51q77 1 124 14t75 45.5t37.5 79.5t9.5 124v143q0 85 6 141t23 106.5t49 82t83 55t126 37.5q-75 14 -126 37.5
t-83 55t-49 82t-23 106.5t-6 141v143q0 77 -10 124t-37 80t-74.5 46t-124.5 14v52z" />
    <glyph glyph-name="asciitilde" unicode="~" horiz-adv-x="1705" 
d="M1530 758v-131q-202 -144 -387 -144q-88 0 -191 35q-29 10 -99 35t-104.5 35.5t-87.5 21.5t-98 11q-87 0 -178.5 -39.5t-206.5 -120.5v133q210 145 387 145q50 0 104.5 -10.5t91 -22t95.5 -32.5q9 -3 40.5 -14.5t43 -15.5t38.5 -13t42.5 -12.5t38.5 -8t44 -6.5t42 -2
q89 0 180.5 38.5t204.5 117.5z" />
    <glyph glyph-name="exclamdown" unicode="&#xa1;" horiz-adv-x="757" 
d="M139 811q-43 -71 -80 -140t-70 -142t-50 -112.5t-48 -116.5t-36 -89q-50 -126 -67 -154q-40 -66 -99 -67q-37 0 -61.5 23.5t-24.5 60.5q0 13 4 27.5t9.5 27.5t18.5 32.5t22.5 33.5t30.5 39.5t34 41.5t40.5 48.5t44.5 52.5q55 67 82.5 101.5t100 135t137.5 205.5zM223 856
q-43 0 -72.5 29.5t-29.5 72.5q0 42 29.5 71.5t72.5 29.5q41 0 72 -30.5t31 -70.5q0 -42 -30 -72t-73 -30z" />
    <glyph glyph-name="cent" unicode="&#xa2;" horiz-adv-x="1099" 
d="M268 467q47 120 47 172q0 34 -6 51.5t-24 26.5l-336 -608q56 -46 119 -46q146 0 319 144l10 -12q-112 -95 -226.5 -144t-211.5 -49q-42 0 -65 6l-84 -147l-19 10l80 141q-160 48 -160 219q0 188 191 347q181 152 374 167l93 166l22 -8l-88 -155q85 0 131.5 -36t46.5 -98
q0 -63 -49.5 -106t-126.5 -43q-21 0 -37 2zM-66 127l330 600h-8q-79 0 -180 -98q-86 -83 -134 -184.5t-48 -190.5q0 -79 40 -127z" />
    <glyph glyph-name="sterling" unicode="&#xa3;" horiz-adv-x="1705" 
d="M123 63q-187 -90 -381 -90q-136 0 -212.5 44t-76.5 112q0 65 68 103t194 38q89 0 199 -28.5t270 -85.5q126 99 246 391q-369 8 -563 10l12 14l563 2q105 243 154 334q-169 42 -259.5 132.5t-90.5 209.5q0 106 72 178t174 72q82 0 133 -43t51 -108q0 -40 -29 -84l-12 6
q24 44 24 82q0 50 -33 82t-85 32q-78 0 -132.5 -68t-54.5 -171q0 -112 69 -198t181 -107q124 241 309.5 375.5t360.5 134.5q99 0 153 -43.5t54 -120.5t-65.5 -167.5t-170.5 -142.5q-185 -90 -399 -90q-26 0 -84 4q-18 -36 -62.5 -136t-74.5 -158q188 -11 419 -11l-8 -14
l-426 -4q-127 -248 -372 -414q248 -86 395 -86q192 0 310 90.5t149 263.5l12 -4q-35 -204 -190.5 -331t-366.5 -127q-189 0 -424 122zM74 86q-301 154 -453 154q-123 0 -123 -74q0 -62 82 -119t201 -57q164 0 293 96zM768 887q43 -6 84 -6q110 0 204.5 32t157 85.5t97.5 123
t35 144.5q0 65 -34 104t-89 39q-97 0 -220 -134.5t-235 -387.5z" />
    <glyph glyph-name="currency" unicode="&#xa4;" horiz-adv-x="1241" 
d="M158 1419l207 -207q120 91 256 91q140 0 260 -91l204 207l72 -73l-205 -205q86 -115 86 -256t-86 -256l205 -205l-72 -74l-204 207q-113 -88 -260 -88q-143 0 -256 88l-207 -207l-72 74l207 205q-88 117 -88 256t88 256l-207 205zM623 1200q-130 0 -222 -92t-92 -221
q0 -131 92 -223.5t222 -92.5t221.5 93t91.5 223q0 129 -91.5 221t-221.5 92z" />
    <glyph glyph-name="yen" unicode="&#xa5;" horiz-adv-x="1099" 
d="M197 1038l-11 -14l-127 -8l31 -320h326l194 199q54 54 54 84q0 40 -74 43l-55 2l4 14h385l-6 -18l-97 -4q-26 -2 -80 -36t-118 -103l-168 -181h245l-12 -22h-262l-236 -244h349l-15 -22h-352l-43 -37l-145 -348l153 -9l-6 -14h-477l10 14l158 9l155 356l-2 29h-393l12 22
h377l-24 244h-250l12 22h234l-33 320l-139 8l12 14h414zM94 674l29 -277l268 277h-297z" />
    <glyph glyph-name="brokenbar" unicode="&#xa6;" 
d="M449 1432h126v-758h-126v758zM449 408h126v-758h-126v758z" />
    <glyph glyph-name="section" unicode="&#xa7;" 
d="M668 1075q59 73 59 152q0 86 -46.5 138t-121.5 52q-84 0 -146.5 -66.5t-62.5 -160.5q0 -59 32 -128.5t99 -176.5q41 -66 59.5 -99.5t36 -81t17.5 -88.5q0 -119 -87.5 -198.5t-258.5 -114.5q20 -62 20 -100q0 -130 -111.5 -218.5t-297.5 -88.5q-143 0 -229.5 71.5
t-86.5 175.5q0 88 70.5 146.5t185.5 58.5h25q-143 -79 -143 -217q0 -90 58.5 -150.5t151.5 -60.5q109 0 184 58.5t75 144.5q0 48 -19.5 101.5t-42 92.5t-68.5 109q-67 101 -99 170.5t-32 138.5q0 237 344 299q-26 63 -26 111q0 123 102.5 208t268.5 85q128 0 207 -59.5
t79 -141.5q0 -62 -56 -111.5t-140 -50.5zM244 1012q-108 -6 -169 -70t-61 -166q0 -34 10 -69.5t34.5 -82t45.5 -82t64 -104.5t70 -114q109 14 166 74.5t57 164.5q0 48 -20.5 103t-45.5 97t-73 118.5t-78 130.5z" />
    <glyph glyph-name="dieresis" unicode="&#xa8;" 
d="M-14 1026q0 31 25.5 55.5t60.5 24.5q32 0 57 -25t25 -59q0 -33 -25.5 -57.5t-60.5 -24.5q-34 0 -58 24t-24 62zM352 1022q0 35 24.5 59.5t59.5 24.5q33 0 58.5 -25.5t25.5 -58.5q0 -32 -26.5 -57t-61.5 -25q-34 0 -57 24t-23 58z" />
    <glyph glyph-name="copyright" unicode="&#xa9;" horiz-adv-x="1683" 
d="M844 1382q137 0 266 -53t227 -151q98 -97 152.5 -228.5t54.5 -271.5q0 -139 -53 -267.5t-154 -230.5q-98 -100 -225 -152.5t-270 -52.5q-291 0 -496 205q-101 100 -154 227.5t-53 270.5q0 140 53 268.5t152 229.5q98 99 228 152.5t272 53.5zM844 1303q-123 0 -237 -48.5
t-201 -136.5q-88 -89 -134.5 -202.5t-46.5 -237.5q0 -125 47.5 -238.5t135.5 -201.5q181 -181 434 -181q256 0 434 181q182 185 182 440q0 124 -47 240t-133 202q-87 87 -200.5 135t-233.5 48zM1120 1096h35l2 -314h-41q-68 275 -280 275q-122 0 -185 -94t-63 -279
q0 -381 266 -381q170 0 283 174l34 -24q-117 -209 -342 -209q-167 0 -285 123.5t-118 296.5q0 188 116 313t285 125q55 0 104 -17t81 -34t45 -17q27 0 42 14.5t21 47.5z" />
    <glyph glyph-name="ordfeminine" unicode="&#xaa;" horiz-adv-x="757" 
d="M401 1042q-117 -120 -213 -120q-54 0 -84 34.5t-30 94.5q0 58 27.5 123.5t74.5 117.5q62 68 140 106t143 38q95 0 114 -88l31 63l144 8q-135 -207 -188.5 -300t-53.5 -136q0 -17 10 -28t25 -11q44 0 152 94t235 265l12 -9q-283 -376 -444 -376q-99 0 -99 88q0 8 4 36z
M266 977q69 0 158 123q98 133 98 248q0 32 -16 49.5t-43 17.5q-71 0 -148 -92q-112 -136 -112 -266q0 -36 17.5 -58t45.5 -22z" />
    <glyph glyph-name="guillemotleft" unicode="&#xab;" 
d="M-51 16l-238 301l422 318l8 -12l-282 -306l100 -292zM252 16l-236 301l420 318l8 -12l-282 -306l100 -292z" />
    <glyph glyph-name="logicalnot" unicode="&#xac;" horiz-adv-x="1705" 
d="M254 858h1198v-502h-115v385h-1083v117z" />
    <glyph glyph-name="registered" unicode="&#xae;" horiz-adv-x="1683" 
d="M844 1382q138 0 268.5 -54t228.5 -152q97 -97 150 -228t53 -272q0 -136 -55.5 -267t-157.5 -233q-201 -201 -495 -201q-137 0 -263 52.5t-227 152.5t-154 227.5t-53 270.5q0 140 53 268.5t152 229.5q98 99 228 152.5t272 53.5zM844 1303q-122 0 -236 -48.5t-202 -136.5
q-88 -89 -134.5 -202.5t-46.5 -237.5q0 -257 183 -440q181 -181 434 -181q256 0 434 181q182 185 182 440q0 124 -47 241t-133 201q-87 87 -200.5 135t-233.5 48zM469 1092h393q150 0 234 -55t84 -146q0 -76 -69.5 -124.5t-217.5 -74.5q94 -29 142.5 -77.5t70.5 -133.5
q5 -19 9 -45.5t6.5 -42.5t8 -32t17 -23.5t29.5 -7.5q67 0 67 133h43v-12q0 -88 -41 -133.5t-119 -45.5q-95 0 -127 66q-19 40 -21.5 114.5t-8.5 94.5q-39 133 -207 133h-33v-248q0 -55 27 -76t98 -24v-41h-385v41q71 2 99 23.5t28 76.5v516q0 56 -27 77t-100 24v43zM729 719
q33 -2 66 -2q114 0 174.5 45.5t60.5 128.5q0 71 -51.5 116.5t-144.5 45.5q-105 0 -105 -72v-262z" />
    <glyph glyph-name="macron" unicode="&#xaf;" 
d="M510 973h-547l49 84h545z" />
    <glyph glyph-name="degree" unicode="&#xb0;" horiz-adv-x="673" 
d="M338 1454q117 0 200 -83t83 -200q0 -116 -83 -199t-202 -83q-118 0 -199.5 81.5t-81.5 200.5t82.5 201t200.5 82zM338 1372q-84 0 -143.5 -58.5t-59.5 -142.5q0 -85 59.5 -143.5t143.5 -58.5q85 0 143 59t58 143t-58.5 142.5t-142.5 58.5z" />
    <glyph glyph-name="plusminus" unicode="&#xb1;" horiz-adv-x="1705" 
d="M795 1180h118v-344h539v-117h-539v-344h-118v344h-541v117h541v344zM254 158h1198v-117h-1198v117z" />
    <glyph glyph-name="twosuperior" unicode="&#xb2;" horiz-adv-x="724" 
d="M-305 467q-7 -9 -16 -21.5t-14 -19t-11.5 -13t-11.5 -9.5t-11 -3q-14 0 -14 17q0 32 270 155q28 13 80 35.5t90 41t68 38.5q121 83 121 195q0 62 -43 102.5t-105 40.5q-55 0 -92 -36.5t-37 -90.5q0 -36 25.5 -61t58.5 -25q28 0 45 23h4q-3 -41 -33 -66t-75 -25
q-47 0 -79 29.5t-32 73.5q0 76 83.5 137.5t201.5 61.5q87 0 144 -45t57 -115q0 -84 -75 -148t-228 -114q-226 -73 -299 -119l2 -2q67 18 125 18q46 0 121 -20.5t108 -20.5q108 0 192 158l9 -4q-59 -111 -135 -170t-154 -59q-32 0 -61.5 7.5t-71 23t-56.5 20.5
q-64 24 -102 24q-27 0 -49 -14z" />
    <glyph glyph-name="threesuperior" unicode="&#xb3;" horiz-adv-x="724" 
d="M-76 618q-19 11 -41 11q-34 0 -60 -26t-26 -66q0 -53 42.5 -88t109.5 -35q89 0 156 63.5t67 149.5q0 50 -32.5 78t-90.5 28q-27 0 -80 -6l8 14q328 15 328 185q0 47 -32.5 77.5t-79.5 30.5t-77 -27t-30 -69q0 -32 17 -52t42 -20q17 0 41 17l7 -2q-12 -33 -42.5 -53.5
t-66.5 -20.5q-38 0 -63 22.5t-25 59.5q0 64 76.5 114t173.5 50q76 0 123 -34.5t47 -88.5q0 -73 -74.5 -116.5t-228.5 -63.5l-2 -9q10 2 32 2q70 0 112 -33t42 -89q0 -88 -102 -151.5t-263 -63.5q-113 0 -178 42t-65 109q0 53 36 87t91 34q75 0 114 -55z" />
    <glyph glyph-name="acute" unicode="&#xb4;" 
d="M184 825l314 430h204l-509 -438z" />
    <glyph glyph-name="mu" unicode="&#xb5;" horiz-adv-x="1120" 
d="M164 193q-15 -79 -28 -161.5t-19.5 -138.5t-14 -111t-14.5 -88.5t-18.5 -61t-28 -39t-41.5 -11.5q-37 0 -58.5 23.5t-21.5 64.5q0 35 23.5 122.5t68 252t78.5 326.5l109 514h147l-104 -492q-13 -67 -13 -112q0 -83 42.5 -129t117.5 -46q97 0 163 68t95 201l111 510h149
l-114 -531q-21 -103 -21 -137q0 -49 26 -78.5t66 -29.5q73 0 117 69q19 29 32.5 70t23 62.5t24.5 21.5q26 0 26 -37q0 -62 -40 -150q-73 -163 -230 -163q-67 0 -108 50.5t-41 139.5v23q-92 -218 -281 -218q-195 0 -223 216z" />
    <glyph glyph-name="paragraph" unicode="&#xb6;" 
d="M948 1479v-78h-125v-1401h-94v1401h-184v-1401h-94v782q-173 7 -274 102t-101 246q0 156 106.5 252.5t286.5 96.5h479z" />
    <glyph glyph-name="periodcentered" unicode="&#xb7;" horiz-adv-x="550" 
d="M-160 625q43 0 74 -31t31 -74q0 -42 -31.5 -73t-73.5 -31q-41 0 -71.5 31.5t-30.5 72.5q0 42 30 73.5t72 31.5z" />
    <glyph glyph-name="cedilla" unicode="&#xb8;" 
d="M-162 -6l-94 -154q6 0 18.5 1t18.5 1q63 0 103 -35t40 -88q0 -85 -107.5 -147t-297.5 -74v17q126 11 203 58.5t77 100.5q0 31 -24.5 48.5t-69.5 17.5q-15 0 -43 -4l154 258h22z" />
    <glyph glyph-name="onesuperior" unicode="&#xb9;" horiz-adv-x="724" 
d="M-141 414l311 458q6 12 43 58q-148 -72 -334 -119l-4 12q288 64 533 234l12 -8l-410 -619l119 8l-4 -10q-40 -2 -129.5 -7t-136.5 -7z" />
    <glyph glyph-name="ordmasculine" unicode="&#xba;" horiz-adv-x="757" 
d="M455 1425q-57 0 -129 -90q-62 -79 -99 -170t-37 -143q0 -86 62 -86q79 0 170 149q94 151 94 263q0 77 -61 77zM950 1298q-105 -102 -200 -102q-74 0 -111 64q-16 -92 -78.5 -172t-146.5 -125t-166 -45q-84 0 -129 45t-45 129q0 144 166 270q111 82 221 82q74 0 115 -30.5
t65 -100.5q1 -4 6.5 -22t7.5 -22.5t8.5 -17.5t12.5 -17t15.5 -11t23 -9t30.5 -2q45 0 97.5 25.5t97.5 71.5z" />
    <glyph glyph-name="guillemotright" unicode="&#xbb;" 
d="M178 635l238 -301l-422 -318l-8 13l282 303l-100 293zM-125 635l236 -301l-420 -318l-8 13l282 303l-100 293z" />
    <glyph glyph-name="onequarter" unicode="&#xbc;" horiz-adv-x="1417" 
d="M-375 -45q510 589 1034 1231l127 8q-565 -658 -1030 -1229zM-319 473l303 492q8 12 43 61q-155 -83 -328 -129l-2 18q281 68 522 254l12 -8l-407 -678zM408 -6l155 244l-356 -5l631 549h71l-659 -532l323 8q123 197 238 391l137 19q-144 -221 -256 -408l158 4l-16 -22
l-152 -2l-133 -232z" />
    <glyph glyph-name="onehalf" unicode="&#xbd;" horiz-adv-x="1460" 
d="M258 55q-7 -10 -16 -23.5t-14 -20.5t-11.5 -14t-12.5 -10t-14 -3t-8 12q0 23 60 66.5t168 95.5q30 14 78 36t75.5 34.5t60.5 31t56 35.5q57 43 88 97.5t31 111.5q0 67 -39.5 109t-102.5 42q-57 0 -93 -37t-36 -94q0 -40 25 -67t57 -27q26 0 43 23h11q-6 -42 -38.5 -69.5
t-74.5 -27.5q-47 0 -78 32t-31 79q0 81 81.5 148t197.5 67q85 0 142 -48.5t57 -123.5q0 -96 -75.5 -164t-232.5 -125q-74 -26 -106 -38t-85.5 -36.5t-92.5 -50.5l2 -6q64 23 110 23q53 0 130 -21.5t104 -21.5q105 0 188 170l15 -4q-59 -121 -134 -184.5t-153 -63.5
q-53 0 -148 41t-137 41q-26 0 -47 -15zM-319 473l303 492q8 12 43 61q-155 -83 -328 -129l-2 18q281 68 522 254l12 -8l-407 -678zM-375 -45q510 589 1034 1231l127 8q-565 -658 -1030 -1229z" />
    <glyph glyph-name="threequarters" unicode="&#xbe;" horiz-adv-x="1632" 
d="M621 -6l153 244l-354 -5l631 549h71l-659 -532l323 8q123 197 238 391l137 19q-144 -221 -256 -408l158 4l-16 -22l-152 -2l-133 -232zM-162 -45q515 593 1034 1231l127 8q-514 -596 -1032 -1229zM-119 698q-30 15 -43 15q-33 0 -56.5 -28.5t-23.5 -70.5q0 -57 42 -93
t108 -36q91 0 155 66t64 156q0 54 -32.5 84t-92.5 30q-6 0 -72 -4l7 19q162 11 240.5 59.5t78.5 138.5q0 52 -29 83.5t-77 31.5q-45 0 -76 -29t-31 -71q0 -34 17 -56t42 -22q23 0 41 18l9 -4q-36 -80 -111 -80q-36 0 -61 25t-25 65q0 69 73 122.5t171 53.5q76 0 122 -35
t46 -89q0 -173 -297 -203l-2 -8q10 0 20 -1l10 -1q70 0 110 -34.5t40 -94.5q0 -94 -97.5 -164t-242.5 -70q-118 0 -187 46.5t-69 119.5q0 56 36 92.5t91 36.5q67 0 110 -61z" />
    <glyph glyph-name="questiondown" unicode="&#xbf;" horiz-adv-x="985" 
d="M350 799q-14 -22 -29.5 -41t-39 -39.5t-36.5 -32t-46 -33.5l-42 -28t-51.5 -32t-48.5 -30q-104 -65 -157.5 -145.5t-53.5 -165.5q0 -106 61.5 -171t155.5 -65q88 0 149.5 60t61.5 149q0 66 -34.5 109t-81.5 43q-40 0 -78 -25l-6 2q12 55 59 91t107 36q70 0 115.5 -47
t45.5 -121q0 -79 -54.5 -154t-154.5 -124t-217 -49q-135 0 -219 73t-84 193q0 71 40.5 138t117.5 120q24 16 50.5 31t61.5 31t58.5 26t69.5 29t67 28q128 57 201 150zM412 848q-42 0 -71.5 29t-29.5 71q0 41 30 72t71 31t71.5 -31t30.5 -72t-29.5 -70.5t-72.5 -29.5z" />
    <glyph glyph-name="Agrave" unicode="&#xc0;" horiz-adv-x="1781" 
d="M504 608q-508 -631 -891 -631q-131 0 -212 62.5t-81 161.5q0 67 34.5 109t86.5 42q41 0 67.5 -26.5t26.5 -65.5t-25.5 -64.5t-64.5 -25.5q-12 0 -18 2q0 -3 -1 -8t-1 -8q0 -63 63.5 -107.5t159.5 -44.5q160 0 364 143q85 59 178 146.5t150.5 150t163.5 183.5
q92 105 135.5 153.5t125.5 134.5t158.5 152t159.5 125q210 149 459 248l12 -10q-188 -211 -333.5 -413.5t-232 -367t-130 -296.5t-43.5 -226q0 -111 74 -111q42 0 120 50.5t197 170t240 283.5l8 -6q-183 -262 -359.5 -403.5t-287.5 -141.5q-72 0 -115 53.5t-43 147.5
q0 176 131 438h-276zM518 623h268q192 349 529 696q-204 -105 -392 -274.5t-405 -421.5zM1245 1942h168q39 -140 39 -340v-64v-61h-18q-70 230 -189 458v7z" />
    <glyph glyph-name="Aacute" unicode="&#xc1;" horiz-adv-x="1781" 
d="M504 608q-508 -631 -891 -631q-131 0 -212 62.5t-81 161.5q0 67 34.5 109t86.5 42q41 0 67.5 -26.5t26.5 -65.5t-25.5 -64.5t-64.5 -25.5q-12 0 -18 2q0 -3 -1 -8t-1 -8q0 -63 63.5 -107.5t159.5 -44.5q160 0 364 143q85 59 178 146.5t150.5 150t163.5 183.5
q92 105 135.5 153.5t125.5 134.5t158.5 152t159.5 125q210 149 459 248l12 -10q-188 -211 -333.5 -413.5t-232 -367t-130 -296.5t-43.5 -226q0 -111 74 -111q42 0 120 50.5t197 170t240 283.5l8 -6q-183 -262 -359.5 -403.5t-287.5 -141.5q-72 0 -115 53.5t-43 147.5
q0 176 131 438h-276zM518 623h268q192 349 529 696q-204 -105 -392 -274.5t-405 -421.5zM1466 1495l314 430h205l-510 -438z" />
    <glyph glyph-name="Acircumflex" unicode="&#xc2;" horiz-adv-x="1781" 
d="M504 608q-508 -631 -891 -631q-131 0 -212 62.5t-81 161.5q0 67 34.5 109t86.5 42q41 0 67.5 -26.5t26.5 -65.5t-25.5 -64.5t-64.5 -25.5q-12 0 -18 2q0 -3 -1 -8t-1 -8q0 -63 63.5 -107.5t159.5 -44.5q160 0 364 143q85 59 178 146.5t150.5 150t163.5 183.5
q92 105 135.5 153.5t125.5 134.5t158.5 152t159.5 125q210 149 459 248l12 -10q-188 -211 -333.5 -413.5t-232 -367t-130 -296.5t-43.5 -226q0 -111 74 -111q42 0 120 50.5t197 170t240 283.5l8 -6q-183 -262 -359.5 -403.5t-287.5 -141.5q-72 0 -115 53.5t-43 147.5
q0 176 131 438h-276zM518 623h268q192 349 529 696q-204 -105 -392 -274.5t-405 -421.5zM1714 1915q-33 -101 -33 -172q0 -138 88 -223l-6 -7q-198 74 -198 281v12l-371 -301l-6 8l395 402h131z" />
    <glyph glyph-name="Atilde" unicode="&#xc3;" horiz-adv-x="1781" 
d="M504 608q-508 -631 -891 -631q-131 0 -212 62.5t-81 161.5q0 67 34.5 109t86.5 42q41 0 67.5 -26.5t26.5 -65.5t-25.5 -64.5t-64.5 -25.5q-12 0 -18 2q0 -3 -1 -8t-1 -8q0 -63 63.5 -107.5t159.5 -44.5q160 0 364 143q85 59 178 146.5t150.5 150t163.5 183.5
q92 105 135.5 153.5t125.5 134.5t158.5 152t159.5 125q210 149 459 248l12 -10q-188 -211 -333.5 -413.5t-232 -367t-130 -296.5t-43.5 -226q0 -111 74 -111q42 0 120 50.5t197 170t240 283.5l8 -6q-183 -262 -359.5 -403.5t-287.5 -141.5q-72 0 -115 53.5t-43 147.5
q0 176 131 438h-276zM518 623h268q192 349 529 696q-204 -105 -392 -274.5t-405 -421.5zM1221 1575q29 111 66 159t104 48q41 0 140.5 -40t156.5 -40q54 0 81 21.5t62 86.5l14 -4q-22 -64 -38 -101t-38 -66t-48.5 -40.5t-63.5 -11.5q-52 0 -155 45t-150 45q-88 0 -109 -106z
" />
    <glyph glyph-name="Adieresis" unicode="&#xc4;" horiz-adv-x="1781" 
d="M504 608q-508 -631 -891 -631q-131 0 -212 62.5t-81 161.5q0 67 34.5 109t86.5 42q41 0 67.5 -26.5t26.5 -65.5t-25.5 -64.5t-64.5 -25.5q-12 0 -18 2q0 -3 -1 -8t-1 -8q0 -63 63.5 -107.5t159.5 -44.5q160 0 364 143q85 59 178 146.5t150.5 150t163.5 183.5
q92 105 135.5 153.5t125.5 134.5t158.5 152t159.5 125q210 149 459 248l12 -10q-188 -211 -333.5 -413.5t-232 -367t-130 -296.5t-43.5 -226q0 -111 74 -111q42 0 120 50.5t197 170t240 283.5l8 -6q-183 -262 -359.5 -403.5t-287.5 -141.5q-72 0 -115 53.5t-43 147.5
q0 176 131 438h-276zM518 623h268q192 349 529 696q-204 -105 -392 -274.5t-405 -421.5zM1268 1696q0 31 25.5 55.5t60.5 24.5q32 0 57 -25t25 -59q0 -33 -25.5 -57.5t-60.5 -24.5q-34 0 -58 24t-24 62zM1634 1692q0 35 24.5 59.5t59.5 24.5q33 0 58.5 -25.5t25.5 -58.5
q0 -32 -26.5 -57t-61.5 -25q-34 0 -57 24t-23 58z" />
    <glyph glyph-name="Aring" unicode="&#xc5;" horiz-adv-x="1781" 
d="M518 623h268q192 349 529 696q-204 -105 -392 -274.5t-405 -421.5zM504 608q-508 -631 -891 -631q-131 0 -212 62.5t-81 161.5q0 67 34.5 109t86.5 42q41 0 67.5 -26.5t26.5 -65.5t-25.5 -64.5t-64.5 -25.5q-12 0 -18 2q0 -3 -1 -8t-1 -8q0 -63 63.5 -107.5t159.5 -44.5
q160 0 364 143q27 19 55 41t50 39.5t53 46.5t47.5 43.5t50.5 50.5t45.5 47.5t49.5 53.5t45 50t49.5 55.5t46.5 52.5q6 6 60.5 68.5t66.5 76t62 68t72 76t69 68t80.5 75t78.5 65t90 68.5q195 139 414 227l21 -30q-348 -397 -525.5 -733t-177.5 -529q0 -111 74 -111
q42 0 120 50.5t197 170t240 283.5l8 -6q-183 -262 -359.5 -403.5t-287.5 -141.5q-72 0 -115 53.5t-43 147.5q0 176 131 438h-276zM1413 1593q0 83 66.5 148t156.5 65q59 0 96 -35t37 -92q0 -83 -64.5 -141.5t-158.5 -58.5q-60 0 -96.5 32.5t-36.5 81.5zM1640 1786
q-55 0 -108 -68.5t-53 -138.5q0 -38 18.5 -60t52.5 -22q58 0 110 68t52 135q0 38 -20.5 62t-51.5 24z" />
    <glyph glyph-name="AE" unicode="&#xc6;" horiz-adv-x="2048" 
d="M1253 1313q65 -6 160 -16.5t147.5 -15.5t86.5 -5q103 0 151.5 22t48.5 72q0 39 -43 62.5t-123 23.5q-202 0 -428 -143zM506 643q106 -14 252 -14q24 0 106 4q87 205 211.5 336.5t300.5 199.5q-180 14 -299 29q-290 -184 -571 -555zM522 66q-102 26 -162 26
q-122 0 -122 -59q0 -22 20.5 -34.5t56.5 -12.5q99 0 207 80zM-322 72q23 -60 113 -60q116 0 250 101q40 30 78 67.5t80.5 89t70 87t80.5 107.5t78 105q157 209 308.5 365t320.5 270q-250 19 -312 19q-498 0 -741 -189q-90 -70 -139 -155t-49 -162q0 -80 49.5 -129t132.5 -49
q62 0 130.5 30t121.5 82q50 49 77 107.5t27 115.5q0 53 -28 123l10 4q35 -68 35 -153q0 -150 -117 -270q-111 -111 -242 -111q-102 0 -159.5 59t-57.5 166q0 115 77 229.5t222 206.5q317 201 815 201q154 0 318 -14q241 153 463 153q88 0 134 -29t46 -81q0 -87 -94.5 -143
t-262.5 -56q-37 0 -110 6q-116 -64 -195 -188t-157 -338q121 6 229 45q46 79 66 98t61 19q40 0 123 -13q-283 -206 -346 -485l-13 4q20 203 95 350q-94 -28 -224 -34q-125 -323 -401 -494q48 -5 147.5 -15t151 -14t90.5 -4q156 0 271.5 44.5t208.5 134t202 249.5l14 -6
q-204 -290 -380 -424.5t-365 -134.5q-115 0 -434 102q-140 -88 -234 -88q-92 0 -92 62q0 42 72 72t194 30q55 0 117 -4q116 110 254 485q-82 -4 -113 -4q-122 0 -251 15q-86 -118 -144 -194.5t-127.5 -160t-124 -133t-116 -92.5t-122 -61.5t-124.5 -18.5q-90 0 -145.5 44
t-55.5 106q0 45 31 76.5t74 31.5q41 0 64.5 -21.5t23.5 -58.5q0 -62 -50 -75z" />
    <glyph glyph-name="Ccedilla" unicode="&#xc7;" horiz-adv-x="1366" 
d="M160 406l-13 8q68 129 167 200.5t202 71.5q106 0 169 -63.5t63 -167.5q0 -86 -50.5 -176t-142.5 -164q-93 -73 -217.5 -114.5t-253.5 -41.5q-178 0 -285.5 110t-107.5 296q0 198 130 409t367 379q175 125 357 191.5t319 66.5q127 0 200 -61.5t73 -161.5
q0 -125 -114 -221.5t-267 -96.5q-99 0 -154 44t-55 120q0 53 28 107l11 -6q-25 -59 -25 -95q0 -60 40.5 -96.5t105.5 -36.5q95 0 188 84q125 116 125 264q0 62 -43.5 101t-124.5 39q-110 0 -268 -75t-308 -218q-194 -186 -296.5 -390t-102.5 -384q0 -158 79.5 -250
t211.5 -92q77 0 152 33t135 94q63 65 101 156t38 171q0 89 -44.5 141t-113.5 52q-71 0 -145 -59t-131 -168zM10 -6l-94 -154q6 0 18.5 1t18.5 1q63 0 103 -35t40 -88q0 -85 -107.5 -147t-297.5 -74v17q126 11 203 58.5t77 100.5q0 31 -24.5 48.5t-69.5 17.5q-15 0 -43 -4
l154 258h22z" />
    <glyph glyph-name="Egrave" unicode="&#xc8;" horiz-adv-x="1402" 
d="M197 389l-11 10q65 77 152.5 120.5t177.5 43.5q108 0 178 -62.5t70 -154.5q0 -143 -168 -250q-97 -62 -221 -97.5t-256 -35.5q-221 0 -344 93t-123 253q0 102 61.5 182.5t190.5 153.5q26 15 65 33.5t64 31.5t53 31t47.5 41t32.5 52q17 37 24 102.5t21.5 134.5t50.5 125
q62 98 186 157.5t269 59.5q133 0 211 -60.5t78 -158.5q0 -118 -99 -198.5t-258 -80.5q-70 0 -141 23l2 12q62 -16 113 -16q110 0 174.5 70.5t64.5 187.5q0 94 -50 148.5t-138 54.5q-70 0 -129 -39.5t-96 -110.5q-26 -50 -42.5 -163.5t-41.5 -163.5q-17 -33 -41 -59.5
t-54 -45.5t-56 -32t-62.5 -30t-57.5 -28q-119 -64 -183.5 -166.5t-64.5 -222.5q0 -149 106 -244.5t275 -95.5q165 0 275 102.5t110 245.5q0 84 -48.5 133t-127.5 49q-116 0 -239 -135zM485 1942h168q39 -140 39 -340v-64v-61h-18q-70 230 -189 458v7z" />
    <glyph glyph-name="Eacute" unicode="&#xc9;" horiz-adv-x="1402" 
d="M197 389l-11 10q65 77 152.5 120.5t177.5 43.5q108 0 178 -62.5t70 -154.5q0 -143 -168 -250q-97 -62 -221 -97.5t-256 -35.5q-221 0 -344 93t-123 253q0 102 61.5 182.5t190.5 153.5q26 15 65 33.5t64 31.5t53 31t47.5 41t32.5 52q17 37 24 102.5t21.5 134.5t50.5 125
q62 98 186 157.5t269 59.5q133 0 211 -60.5t78 -158.5q0 -118 -99 -198.5t-258 -80.5q-70 0 -141 23l2 12q62 -16 113 -16q110 0 174.5 70.5t64.5 187.5q0 94 -50 148.5t-138 54.5q-70 0 -129 -39.5t-96 -110.5q-26 -50 -42.5 -163.5t-41.5 -163.5q-17 -33 -41 -59.5
t-54 -45.5t-56 -32t-62.5 -30t-57.5 -28q-119 -64 -183.5 -166.5t-64.5 -222.5q0 -149 106 -244.5t275 -95.5q165 0 275 102.5t110 245.5q0 84 -48.5 133t-127.5 49q-116 0 -239 -135zM707 1495l313 430h205l-510 -438z" />
    <glyph glyph-name="Ecircumflex" unicode="&#xca;" horiz-adv-x="1402" 
d="M197 389l-11 10q65 77 152.5 120.5t177.5 43.5q108 0 178 -62.5t70 -154.5q0 -143 -168 -250q-97 -62 -221 -97.5t-256 -35.5q-221 0 -344 93t-123 253q0 102 61.5 182.5t190.5 153.5q26 15 65 33.5t64 31.5t53 31t47.5 41t32.5 52q17 37 24 102.5t21.5 134.5t50.5 125
q62 98 186 157.5t269 59.5q133 0 211 -60.5t78 -158.5q0 -118 -99 -198.5t-258 -80.5q-70 0 -141 23l2 12q62 -16 113 -16q110 0 174.5 70.5t64.5 187.5q0 94 -50 148.5t-138 54.5q-70 0 -129 -39.5t-96 -110.5q-26 -50 -42.5 -163.5t-41.5 -163.5q-17 -33 -41 -59.5
t-54 -45.5t-56 -32t-62.5 -30t-57.5 -28q-119 -64 -183.5 -166.5t-64.5 -222.5q0 -149 106 -244.5t275 -95.5q165 0 275 102.5t110 245.5q0 84 -48.5 133t-127.5 49q-116 0 -239 -135zM954 1915q-32 -98 -32 -172q0 -138 88 -223l-6 -7q-199 74 -199 281v12l-371 -301l-6 8
l395 402h131z" />
    <glyph glyph-name="Edieresis" unicode="&#xcb;" horiz-adv-x="1402" 
d="M197 389l-11 10q65 77 152.5 120.5t177.5 43.5q108 0 178 -62.5t70 -154.5q0 -143 -168 -250q-97 -62 -221 -97.5t-256 -35.5q-221 0 -344 93t-123 253q0 102 61.5 182.5t190.5 153.5q26 15 65 33.5t64 31.5t53 31t47.5 41t32.5 52q17 37 24 102.5t21.5 134.5t50.5 125
q62 98 186 157.5t269 59.5q133 0 211 -60.5t78 -158.5q0 -118 -99 -198.5t-258 -80.5q-70 0 -141 23l2 12q62 -16 113 -16q110 0 174.5 70.5t64.5 187.5q0 94 -50 148.5t-138 54.5q-70 0 -129 -39.5t-96 -110.5q-26 -50 -42.5 -163.5t-41.5 -163.5q-17 -33 -41 -59.5
t-54 -45.5t-56 -32t-62.5 -30t-57.5 -28q-119 -64 -183.5 -166.5t-64.5 -222.5q0 -149 106 -244.5t275 -95.5q165 0 275 102.5t110 245.5q0 84 -48.5 133t-127.5 49q-116 0 -239 -135zM508 1696q0 31 25.5 55.5t60.5 24.5q32 0 57 -25t25 -59q0 -33 -25.5 -57.5t-60.5 -24.5
q-34 0 -58 24t-24 62zM874 1692q0 35 24.5 59.5t59.5 24.5q33 0 58.5 -25.5t25.5 -58.5q0 -32 -26.5 -57t-61.5 -25q-34 0 -57 24t-23 58z" />
    <glyph glyph-name="Igrave" unicode="&#xcc;" horiz-adv-x="1337" 
d="M-262 100q50 -84 164 -84q75 0 140 37t132 115q55 63 116.5 156t154.5 244.5t153 244.5q62 95 114.5 165t118 139t133.5 117.5t154 87.5t185 62h-52q-295 0 -533 -41t-390.5 -112t-234 -164.5t-81.5 -200.5q0 -74 46.5 -120t125.5 -46q117 0 202 79.5t85 174.5
q0 51 -33 105l15 4q30 -48 30 -100q0 -127 -108.5 -218.5t-259.5 -91.5q-114 0 -184 63.5t-70 162.5q0 196 271 337.5t765 174.5q109 7 261 8.5t196 7.5q26 4 82.5 17.5t81.5 13.5q36 0 36 -25q0 -18 -17.5 -23.5t-65.5 -8.5q-9 -1 -13 -1q-108 -6 -190.5 -40t-171.5 -119
q-80 -76 -156.5 -187.5t-170.5 -271t-155 -248.5q-88 -131 -167.5 -222.5t-168 -159t-184.5 -100t-205 -32.5q-123 0 -197.5 51t-74.5 123q0 44 29.5 74.5t70.5 30.5q38 0 63 -26t25 -67q0 -33 -17.5 -56t-49.5 -30zM745 1942h168q39 -140 39 -340v-64v-61h-18
q-70 230 -189 458v7z" />
    <glyph glyph-name="Iacute" unicode="&#xcd;" horiz-adv-x="1337" 
d="M-262 100q50 -84 164 -84q75 0 140 37t132 115q55 63 116.5 156t154.5 244.5t153 244.5q62 95 114.5 165t118 139t133.5 117.5t154 87.5t185 62h-52q-295 0 -533 -41t-390.5 -112t-234 -164.5t-81.5 -200.5q0 -74 46.5 -120t125.5 -46q117 0 202 79.5t85 174.5
q0 51 -33 105l15 4q30 -48 30 -100q0 -127 -108.5 -218.5t-259.5 -91.5q-114 0 -184 63.5t-70 162.5q0 196 271 337.5t765 174.5q109 7 261 8.5t196 7.5q26 4 82.5 17.5t81.5 13.5q36 0 36 -25q0 -18 -17.5 -23.5t-65.5 -8.5q-9 -1 -13 -1q-108 -6 -190.5 -40t-171.5 -119
q-80 -76 -156.5 -187.5t-170.5 -271t-155 -248.5q-88 -131 -167.5 -222.5t-168 -159t-184.5 -100t-205 -32.5q-123 0 -197.5 51t-74.5 123q0 44 29.5 74.5t70.5 30.5q38 0 63 -26t25 -67q0 -33 -17.5 -56t-49.5 -30zM967 1495l313 430h205l-510 -438z" />
    <glyph glyph-name="Icircumflex" unicode="&#xce;" horiz-adv-x="1337" 
d="M-262 100q50 -84 164 -84q75 0 140 37t132 115q55 63 116.5 156t154.5 244.5t153 244.5q62 95 114.5 165t118 139t133.5 117.5t154 87.5t185 62h-52q-295 0 -533 -41t-390.5 -112t-234 -164.5t-81.5 -200.5q0 -74 46.5 -120t125.5 -46q117 0 202 79.5t85 174.5
q0 51 -33 105l15 4q30 -48 30 -100q0 -127 -108.5 -218.5t-259.5 -91.5q-114 0 -184 63.5t-70 162.5q0 196 271 337.5t765 174.5q109 7 261 8.5t196 7.5q26 4 82.5 17.5t81.5 13.5q36 0 36 -25q0 -18 -17.5 -23.5t-65.5 -8.5q-9 -1 -13 -1q-108 -6 -190.5 -40t-171.5 -119
q-80 -76 -156.5 -187.5t-170.5 -271t-155 -248.5q-88 -131 -167.5 -222.5t-168 -159t-184.5 -100t-205 -32.5q-123 0 -197.5 51t-74.5 123q0 44 29.5 74.5t70.5 30.5q38 0 63 -26t25 -67q0 -33 -17.5 -56t-49.5 -30zM1214 1915q-32 -98 -32 -172q0 -138 88 -223l-6 -7
q-199 74 -199 281v12l-371 -301l-6 8l395 402h131z" />
    <glyph glyph-name="Idieresis" unicode="&#xcf;" horiz-adv-x="1337" 
d="M-262 100q50 -84 164 -84q75 0 140 37t132 115q55 63 116.5 156t154.5 244.5t153 244.5q62 95 114.5 165t118 139t133.5 117.5t154 87.5t185 62h-52q-295 0 -533 -41t-390.5 -112t-234 -164.5t-81.5 -200.5q0 -74 46.5 -120t125.5 -46q117 0 202 79.5t85 174.5
q0 51 -33 105l15 4q30 -48 30 -100q0 -127 -108.5 -218.5t-259.5 -91.5q-114 0 -184 63.5t-70 162.5q0 196 271 337.5t765 174.5q109 7 261 8.5t196 7.5q26 4 82.5 17.5t81.5 13.5q36 0 36 -25q0 -18 -17.5 -23.5t-65.5 -8.5q-9 -1 -13 -1q-108 -6 -190.5 -40t-171.5 -119
q-80 -76 -156.5 -187.5t-170.5 -271t-155 -248.5q-88 -131 -167.5 -222.5t-168 -159t-184.5 -100t-205 -32.5q-123 0 -197.5 51t-74.5 123q0 44 29.5 74.5t70.5 30.5q38 0 63 -26t25 -67q0 -33 -17.5 -56t-49.5 -30zM768 1696q0 31 25.5 55.5t60.5 24.5q32 0 57 -25t25 -59
q0 -33 -25.5 -57.5t-60.5 -24.5q-34 0 -58 24t-24 62zM1135 1692q0 35 24.5 59.5t59.5 24.5q33 0 58.5 -25.5t25.5 -58.5q0 -32 -27 -57t-62 -25q-33 0 -56 24t-23 58z" />
    <glyph glyph-name="Eth" unicode="&#xd0;" horiz-adv-x="1933" 
d="M688 682h-108q-58 -167 -168.5 -257.5t-251.5 -90.5q-139 0 -224.5 92t-85.5 240q0 135 69.5 270t197.5 244q133 113 302 175t343 62q227 0 440 -125q233 132 428 150l-2 -15q-220 -27 -377 -172q207 -195 207 -471q0 -166 -77.5 -326t-206.5 -265q-256 -211 -697 -211
q-173 0 -342 30q-99 -30 -184 -30q-195 0 -195 59q0 16 19.5 28.5t50.5 12.5q44 0 148.5 -20.5t162.5 -26.5q145 27 275 184t276 463zM700 707q106 203 218.5 341t246.5 222q-168 133 -411 133q-134 0 -265 -47t-233 -133q-119 -99 -184.5 -239t-65.5 -288q0 -141 65.5 -223
t166.5 -82q102 0 190 76q77 66 129 215h-338v25h346q33 152 33 251l14 3v-23q0 -110 -28 -231h116zM1219 1219q-71 -65 -140 -178.5t-184 -333.5h213v-25h-229q-142 -286 -312.5 -445t-404.5 -212q125 -29 268 -29q200 0 353.5 69t277.5 216q110 132 174.5 304.5t64.5 334.5
q0 187 -81 299z" />
    <glyph glyph-name="Ntilde" unicode="&#xd1;" horiz-adv-x="1783" 
d="M-383 176q6 -70 53 -107.5t127 -37.5q220 0 457.5 288.5t458.5 847.5q22 133 67.5 202t110.5 69q11 0 43 -8l-45 -97q-4 -31 -4 -78q0 -37 6 -88t13 -89.5t22 -117.5t22 -120q51 -296 51 -465q0 -6 -1 -30.5t-1 -41.5q236 544 455 818t416 274q87 0 137.5 -50t50.5 -137
q0 -83 -63.5 -142.5t-175.5 -74.5l-5 17q53 12 86 53t33 94q0 52 -41.5 87.5t-109.5 35.5q-394 0 -899 -1323h-29q6 49 6 96q0 114 -25 284t-60 392.5t-50 411.5q-484 -1157 -969 -1157q-126 0 -208.5 69t-82.5 166q0 67 42 113.5t98 46.5q41 0 69.5 -29t28.5 -72
q0 -37 -22.5 -64t-61.5 -36zM944 1575q29 111 66 159t104 48q41 0 140.5 -40t156.5 -40q54 0 81 21.5t62 86.5l15 -4q-42 -125 -80 -172t-109 -47q-52 0 -155 45t-150 45q-87 0 -108 -106z" />
    <glyph glyph-name="Ograve" unicode="&#xd2;" horiz-adv-x="1593" 
d="M647 1315q-143 -21 -293 -170q-166 -165 -261 -382.5t-95 -428.5q0 -157 58 -241.5t159 -84.5q77 0 171.5 48.5t196 150.5t179.5 239q-133 72 -204 188.5t-71 262.5q0 217 160 418zM684 1331q156 -3 156 -178q0 -22 -2 -51l-17 2q2 27 2 51q0 83 -36 122.5t-111 39.5h-6
q-101 -135 -101 -387q0 -343 201 -469q93 189 139.5 347.5t46.5 315.5q0 117 -43 183.5t-110 66.5q-58 0 -119 -43zM1300 545l11 -10q-146 -146 -330 -146q-71 0 -154 25q-167 -213 -358.5 -329t-347.5 -116q-149 0 -228 91t-79 264q0 229 117.5 448.5t334.5 388.5
q187 147 393 168q109 92 215 92t171 -79.5t65 -217.5q0 -151 -68.5 -333t-201.5 -363q77 -25 143 -25q175 0 317 142zM680 1942h168q39 -140 39 -340v-64v-61h-19q-71 235 -188 458v7z" />
    <glyph glyph-name="Oacute" unicode="&#xd3;" horiz-adv-x="1593" 
d="M647 1315q-143 -21 -293 -170q-166 -165 -261 -382.5t-95 -428.5q0 -157 58 -241.5t159 -84.5q77 0 171.5 48.5t196 150.5t179.5 239q-133 72 -204 188.5t-71 262.5q0 217 160 418zM684 1331q156 -3 156 -178q0 -22 -2 -51l-17 2q2 27 2 51q0 83 -36 122.5t-111 39.5h-6
q-101 -135 -101 -387q0 -343 201 -469q93 189 139.5 347.5t46.5 315.5q0 117 -43 183.5t-110 66.5q-58 0 -119 -43zM1300 545l11 -10q-146 -146 -330 -146q-71 0 -154 25q-167 -213 -358.5 -329t-347.5 -116q-149 0 -228 91t-79 264q0 229 117.5 448.5t334.5 388.5
q187 147 393 168q109 92 215 92t171 -79.5t65 -217.5q0 -151 -68.5 -333t-201.5 -363q77 -25 143 -25q175 0 317 142zM901 1495l313 430h205l-510 -438z" />
    <glyph glyph-name="Ocircumflex" unicode="&#xd4;" horiz-adv-x="1593" 
d="M647 1315q-143 -21 -293 -170q-166 -165 -261 -382.5t-95 -428.5q0 -157 58 -241.5t159 -84.5q77 0 171.5 48.5t196 150.5t179.5 239q-133 72 -204 188.5t-71 262.5q0 217 160 418zM684 1331q156 -3 156 -178q0 -22 -2 -51l-17 2q2 27 2 51q0 83 -36 122.5t-111 39.5h-6
q-101 -135 -101 -387q0 -343 201 -469q93 189 139.5 347.5t46.5 315.5q0 117 -43 183.5t-110 66.5q-58 0 -119 -43zM1300 545l11 -10q-146 -146 -330 -146q-71 0 -154 25q-167 -213 -358.5 -329t-347.5 -116q-149 0 -228 91t-79 264q0 229 117.5 448.5t334.5 388.5
q187 147 393 168q109 92 215 92t171 -79.5t65 -217.5q0 -151 -68.5 -333t-201.5 -363q77 -25 143 -25q175 0 317 142zM1149 1915q-33 -101 -33 -172q0 -138 88 -223l-6 -7q-199 74 -199 281v12l-370 -301l-6 8l395 402h131z" />
    <glyph glyph-name="Otilde" unicode="&#xd5;" horiz-adv-x="1593" 
d="M647 1315q-143 -21 -293 -170q-166 -165 -261 -382.5t-95 -428.5q0 -157 58 -241.5t159 -84.5q77 0 171.5 48.5t196 150.5t179.5 239q-133 72 -204 188.5t-71 262.5q0 217 160 418zM684 1331q156 -3 156 -178q0 -22 -2 -51l-17 2q2 27 2 51q0 83 -36 122.5t-111 39.5h-6
q-101 -135 -101 -387q0 -343 201 -469q93 189 139.5 347.5t46.5 315.5q0 117 -43 183.5t-110 66.5q-58 0 -119 -43zM1300 545l11 -10q-146 -146 -330 -146q-71 0 -154 25q-167 -213 -358.5 -329t-347.5 -116q-149 0 -228 91t-79 264q0 229 117.5 448.5t334.5 388.5
q187 147 393 168q109 92 215 92t171 -79.5t65 -217.5q0 -151 -68.5 -333t-201.5 -363q77 -25 143 -25q175 0 317 142zM655 1575q29 111 66 159t104 48q41 0 140.5 -40t156.5 -40q54 0 81.5 21.5t62.5 86.5l14 -4q-22 -64 -38 -101t-38 -66t-48.5 -40.5t-63.5 -11.5
q-52 0 -155.5 45t-150.5 45q-87 0 -108 -106z" />
    <glyph glyph-name="Odieresis" unicode="&#xd6;" horiz-adv-x="1593" 
d="M647 1315q-143 -21 -293 -170q-166 -165 -261 -382.5t-95 -428.5q0 -157 58 -241.5t159 -84.5q77 0 171.5 48.5t196 150.5t179.5 239q-133 72 -204 188.5t-71 262.5q0 217 160 418zM684 1331q156 -3 156 -178q0 -22 -2 -51l-17 2q2 27 2 51q0 83 -36 122.5t-111 39.5h-6
q-101 -135 -101 -387q0 -343 201 -469q93 189 139.5 347.5t46.5 315.5q0 117 -43 183.5t-110 66.5q-58 0 -119 -43zM1300 545l11 -10q-146 -146 -330 -146q-71 0 -154 25q-167 -213 -358.5 -329t-347.5 -116q-149 0 -228 91t-79 264q0 229 117.5 448.5t334.5 388.5
q187 147 393 168q109 92 215 92t171 -79.5t65 -217.5q0 -151 -68.5 -333t-201.5 -363q77 -25 143 -25q175 0 317 142zM702 1696q0 31 25.5 55.5t60.5 24.5q32 0 57 -25t25 -59q0 -33 -25.5 -57.5t-60.5 -24.5q-34 0 -58 24t-24 62zM1069 1692q0 35 24.5 59.5t59.5 24.5
q33 0 58.5 -25.5t25.5 -58.5q0 -32 -26.5 -57t-61.5 -25q-34 0 -57 24t-23 58z" />
    <glyph glyph-name="multiply" unicode="&#xd7;" horiz-adv-x="1705" 
d="M381 1169l477 -477l475 477l82 -82l-475 -477l475 -475l-82 -82l-475 475l-477 -475l-80 82l475 475l-475 477z" />
    <glyph glyph-name="Oslash" unicode="&#xd8;" horiz-adv-x="1478" 
d="M-51 -168l100 162q-180 71 -180 346q0 156 70.5 326t201.5 315q134 147 283.5 229t255.5 82q79 0 133 -45l66 103q-78 69 -222 69q-212 0 -440 -231l-8 10q117 128 250.5 194t267.5 66q109 0 188 -39l97 160l20 -10l-98 -158q192 -110 192 -375q0 -205 -117.5 -428
t-334.5 -409q-266 -230 -500 -230q-34 0 -108 19l-97 -166zM121 68q64 -58 160 -58q88 0 210 75t226 204q136 170 208 364t72 383q0 199 -104 303l-66 -106q31 -48 31 -109q0 -34 -8 -65l-14 4q4 36 4 51q0 61 -25 103zM104 86l697 1145q-40 43 -117 43q-87 0 -182 -58
t-185 -169q-123 -153 -195.5 -352t-72.5 -369q0 -161 55 -240z" />
    <glyph glyph-name="Ugrave" unicode="&#xd9;" horiz-adv-x="1705" 
d="M655 401q-171 -203 -337.5 -310t-282.5 -107q-67 0 -105.5 38.5t-38.5 106.5q0 24 6 51t22.5 64.5t30 65t46 82t51.5 85.5t65.5 105t69.5 112q183 297 226 376q77 145 77 220q0 109 -120 109q-73 0 -167 -39.5t-178 -112.5q-202 -181 -202 -377q0 -67 35 -107t90 -40
q52 0 118 42.5t132 125.5l12 -6q-73 -93 -150.5 -141t-150.5 -48q-82 0 -131 50.5t-49 136.5q0 93 73.5 200.5t208.5 198.5q103 69 219 107t209 38q102 0 159.5 -48.5t57.5 -131.5q0 -27 -7.5 -58.5t-29 -77.5t-39 -80.5t-59.5 -103.5t-67.5 -109.5l-85 -135t-91.5 -145.5
q-67 -105 -90 -143t-60 -104t-49 -104.5t-12 -72.5t19.5 -55t46.5 -21q128 0 340 188q91 80 186.5 198t177.5 255l410 686l213 10l-543 -872q-194 -310 -194 -416q0 -28 19 -48t48 -20q82 0 240 130.5t346 375.5l14 -6q-200 -265 -369 -400.5t-294 -135.5q-72 0 -113 42.5
t-41 116.5q0 107 97 252zM930 1942h168q39 -140 39 -340v-64v-61h-19q-71 235 -188 458v7z" />
    <glyph glyph-name="Uacute" unicode="&#xda;" horiz-adv-x="1705" 
d="M655 401q-171 -203 -337.5 -310t-282.5 -107q-67 0 -105.5 38.5t-38.5 106.5q0 24 6 51t22.5 64.5t30 65t46 82t51.5 85.5t65.5 105t69.5 112q183 297 226 376q77 145 77 220q0 109 -120 109q-73 0 -167 -39.5t-178 -112.5q-202 -181 -202 -377q0 -67 35 -107t90 -40
q52 0 118 42.5t132 125.5l12 -6q-73 -93 -150.5 -141t-150.5 -48q-82 0 -131 50.5t-49 136.5q0 93 73.5 200.5t208.5 198.5q103 69 219 107t209 38q102 0 159.5 -48.5t57.5 -131.5q0 -27 -7.5 -58.5t-29 -77.5t-39 -80.5t-59.5 -103.5t-67.5 -109.5l-85 -135t-91.5 -145.5
q-67 -105 -90 -143t-60 -104t-49 -104.5t-12 -72.5t19.5 -55t46.5 -21q128 0 340 188q91 80 186.5 198t177.5 255l410 686l213 10l-543 -872q-194 -310 -194 -416q0 -28 19 -48t48 -20q82 0 240 130.5t346 375.5l14 -6q-200 -265 -369 -400.5t-294 -135.5q-72 0 -113 42.5
t-41 116.5q0 107 97 252zM1151 1495l313 430h205l-510 -438z" />
    <glyph glyph-name="Ucircumflex" unicode="&#xdb;" horiz-adv-x="1705" 
d="M655 401q-171 -203 -337.5 -310t-282.5 -107q-67 0 -105.5 38.5t-38.5 106.5q0 24 6 51t22.5 64.5t30 65t46 82t51.5 85.5t65.5 105t69.5 112q183 297 226 376q77 145 77 220q0 109 -120 109q-73 0 -167 -39.5t-178 -112.5q-202 -181 -202 -377q0 -67 35 -107t90 -40
q52 0 118 42.5t132 125.5l12 -6q-73 -93 -150.5 -141t-150.5 -48q-82 0 -131 50.5t-49 136.5q0 93 73.5 200.5t208.5 198.5q103 69 219 107t209 38q102 0 159.5 -48.5t57.5 -131.5q0 -27 -7.5 -58.5t-29 -77.5t-39 -80.5t-59.5 -103.5t-67.5 -109.5l-85 -135t-91.5 -145.5
q-67 -105 -90 -143t-60 -104t-49 -104.5t-12 -72.5t19.5 -55t46.5 -21q128 0 340 188q91 80 186.5 198t177.5 255l410 686l213 10l-543 -872q-194 -310 -194 -416q0 -28 19 -48t48 -20q82 0 240 130.5t346 375.5l14 -6q-200 -265 -369 -400.5t-294 -135.5q-72 0 -113 42.5
t-41 116.5q0 107 97 252zM1399 1915q-33 -101 -33 -172q0 -138 88 -223l-6 -7q-199 74 -199 281v12l-370 -301l-7 8l396 402h131z" />
    <glyph glyph-name="Udieresis" unicode="&#xdc;" horiz-adv-x="1705" 
d="M655 401q-171 -203 -337.5 -310t-282.5 -107q-67 0 -105.5 38.5t-38.5 106.5q0 24 6 51t22.5 64.5t30 65t46 82t51.5 85.5t65.5 105t69.5 112q183 297 226 376q77 145 77 220q0 109 -120 109q-73 0 -167 -39.5t-178 -112.5q-202 -181 -202 -377q0 -67 35 -107t90 -40
q52 0 118 42.5t132 125.5l12 -6q-73 -93 -150.5 -141t-150.5 -48q-82 0 -131 50.5t-49 136.5q0 93 73.5 200.5t208.5 198.5q103 69 219 107t209 38q102 0 159.5 -48.5t57.5 -131.5q0 -27 -7.5 -58.5t-29 -77.5t-39 -80.5t-59.5 -103.5t-67.5 -109.5l-85 -135t-91.5 -145.5
q-67 -105 -90 -143t-60 -104t-49 -104.5t-12 -72.5t19.5 -55t46.5 -21q128 0 340 188q91 80 186.5 198t177.5 255l410 686l213 10l-543 -872q-194 -310 -194 -416q0 -28 19 -48t48 -20q82 0 240 130.5t346 375.5l14 -6q-200 -265 -369 -400.5t-294 -135.5q-72 0 -113 42.5
t-41 116.5q0 107 97 252zM952 1696q0 31 25.5 55.5t60.5 24.5q32 0 57 -25t25 -59q0 -33 -25.5 -57.5t-60.5 -24.5q-34 0 -58 24t-24 62zM1319 1692q0 35 24.5 59.5t59.5 24.5q33 0 58.5 -25.5t25.5 -58.5q0 -32 -26.5 -57t-61.5 -25q-34 0 -57 24t-23 58z" />
    <glyph glyph-name="Yacute" unicode="&#xdd;" horiz-adv-x="1593" 
d="M-201 -195q-67 31 -104 31q-69 0 -116.5 -54.5t-47.5 -137.5q0 -106 63.5 -169t169.5 -63q157 0 330.5 169t392.5 519l193 310l-8 8q-170 -211 -340.5 -323.5t-286.5 -112.5q-72 0 -110.5 37.5t-38.5 105.5q0 80 65 202t222 370q15 22 22 34q62 97 83.5 131.5t65.5 107
t60 104.5t38.5 80t29.5 80t7 62q0 42 -34.5 72.5t-87.5 30.5q-85 0 -182 -43.5t-181 -124.5q-84 -82 -130 -177t-46 -173q0 -70 34.5 -112t86.5 -42q116 0 244 162l10 -12q-65 -88 -146.5 -135.5t-154.5 -47.5q-80 0 -127 48.5t-47 131.5q0 100 70 206.5t200 195.5
q104 71 217.5 109t214.5 38q105 0 163 -44t58 -124q0 -53 -32.5 -130.5t-68.5 -138t-123 -198.5q-28 -44 -42 -67q-178 -279 -250 -410t-72 -198q0 -32 20.5 -55t51.5 -23q96 0 275 141q207 166 329 365l502 821l219 12q-119 -185 -235.5 -372t-184 -299t-150 -250
t-104.5 -174q-116 -192 -210 -326.5t-185 -231.5q-150 -158 -327 -242.5t-347 -84.5q-161 0 -257.5 72.5t-96.5 183.5q0 101 68 167t172 66q111 0 200 -63zM1096 1495l313 430h205l-510 -438z" />
    <glyph glyph-name="Thorn" unicode="&#xde;" horiz-adv-x="1630" 
d="M901 1014q-45 -73 -154.5 -268t-156.5 -277q31 -111 155 -111q117 0 199 105q121 151 121 323q0 190 -164 228zM1473 1479l4 -13q-144 -13 -279 -113.5t-280 -320.5q147 -38 227 -123.5t80 -199.5q0 -76 -41 -149t-115 -130q-133 -100 -285 -100q-166 0 -211 119
q-144 -214 -349 -330.5t-423 -116.5q-126 0 -199 50t-73 122q0 44 30 74.5t72 30.5q38 0 62 -26t24 -67q0 -68 -65 -86q42 -82 164 -82q264 0 438 220q56 72 129.5 202t170.5 298t196 309q-127 10 -154 10q-178 0 -330 -53.5t-262 -151.5q-70 -63 -110.5 -144.5
t-40.5 -146.5t44 -107t109 -42q114 0 208.5 94.5t100.5 222.5l13 -2q-6 -140 -112.5 -239t-242.5 -99q-107 0 -179.5 61t-72.5 148q0 113 88 208t261 167q246 102 514 102q84 0 178 -12q159 185 341.5 290t369.5 126z" />
    <glyph glyph-name="germandbls" unicode="&#xdf;" horiz-adv-x="1214" 
d="M901 528q-188 -285 -375 -421t-405 -136q-135 0 -210 57t-75 156q0 72 42.5 120t103.5 48q41 0 65.5 -24.5t24.5 -61.5q0 -33 -21 -56.5t-49 -23.5q-6 0 -17.5 2t-17.5 2q-23 0 -32 -14t-9 -49q0 -62 40.5 -98.5t107.5 -36.5q81 0 136.5 53.5t55.5 126.5q0 16 -3.5 33.5
t-13 43t-16 41.5t-23.5 54t-24 55q-30 71 -30 123q0 117 94 189q42 31 118.5 66t88.5 42q108 60 164.5 150.5t56.5 193.5q0 83 -46.5 135t-121.5 52q-47 0 -92.5 -24t-87 -63.5t-95 -114.5t-100.5 -152t-119 -201l-364 -629q-217 -374 -456.5 -554.5t-528.5 -180.5
q-181 0 -282 70.5t-101 193.5q0 105 77.5 172t200.5 67q60 0 133 -18l-2 -20h-18q-95 0 -149 -61t-54 -167q0 -97 61.5 -156t163.5 -59q196 0 387.5 199t434.5 620l260 449q186 322 389.5 490.5t394.5 168.5q125 0 207 -67.5t82 -165.5q0 -101 -73.5 -173.5t-233.5 -144.5
q-11 -5 -39.5 -17.5t-38.5 -17t-33.5 -16t-32 -17.5t-26 -18t-24.5 -21.5t-18 -24t-15 -29t-7.5 -33t-3.5 -39.5q0 -68 45 -176q5 -12 15.5 -36.5t14.5 -35.5t12 -31t11.5 -31t7.5 -26t5.5 -27t1.5 -24q0 -63 -47 -119t-121 -76v-12q165 28 318.5 160t320.5 375z" />
    <glyph glyph-name="agrave" unicode="&#xe0;" horiz-adv-x="1062" 
d="M-27 156q-166 -172 -303 -172q-77 0 -121.5 48.5t-44.5 133.5q0 83 39 176t109 170q87 97 199 152t206 55q65 0 107.5 -32.5t54.5 -92.5l45 88l205 12q-188 -286 -267 -424t-79 -200q0 -24 14 -40t35 -16q65 0 218.5 135.5t346.5 387.5l13 -9q-229 -285 -382 -418
t-278 -133q-55 0 -89 35t-34 92q0 25 6 52zM-219 51q102 0 229 176q150 209 150 371q0 48 -23.5 74t-64.5 26q-117 0 -246 -172q-68 -91 -103.5 -185t-35.5 -165q0 -60 25 -92.5t69 -32.5zM-16 1272h168q38 -136 38 -340v-64v-61h-18q-72 237 -188 459v6z" />
    <glyph glyph-name="aacute" unicode="&#xe1;" horiz-adv-x="1062" 
d="M-27 156q-166 -172 -303 -172q-77 0 -121.5 48.5t-44.5 133.5q0 83 39 176t109 170q87 97 199 152t206 55q65 0 107.5 -32.5t54.5 -92.5l45 88l205 12q-188 -286 -267 -424t-79 -200q0 -24 14 -40t35 -16q65 0 218.5 135.5t346.5 387.5l13 -9q-229 -285 -382 -418
t-278 -133q-55 0 -89 35t-34 92q0 25 6 52zM-219 51q102 0 229 176q150 209 150 371q0 48 -23.5 74t-64.5 26q-117 0 -246 -172q-68 -91 -103.5 -185t-35.5 -165q0 -60 25 -92.5t69 -32.5zM205 825l313 430h205l-510 -438z" />
    <glyph glyph-name="acircumflex" unicode="&#xe2;" horiz-adv-x="1062" 
d="M-27 156q-166 -172 -303 -172q-77 0 -121.5 48.5t-44.5 133.5q0 83 39 176t109 170q87 97 199 152t206 55q65 0 107.5 -32.5t54.5 -92.5l45 88l205 12q-188 -286 -267 -424t-79 -200q0 -24 14 -40t35 -16q65 0 218.5 135.5t346.5 387.5l13 -9q-229 -285 -382 -418
t-278 -133q-55 0 -89 35t-34 92q0 25 6 52zM-219 51q102 0 229 176q150 209 150 371q0 48 -23.5 74t-64.5 26q-117 0 -246 -172q-68 -91 -103.5 -185t-35.5 -165q0 -60 25 -92.5t69 -32.5zM453 1245q-33 -101 -33 -172q0 -138 88 -223l-6 -6q-199 74 -199 280v13l-371 -301
l-6 8l396 401h131z" />
    <glyph glyph-name="atilde" unicode="&#xe3;" horiz-adv-x="1062" 
d="M-27 156q-166 -172 -303 -172q-77 0 -121.5 48.5t-44.5 133.5q0 83 39 176t109 170q87 97 199 152t206 55q65 0 107.5 -32.5t54.5 -92.5l45 88l205 12q-188 -286 -267 -424t-79 -200q0 -24 14 -40t35 -16q65 0 218.5 135.5t346.5 387.5l13 -9q-229 -285 -382 -418
t-278 -133q-55 0 -89 35t-34 92q0 25 6 52zM-219 51q102 0 229 176q150 209 150 371q0 48 -23.5 74t-64.5 26q-117 0 -246 -172q-68 -91 -103.5 -185t-35.5 -165q0 -60 25 -92.5t69 -32.5zM-41 905q29 111 66 159t104 48q41 0 140.5 -40t156.5 -40q54 0 81 21.5t62 87.5
l15 -4q-42 -125 -80 -172t-109 -47q-52 0 -155 45t-150 45q-87 0 -108 -107z" />
    <glyph glyph-name="adieresis" unicode="&#xe4;" horiz-adv-x="1062" 
d="M-27 156q-166 -172 -303 -172q-77 0 -121.5 48.5t-44.5 133.5q0 83 39 176t109 170q87 97 199 152t206 55q65 0 107.5 -32.5t54.5 -92.5l45 88l205 12q-188 -286 -267 -424t-79 -200q0 -24 14 -40t35 -16q65 0 218.5 135.5t346.5 387.5l13 -9q-229 -285 -382 -418
t-278 -133q-55 0 -89 35t-34 92q0 25 6 52zM-219 51q102 0 229 176q150 209 150 371q0 48 -23.5 74t-64.5 26q-117 0 -246 -172q-68 -91 -103.5 -185t-35.5 -165q0 -60 25 -92.5t69 -32.5zM6 1026q0 31 25.5 55.5t60.5 24.5q32 0 57 -25t25 -59q0 -33 -25.5 -57.5
t-60.5 -24.5q-34 0 -58 24t-24 62zM373 1022q0 35 24.5 59.5t59.5 24.5q33 0 58.5 -25.5t25.5 -58.5q0 -32 -26.5 -57t-61.5 -25q-34 0 -57 24t-23 58z" />
    <glyph glyph-name="aring" unicode="&#xe5;" horiz-adv-x="1062" 
d="M-219 51q102 0 229 176q150 209 150 371q0 48 -23.5 74t-64.5 26q-117 0 -246 -172q-68 -91 -103.5 -185t-35.5 -165q0 -60 25 -92.5t69 -32.5zM-27 156q-166 -172 -303 -172q-77 0 -121.5 48.5t-44.5 133.5q0 83 39 176t109 170q87 97 199 152t206 55q65 0 107.5 -32.5
t54.5 -92.5l45 88l205 12q-188 -286 -267 -424t-79 -200q0 -24 14 -40t35 -16q65 0 218.5 135.5t346.5 387.5l13 -9q-229 -285 -382 -418t-278 -133q-55 0 -89 35t-34 92q0 25 6 52zM20 950q0 83 67 148t157 65q59 0 96 -35t37 -92q0 -83 -64.5 -141.5t-158.5 -58.5
q-60 0 -97 33t-37 81zM250 1143q-55 0 -109.5 -69t-54.5 -138q0 -38 19 -60t53 -22q58 0 109.5 68t51.5 135q0 38 -19 62t-50 24z" />
    <glyph glyph-name="ae" unicode="&#xe6;" horiz-adv-x="1388" 
d="M426 668q100 53 197 53q84 0 132 -32.5t48 -88.5q0 -93 -136.5 -166t-420.5 -139q-6 -35 -6 -57q0 -94 47.5 -145.5t132.5 -51.5q124 0 291 126.5t352 371.5l12 -9q-205 -276 -405 -416.5t-381 -140.5q-104 0 -170 64.5t-66 167.5q0 38 4 67q-91 -138 -197 -213t-196 -75
q-76 0 -120 48.5t-44 133.5q0 84 38.5 177t107.5 169q87 97 199 152t206 55q65 0 107.5 -32.5t54.5 -92.5l45 88l172 12zM-225 51q104 0 231 176q150 209 150 371q0 48 -24.5 74t-65.5 26q-115 0 -244 -172q-68 -92 -104.5 -185.5t-36.5 -164.5q0 -60 25 -92.5t69 -32.5z
M246 313q183 48 293 146t110 186q0 55 -55 55q-75 0 -184.5 -108.5t-163.5 -278.5z" />
    <glyph glyph-name="ccedilla" unicode="&#xe7;" horiz-adv-x="833" 
d="M63 442q48 122 48 174q0 86 -68 86q-39 0 -99.5 -39t-119.5 -112q-135 -167 -135 -322q0 -89 48 -138.5t130 -49.5q130 0 293.5 122.5t335.5 360.5l10 -6q-184 -262 -384.5 -401.5t-367.5 -139.5q-117 0 -182.5 61t-65.5 169q0 189 191 348q96 81 201.5 123.5t199.5 42.5
q86 0 132 -34.5t46 -96.5q0 -63 -49.5 -106.5t-126.5 -43.5q-19 0 -37 2zM-256 -6l-94 -154q6 0 18.5 1t18.5 1q63 0 103 -35t40 -88q0 -85 -107.5 -147t-297.5 -74v17q126 11 203 58.5t77 100.5q0 31 -24.5 48.5t-69.5 17.5q-15 0 -43 -4l153 258h23z" />
    <glyph glyph-name="egrave" unicode="&#xe8;" horiz-adv-x="833" 
d="M514 518q-192 -267 -394 -406t-380 -139q-101 0 -167.5 63.5t-66.5 160.5q0 98 55 198.5t156 182.5q84 67 181.5 105t179.5 38t129 -33t47 -88q0 -93 -136.5 -166t-420.5 -139q-6 -54 -6 -57q0 -94 47.5 -145.5t132.5 -51.5q122 0 289.5 123.5t343.5 359.5zM-301 313
q183 48 292 146t109 186q0 55 -55 55q-33 0 -79.5 -26.5t-96 -73.5t-96 -123t-74.5 -164zM-131 1272h168q39 -140 39 -340v-64v-61h-19q-72 237 -188 459v6z" />
    <glyph glyph-name="eacute" unicode="&#xe9;" horiz-adv-x="833" 
d="M514 518q-192 -267 -394 -406t-380 -139q-101 0 -167.5 63.5t-66.5 160.5q0 98 55 198.5t156 182.5q84 67 181.5 105t179.5 38t129 -33t47 -88q0 -93 -136.5 -166t-420.5 -139q-6 -54 -6 -57q0 -94 47.5 -145.5t132.5 -51.5q122 0 289.5 123.5t343.5 359.5zM-301 313
q183 48 292 146t109 186q0 55 -55 55q-33 0 -79.5 -26.5t-96 -73.5t-96 -123t-74.5 -164zM90 825l313 430h205l-510 -438z" />
    <glyph glyph-name="ecircumflex" unicode="&#xea;" horiz-adv-x="833" 
d="M514 518q-192 -267 -394 -406t-380 -139q-101 0 -167.5 63.5t-66.5 160.5q0 98 55 198.5t156 182.5q84 67 181.5 105t179.5 38t129 -33t47 -88q0 -93 -136.5 -166t-420.5 -139q-6 -54 -6 -57q0 -94 47.5 -145.5t132.5 -51.5q122 0 289.5 123.5t343.5 359.5zM-301 313
q183 48 292 146t109 186q0 55 -55 55q-33 0 -79.5 -26.5t-96 -73.5t-96 -123t-74.5 -164zM338 1245q-33 -101 -33 -172q0 -138 88 -223l-6 -6q-199 74 -199 280v13l-370 -301l-6 8l395 401h131z" />
    <glyph glyph-name="edieresis" unicode="&#xeb;" horiz-adv-x="833" 
d="M514 518q-192 -267 -394 -406t-380 -139q-101 0 -167.5 63.5t-66.5 160.5q0 98 55 198.5t156 182.5q84 67 181.5 105t179.5 38t129 -33t47 -88q0 -93 -136.5 -166t-420.5 -139q-6 -54 -6 -57q0 -94 47.5 -145.5t132.5 -51.5q122 0 289.5 123.5t343.5 359.5zM-301 313
q183 48 292 146t109 186q0 55 -55 55q-33 0 -79.5 -26.5t-96 -73.5t-96 -123t-74.5 -164zM-109 1026q0 31 25.5 55.5t60.5 24.5q32 0 57 -25t25 -59q0 -33 -25.5 -57.5t-60.5 -24.5q-34 0 -58 24t-24 62zM258 1022q0 35 24.5 59.5t59.5 24.5q33 0 58.5 -25.5t25.5 -58.5
q0 -32 -26.5 -57t-61.5 -25q-34 0 -57 24t-23 58z" />
    <glyph glyph-name="igrave" unicode="&#xec;" horiz-adv-x="550" 
d="M231 520q-198 -265 -362.5 -401.5t-271.5 -136.5q-59 0 -93 36t-34 97q0 78 75 204l224 373l200 6l-295 -475q-57 -94 -57 -153q0 -19 14 -33t37 -14q71 0 219.5 129.5t333.5 373.5zM-272 1272h168q38 -136 38 -340v-64v-61h-18q-72 237 -188 459v6z" />
    <glyph glyph-name="iacute" unicode="&#xed;" horiz-adv-x="550" 
d="M231 520q-198 -265 -362.5 -401.5t-271.5 -136.5q-59 0 -93 36t-34 97q0 78 75 204l224 373l200 6l-295 -475q-57 -94 -57 -153q0 -19 14 -33t37 -14q71 0 219.5 129.5t333.5 373.5zM-51 825l313 430h205l-510 -438z" />
    <glyph glyph-name="icircumflex" unicode="&#xee;" horiz-adv-x="550" 
d="M231 520q-198 -265 -362.5 -401.5t-271.5 -136.5q-59 0 -93 36t-34 97q0 78 75 204l224 373l200 6l-295 -475q-57 -94 -57 -153q0 -19 14 -33t37 -14q71 0 219.5 129.5t333.5 373.5zM197 1245q-33 -101 -33 -172q0 -138 88 -223l-6 -6q-199 74 -199 280v13l-371 -301
l-6 8l396 401h131z" />
    <glyph glyph-name="idieresis" unicode="&#xef;" horiz-adv-x="550" 
d="M231 520q-198 -265 -362.5 -401.5t-271.5 -136.5q-59 0 -93 36t-34 97q0 78 75 204l224 373l200 6l-295 -475q-57 -94 -57 -153q0 -19 14 -33t37 -14q71 0 219.5 129.5t333.5 373.5zM-250 1026q0 31 25.5 55.5t60.5 24.5q32 0 57 -25t25 -59q0 -33 -25.5 -57.5
t-60.5 -24.5q-34 0 -58 24t-24 62zM117 1022q0 35 24.5 59.5t59.5 24.5q33 0 58.5 -25.5t25.5 -58.5q0 -32 -26.5 -57t-61.5 -25q-34 0 -57 24t-23 58z" />
    <glyph glyph-name="eth" unicode="&#xf0;" horiz-adv-x="985" 
d="M-238 -10q79 0 185 121q93 106 149 239t56 236q0 56 -26 88.5t-69 32.5q-41 0 -98.5 -42.5t-118.5 -123.5q-81 -106 -125.5 -221t-44.5 -203q0 -62 24.5 -94.5t67.5 -32.5zM188 668q1 14 2 27.5t2 21t1 8.5q0 244 -109 416l-340 -176l-10 20l336 174q-132 184 -371 184
q-162 0 -291 -75l-10 16q202 121 416 121q251 0 399 -164l283 145l10 -20l-275 -145q134 -175 134 -426q0 -192 -82 -368.5t-240 -322.5q177 57 325 162t304 271l10 -7q-153 -170 -313.5 -279t-356.5 -171q-147 -105 -266 -105q-105 0 -172.5 65.5t-67.5 170.5
q0 181 195 346q195 166 344 166q88 0 143 -55z" />
    <glyph glyph-name="ntilde" unicode="&#xf1;" horiz-adv-x="985" 
d="M664 539l8 -9q-216 -279 -359.5 -411.5t-240.5 -132.5q-57 0 -92 40.5t-35 108.5q0 91 65 180l125 170q62 82 62 140q0 23 -14.5 38t-37.5 15q-44 0 -136 -68.5t-199 -193.5q-149 -177 -244 -406l-215 -10l413 698l220 9l-258 -353l16 -4q138 182 268 277.5t217 95.5
q61 0 95 -34.5t34 -94.5q0 -76 -77 -186l-117 -166q-72 -100 -72 -158q0 -59 53 -59q55 0 190 131.5t331 382.5zM-80 905q29 111 66 159t104 48q41 0 140.5 -40t156.5 -40q54 0 81 21.5t62 87.5l15 -4q-42 -125 -80 -172t-109 -47q-52 0 -155 45t-150 45q-87 0 -108 -107z
" />
    <glyph glyph-name="ograve" unicode="&#xf2;" horiz-adv-x="985" 
d="M676 530q-62 -73 -116 -108t-109 -35q-86 0 -132 84q-18 -151 -145 -287q-90 -98 -201 -151t-215 -53q-118 0 -181.5 65t-63.5 184q0 99 60.5 199t176.5 188q153 117 318 117q217 0 258 -196q14 -73 42 -105.5t87 -32.5q50 0 99.5 34.5t111.5 105.5zM59 719
q-104 0 -229 -184q-79 -118 -119.5 -232t-40.5 -190q0 -55 25 -86t65 -31q114 0 252 221q140 225 140 385q0 57 -24 87t-69 30zM-55 1272h168q39 -140 39 -340v-64v-61h-19q-72 237 -188 459v6z" />
    <glyph glyph-name="oacute" unicode="&#xf3;" horiz-adv-x="985" 
d="M676 530q-62 -73 -116 -108t-109 -35q-86 0 -132 84q-18 -151 -145 -287q-90 -98 -201 -151t-215 -53q-118 0 -181.5 65t-63.5 184q0 99 60.5 199t176.5 188q153 117 318 117q217 0 258 -196q14 -73 42 -105.5t87 -32.5q50 0 99.5 34.5t111.5 105.5zM59 719
q-104 0 -229 -184q-79 -118 -119.5 -232t-40.5 -190q0 -55 25 -86t65 -31q114 0 252 221q140 225 140 385q0 57 -24 87t-69 30zM166 825l313 430h205l-510 -438z" />
    <glyph glyph-name="ocircumflex" unicode="&#xf4;" horiz-adv-x="985" 
d="M676 530q-62 -73 -116 -108t-109 -35q-86 0 -132 84q-18 -151 -145 -287q-90 -98 -201 -151t-215 -53q-118 0 -181.5 65t-63.5 184q0 99 60.5 199t176.5 188q153 117 318 117q217 0 258 -196q14 -73 42 -105.5t87 -32.5q50 0 99.5 34.5t111.5 105.5zM59 719
q-104 0 -229 -184q-79 -118 -119.5 -232t-40.5 -190q0 -55 25 -86t65 -31q114 0 252 221q140 225 140 385q0 57 -24 87t-69 30zM414 1245q-33 -101 -33 -172q0 -138 88 -223l-6 -6q-199 74 -199 280v13l-370 -301l-7 8l396 401h131z" />
    <glyph glyph-name="otilde" unicode="&#xf5;" horiz-adv-x="985" 
d="M676 530q-62 -73 -116 -108t-109 -35q-86 0 -132 84q-18 -151 -145 -287q-90 -98 -201 -151t-215 -53q-118 0 -181.5 65t-63.5 184q0 99 60.5 199t176.5 188q153 117 318 117q217 0 258 -196q14 -73 42 -105.5t87 -32.5q50 0 99.5 34.5t111.5 105.5zM59 719
q-104 0 -229 -184q-79 -118 -119.5 -232t-40.5 -190q0 -55 25 -86t65 -31q114 0 252 221q140 225 140 385q0 57 -24 87t-69 30zM-80 905q29 111 66 159t104 48q41 0 140.5 -40t156.5 -40q54 0 81 21.5t62 87.5l15 -4q-42 -125 -80 -172t-109 -47q-52 0 -155 45t-150 45
q-87 0 -108 -107z" />
    <glyph glyph-name="odieresis" unicode="&#xf6;" horiz-adv-x="985" 
d="M676 530q-62 -73 -116 -108t-109 -35q-86 0 -132 84q-18 -151 -145 -287q-90 -98 -201 -151t-215 -53q-118 0 -181.5 65t-63.5 184q0 99 60.5 199t176.5 188q153 117 318 117q217 0 258 -196q14 -73 42 -105.5t87 -32.5q50 0 99.5 34.5t111.5 105.5zM59 719
q-104 0 -229 -184q-79 -118 -119.5 -232t-40.5 -190q0 -55 25 -86t65 -31q114 0 252 221q140 225 140 385q0 57 -24 87t-69 30zM-33 1026q0 31 25.5 55.5t60.5 24.5q32 0 57 -25t25 -59q0 -33 -25.5 -57.5t-60.5 -24.5q-34 0 -58 24t-24 62zM334 1022q0 35 24.5 59.5
t59.5 24.5q33 0 58.5 -25.5t25.5 -58.5q0 -32 -26.5 -57t-61.5 -25q-34 0 -57 24t-23 58z" />
    <glyph glyph-name="divide" unicode="&#xf7;" horiz-adv-x="1705" 
d="M854 1085q47 0 81 -33.5t34 -80.5t-33 -81t-82 -34t-82 33.5t-33 81.5q0 47 34.5 80.5t80.5 33.5zM254 670h1198v-117h-1198v117zM854 365q46 0 80.5 -34t34.5 -81t-33 -81t-82 -34q-47 0 -81 34t-34 81q0 49 34 82t81 33z" />
    <glyph glyph-name="oslash" unicode="&#xf8;" horiz-adv-x="985" 
d="M-299 18l408 689q-21 12 -46 12q-90 0 -196 -133q-92 -116 -144.5 -249.5t-52.5 -223.5q0 -64 31 -95zM-410 -166l93 154q-81 22 -125.5 81t-44.5 146q0 120 72 233t204 195q148 90 277 90q11 0 57 -4l76 131l18 -10l-74 -123q74 -17 115 -58.5t66 -121.5q3 -9 9 -33
t9.5 -35.5t13.5 -29.5t21.5 -27t31.5 -16t46 -7q51 0 99.5 34t111.5 106l10 -9q-62 -73 -116 -108t-109 -35q-86 0 -132 84q-12 -99 -71.5 -193.5t-159.5 -171.5q-164 -126 -332 -126q-3 0 -57 6l-92 -160zM123 696l-406 -688q18 -12 43 -12q114 0 252 221q140 226 140 389
q0 61 -29 90z" />
    <glyph glyph-name="ugrave" unicode="&#xf9;" horiz-adv-x="1011" 
d="M-18 258q-108 -135 -207 -205.5t-174 -70.5q-60 0 -98 35.5t-38 93.5q0 42 22 93.5t69 131.5l202 350l213 12q-179 -267 -261.5 -409.5t-82.5 -198.5q0 -53 54 -53q86 0 239.5 168.5t319.5 480.5l200 12q-106 -167 -151 -239.5t-101.5 -169.5t-76 -146.5t-19.5 -81.5
q0 -19 13 -31t32 -12q67 0 213 132.5t332 379.5l10 -8q-205 -272 -354 -405t-254 -133q-59 0 -94 35.5t-35 93.5q0 76 37 137zM-43 1272h168q39 -140 39 -340v-64v-61h-19q-72 237 -188 459v6z" />
    <glyph glyph-name="uacute" unicode="&#xfa;" horiz-adv-x="1011" 
d="M-18 258q-108 -135 -207 -205.5t-174 -70.5q-60 0 -98 35.5t-38 93.5q0 42 22 93.5t69 131.5l202 350l213 12q-179 -267 -261.5 -409.5t-82.5 -198.5q0 -53 54 -53q86 0 239.5 168.5t319.5 480.5l200 12q-106 -167 -151 -239.5t-101.5 -169.5t-76 -146.5t-19.5 -81.5
q0 -19 13 -31t32 -12q67 0 213 132.5t332 379.5l10 -8q-205 -272 -354 -405t-254 -133q-59 0 -94 35.5t-35 93.5q0 76 37 137zM178 825l314 430h204l-510 -438z" />
    <glyph glyph-name="ucircumflex" unicode="&#xfb;" horiz-adv-x="1011" 
d="M-18 258q-108 -135 -207 -205.5t-174 -70.5q-60 0 -98 35.5t-38 93.5q0 42 22 93.5t69 131.5l202 350l213 12q-179 -267 -261.5 -409.5t-82.5 -198.5q0 -53 54 -53q86 0 239.5 168.5t319.5 480.5l200 12q-106 -167 -151 -239.5t-101.5 -169.5t-76 -146.5t-19.5 -81.5
q0 -19 13 -31t32 -12q67 0 213 132.5t332 379.5l10 -8q-205 -272 -354 -405t-254 -133q-59 0 -94 35.5t-35 93.5q0 76 37 137zM426 1245q-33 -101 -33 -172q0 -138 88 -223l-6 -6q-199 74 -199 280v13l-370 -301l-6 8l395 401h131z" />
    <glyph glyph-name="udieresis" unicode="&#xfc;" horiz-adv-x="1011" 
d="M-18 258q-108 -135 -207 -205.5t-174 -70.5q-60 0 -98 35.5t-38 93.5q0 42 22 93.5t69 131.5l202 350l213 12q-179 -267 -261.5 -409.5t-82.5 -198.5q0 -53 54 -53q86 0 239.5 168.5t319.5 480.5l200 12q-106 -167 -151 -239.5t-101.5 -169.5t-76 -146.5t-19.5 -81.5
q0 -19 13 -31t32 -12q67 0 213 132.5t332 379.5l10 -8q-205 -272 -354 -405t-254 -133q-59 0 -94 35.5t-35 93.5q0 76 37 137zM-20 1026q0 31 25.5 55.5t60.5 24.5q32 0 56.5 -25t24.5 -59q0 -33 -25.5 -57.5t-60.5 -24.5q-34 0 -57.5 24t-23.5 62zM346 1022q0 35 24.5 59.5
t59.5 24.5q33 0 58.5 -25.5t25.5 -58.5q0 -32 -26.5 -57t-61.5 -25q-34 0 -57 24t-23 58z" />
    <glyph glyph-name="yacute" unicode="&#xfd;" horiz-adv-x="995" 
d="M-823 -158q-18 2 -35 2q-74 0 -125 -60t-51 -151q0 -97 61 -158t160 -61q123 0 249.5 82.5t246.5 243.5q78 105 183 288.5t134 227.5l-12 6q-110 -136 -214 -207t-182 -71q-58 0 -92.5 35t-34.5 92q0 16 3 33t6 30t11.5 33.5t13 31t17.5 35t18 33.5t22 38t22 38l178 307
l207 8q-178 -271 -258 -411.5t-80 -192.5q0 -26 16.5 -42.5t41.5 -16.5q36 0 95.5 41t132.5 117t159.5 206t162.5 289l189 10l-404 -721q152 42 325.5 186t322.5 369l14 -4q-150 -229 -327 -377.5t-349 -199.5q-159 -272 -380 -414.5t-468 -142.5q-167 0 -261.5 66
t-94.5 175q0 105 77.5 166.5t217.5 61.5q18 0 84 -8zM170 825l313 430h205l-510 -438z" />
    <glyph glyph-name="thorn" unicode="&#xfe;" horiz-adv-x="985" 
d="M-8 180q-256 -30 -256 -129q0 -41 39 -41q32 0 90.5 44t126.5 126zM162 1364l194 12l-419 -684q-82 -127 -183 -268l13 -6q114 158 208 232.5t191 74.5q70 0 115 -51.5t45 -136.5q0 -149 -154 -320q276 67 490 322l12 -9q-216 -262 -520 -333q-110 -99 -215.5 -149
t-192.5 -50q-35 0 -55.5 16t-20.5 43q0 57 75 84.5t259 55.5q141 211 141 362q0 52 -20.5 80.5t-56.5 28.5q-64 0 -173.5 -114.5t-234.5 -326.5l-489 -829l-187 -6z" />
    <glyph glyph-name="ydieresis" unicode="&#xff;" horiz-adv-x="995" 
d="M-823 -158q-18 2 -35 2q-74 0 -125 -60t-51 -151q0 -97 61 -158t160 -61q123 0 249.5 82.5t246.5 243.5q78 105 183 288.5t134 227.5l-12 6q-110 -136 -214 -207t-182 -71q-58 0 -92.5 35t-34.5 92q0 16 3 33t6 30t11.5 33.5t13 31t17.5 35t18 33.5t22 38t22 38l178 307
l207 8q-178 -271 -258 -411.5t-80 -192.5q0 -26 16.5 -42.5t41.5 -16.5q36 0 95.5 41t132.5 117t159.5 206t162.5 289l189 10l-404 -721q152 42 325.5 186t322.5 369l14 -4q-150 -229 -327 -377.5t-349 -199.5q-159 -272 -380 -414.5t-468 -142.5q-167 0 -261.5 66
t-94.5 175q0 105 77.5 166.5t217.5 61.5q18 0 84 -8zM-29 1026q0 31 25.5 55.5t60.5 24.5q32 0 57 -25t25 -59q0 -33 -25.5 -57.5t-60.5 -24.5q-34 0 -58 24t-24 62zM338 1022q0 35 24.5 59.5t59.5 24.5q33 0 58.5 -25.5t25.5 -58.5q0 -32 -26.5 -57t-61.5 -25q-34 0 -57 24
t-23 58z" />
    <glyph glyph-name="dotlessi" unicode="&#x131;" horiz-adv-x="550" 
d="M231 520q-198 -265 -362.5 -401.5t-271.5 -136.5q-59 0 -93 36t-34 97q0 78 75 204l224 373l200 6l-295 -475q-57 -94 -57 -153q0 -19 14 -33t37 -14q71 0 219.5 129.5t333.5 373.5z" />
    <glyph glyph-name="Lslash" unicode="&#x141;" horiz-adv-x="1175" 
d="M455 866q18 -2 34 -2h23q115 0 232.5 30.5t193.5 76.5q99 60 155 143.5t56 161.5q0 63 -33.5 97t-93.5 34q-133 0 -282 -138.5t-285 -402.5zM-27 -281q9 37 9 70q0 116 -81.5 180t-234.5 64h-20q-244 -84 -371 -84q-74 0 -74 37q0 67 406 67h37q257 83 465 516l-345 -47
v25l359 49q25 51 143 281q-151 27 -235 105.5t-84 186.5q0 94 62 159t157 65q52 0 113 -23l-5 -10q-67 18 -104 18q-90 0 -148.5 -61t-58.5 -152q0 -100 82.5 -174t228.5 -100q102 172 241 296.5t280.5 183.5t277.5 59q104 0 162.5 -46t58.5 -122q0 -101 -102.5 -189
t-300.5 -155q-204 -68 -397 -68h-48q-51 -108 -118 -225l368 53l2 -23l-385 -57q-121 -215 -277.5 -349.5t-367.5 -201.5q90 4 123 4q167 0 255.5 -55.5t88.5 -157.5v-4q91 117 709 694l8 -12q-208 -198 -287.5 -274.5t-195.5 -189.5t-164.5 -164.5t-69.5 -82.5
q-18 -77 -66.5 -123.5t-101.5 -46.5q-19 0 -30 6.5t-11 16.5q0 5 2 9.5t7 11t9.5 11t13.5 14t15 15.5z" />
    <glyph glyph-name="lslash" unicode="&#x142;" horiz-adv-x="540" 
d="M217 524q-189 -266 -353.5 -404t-275.5 -138q-62 0 -95.5 33t-33.5 94q0 53 44.5 146t142.5 259l114 193l-258 -84l4 28l271 86l377 623l219 16q-97 -152 -191 -303l-157 -256l241 80l-4 -29l-256 -84l-268 -430q-129 -208 -129 -276q0 -53 55 -53q64 0 215 132t326 373z
" />
    <glyph glyph-name="OE" unicode="&#x152;" horiz-adv-x="2238" 
d="M569 98q-180 -129 -352 -129q-150 0 -233.5 96t-83.5 273t84.5 359t242.5 335q129 124 260.5 190t227.5 66q82 0 128 -43t46 -119q0 -17 -8 -63l-13 2q4 50 4 59q0 146 -159 146q-94 0 -195 -67t-196 -197q-113 -152 -174.5 -331.5t-61.5 -344.5q0 -158 57 -238t168 -80
q54 0 119 26.5t125 76.5q-68 86 -68 184q0 38 6 71.5t22 63.5t31.5 54t45.5 50t53 44t66 43.5t71.5 41t81.5 44.5q53 28 83.5 51t58 60.5t39.5 91t12 130.5q0 165 -98 274t-246 109q-242 0 -469 -245l-13 10q117 131 253.5 198.5t277.5 67.5q130 0 227.5 -67.5t138.5 -186.5
q178 211 437 211q136 0 214.5 -61t78.5 -158q0 -113 -101.5 -195.5t-257.5 -82.5q-72 0 -139 20l4 14q72 -20 115 -20q106 0 172.5 74t66.5 192q0 91 -49 146t-127 55q-119 0 -191.5 -80.5t-103.5 -243.5q-17 -88 -42.5 -144t-78.5 -97q-43 -179 -151.5 -343t-272.5 -296
q43 -91 139.5 -146t213.5 -55q165 0 279 105.5t114 246.5q0 79 -48 127.5t-122 48.5q-118 0 -246 -131l-14 8q71 77 155.5 118.5t167.5 41.5q110 0 180 -59.5t70 -153.5q0 -73 -48 -141t-132 -120.5t-206 -84t-261 -31.5q-240 0 -375 129zM694 215q117 114 200.5 258
t123.5 299q-174 -74 -259 -181t-85 -257q0 -63 20 -119z" />
    <glyph glyph-name="oe" unicode="&#x153;" horiz-adv-x="1366" 
d="M281 602q188 119 329 119q82 0 129 -33t47 -88q0 -93 -136.5 -166t-420.5 -139q-6 -35 -6 -57q0 -94 47.5 -145.5t132.5 -51.5q124 0 295 127.5t346 370.5l13 -9q-131 -183 -272 -311t-266 -188t-234 -60q-78 0 -137.5 32.5t-90.5 92.5q-141 -129 -309 -129
q-120 0 -185 65.5t-65 184.5q0 98 60.5 198.5t177.5 188.5q76 57 159 87t156 30q154 0 230 -119zM45 705q-103 0 -227 -183q-79 -118 -120.5 -233t-41.5 -191q0 -54 24.5 -85t65.5 -31q114 0 254 223q139 223 139 385q0 56 -24.5 85.5t-69.5 29.5zM229 313q183 48 293.5 146
t110.5 186q0 55 -55 55q-34 0 -80 -25t-95.5 -71t-97 -122.5t-76.5 -168.5z" />
    <glyph glyph-name="Scaron" unicode="&#x160;" horiz-adv-x="1138" 
d="M-416 346q-26 -57 -26 -102q0 -115 88 -186.5t235 -71.5q225 0 348 194q24 38 42.5 86.5t29.5 89.5t21 111t14.5 111t13 133.5t12.5 136.5q24 246 130 377q74 95 170.5 144.5t201.5 49.5q123 0 199 -59t76 -146q0 -73 -55 -121.5t-138 -48.5q-17 0 -41 3q72 84 72 174
q0 75 -47 125.5t-119 50.5q-116 0 -179.5 -120t-88.5 -372q-5 -47 -11.5 -136t-12 -138.5t-15.5 -117.5t-27.5 -124t-42.5 -106q-76 -149 -219.5 -232.5t-329.5 -83.5q-208 0 -328 99t-120 256q0 96 43.5 156.5t105.5 60.5q43 0 75 -27.5t32 -60.5q0 -50 -24 -79.5
t-60 -29.5q-5 0 -25 4zM756 1503q32 98 32 172q0 138 -88 226l7 4q198 -77 198 -279v-12l371 301l6 -10l-397 -402h-129z" />
    <glyph glyph-name="scaron" unicode="&#x161;" horiz-adv-x="774" 
d="M-479 199q-33 -20 -33 -74q0 -59 39.5 -96t107.5 -37q80 0 136.5 53t56.5 123q0 39 -17.5 75t-54.5 85q-33 43 -45 60t-26.5 51.5t-14.5 68.5q0 89 82.5 152t202.5 63q98 0 157.5 -43.5t59.5 -110.5q0 -53 -39.5 -92t-97.5 -39q-16 0 -55 17q49 73 49 137
q0 50 -29.5 81.5t-71.5 31.5q-44 0 -75 -37t-31 -93q0 -41 16 -76.5t49 -82.5q4 -6 20 -28.5t20.5 -29.5t17 -26t16.5 -29t10.5 -27t8.5 -32t2 -31q0 -67 -46.5 -123t-121.5 -76v-12q319 55 630 528l11 -6q-349 -553 -772 -553q-135 0 -210 57t-75 156q0 73 42 120.5
t103 47.5q41 0 65.5 -23.5t24.5 -62.5q0 -35 -21 -57.5t-52 -22.5q-9 0 -39 13zM-53 834q33 101 33 172q0 136 -89 225l7 4q198 -77 198 -279v-12l371 301l6 -10l-397 -401h-129z" />
    <glyph glyph-name="Ydieresis" unicode="&#x178;" horiz-adv-x="1593" 
d="M-201 -195q-67 31 -104 31q-69 0 -116.5 -54.5t-47.5 -137.5q0 -106 63.5 -169t169.5 -63q157 0 330.5 169t392.5 519l193 310l-8 8q-170 -211 -340.5 -323.5t-286.5 -112.5q-72 0 -110.5 37.5t-38.5 105.5q0 80 65 202t222 370q15 22 22 34q62 97 83.5 131.5t65.5 107
t60 104.5t38.5 80t29.5 80t7 62q0 42 -34.5 72.5t-87.5 30.5q-85 0 -182 -43.5t-181 -124.5q-84 -82 -130 -177t-46 -173q0 -70 34.5 -112t86.5 -42q116 0 244 162l10 -12q-65 -88 -146.5 -135.5t-154.5 -47.5q-80 0 -127 48.5t-47 131.5q0 100 70 206.5t200 195.5
q104 71 217.5 109t214.5 38q105 0 163 -44t58 -124q0 -53 -32.5 -130.5t-68.5 -138t-123 -198.5q-28 -44 -42 -67q-178 -279 -250 -410t-72 -198q0 -32 20.5 -55t51.5 -23q96 0 275 141q207 166 329 365l502 821l219 12q-119 -185 -235.5 -372t-184 -299t-150 -250
t-104.5 -174q-116 -192 -210 -326.5t-185 -231.5q-150 -158 -327 -242.5t-347 -84.5q-161 0 -257.5 72.5t-96.5 183.5q0 101 68 167t172 66q111 0 200 -63zM897 1696q0 31 25.5 55.5t60.5 24.5q32 0 57 -25t25 -59q0 -33 -25.5 -57.5t-60.5 -24.5q-34 0 -58 24t-24 62z
M1264 1692q0 35 24.5 59.5t59.5 24.5q33 0 58.5 -25.5t25.5 -58.5q0 -32 -27 -57t-62 -25q-33 0 -56 24t-23 58z" />
    <glyph glyph-name="Zcaron" unicode="&#x17d;" horiz-adv-x="1441" 
d="M358 991q-46 -85 -119 -131.5t-153 -46.5q-90 0 -145.5 53.5t-55.5 143.5q0 97 55 182.5t147.5 136.5t197.5 51q19 0 40 -2.5t37 -4.5t42.5 -9.5t38.5 -10.5t44 -14t40.5 -14t46 -17t44.5 -16q151 -57 259 -57q86 0 134 25t95 79q36 43 56.5 60.5t43.5 17.5q25 0 25 -26
q0 -22 -34.5 -46.5t-101.5 -67t-116 -87.5q-105 -97 -140.5 -129.5t-176.5 -160t-249.5 -221.5t-285.5 -243.5t-358 -296.5l6 -8q170 98 286 98t267 -65q153 -66 245 -66q131 0 256 104.5t279 327.5l12 -6q-179 -270 -363 -412.5t-339 -142.5q-31 0 -59.5 4.5t-61 17
t-48.5 19.5t-55 27.5t-49 25.5l-34 17t-35 17t-30 13.5t-32 14t-27.5 10t-30.5 9t-27 4.5t-29 2q-53 0 -108 -25t-87 -64q-26 -31 -35 -41.5t-26 -28t-28 -23t-22 -5.5q-24 0 -24 27q0 35 100 98q28 18 68.5 50.5t72 61t97 87.5t104.5 94q184 165 267 239.5t296.5 257
t417.5 345.5l-10 10q-189 -109 -319 -109q-101 0 -238 58q-14 5 -47.5 19t-49 20t-45 16t-49.5 14.5t-46.5 8.5t-51.5 4q-96 0 -164.5 -70.5t-68.5 -163.5q0 -79 58 -136.5t140 -57.5q141 0 246 163zM907 1503q33 101 33 172q0 138 -88 226l6 4q199 -77 199 -279v-12
l370 301l7 -10l-398 -402h-129z" />
    <glyph glyph-name="zcaron" unicode="&#x17e;" horiz-adv-x="925" 
d="M612 530q-205 -274 -381 -414.5t-303 -140.5q-52 0 -113.5 27.5t-119 55.5t-98.5 28q-28 0 -54.5 -17t-44 -37.5t-36 -37.5t-31.5 -17q-11 0 -19 7t-8 16q0 15 23 30.5t87 51.5t124 78q8 6 63.5 47.5t109.5 81t153.5 107t205.5 134.5l-4 11q-47 -13 -86 -13
q-67 0 -157 28t-113 28q-43 0 -75 -17.5t-67 -58.5l-8 10q140 199 291 199q55 0 158.5 -38t154.5 -38q34 0 72 12q44 80 78 80q10 0 17 -7t7 -15q0 -16 -28 -37.5t-112 -78.5t-159 -114q-190 -145 -303 -217q-65 -41 -131 -78l4 -10q18 2 33 2q57 0 165.5 -41t168.5 -41
q48 0 97 20t93.5 52t102 92.5t107.5 120.5t126 156zM23 834q32 98 32 172q0 137 -88 225l6 4q199 -77 199 -279v-12l371 301l6 -10l-397 -401h-129z" />
    <glyph glyph-name="florin" unicode="&#x192;" horiz-adv-x="1099" 
d="M575 578l-8 -23h-248l-133 -266q-143 -282 -319.5 -429t-362.5 -147q-120 0 -191 69t-71 179q0 71 31.5 114.5t79.5 43.5q35 0 59.5 -24t24.5 -58q0 -27 -19 -44.5t-49 -17.5q-27 0 -45 21q-31 -42 -31 -80q0 -69 53 -120.5t128 -51.5q257 0 518 530l135 281h-262l8 23
h266l142 266q101 189 244 295t278 106q82 0 135 -49t53 -119q0 -55 -32 -89t-82 -34q-39 0 -62.5 20.5t-23.5 51.5q0 29 16.5 47.5t44.5 18.5q24 0 72 -25q6 35 6 49q0 44 -36.5 76.5t-90.5 32.5q-91 0 -165.5 -86.5t-166.5 -278.5l-137 -282h241z" />
    <glyph glyph-name="circumflex" unicode="&#x2c6;" 
d="M432 1245q-33 -101 -33 -172q0 -138 88 -223l-6 -6q-198 74 -198 280v13l-371 -301l-6 8l395 401h131z" />
    <glyph glyph-name="caron" unicode="&#x2c7;" 
d="M72 834q32 98 32 172q0 137 -88 225l7 4q198 -77 198 -279v-12l371 301l6 -10l-397 -401h-129z" />
    <glyph glyph-name="breve" unicode="&#x2d8;" 
d="M-14 1212q38 -115 102.5 -169t163.5 -54q196 0 391 219h21q-199 -313 -433 -313q-117 0 -177 73t-87 240z" />
    <glyph glyph-name="dotaccent" unicode="&#x2d9;" 
d="M168 1022q0 35 25.5 59.5t60.5 24.5q32 0 57 -25t25 -59q0 -33 -25.5 -57.5t-60.5 -24.5q-34 0 -58 24t-24 58z" />
    <glyph glyph-name="ring" unicode="&#x2da;" 
d="M250 1143q-55 0 -109.5 -69t-54.5 -138q0 -38 19 -60t53 -22q58 0 109.5 68t51.5 135q0 38 -19 62t-50 24zM20 950q0 83 67 148t157 65q59 0 96 -35t37 -92q0 -83 -64.5 -141.5t-158.5 -58.5q-60 0 -97 33t-37 81z" />
    <glyph glyph-name="ogonek" unicode="&#x2db;" 
d="M-150 2q-178 -135 -178 -264q0 -59 34 -91t95 -32q63 0 125 45l4 -16q-109 -86 -217 -86q-68 0 -109.5 38.5t-41.5 104.5q0 74 60.5 140t199.5 161h28z" />
    <glyph glyph-name="tilde" unicode="&#x2dc;" 
d="M-61 905q29 111 66 159t104 48q41 0 140.5 -40t156.5 -40q54 0 81 21.5t62 87.5l14 -4q-22 -64 -38 -101t-38 -66t-48.5 -40.5t-63.5 -11.5q-52 0 -155 45t-150 45q-88 0 -109 -107z" />
    <glyph glyph-name="hungarumlaut" unicode="&#x2dd;" 
d="M-98 825l313 430h205l-510 -438zM215 825l315 430h203l-510 -438z" />
    <glyph glyph-name="endash" unicode="&#x2013;" 
d="M-238 483h783l-66 -112h-780z" />
    <glyph glyph-name="emdash" unicode="&#x2014;" horiz-adv-x="2048" 
d="M-336 483h2005l-67 -112h-2008z" />
    <glyph glyph-name="quoteleft" unicode="&#x2018;" horiz-adv-x="454" 
d="M274 1219l5 -15q-155 -7 -254.5 -77t-133.5 -193q20 14 43 14q40 0 62 -23.5t22 -64.5q0 -36 -28 -63t-70 -27q-53 0 -84 33t-31 90q0 123 129 218.5t340 107.5z" />
    <glyph glyph-name="quoteright" unicode="&#x2019;" horiz-adv-x="454" 
d="M-311 719v14q140 17 229.5 86.5t120.5 184.5q-19 -13 -41 -13q-40 0 -62 22.5t-22 63.5q0 36 28 63t70 27q53 0 84 -33t31 -90q0 -117 -119.5 -209.5t-318.5 -115.5z" />
    <glyph glyph-name="quotesinglbase" unicode="&#x201a;" horiz-adv-x="454" 
d="M-688 -260v16q142 17 230.5 85.5t119.5 183.5q-20 -13 -41 -13q-40 0 -62 23.5t-22 64.5q0 36 28 63t70 27q53 0 84 -32.5t31 -89.5q0 -117 -119.5 -211t-318.5 -117z" />
    <glyph glyph-name="quotedblleft" unicode="&#x201c;" horiz-adv-x="792" 
d="M274 1219l5 -15q-155 -7 -254.5 -77t-133.5 -193q20 14 43 14q40 0 62 -23.5t22 -64.5q0 -36 -28 -63t-70 -27q-53 0 -84 33t-31 90q0 123 129 218.5t340 107.5zM610 1219l4 -15q-154 -7 -252.5 -76.5t-132.5 -193.5q21 14 41 14q40 0 62 -23.5t22 -64.5q0 -36 -28 -63
t-70 -27q-53 0 -84 33t-31 90q0 123 129 218.5t340 107.5z" />
    <glyph glyph-name="quotedblright" unicode="&#x201d;" horiz-adv-x="792" 
d="M-311 719v14q140 17 229.5 86.5t120.5 184.5q-19 -13 -41 -13q-40 0 -62 22.5t-22 63.5q0 36 28 63t70 27q53 0 84 -33t31 -90q0 -117 -119.5 -209.5t-318.5 -115.5zM27 719v14q140 17 229.5 86.5t120.5 184.5q-20 -13 -41 -13q-38 0 -61 22.5t-23 59.5q0 41 27.5 67.5
t70.5 26.5q53 0 84 -33t31 -90q0 -117 -119.5 -209.5t-318.5 -115.5z" />
    <glyph glyph-name="quotedblbase" unicode="&#x201e;" horiz-adv-x="886" 
d="M-688 -260v16q142 17 230.5 85.5t119.5 183.5q-20 -13 -41 -13q-40 0 -62 23.5t-22 64.5q0 36 28 63t70 27q53 0 84 -32.5t31 -89.5q0 -117 -119.5 -211t-318.5 -117zM-352 -260v16q142 17 231.5 86t120.5 183q-20 -13 -43 -13q-40 0 -62 23.5t-22 64.5q0 36 28 63t70 27
q53 0 84 -32.5t31 -89.5q0 -117 -119.5 -211t-318.5 -117z" />
    <glyph glyph-name="dagger" unicode="&#x2020;" 
d="M782 969l-14 -23h-854l14 23h854zM375 1036l135 355q10 28 31.5 44.5t44.5 16.5q30 0 49.5 -18t19.5 -45q0 -29 -18 -50l-246 -311zM-281 -84l474 911q30 58 73 58q21 0 37 -16.5t16 -37.5t-22 -57l-557 -858h-21z" />
    <glyph glyph-name="daggerdbl" unicode="&#x2021;" 
d="M371 1057l133 352q10 28 31.5 44.5t44.5 16.5q30 0 49.5 -18t19.5 -45q0 -30 -16 -49l-248 -311zM750 1006l-13 -25h-784l12 25h785zM80 524l127 334q9 26 29.5 41.5t42.5 15.5q29 0 48 -17t19 -42q0 -26 -18 -47l-234 -295zM-233 -51l147 385q10 29 31.5 45t46.5 16
q29 0 48 -19t19 -48q0 -27 -20 -54l-256 -335zM436 473l-12 -22h-784l12 22h784z" />
    <glyph glyph-name="bullet" unicode="&#x2022;" horiz-adv-x="1208" 
d="M307 762q0 123 87 209t210 86q122 0 208.5 -86t86.5 -209q0 -122 -87 -209.5t-210 -87.5t-209 87t-86 210z" />
    <glyph glyph-name="ellipsis" unicode="&#x2026;" horiz-adv-x="2048" 
d="M1059 195q43 0 73.5 -31t30.5 -74q0 -42 -31 -73t-73 -31q-41 0 -73 31.5t-32 72.5q0 43 31 74t74 31zM-307 195q43 0 73.5 -31t30.5 -74q0 -42 -31 -73t-73 -31q-41 0 -72 31.5t-31 72.5q0 42 30.5 73.5t72.5 31.5zM377 195q43 0 73.5 -31t30.5 -74q0 -42 -31 -73
t-73 -31q-41 0 -73 31.5t-32 72.5q0 43 31 74t74 31z" />
    <glyph glyph-name="perthousand" unicode="&#x2030;" horiz-adv-x="2365" 
d="M-111 -96l764 1018l-2 6q-99 -80 -176 -80q-62 0 -133 59q0 -9 -1 -20.5t-1 -14.5q0 -71 -36 -147.5t-103 -140.5q-68 -65 -155.5 -102.5t-158.5 -37.5q-84 0 -137 58t-53 151q0 77 40 154t116 141q66 55 144.5 86t152.5 31q78 0 128.5 -37t61.5 -100q66 -66 133 -66
q62 0 112.5 35.5t110.5 108.5q6 7 16.5 20t15 18t12.5 14t13 13t11.5 8.5t13 6t13.5 1.5q16 0 26 -9.5t10 -22.5q0 -20 -25 -55t-91 -115l-807 -989zM-117 461q77 0 178 125q80 100 122 203.5t42 173.5q0 84 -69 84q-68 0 -168 -109q-83 -92 -130.5 -199.5t-47.5 -181.5
q0 -46 20 -71t53 -25zM1075 408q0 -80 -46.5 -166.5t-127.5 -151.5q-67 -52 -142.5 -81t-137.5 -29q-84 0 -137.5 58t-53.5 150q0 78 40.5 156.5t115.5 140.5q65 55 144.5 85t152.5 30q90 0 141 -51t51 -141zM616 -4q76 0 179 127q80 100 121.5 203t41.5 174q0 82 -69 82
q-70 0 -168 -107q-82 -90 -130 -198.5t-48 -182.5q0 -46 20 -72t53 -26zM1352 -4q75 0 178 127q80 100 122 203.5t42 173.5q0 82 -70 82t-168 -107q-82 -90 -130 -198.5t-48 -182.5q0 -46 20.5 -72t53.5 -26zM1808 410q0 -81 -45.5 -168.5t-126.5 -151.5q-67 -52 -142 -80
t-138 -28q-84 0 -137.5 58t-53.5 150q0 78 40.5 155.5t115.5 139.5q65 55 144.5 85t152.5 30q90 0 140 -50t50 -140z" />
    <glyph glyph-name="guilsinglleft" unicode="&#x2039;" horiz-adv-x="681" 
d="M-102 16l-238 301l422 318l8 -12l-283 -306l101 -292z" />
    <glyph glyph-name="guilsinglright" unicode="&#x203a;" horiz-adv-x="681" 
d="M-174 635l235 -301l-419 -318l-9 13l283 303l-100 293z" />
    <glyph glyph-name="fraction" unicode="&#x2044;" horiz-adv-x="342" 
d="M489 1176q-448 -522 -1026 -1223l-129 -8q582 667 1033 1224z" />
    <glyph glyph-name="trademark" unicode="&#x2122;" horiz-adv-x="1683" 
d="M256 1438h440l11 -178h-25q-8 78 -40.5 114.5t-96.5 36.5h-21v-426q0 -50 45 -53l31 -2v-27h-248v27l31 2q45 3 45 53v426h-20q-64 0 -97 -36.5t-41 -114.5h-26zM788 1438h183l141 -400l148 400h174v-25l-29 -2q-47 -3 -47 -53v-373q0 -50 47 -53l29 -2v-27h-236v27l31 2
q45 3 45 53v395l-178 -479h-15l-174 479v-395q0 -24 13 -37.5t34 -15.5l31 -2v-27h-197v27l33 2q45 3 45 53v371q0 24 -13 37.5t-34 15.5l-31 2v27z" />
    <glyph glyph-name="minus" unicode="&#x2212;" horiz-adv-x="1705" 
d="M254 670h1198v-119h-1198v119z" />
    <glyph glyph-name="fi" unicode="&#xfb01;" horiz-adv-x="1083" 
d="M-1290 -104h-19q-95 0 -148.5 -61t-53.5 -167q0 -97 61.5 -156t163.5 -59q196 0 386.5 198.5t434.5 620.5l234 402h-172l16 22h170q380 678 758 678q107 0 169 -54t62 -144q0 -67 -37.5 -109.5t-93.5 -42.5q-44 0 -74 29.5t-30 72.5q0 42 28.5 72.5t67.5 30.5q9 0 63 -15
q0 65 -37.5 103.5t-101.5 38.5q-110 0 -213.5 -109t-247.5 -348l-123 -203h527l-295 -473q-58 -96 -58 -153q0 -19 14.5 -33t37.5 -14q71 0 219.5 129.5t333.5 373.5l10 -6q-199 -264 -363 -401t-270 -137q-60 0 -94.5 35.5t-34.5 97.5q0 82 76 204l217 355h-332l-293 -508
q-213 -372 -455 -553.5t-530 -181.5q-181 0 -282 70.5t-101 193.5q0 105 78 172t201 67q61 0 135 -18z" />
    <glyph glyph-name="fl" unicode="&#xfb02;" horiz-adv-x="1089" 
d="M-1290 -104h-17q-95 0 -149.5 -61t-54.5 -167q0 -97 61.5 -156t163.5 -59q192 0 389 201t432 618l227 402h-165l16 22h168q193 332 380.5 505t336.5 173q131 0 131 -127q0 -22 -2 -45l92 148l203 26q-4 -6 -31 -48.5t-69 -110.5t-89 -144l-444 -719q-129 -208 -129 -276
q0 -53 53 -53q65 0 217.5 132.5t325.5 372.5l10 -6q-189 -266 -353.5 -404t-275.5 -138q-61 0 -94 33t-33 94q0 106 187 405l98 160h-342l-285 -508q-414 -735 -985 -735q-181 0 -282 70.5t-101 193.5q0 105 78 172t201 67q61 0 135 -18zM311 696l256 416q12 20 23.5 60
t11.5 75q0 49 -24 76t-64 27q-154 0 -412 -428l-137 -226h346z" />
  </font>
</defs>
</svg>
