<?xml version="1.0" standalone="no"?>
<!DOCTYPE svg PUBLIC "-//W3C//DTD SVG 1.1//EN" "http://www.w3.org/Graphics/SVG/1.1/DTD/svg11.dtd" >
<svg xmlns="http://www.w3.org/2000/svg" xmlns:xlink="http://www.w3.org/1999/xlink" version="1.1">
<metadata>
Created by FontForge 20170731 at Fri Mar  4 15:04:50 2022
 By Aleksey,,,
</metadata>
<defs>
<font id="AltonaSans-Italic" horiz-adv-x="0" >
  <font-face 
    font-family="Altona Sans"
    font-weight="500"
    font-style="italic"
    font-stretch="normal"
    units-per-em="1000"
    panose-1="0 0 0 0 0 0 0 0 0 0"
    ascent="800"
    descent="-200"
    x-height="374"
    cap-height="700"
    bbox="-193.8 -280 999.2 933"
    underline-thickness="50"
    underline-position="-200"
    unicode-range="U+0020-2265"
  />
<missing-glyph horiz-adv-x="480" 
d="M143 760h305l-135 -960h-305zM249 -134l4 32h-98l73 45h31l5 32h-160l-5 -32h68l-74 -45l-4 -32h160zM267 -3l15 108h-160l-15 -108h160zM290 163l16 108h-96l-8 -53h32l3 22h32l-6 -45h-96l11 76h-32l-16 -108h160zM150 74h96l-7 -46h-96zM308 292l14 96h-32l-9 -63
h-128l-5 -33h160zM252 347l10 67h64l4 32h-160l-4 -32h64l-5 -35h-64l-5 -32h96zM334 472l4 33h-64l10 67h-96l-14 -100h160zM351 597l5 31h-64l5 36h64l4 32h-159l-4 -32h63l-5 -36h-64l-5 -31h160zM215 539h32l-5 -34h-32z" />
    <glyph glyph-name=".notdef" horiz-adv-x="480" 
d="M143 760h305l-135 -960h-305zM249 -134l4 32h-98l73 45h31l5 32h-160l-5 -32h68l-74 -45l-4 -32h160zM267 -3l15 108h-160l-15 -108h160zM290 163l16 108h-96l-8 -53h32l3 22h32l-6 -45h-96l11 76h-32l-16 -108h160zM150 74h96l-7 -46h-96zM308 292l14 96h-32l-9 -63
h-128l-5 -33h160zM252 347l10 67h64l4 32h-160l-4 -32h64l-5 -35h-64l-5 -32h96zM334 472l4 33h-64l10 67h-96l-14 -100h160zM351 597l5 31h-64l5 36h64l4 32h-159l-4 -32h63l-5 -36h-64l-5 -31h160zM215 539h32l-5 -34h-32z" />
    <glyph glyph-name=".null" 
 />
    <glyph glyph-name="nonmarkingreturn" horiz-adv-x="333" 
 />
    <glyph glyph-name="space" unicode=" " horiz-adv-x="180" 
 />
    <glyph glyph-name="exclam" unicode="!" horiz-adv-x="278" 
d="M79 194q-5 5 -3 13l57 476q2 7 8 12t14 5h63q8 0 12.5 -5t2.5 -12l-80 -476q-2 -8 -8 -13t-14 -5h-39q-8 0 -13 5zM57.5 95.5q20.5 19.5 46.5 19.5q21 0 34.5 -14t13.5 -35q0 -26 -19 -45.5t-45 -19.5q-22 0 -36.5 14t-14.5 35q0 26 20.5 45.5z" />
    <glyph glyph-name="quotedbl" unicode="&#x22;" horiz-adv-x="262" 
d="M69 516l14 173q0 6 3.5 9t9.5 3h54q15 0 12 -17l-38 -169q-2 -5 -6.5 -9.5t-9.5 -4.5h-25q-17 0 -14 15zM202 690q2 12 13 12h54q14 0 12 -17l-38 -169q-2 -6 -6.5 -10t-10.5 -4h-24q-15 0 -14 15z" />
    <glyph glyph-name="numbersign" unicode="#" horiz-adv-x="597" 
d="M47.5 4.5q-2.5 4.5 -0.5 10.5l52 171h-78q-6 0 -10 4t-3 10l7 51q1 6 6 10t11 4h91l51 168h-88q-6 0 -10 4t-3 10l8 52q1 5 5.5 9t10.5 4h100l54 173q2 6 7 10.5t12 4.5h59q6 0 8.5 -4.5t0.5 -10.5l-53 -173h111l52 173q2 6 7.5 10.5t11.5 4.5h58q6 0 8.5 -4.5t0.5 -10.5
l-52 -173h85q7 0 11 -4t3 -9l-8 -52q-1 -6 -5.5 -10t-11.5 -4h-98l-50 -168h94q6 0 10 -4t3 -10l-7 -51q-2 -6 -6.5 -10t-10.5 -4h-107l-51 -171q-7 -15 -19 -15h-58q-7 0 -9.5 4.5t0.5 10.5l51 171h-111l-52 -171q-2 -6 -7.5 -10.5t-11.5 -4.5h-59q-7 0 -9.5 4.5zM322 265
l50 168h-111l-50 -168h111z" />
    <glyph glyph-name="dollar" unicode="$" horiz-adv-x="502" 
d="M164.5 -77.5q-4.5 4.5 -3.5 10.5l8 60q-57 7 -103 39t-64 87l-1 5q0 9 11 16l62 29q2 1 5 1q9 0 12 -10q9 -32 33.5 -53t57.5 -28l34 247q-27 14 -41 24q-43 29 -68.5 64t-25.5 83q0 15 1 22q10 70 62.5 121.5t125.5 64.5l9 68q1 6 6.5 10.5t12.5 4.5h39q7 0 10.5 -4.5
t2.5 -10.5l-9 -66q58 -7 99.5 -40t59.5 -81l1 -3q0 -6 -3 -11t-8 -6l-59 -23q-2 -1 -6 -1q-9 0 -12 9q-10 30 -32.5 47.5t-51.5 23.5l-34 -238q51 -26 82 -47t51 -52t20 -75q0 -59 -29.5 -106t-77.5 -76t-101 -36l-8 -59q-1 -6 -5.5 -10.5t-11.5 -4.5h-39q-7 0 -11.5 4.5z
M173 506q0 -27 15.5 -49.5t40.5 -38.5l28 199q-32 -11 -54.5 -36t-28.5 -60q-1 -5 -1 -15zM326.5 118q29.5 30 29.5 78q0 31 -19 53.5t-55 42.5l-30 -214q45 10 74.5 40z" />
    <glyph glyph-name="percent" unicode="%" horiz-adv-x="617" 
d="M30.5 4q-2.5 4 1.5 10l439 672q9 14 21 14h47q6 0 8 -4t-2 -10l-438 -672q-9 -14 -20 -14h-47q-7 0 -9.5 4zM73 625.5q21 33.5 55 54t72 20.5q48 0 79.5 -31.5t31.5 -79.5q0 -39 -20.5 -73t-54.5 -54t-72 -20q-48 0 -80 32t-32 79q0 39 21 72.5zM129 518q17 -17 42 -17
q32 0 55.5 24t23.5 57q0 29 -19 44t-40 15q-30 0 -54.5 -24.5t-24.5 -56.5q0 -25 17 -42zM301 182.5q21 34.5 55.5 55t72.5 20.5q48 0 79.5 -31.5t31.5 -79.5q0 -39 -21 -73t-55 -54t-72 -20q-48 0 -80 31t-32 78q0 39 21 73.5zM358 76q17 -17 42 -17q32 0 55.5 24t23.5 57
q0 28 -19.5 43.5t-40.5 15.5q-32 0 -55 -24t-23 -57q0 -25 17 -42z" />
    <glyph glyph-name="ampersand" unicode="&#x26;" horiz-adv-x="685" 
d="M157.5 14q-47.5 24 -73 65.5t-25.5 92.5q0 68 43.5 130.5t131.5 115.5q-24 32 -39 65q-13 26 -13 59q0 40 20.5 77t59 60.5t91.5 24.5q60 0 96 -35t36 -91q0 -12 -1 -18q-9 -90 -136 -162l153 -184q22 30 56 115q4 8 8 12.5t13 5.5l52 1h2q7 0 10 -5.5t1 -12.5
q-33 -96 -92 -179l70 -82q4 -4 4 -9q0 -8 -11 -17l-37 -35q-7 -5 -11 -5q-7 0 -14 9l-56 70q-101 -92 -226 -92q-65 0 -112.5 24zM187.5 103.5q38.5 -30.5 91.5 -30.5q42 0 86.5 19.5t75.5 53.5l-167 203q-31 -20 -55.5 -38.5t-47 -51t-22.5 -72.5q0 -53 38.5 -83.5z
M261 554q0 -21 12 -44t34 -45q3 -3 20.5 7.5t21.5 12.5q25 20 39.5 37t15.5 39l1 10q0 28 -17.5 42.5t-42.5 14.5q-27 0 -51 -16t-32 -44q-1 -4 -1 -14z" />
    <glyph glyph-name="quotesingle" unicode="'" horiz-adv-x="143" 
d="M69 515l14 173q0 6 3.5 9t9.5 3h54q16 0 11 -17l-37 -169q-2 -5 -6.5 -9.5t-9.5 -4.5h-25q-17 0 -14 15z" />
    <glyph glyph-name="parenleft" unicode="(" horiz-adv-x="325" 
d="M69.5 29.5q-38.5 86.5 -38.5 186.5q0 138 70 267.5t197 209.5q6 3 10 3q7 0 10 -6l22 -37q2 -3 2 -9q0 -8 -8 -13q-100 -70 -155 -180.5t-55 -227.5q0 -82 29 -154t85 -122q5 -5 5 -10t-5 -12l-32 -37q-6 -7 -13 -7q-4 0 -9 3q-76 59 -114.5 145.5z" />
    <glyph glyph-name="parenright" unicode=")" horiz-adv-x="324" 
d="M-7 -119q-7 0 -11 7l-22 37q-2 4 -2 7q0 10 8 15q100 70 155.5 181.5t55.5 228.5q0 82 -29 153t-86 121q-4 4 -4 10q0 7 4 12l32 37q6 6 13 6q5 0 9 -3q76 -58 114.5 -144.5t38.5 -186.5q0 -90 -31 -179t-91 -167t-145 -132q-5 -3 -9 -3z" />
    <glyph glyph-name="asterisk" unicode="*" horiz-adv-x="334" 
d="M145.5 396.5q-3.5 5.5 -2.5 12.5l12 89l-82 -45q-6 -3 -10 -3q-8 0 -12 7l-9 23q-1 2 -1 5q0 11 12 18l84 44l-71 46q-8 5 -8 13q0 5 3 9l15 22q7 7 13 7t10 -3l70 -44l12 86q2 7 7 12t10 5h30q5 0 8.5 -5t2.5 -12l-12 -87l81 43q6 3 11 3q9 0 12 -8l10 -21v-3
q0 -13 -13 -20l-80 -43l68 -42q7 -4 7 -13q0 -6 -2 -9l-16 -23q-1 -3 -5 -5t-8 -2t-9 3l-69 44l-13 -91q-1 -7 -6.5 -12.5t-10.5 -5.5h-30q-5 0 -8.5 5.5z" />
    <glyph glyph-name="plus" unicode="+" horiz-adv-x="391" 
d="M132 175q-5 5 -3 13l14 102h-106q-8 0 -12 5.5t-3 13.5l6 43q1 8 6 13t13 5h107l16 110q1 7 6.5 12.5t13.5 5.5h43q9 0 13.5 -4.5t3.5 -12.5l-16 -111h106q8 0 12.5 -5t3.5 -13l-6 -43q-1 -8 -7 -13.5t-14 -5.5h-106l-14 -102q-2 -8 -7.5 -13t-13.5 -5h-43q-8 0 -13 5z
" />
    <glyph glyph-name="comma" unicode="," horiz-adv-x="236" 
d="M-18 -69l67 172q3 12 18 12h75q11 0 11 -8q0 -3 -3 -9l-95 -171q-6 -12 -19 -12h-44q-17 0 -10 16z" />
    <glyph glyph-name="hyphen" unicode="-" horiz-adv-x="384" 
d="M60.5 249.5q-4.5 5.5 -3.5 13.5l6 43q1 8 6.5 13t13.5 5h203q8 0 12 -5t3 -13l-6 -43q-1 -8 -6.5 -13.5t-13.5 -5.5h-202q-8 0 -12.5 5.5z" />
    <glyph glyph-name="period" unicode="." horiz-adv-x="206" 
d="M14.5 14q-13.5 14 -13.5 35q0 26 19 45.5t45 19.5q22 0 36.5 -14t14.5 -35q0 -26 -20.5 -45.5t-46.5 -19.5q-21 0 -34.5 14z" />
    <glyph glyph-name="slash" unicode="/" horiz-adv-x="360" 
d="M-21.5 3q-2.5 4 0.5 11l324 670q3 6 9 10.5t12 4.5h57q5 0 7.5 -4.5t-0.5 -10.5l-324 -670q-3 -7 -8.5 -11t-11.5 -4h-56q-7 0 -9.5 4z" />
    <glyph glyph-name="zero" unicode="0" horiz-adv-x="616" 
d="M112.5 54.5q-52.5 57.5 -59.5 164.5q-3 54 6.5 125.5t25.5 127.5q37 116 106.5 177.5t165.5 62.5q90 0 141.5 -57t58.5 -165q1 -11 1 -35q0 -53 -9 -112.5t-24 -105.5q-36 -115 -105.5 -177t-164.5 -63q-90 0 -142.5 57.5zM369.5 131q45.5 54 70.5 136.5t25 163.5
q0 87 -30.5 143.5t-89.5 56.5q-58 0 -103 -53.5t-69.5 -135t-24.5 -162.5q0 -89 30 -146t89 -57q57 0 102.5 54z" />
    <glyph glyph-name="one" unicode="1" horiz-adv-x="317" 
d="M89.5 9.5q-5.5 5.5 -3.5 12.5l76 567l-88 -50q-7 -5 -16 -5q-7 0 -10 5t-2 15l7 47q2 14 6 22t17 16l87 54q17 11 42 11h46q7 0 12 -5t4 -12l-93 -665q-2 -7 -8 -12.5t-13 -5.5h-50q-8 0 -13.5 5.5z" />
    <glyph glyph-name="two" unicode="2" horiz-adv-x="477" 
d="M-11.5 8.5q-3.5 4.5 -2.5 10.5l9 61q10 45 51 87.5t121 108.5q63 51 101.5 87t65 78t26.5 85q0 42 -26.5 66.5t-65.5 24.5q-32 0 -63.5 -18.5t-53.5 -53.5q-7 -12 -20 -12q-6 0 -8 1l-55 25q-10 5 -7 18q0 3 1 5t1 4q40 61 96.5 93.5t121.5 32.5q77 0 124.5 -46.5
t47.5 -120.5q0 -22 -2 -33q-8 -58 -46 -113t-85.5 -99t-116.5 -100q-54 -44 -79.5 -68t-28.5 -41h266q6 0 9.5 -4t2.5 -10l-8 -58q-1 -6 -5.5 -10.5t-10.5 -4.5h-350q-7 0 -10.5 4.5z" />
    <glyph glyph-name="three" unicode="3" horiz-adv-x="498" 
d="M64 33q-49 37 -67 87q1 2 0.5 4.5t0.5 4.5q0 10 9 15l58 24q8 3 13 3q10 0 17 -16q12 -35 39.5 -52.5t62.5 -17.5q45 0 83.5 29.5t47.5 78.5q3 18 3 34q0 56 -39 83.5t-118 27.5q-7 0 -11 4.5t-3 12.5l6 39q1 9 8 14.5t16 5.5q66 0 111 27t58 72q4 16 4 33q0 38 -25 60
t-62 22q-36 0 -72 -21t-60 -61q-7 -12 -19 -12q-3 0 -5 2l-49 25q-14 9 -7 20q43 65 102 97.5t122 32.5q51 0 89.5 -21.5t58.5 -58t20 -79.5q0 -50 -28 -98t-83 -82q39 -26 58.5 -64t19.5 -81q0 -57 -31 -110.5t-86 -87t-123 -33.5q-70 0 -119 37z" />
    <glyph glyph-name="four" unicode="4" horiz-adv-x="516" 
d="M271 10q-5 6 -4 16l20 143h-294q-7 0 -11 4t-3 11l8 53q0 2 3 8l375 453q6 8 22 8h48q8 0 12.5 -5t3.5 -12l-61 -438h66q7 0 11.5 -4t3.5 -10l-8 -53q-1 -7 -6 -11t-13 -4h-66l-20 -143q-2 -9 -8.5 -15.5t-15.5 -6.5h-49q-9 0 -14 6zM299 251l42 300l-246 -300h204z" />
    <glyph glyph-name="five" unicode="5" horiz-adv-x="472" 
d="M75 25q-44 28 -64 79v-1q-1 1 -1 8q2 10 12 15l53 24l7 2q11 0 14 -10q8 -28 34 -46t63 -18q41 0 71.5 22.5t47 58.5t16.5 74q0 51 -30 85.5t-87 34.5q-30 0 -69 -12q-2 -1 -9 -3.5t-14 -2.5q-3 0 -9 2l-40 20q-8 3 -8 13q0 4 2 12l71 305l2 4q0 5 7 10q2 3 4 3h296
q5 0 9.5 -4t3.5 -9l-8 -57q-1 -5 -6 -9t-10 -4h-225l-46 -199q42 9 76 9q89 0 136 -53t47 -132q0 -61 -28.5 -118.5t-82 -94t-124.5 -36.5q-67 0 -111 28z" />
    <glyph glyph-name="six" unicode="6" horiz-adv-x="486" 
d="M69.5 46q-49.5 49 -49.5 144q0 118 75.5 254t196.5 245q9 8 17 11.5t19 3.5h70q14 0 14 -12q0 -9 -8 -14q-81 -57 -142.5 -134t-97.5 -155q7 9 36 20t65 11q39 0 79 -16t68 -55t28 -103q0 -13 -4 -45q-13 -70 -51 -116t-87 -67t-96 -21q-83 0 -132.5 49zM281 99
q31 24 47.5 61t16.5 75q0 46 -25 77t-73 31q-41 0 -71.5 -23.5t-46.5 -59.5t-16 -74q0 -47 24.5 -79t71.5 -32q41 0 72 24z" />
    <glyph glyph-name="seven" unicode="7" horiz-adv-x="407" 
d="M22.5 9.5q-4.5 5.5 -4.5 13.5q0 3 2 11q62 160 133 302.5t179 285.5h-270q-13 0 -11 13l8 56q1 5 5.5 9t8.5 4h366q5 0 9.5 -4t3.5 -9l-8 -56q-2 -6 -7 -9q-105 -125 -187.5 -289.5t-139.5 -321.5q-1 -5 -6.5 -8t-11.5 -3h-56q-9 0 -13.5 5.5z" />
    <glyph glyph-name="eight" unicode="8" horiz-adv-x="530" 
d="M113.5 21.5q-43.5 24.5 -65.5 65.5t-22 89q0 57 32.5 110.5t93.5 87.5q-34 25 -50.5 58.5t-16.5 70.5q0 52 29 100t81.5 78.5t117.5 30.5q84 0 129 -45t45 -111q0 -50 -27.5 -99.5t-78.5 -82.5q38 -22 57 -60t19 -82q0 -57 -29.5 -111.5t-84 -89t-126.5 -34.5
q-60 0 -103.5 24.5zM296 94q32 23 49 58.5t17 72.5q0 45 -26 75.5t-76 30.5q-41 0 -72.5 -22.5t-48 -58t-16.5 -72.5q0 -46 25.5 -76.5t73.5 -30.5q42 0 74 23zM335.5 428q28.5 20 43.5 51.5t15 64.5q0 41 -23.5 68t-68.5 26q-38 0 -66 -20t-43 -50.5t-15 -62.5
q0 -41 23.5 -69t67.5 -28q38 0 66.5 20z" />
    <glyph glyph-name="nine" unicode="9" horiz-adv-x="486" 
d="M69 15q0 9 8 15q80 58 141.5 135t98.5 154q-53 -26 -105 -26q-48 0 -87 23t-61 63.5t-22 91.5q0 18 3 36q13 70 52.5 116.5t88 67.5t91.5 21q81 0 132 -51.5t51 -144.5q0 -117 -75.5 -252.5t-195.5 -244.5q-18 -15 -42 -15h-65q-13 0 -13 11zM304.5 386.5
q30.5 23.5 47 60t16.5 74.5q0 48 -24.5 79.5t-72.5 31.5q-41 0 -72.5 -24t-48.5 -61t-17 -75q0 -47 25.5 -78t74.5 -31q41 0 71.5 23.5z" />
    <glyph glyph-name="colon" unicode=":" horiz-adv-x="237" 
d="M67 272.5q-14 13.5 -14 34.5q0 26 19.5 46t45.5 20q22 0 36 -14.5t14 -35.5q0 -26 -20 -45t-46 -19q-21 0 -35 13.5zM35 93.5q19 19.5 45 19.5q22 0 36.5 -14t14.5 -35q0 -26 -20.5 -45.5t-46.5 -19.5q-21 0 -34.5 14t-13.5 35q0 26 19 45.5z" />
    <glyph glyph-name="semicolon" unicode=";" horiz-adv-x="262" 
d="M-5 -93.5q-3 4.5 0 12.5l67 171q4 13 18 13h75q11 0 11 -9q0 -5 -2 -8l-96 -172q-7 -12 -18 -12h-44q-8 0 -11 4.5zM99 355.5q19 19.5 45 19.5q22 0 36 -14.5t14 -35.5q0 -26 -20 -45t-46 -19q-21 0 -34.5 14t-13.5 35q0 26 19 45.5z" />
    <glyph glyph-name="less" unicode="&#x3c;" horiz-adv-x="217" 
d="M64 74l-73 111l-2 5q0 4 5 12l103 114q5 8 18 8h59q6 0 8 -4.5t-2 -10.5l-107 -116l75 -112q1 -2 1 -5q0 -4 -3 -7t-8 -3h-59q-10 0 -15 8z" />
    <glyph glyph-name="equal" unicode="=" horiz-adv-x="481" 
d="M71 300.5q-4 5.5 -3 13.5l6 43q1 8 6 13t13 5h293q8 0 12.5 -5t3.5 -13l-6 -43q-1 -8 -7 -13.5t-14 -5.5h-292q-8 0 -12 5.5zM51 198q1 8 6.5 13t13.5 5h293q8 0 12 -5t3 -13l-6 -43q-1 -8 -6.5 -13.5t-13.5 -5.5h-292q-8 0 -12.5 5.5t-3.5 13.5z" />
    <glyph glyph-name="greater" unicode="&#x3e;" horiz-adv-x="217" 
d="M-15 70.5q-2 4.5 2 10.5l107 112l-75 116q-1 2 -1 5q0 4 3 7t8 3h59q12 0 16 -8l71 -114q1 -3 1 -7q0 -6 -4 -10l-103 -111q-7 -8 -17 -8h-59q-6 0 -8 4.5z" />
    <glyph glyph-name="question" unicode="?" horiz-adv-x="454" 
d="M145.5 193q-3.5 4 -3.5 10q3 40 28 77.5t74 94.5q50 56 74 92q27 41 27 80q0 37 -24.5 60t-60.5 23q-32 0 -63 -19.5t-55 -60.5q-5 -10 -15 -10l-6 1l-48 32q-8 5 -8 12q0 4 1 6.5t2 4.5q41 59 95.5 88.5t109.5 29.5q44 0 81 -18.5t59 -52t22 -78.5q0 -64 -44 -135
q-23 -37 -73 -91q-41 -47 -61.5 -75.5t-22.5 -57.5q0 -7 -5.5 -12t-12.5 -5h-61q-6 0 -9.5 4zM132 97q20 20 47 20q21 0 34.5 -14.5t13.5 -36.5q0 -26 -19 -45.5t-45 -19.5q-22 0 -36.5 14t-14.5 35q0 27 20 47z" />
    <glyph glyph-name="at" unicode="@" horiz-adv-x="845" 
d="M316 -80q-42 0 -97.5 17t-101.5 52q-47 36 -75 92t-28 129q0 27 2 42q11 101 72 194.5t162.5 151.5t225.5 58q92 0 167.5 -38.5t116.5 -109t34 -164.5q-5 -76 -48 -155t-113 -118q-41 -23 -85 -23q-36 0 -58.5 18t-22.5 52q0 15 4 30q-33 -28 -69 -42t-71 -14
q-61 0 -102.5 37.5t-41.5 98.5q0 22 8 51q14 50 50 92t85 66.5t99 25.5q44 0 73 -19t39 -48l12 54q0 3 3.5 6t7.5 3h64q2 0 4 -3t1 -6l-86 -314q-4 -15 15 -15q21 0 50.5 19.5t58 61.5t42.5 106q7 29 7 61q0 69 -37 117t-97 71.5t-130 23.5q-84 0 -162.5 -43.5
t-131.5 -116.5t-64 -156q-4 -32 -4 -47q0 -158 167 -212q26 -8 75 -10q20 0 19 -14l-6 -47q0 -6 -4.5 -10t-10.5 -4q-5 -1 -18 -1zM278 249q0 -34 22 -57t58 -23q35 0 68 20t54 52t21 66t-23 55.5t-61 21.5q-44 0 -83 -30.5t-52 -75.5q-4 -13 -4 -29z" />
    <glyph glyph-name="A" unicode="A" horiz-adv-x="674" 
d="M503 8l-44 191h-289l-100 -190q-2 -4 -6.5 -6.5t-8.5 -2.5h-75q-6 0 -10 4.5t1 12.5l360 667q3 7 9.5 11t12.5 4h68q8 0 14 -4t7 -11l161 -667v-3q0 -6 -5 -10.5t-11 -4.5h-73q-9 0 -11 9zM439 284l-68 296l-157 -296h225z" />
    <glyph glyph-name="A" unicode="&#xc5;" horiz-adv-x="674" 
d="M503 8l-44 191h-289l-100 -190q-2 -4 -6.5 -6.5t-8.5 -2.5h-75q-6 0 -10 4.5t1 12.5l360 667q3 7 9.5 11t12.5 4h68q8 0 14 -4t7 -11l161 -667v-3q0 -6 -5 -10.5t-11 -4.5h-73q-9 0 -11 9zM439 284l-68 296l-157 -296h225z" />
    <glyph glyph-name="A" unicode="&#xc3;" horiz-adv-x="674" 
d="M503 8l-44 191h-289l-100 -190q-2 -4 -6.5 -6.5t-8.5 -2.5h-75q-6 0 -10 4.5t1 12.5l360 667q3 7 9.5 11t12.5 4h68q8 0 14 -4t7 -11l161 -667v-3q0 -6 -5 -10.5t-11 -4.5h-73q-9 0 -11 9zM439 284l-68 296l-157 -296h225z" />
    <glyph glyph-name="A" unicode="&#xc2;" horiz-adv-x="674" 
d="M503 8l-44 191h-289l-100 -190q-2 -4 -6.5 -6.5t-8.5 -2.5h-75q-6 0 -10 4.5t1 12.5l360 667q3 7 9.5 11t12.5 4h68q8 0 14 -4t7 -11l161 -667v-3q0 -6 -5 -10.5t-11 -4.5h-73q-9 0 -11 9zM439 284l-68 296l-157 -296h225z" />
    <glyph glyph-name="A" unicode="&#xc1;" horiz-adv-x="674" 
d="M503 8l-44 191h-289l-100 -190q-2 -4 -6.5 -6.5t-8.5 -2.5h-75q-6 0 -10 4.5t1 12.5l360 667q3 7 9.5 11t12.5 4h68q8 0 14 -4t7 -11l161 -667v-3q0 -6 -5 -10.5t-11 -4.5h-73q-9 0 -11 9zM439 284l-68 296l-157 -296h225z" />
    <glyph glyph-name="A" unicode="&#xc0;" horiz-adv-x="674" 
d="M503 8l-44 191h-289l-100 -190q-2 -4 -6.5 -6.5t-8.5 -2.5h-75q-6 0 -10 4.5t1 12.5l360 667q3 7 9.5 11t12.5 4h68q8 0 14 -4t7 -11l161 -667v-3q0 -6 -5 -10.5t-11 -4.5h-73q-9 0 -11 9zM439 284l-68 296l-157 -296h225z" />
    <glyph glyph-name="B" unicode="B" horiz-adv-x="587" 
d="M46.5 4.5q-3.5 4.5 -2.5 10.5l94 670q1 6 6 10.5t11 4.5h199q82 -1 129 -41t47 -110q0 -20 -2 -31q-6 -47 -30 -90.5t-65 -62.5q33 -18 56.5 -58.5t23.5 -90.5q0 -8 -2 -28q-7 -52 -43 -95t-89.5 -68t-113.5 -25h-209q-6 0 -9.5 4.5zM274 84q58 0 100 32.5t49 81.5
q2 14 2 20q0 48 -32 77t-85 29h-127l-34 -241zM305 401q60 0 94 25.5t42 83.5q2 14 2 20q0 41 -28 63.5t-80 22.5h-113l-30 -215h113z" />
    <glyph glyph-name="C" unicode="C" horiz-adv-x="607" 
d="M328 -6q-81 0 -148 38.5t-105.5 107t-38.5 155.5q0 31 4 56q14 101 72.5 182t144 127t175.5 46q92 0 170 -50q5 -3 5 -10q0 -5 -3 -10q-21 -21 -34.5 -33.5t-19 -14.5t-11.5 1q-54 32 -116 32q-66 0 -128 -35t-104.5 -97t-53.5 -138q-3 -22 -3 -43q0 -66 28.5 -117.5
t77 -80t108.5 -28.5q61 0 124 31q5 3 8 3q6 0 13 -8.5t28 -37.5q1 -2 1 -6q0 -14 -12 -20q-91 -50 -182 -50z" />
    <glyph glyph-name="C" unicode="&#xc7;" horiz-adv-x="607" 
d="M328 -6q-81 0 -148 38.5t-105.5 107t-38.5 155.5q0 31 4 56q14 101 72.5 182t144 127t175.5 46q92 0 170 -50q5 -3 5 -10q0 -5 -3 -10q-21 -21 -34.5 -33.5t-19 -14.5t-11.5 1q-54 32 -116 32q-66 0 -128 -35t-104.5 -97t-53.5 -138q-3 -22 -3 -43q0 -66 28.5 -117.5
t77 -80t108.5 -28.5q61 0 124 31q5 3 8 3q6 0 13 -8.5t28 -37.5q1 -2 1 -6q0 -14 -12 -20q-91 -50 -182 -50z" />
    <glyph glyph-name="D" unicode="D" horiz-adv-x="697" 
d="M46.5 4.5q-3.5 4.5 -2.5 10.5l94 670q1 6 6 10.5t11 4.5h207q87 -1 153 -40t102 -106t36 -150q0 -30 -4 -55q-14 -96 -69 -176t-138.5 -126.5t-178.5 -46.5h-207q-6 0 -9.5 4.5zM275 93q71 0 131.5 34t100.5 93t50 132q3 21 3 42q0 62 -26 110.5t-74 75.5t-112 27h-127
l-72 -514h126z" />
    <glyph glyph-name="E" unicode="E" horiz-adv-x="559" 
d="M46 4.5q-4 4.5 -2 10.5l94 670q1 6 6 10.5t12 4.5h384q6 0 10 -4.5t3 -10.5l-9 -60q-1 -6 -6 -10.5t-11 -4.5h-305l-31 -221h264q6 0 10 -4t3 -10l-8 -55q-1 -7 -6 -11t-11 -4h-264l-30 -215h303q6 0 11 -4.5t4 -10.5l-8 -60q-2 -6 -6.5 -10.5t-11.5 -4.5h-384
q-7 0 -11 4.5z" />
    <glyph glyph-name="E" unicode="&#xcb;" horiz-adv-x="559" 
d="M46 4.5q-4 4.5 -2 10.5l94 670q1 6 6 10.5t12 4.5h384q6 0 10 -4.5t3 -10.5l-9 -60q-1 -6 -6 -10.5t-11 -4.5h-305l-31 -221h264q6 0 10 -4t3 -10l-8 -55q-1 -7 -6 -11t-11 -4h-264l-30 -215h303q6 0 11 -4.5t4 -10.5l-8 -60q-2 -6 -6.5 -10.5t-11.5 -4.5h-384
q-7 0 -11 4.5z" />
    <glyph glyph-name="E" unicode="&#xca;" horiz-adv-x="559" 
d="M46 4.5q-4 4.5 -2 10.5l94 670q1 6 6 10.5t12 4.5h384q6 0 10 -4.5t3 -10.5l-9 -60q-1 -6 -6 -10.5t-11 -4.5h-305l-31 -221h264q6 0 10 -4t3 -10l-8 -55q-1 -7 -6 -11t-11 -4h-264l-30 -215h303q6 0 11 -4.5t4 -10.5l-8 -60q-2 -6 -6.5 -10.5t-11.5 -4.5h-384
q-7 0 -11 4.5z" />
    <glyph glyph-name="E" unicode="&#xc9;" horiz-adv-x="559" 
d="M46 4.5q-4 4.5 -2 10.5l94 670q1 6 6 10.5t12 4.5h384q6 0 10 -4.5t3 -10.5l-9 -60q-1 -6 -6 -10.5t-11 -4.5h-305l-31 -221h264q6 0 10 -4t3 -10l-8 -55q-1 -7 -6 -11t-11 -4h-264l-30 -215h303q6 0 11 -4.5t4 -10.5l-8 -60q-2 -6 -6.5 -10.5t-11.5 -4.5h-384
q-7 0 -11 4.5z" />
    <glyph glyph-name="E" unicode="&#xc8;" horiz-adv-x="559" 
d="M46 4.5q-4 4.5 -2 10.5l94 670q1 6 6 10.5t12 4.5h384q6 0 10 -4.5t3 -10.5l-9 -60q-1 -6 -6 -10.5t-11 -4.5h-305l-31 -221h264q6 0 10 -4t3 -10l-8 -55q-1 -7 -6 -11t-11 -4h-264l-30 -215h303q6 0 11 -4.5t4 -10.5l-8 -60q-2 -6 -6.5 -10.5t-11.5 -4.5h-384
q-7 0 -11 4.5z" />
    <glyph glyph-name="F" unicode="F" horiz-adv-x="538" 
d="M46 4.5q-4 4.5 -2 10.5l94 670q1 6 6 10.5t12 4.5h386q6 0 10 -4.5t3 -10.5l-9 -60q-1 -6 -6 -10.5t-11 -4.5h-307l-33 -239h253q6 0 9.5 -4.5t2.5 -10.5l-7 -55q-1 -6 -6 -10.5t-11 -4.5h-253l-38 -271q-2 -6 -7 -10.5t-11 -4.5h-64q-7 0 -11 4.5z" />
    <glyph glyph-name="G" unicode="G" horiz-adv-x="691" 
d="M185 28.5q-70 40.5 -109.5 110.5t-39.5 157q0 23 3 47q15 120 80 203.5t151.5 124.5t165.5 41q47 0 100.5 -13.5t91.5 -50.5q4 -4 4 -9q0 -7 -6 -13l-41 -43q-3 -4 -9 -5t-10 2q-59 45 -136 45q-71 0 -135 -36t-107.5 -100t-54.5 -146q-3 -19 -3 -39q0 -64 29 -116
t80 -81.5t114 -29.5q40 0 82.5 8.5t66.5 26.5l25 177h-129q-6 0 -10 4.5t-3 10.5l8 53q1 6 6 10.5t11 4.5h210q6 0 9.5 -4.5t2.5 -10.5l-34 -241l-6 -37q-12 -23 -47 -44t-87.5 -34t-114.5 -13q-88 0 -158 40.5z" />
    <glyph glyph-name="H" unicode="H" horiz-adv-x="716" 
d="M46 4.5q-4 4.5 -2 10.5l94 670q1 6 6 10.5t12 4.5h64q6 0 10 -4.5t3 -10.5l-43 -302h337l43 302q1 6 6.5 10.5t12.5 4.5h64q6 0 10 -4.5t3 -10.5l-94 -670q-2 -6 -7 -10.5t-11 -4.5h-64q-7 0 -11.5 4.5t-2.5 10.5l39 279h-337l-39 -279q-2 -6 -7 -10.5t-11 -4.5h-64
q-7 0 -11 4.5z" />
    <glyph glyph-name="I" unicode="I" horiz-adv-x="283" 
d="M46 4.5q-4 4.5 -2 10.5l94 670q1 6 6 10.5t12 4.5h64q6 0 10 -4.5t3 -10.5l-94 -670q-2 -6 -7 -10.5t-11 -4.5h-64q-7 0 -11 4.5z" />
    <glyph glyph-name="I" unicode="&#xcf;" horiz-adv-x="283" 
d="M46 4.5q-4 4.5 -2 10.5l94 670q1 6 6 10.5t12 4.5h64q6 0 10 -4.5t3 -10.5l-94 -670q-2 -6 -7 -10.5t-11 -4.5h-64q-7 0 -11 4.5z" />
    <glyph glyph-name="I" unicode="&#xce;" horiz-adv-x="283" 
d="M46 4.5q-4 4.5 -2 10.5l94 670q1 6 6 10.5t12 4.5h64q6 0 10 -4.5t3 -10.5l-94 -670q-2 -6 -7 -10.5t-11 -4.5h-64q-7 0 -11 4.5z" />
    <glyph glyph-name="I" unicode="&#xcd;" horiz-adv-x="283" 
d="M46 4.5q-4 4.5 -2 10.5l94 670q1 6 6 10.5t12 4.5h64q6 0 10 -4.5t3 -10.5l-94 -670q-2 -6 -7 -10.5t-11 -4.5h-64q-7 0 -11 4.5z" />
    <glyph glyph-name="I" unicode="&#xcc;" horiz-adv-x="283" 
d="M46 4.5q-4 4.5 -2 10.5l94 670q1 6 6 10.5t12 4.5h64q6 0 10 -4.5t3 -10.5l-94 -670q-2 -6 -7 -10.5t-11 -4.5h-64q-7 0 -11 4.5z" />
    <glyph glyph-name="J" unicode="J" horiz-adv-x="299" 
d="M-80 0q-3 4 -2 9l8 60q2 8 8 12.5t13 3.5q18 -2 29 -2q54 0 93 32.5t49 102.5l66 472q1 4 6 7t12 3h64q6 0 10 -3t3 -7l-67 -474q-17 -116 -87 -169.5t-162 -53.5q-12 0 -34 2q-6 1 -9 5z" />
    <glyph glyph-name="K" unicode="K" horiz-adv-x="618" 
d="M46 4.5q-4 4.5 -2 10.5l94 670q1 6 6 10.5t12 4.5h64q6 0 10 -4.5t3 -10.5l-44 -310l341 314q12 11 28 11h63q9 0 15 -4.5t6 -10.5q0 -7 -7 -14l-342 -318l245 -320q6 -7 6 -14q0 -9 -8.5 -14t-18.5 -5h-61q-13 0 -19 4t-10 9.5t-6 7.5l-237 316l-45 -322q-2 -6 -7 -10.5
t-11 -4.5h-64q-7 0 -11 4.5z" />
    <glyph glyph-name="L" unicode="L" horiz-adv-x="532" 
d="M46 4.5q-4 4.5 -2 10.5l94 670q1 6 6 10.5t12 4.5h64q6 0 10 -4.5t3 -10.5l-84 -595h308q7 0 10.5 -4.5t2.5 -10.5l-8 -60q-2 -6 -6.5 -10.5t-11.5 -4.5h-387q-7 0 -11 4.5z" />
    <glyph glyph-name="M" unicode="M" horiz-adv-x="798" 
d="M-6 4.5q-3 4.5 -1 10.5l152 672q2 6 6 9.5t10 3.5h50q8 -1 12.5 -4.5t7.5 -14.5l135 -542l287 542q9 17 26 19h50q6 0 9 -3.5t3 -9.5l-36 -672q-1 -6 -5.5 -10.5t-11.5 -4.5h-69q-5 0 -9 4.5t-3 10.5l35 467l-248 -463q-7 -13 -16.5 -16t-31.5 -3q-20 0 -29.5 3t-12.5 16
l-120 463l-94 -467q-1 -6 -6.5 -10.5t-10.5 -4.5h-70q-6 0 -9 4.5z" />
    <glyph glyph-name="N" unicode="N" horiz-adv-x="761" 
d="M46.5 4.5q-3.5 4.5 -2.5 10.5l94 670q1 6 6 10.5t11 4.5h38q10 0 16.5 -4t12.5 -15l323 -501l71 505q1 6 6 10.5t12 4.5h64q6 0 10 -4.5t3 -10.5l-94 -670q-2 -6 -7 -10.5t-11 -4.5h-37q-16 0 -31 20l-320 509l-72 -514q-2 -6 -7 -10.5t-11 -4.5h-65q-6 0 -9.5 4.5z" />
    <glyph glyph-name="N" unicode="&#xd1;" horiz-adv-x="761" 
d="M46.5 4.5q-3.5 4.5 -2.5 10.5l94 670q1 6 6 10.5t11 4.5h38q10 0 16.5 -4t12.5 -15l323 -501l71 505q1 6 6 10.5t12 4.5h64q6 0 10 -4.5t3 -10.5l-94 -670q-2 -6 -7 -10.5t-11 -4.5h-37q-16 0 -31 20l-320 509l-72 -514q-2 -6 -7 -10.5t-11 -4.5h-65q-6 0 -9.5 4.5z" />
    <glyph glyph-name="O" unicode="O" horiz-adv-x="793" 
d="M185.5 35.5q-70.5 39.5 -110 109t-39.5 154.5q0 17 4 51q14 96 72.5 177.5t146.5 129t184 47.5q88 0 158 -40t109.5 -109.5t39.5 -155.5q0 -23 -3 -49q-14 -96 -73 -177.5t-147 -129t-183 -47.5q-88 0 -158.5 39.5zM132 311q0 -64 29 -116t80 -82t115 -30q70 0 134 36
t107.5 97t53.5 134q3 20 3 39q0 64 -29 116t-79.5 82t-114.5 30q-70 0 -134.5 -35.5t-108 -97t-53.5 -134.5q-3 -19 -3 -39z" />
    <glyph glyph-name="O" unicode="&#xd8;" horiz-adv-x="793" 
d="M185.5 35.5q-70.5 39.5 -110 109t-39.5 154.5q0 17 4 51q14 96 72.5 177.5t146.5 129t184 47.5q88 0 158 -40t109.5 -109.5t39.5 -155.5q0 -23 -3 -49q-14 -96 -73 -177.5t-147 -129t-183 -47.5q-88 0 -158.5 39.5zM132 311q0 -64 29 -116t80 -82t115 -30q70 0 134 36
t107.5 97t53.5 134q3 20 3 39q0 64 -29 116t-79.5 82t-114.5 30q-70 0 -134.5 -35.5t-108 -97t-53.5 -134.5q-3 -19 -3 -39z" />
    <glyph glyph-name="O" unicode="&#xd5;" horiz-adv-x="793" 
d="M185.5 35.5q-70.5 39.5 -110 109t-39.5 154.5q0 17 4 51q14 96 72.5 177.5t146.5 129t184 47.5q88 0 158 -40t109.5 -109.5t39.5 -155.5q0 -23 -3 -49q-14 -96 -73 -177.5t-147 -129t-183 -47.5q-88 0 -158.5 39.5zM132 311q0 -64 29 -116t80 -82t115 -30q70 0 134 36
t107.5 97t53.5 134q3 20 3 39q0 64 -29 116t-79.5 82t-114.5 30q-70 0 -134.5 -35.5t-108 -97t-53.5 -134.5q-3 -19 -3 -39z" />
    <glyph glyph-name="O" unicode="&#xd4;" horiz-adv-x="793" 
d="M185.5 35.5q-70.5 39.5 -110 109t-39.5 154.5q0 17 4 51q14 96 72.5 177.5t146.5 129t184 47.5q88 0 158 -40t109.5 -109.5t39.5 -155.5q0 -23 -3 -49q-14 -96 -73 -177.5t-147 -129t-183 -47.5q-88 0 -158.5 39.5zM132 311q0 -64 29 -116t80 -82t115 -30q70 0 134 36
t107.5 97t53.5 134q3 20 3 39q0 64 -29 116t-79.5 82t-114.5 30q-70 0 -134.5 -35.5t-108 -97t-53.5 -134.5q-3 -19 -3 -39z" />
    <glyph glyph-name="O" unicode="&#xd3;" horiz-adv-x="793" 
d="M185.5 35.5q-70.5 39.5 -110 109t-39.5 154.5q0 17 4 51q14 96 72.5 177.5t146.5 129t184 47.5q88 0 158 -40t109.5 -109.5t39.5 -155.5q0 -23 -3 -49q-14 -96 -73 -177.5t-147 -129t-183 -47.5q-88 0 -158.5 39.5zM132 311q0 -64 29 -116t80 -82t115 -30q70 0 134 36
t107.5 97t53.5 134q3 20 3 39q0 64 -29 116t-79.5 82t-114.5 30q-70 0 -134.5 -35.5t-108 -97t-53.5 -134.5q-3 -19 -3 -39z" />
    <glyph glyph-name="O" unicode="&#xd2;" horiz-adv-x="793" 
d="M185.5 35.5q-70.5 39.5 -110 109t-39.5 154.5q0 17 4 51q14 96 72.5 177.5t146.5 129t184 47.5q88 0 158 -40t109.5 -109.5t39.5 -155.5q0 -23 -3 -49q-14 -96 -73 -177.5t-147 -129t-183 -47.5q-88 0 -158.5 39.5zM132 311q0 -64 29 -116t80 -82t115 -30q70 0 134 36
t107.5 97t53.5 134q3 20 3 39q0 64 -29 116t-79.5 82t-114.5 30q-70 0 -134.5 -35.5t-108 -97t-53.5 -134.5q-3 -19 -3 -39z" />
    <glyph glyph-name="P" unicode="P" horiz-adv-x="558" 
d="M46 4.5q-4 4.5 -2 10.5l94 670q1 6 6 10.5t11 4.5h205q56 0 99.5 -26t67.5 -71.5t24 -101.5q0 -23 -2 -35q-8 -61 -46 -113.5t-95 -84t-118 -31.5h-121l-31 -222q-2 -6 -6.5 -10.5t-10.5 -4.5h-64q-7 0 -11 4.5zM299 325q43 0 80.5 23t59.5 61.5t22 84.5q0 54 -33.5 88.5
t-87.5 34.5h-118l-41 -292h118z" />
    <glyph glyph-name="Q" unicode="Q" horiz-adv-x="794" 
d="M185.5 35.5q-70.5 39.5 -110 109t-39.5 154.5q0 17 4 51q14 96 72.5 177.5t146.5 129t184 47.5q88 0 158 -40t109.5 -109.5t39.5 -155.5q0 -23 -3 -49q-11 -75 -49.5 -141t-96.5 -115l35 -65q2 -3 2 -9q0 -8 -7.5 -14t-17.5 -6h-51q-9 0 -17 13l-17 31q-88 -48 -184 -48
q-88 0 -158.5 39.5zM131 312q0 -64 29 -116t80 -82t114 -30q67 0 132 35l-69 123q-2 3 -2 10q0 9 6.5 16t16.5 7h49q16 0 23 -11l49 -91q36 37 59.5 82.5t30.5 95.5q3 20 3 39q0 64 -29 116t-80 81.5t-114 29.5q-70 0 -134 -35.5t-107.5 -96.5t-53.5 -134q-3 -19 -3 -39z
" />
    <glyph glyph-name="R" unicode="R" horiz-adv-x="606" 
d="M46.5 4.5q-3.5 4.5 -2.5 10.5l94 670q1 6 6 10.5t11 4.5h220q56 0 99.5 -26t67.5 -71.5t24 -101.5q0 -23 -2 -35q-9 -64 -49.5 -118t-98.5 -83l81 -243v-3q0 -6 -4.5 -12.5t-11.5 -6.5h-65q-6 0 -11 3.5t-7 9.5l-75 225q-6 -1 -18 -1h-136l-31 -222q-2 -6 -6.5 -10.5
t-11.5 -4.5h-64q-6 0 -9.5 4.5zM314 325q43 0 80.5 23t59.5 61.5t22 84.5q0 54 -33.5 88.5t-87.5 34.5h-133l-41 -292h133z" />
    <glyph glyph-name="S" unicode="S" horiz-adv-x="515" 
d="M89.5 22.5q-57.5 32.5 -80.5 96.5l-1 5q0 6 3.5 10t7.5 6l62 29q2 1 5 1q9 0 12 -10q12 -41 47.5 -63.5t80.5 -22.5q55 0 96 32t41 88q0 29 -15.5 50t-38 35.5t-62.5 34.5q-42 21 -65 36q-44 29 -69.5 64t-25.5 82q0 7 2 23q7 53 40.5 96.5t83.5 68.5t106 25
q69 0 118.5 -34t69.5 -89l1 -3q0 -6 -3 -11t-8 -6l-59 -23q-2 -1 -6 -1q-9 0 -12 9q-13 36 -43 55t-66 19q-47 0 -85 -28.5t-45 -75.5q-1 -5 -1 -14q0 -30 19 -54.5t47 -40.5l40 -20q57 -28 91 -49.5t56 -54t22 -78.5q0 -65 -35.5 -115t-91.5 -77.5t-113 -27.5
q-68 0 -125.5 32.5z" />
    <glyph glyph-name="T" unicode="T" horiz-adv-x="481" 
d="M145.5 4.5q-4.5 4.5 -2.5 10.5l83 595h-179q-6 0 -9.5 4.5t-2.5 10.5l9 60q1 6 5.5 10.5t10.5 4.5h453q6 0 9.5 -4.5t2.5 -10.5l-9 -60q-1 -6 -5 -10.5t-11 -4.5h-179l-83 -595q-2 -6 -6.5 -10.5t-11.5 -4.5h-63q-7 0 -11.5 4.5z" />
    <glyph glyph-name="U" unicode="U" horiz-adv-x="705" 
d="M173 25.5q-55 32.5 -84 88t-23 122.5l63 449q1 6 6 10.5t11 4.5h65q6 0 10 -4.5t3 -10.5l-62 -438q-1 -7 -1 -20q0 -63 42 -105t108 -42q48 0 90.5 22.5t70.5 60.5t35 84l62 438q1 6 6 10.5t11 4.5h65q6 0 10 -4.5t3 -10.5l-63 -445q-11 -67 -55.5 -124t-110 -90
t-137.5 -33q-70 0 -125 32.5z" />
    <glyph glyph-name="U" unicode="&#xdb;" horiz-adv-x="705" 
d="M173 25.5q-55 32.5 -84 88t-23 122.5l63 449q1 6 6 10.5t11 4.5h65q6 0 10 -4.5t3 -10.5l-62 -438q-1 -7 -1 -20q0 -63 42 -105t108 -42q48 0 90.5 22.5t70.5 60.5t35 84l62 438q1 6 6 10.5t11 4.5h65q6 0 10 -4.5t3 -10.5l-63 -445q-11 -67 -55.5 -124t-110 -90
t-137.5 -33q-70 0 -125 32.5z" />
    <glyph glyph-name="U" unicode="&#xda;" horiz-adv-x="705" 
d="M173 25.5q-55 32.5 -84 88t-23 122.5l63 449q1 6 6 10.5t11 4.5h65q6 0 10 -4.5t3 -10.5l-62 -438q-1 -7 -1 -20q0 -63 42 -105t108 -42q48 0 90.5 22.5t70.5 60.5t35 84l62 438q1 6 6 10.5t11 4.5h65q6 0 10 -4.5t3 -10.5l-63 -445q-11 -67 -55.5 -124t-110 -90
t-137.5 -33q-70 0 -125 32.5z" />
    <glyph glyph-name="U" unicode="&#xd9;" horiz-adv-x="705" 
d="M173 25.5q-55 32.5 -84 88t-23 122.5l63 449q1 6 6 10.5t11 4.5h65q6 0 10 -4.5t3 -10.5l-62 -438q-1 -7 -1 -20q0 -63 42 -105t108 -42q48 0 90.5 22.5t70.5 60.5t35 84l62 438q1 6 6 10.5t11 4.5h65q6 0 10 -4.5t3 -10.5l-63 -445q-11 -67 -55.5 -124t-110 -90
t-137.5 -33q-70 0 -125 32.5z" />
    <glyph glyph-name="V" unicode="V" horiz-adv-x="627" 
d="M219.5 4.5q-5.5 4.5 -6.5 10.5l-172 664v3q0 7 4.5 12.5t10.5 5.5h75q6 0 11 -4.5t7 -10.5l130 -548l284 548q3 6 9.5 10.5t13.5 4.5h75q5 0 10 -4.5t2 -10.5l-362 -670q-4 -6 -10.5 -10.5t-12.5 -4.5h-56q-7 0 -12.5 4.5z" />
    <glyph glyph-name="W" unicode="W" horiz-adv-x="894" 
d="M186 0q-21 0 -23 16l-91 670v2q0 5 4.5 9t11.5 4h67q18 0 20 -15l59 -531l207 522q10 23 25 23h53q7 0 12.5 -5t6.5 -14l61 -525l208 530q6 15 24 15h68q7 0 10 -4.5t1 -10.5l-279 -672q-4 -11 -11.5 -12.5t-16.5 -1.5h-56q-6 0 -10.5 4.5t-4.5 10.5l-63 513l-208 -515
q-2 -6 -8 -9.5t-12 -3.5h-54h-1z" />
    <glyph glyph-name="X" unicode="X" horiz-adv-x="604" 
d="M-18 4q-4 3 -4 8q0 4 5 11l257 328l3 4l-160 323q-2 3 -2 8q0 6 5 10t12 4h64q11 0 18.5 -3.5t12.5 -15.5l120 -239l97 126q20 26 41.5 54.5t45.5 58.5q10 12 17.5 15.5t19.5 3.5h64q13 0 13 -11q0 -6 -4 -11l-252 -322l167 -333q2 -6 2 -8q0 -6 -5 -10t-12 -4h-64
q-11 0 -18.5 3.5t-13.5 15.5l-124 249l-195 -249q-9 -12 -16.5 -15.5t-19.5 -3.5h-64q-6 0 -10 3z" />
    <glyph glyph-name="Y" unicode="Y" horiz-adv-x="526" 
d="M169.5 5q-3.5 4 -2.5 11l46 327l-177 330q-2 6 -2 8q0 6 5 10.5t12 4.5h64q12 0 19 -3.5t12 -16.5l126 -247l193 247q9 13 17.5 16.5t19.5 3.5h64q6 0 10 -3t4 -8t-5 -12l-267 -330l-46 -327q-1 -7 -6 -11t-11 -4h-64q-8 0 -11.5 4z" />
    <glyph glyph-name="Y" unicode="&#x178;" horiz-adv-x="526" 
d="M169.5 5q-3.5 4 -2.5 11l46 327l-177 330q-2 6 -2 8q0 6 5 10.5t12 4.5h64q12 0 19 -3.5t12 -16.5l126 -247l193 247q9 13 17.5 16.5t19.5 3.5h64q6 0 10 -3t4 -8t-5 -12l-267 -330l-46 -327q-1 -7 -6 -11t-11 -4h-64q-8 0 -11.5 4z" />
    <glyph glyph-name="Y" unicode="&#xdd;" horiz-adv-x="526" 
d="M169.5 5q-3.5 4 -2.5 11l46 327l-177 330q-2 6 -2 8q0 6 5 10.5t12 4.5h64q12 0 19 -3.5t12 -16.5l126 -247l193 247q9 13 17.5 16.5t19.5 3.5h64q6 0 10 -3t4 -8t-5 -12l-267 -330l-46 -327q-1 -7 -6 -11t-11 -4h-64q-8 0 -11.5 4z" />
    <glyph glyph-name="Z" unicode="Z" horiz-adv-x="506" 
d="M-28 15q0 9 6 18l371 577h-278q-6 0 -10 4.5t-3 10.5l9 59q1 7 6 11.5t11 4.5h392q20 0 20 -15q0 -9 -6 -18l-370 -577h307q6 0 10 -4.5t3 -10.5l-8 -59q-2 -7 -7 -11.5t-12 -4.5h-421q-20 0 -20 15z" />
    <glyph glyph-name="bracketleft" unicode="[" horiz-adv-x="286" 
d="M3.5 -112q-3.5 4 -2.5 10l110 784q1 6 5.5 10t11.5 4h172q6 0 10.5 -4t3.5 -9l-6 -44q-1 -6 -6.5 -10.5t-11.5 -4.5q-28 3 -60 3l-40 2l-96 -679l41 2q31 0 61 3h2q5 0 9 -4.5t3 -9.5l-6 -44q-1 -5 -6.5 -9t-11.5 -4h-172q-7 0 -10.5 4z" />
    <glyph glyph-name="backslash" unicode="\" horiz-adv-x="359" 
d="M200 3q-4 4 -6 10l-134 671v3q0 11 11 11h56q7 0 11.5 -4t6.5 -10l133 -671v-3q0 -11 -12 -11h-56q-6 0 -10 4z" />
    <glyph glyph-name="bracketright" unicode="]" horiz-adv-x="286" 
d="M-49 -112q-4 4 -3 9l6 44q1 6 6 10.5t12 3.5q30 -3 60 -3l40 -2l96 679l-41 -2q-31 0 -61 -3q-7 0 -11 4.5t-3 10.5l6 44q1 5 6 9t12 4h172q7 0 10.5 -4t2.5 -10l-110 -784q-1 -6 -5.5 -10t-11.5 -4h-172q-7 0 -11 4z" />
    <glyph glyph-name="underscore" unicode="_" horiz-adv-x="424" 
d="M-45.5 -91.5q-4.5 5.5 -3.5 13.5l7 43q0 8 5.5 13.5t13.5 5.5h359q8 0 12.5 -5.5t3.5 -13.5l-7 -43q-1 -8 -6.5 -13.5t-13.5 -5.5h-358q-8 0 -12.5 5.5z" />
    <glyph glyph-name="grave" unicode="`" horiz-adv-x="264" 
d="M201 767l-70 71q-5 5 -5 10t6 9t14 4h69q16 0 23 -5.5t9.5 -11t3.5 -6.5l34 -66q3 -7 3 -12q0 -12 -12 -12h-32q-24 0 -43 19z" />
    <glyph glyph-name="a" unicode="a" horiz-adv-x="507" 
d="M93 21.5q-36 22.5 -56 60t-20 83.5q0 56 29.5 105t78 78.5t103.5 30.5q44 0 76 -19t46 -49l6 55q0 3 3 5.5t7 2.5h65q2 0 4.5 -2.5t2.5 -5.5l-49 -351q-3 -12 -16 -12h-57q-6 0 -8.5 3t-1.5 9l7 44q-28 -27 -65 -44t-74 -17q-45 1 -81 23.5zM128.5 105.5
q27.5 -29.5 68.5 -29.5q34 0 64 19t48 49t18 63q0 41 -27.5 67.5t-70.5 26.5q-33 0 -62.5 -17t-47.5 -45.5t-18 -62.5q0 -41 27.5 -70.5z" />
    <glyph glyph-name="a" unicode="&#xe5;" horiz-adv-x="507" 
d="M93 21.5q-36 22.5 -56 60t-20 83.5q0 56 29.5 105t78 78.5t103.5 30.5q44 0 76 -19t46 -49l6 55q0 3 3 5.5t7 2.5h65q2 0 4.5 -2.5t2.5 -5.5l-49 -351q-3 -12 -16 -12h-57q-6 0 -8.5 3t-1.5 9l7 44q-28 -27 -65 -44t-74 -17q-45 1 -81 23.5zM128.5 105.5
q27.5 -29.5 68.5 -29.5q34 0 64 19t48 49t18 63q0 41 -27.5 67.5t-70.5 26.5q-33 0 -62.5 -17t-47.5 -45.5t-18 -62.5q0 -41 27.5 -70.5z" />
    <glyph glyph-name="a" unicode="&#xe3;" horiz-adv-x="507" 
d="M93 21.5q-36 22.5 -56 60t-20 83.5q0 56 29.5 105t78 78.5t103.5 30.5q44 0 76 -19t46 -49l6 55q0 3 3 5.5t7 2.5h65q2 0 4.5 -2.5t2.5 -5.5l-49 -351q-3 -12 -16 -12h-57q-6 0 -8.5 3t-1.5 9l7 44q-28 -27 -65 -44t-74 -17q-45 1 -81 23.5zM128.5 105.5
q27.5 -29.5 68.5 -29.5q34 0 64 19t48 49t18 63q0 41 -27.5 67.5t-70.5 26.5q-33 0 -62.5 -17t-47.5 -45.5t-18 -62.5q0 -41 27.5 -70.5z" />
    <glyph glyph-name="a" unicode="&#xe2;" horiz-adv-x="507" 
d="M93 21.5q-36 22.5 -56 60t-20 83.5q0 56 29.5 105t78 78.5t103.5 30.5q44 0 76 -19t46 -49l6 55q0 3 3 5.5t7 2.5h65q2 0 4.5 -2.5t2.5 -5.5l-49 -351q-3 -12 -16 -12h-57q-6 0 -8.5 3t-1.5 9l7 44q-28 -27 -65 -44t-74 -17q-45 1 -81 23.5zM128.5 105.5
q27.5 -29.5 68.5 -29.5q34 0 64 19t48 49t18 63q0 41 -27.5 67.5t-70.5 26.5q-33 0 -62.5 -17t-47.5 -45.5t-18 -62.5q0 -41 27.5 -70.5z" />
    <glyph glyph-name="a" unicode="&#xe1;" horiz-adv-x="507" 
d="M93 21.5q-36 22.5 -56 60t-20 83.5q0 56 29.5 105t78 78.5t103.5 30.5q44 0 76 -19t46 -49l6 55q0 3 3 5.5t7 2.5h65q2 0 4.5 -2.5t2.5 -5.5l-49 -351q-3 -12 -16 -12h-57q-6 0 -8.5 3t-1.5 9l7 44q-28 -27 -65 -44t-74 -17q-45 1 -81 23.5zM128.5 105.5
q27.5 -29.5 68.5 -29.5q34 0 64 19t48 49t18 63q0 41 -27.5 67.5t-70.5 26.5q-33 0 -62.5 -17t-47.5 -45.5t-18 -62.5q0 -41 27.5 -70.5z" />
    <glyph glyph-name="a" unicode="&#xe0;" horiz-adv-x="507" 
d="M93 21.5q-36 22.5 -56 60t-20 83.5q0 56 29.5 105t78 78.5t103.5 30.5q44 0 76 -19t46 -49l6 55q0 3 3 5.5t7 2.5h65q2 0 4.5 -2.5t2.5 -5.5l-49 -351q-3 -12 -16 -12h-57q-6 0 -8.5 3t-1.5 9l7 44q-28 -27 -65 -44t-74 -17q-45 1 -81 23.5zM128.5 105.5
q27.5 -29.5 68.5 -29.5q34 0 64 19t48 49t18 63q0 41 -27.5 67.5t-70.5 26.5q-33 0 -62.5 -17t-47.5 -45.5t-18 -62.5q0 -41 27.5 -70.5z" />
    <glyph glyph-name="b" unicode="b" horiz-adv-x="512" 
d="M161.5 15q-33.5 17 -52.5 44l-3 -44q0 -5 -5 -8.5t-10 -3.5h-57q-5 0 -9 3.5t-3 8.5l94 674q1 5 6 9.5t10 4.5h57q5 0 8.5 -4.5t2.5 -9.5l-55 -379q17 23 56.5 46t84.5 23q46 0 82.5 -20.5t57 -58t20.5 -84.5q0 -57 -30.5 -106.5t-80 -80t-103.5 -31.5q-37 0 -70.5 17z
M133 170q0 -40 28 -68.5t69 -28.5q44 0 81 33.5t43 77.5q1 6 1 19q0 42 -26.5 70t-66.5 28q-45 0 -83 -34t-45 -83q-1 -5 -1 -14z" />
    <glyph glyph-name="c" unicode="c" horiz-adv-x="373" 
d="M57 45.5q-35 36.5 -42 87.5q-2 20 -2 29q0 26 10 62q16 52 57.5 92.5t94.5 54.5q25 8 55 8q51 0 95 -28q6 -6 1 -15l-34 -45q-1 -4 -6.5 -5t-9.5 1q-23 16 -54 16q-51 0 -86 -38t-35 -95q0 -40 25 -67t64 -27q18 0 34 5t35 15q4 2 7 2q6 0 10 -5l25 -40q1 -1 1 -3
q0 -7 -4 -11q-58 -41 -123 -41q-15 0 -32 3q-51 8 -86 44.5z" />
    <glyph glyph-name="c" unicode="&#xe7;" horiz-adv-x="373" 
d="M57 45.5q-35 36.5 -42 87.5q-2 20 -2 29q0 26 10 62q16 52 57.5 92.5t94.5 54.5q25 8 55 8q51 0 95 -28q6 -6 1 -15l-34 -45q-1 -4 -6.5 -5t-9.5 1q-23 16 -54 16q-51 0 -86 -38t-35 -95q0 -40 25 -67t64 -27q18 0 34 5t35 15q4 2 7 2q6 0 10 -5l25 -40q1 -1 1 -3
q0 -7 -4 -11q-58 -41 -123 -41q-15 0 -32 3q-51 8 -86 44.5z" />
    <glyph glyph-name="d" unicode="d" horiz-adv-x="511" 
d="M91.5 20.5q-36.5 21.5 -57.5 58t-21 80.5q0 8 2 26q8 54 39 98.5t77 70t96 25.5q44 0 75 -19.5t46 -46.5l52 376q1 5 5.5 9.5t9.5 4.5h56q6 0 9.5 -4.5t2.5 -9.5l-94 -674q-1 -5 -5.5 -8.5t-10.5 -3.5h-56q-5 0 -8.5 3.5t-2.5 8.5l9 44q-28 -27 -66 -44t-76 -17
q-45 1 -81.5 22.5zM102 170q0 -40 28 -68.5t68 -28.5q45 0 82 33t43 78q1 6 1 19q0 42 -27 70t-67 28q-45 0 -82.5 -34t-44.5 -83q-1 -5 -1 -14z" />
    <glyph glyph-name="e" unicode="e" horiz-adv-x="438" 
d="M43.5 61q-29.5 41 -29.5 97q0 40 15 80q19 53 60 90t94 46q20 4 42 4q70 0 110 -43.5t40 -114.5q0 -26 -6 -56q-1 -5 -5 -8.5t-9 -3.5h-254q-2 -19 8 -38.5t30.5 -31.5t47.5 -12q19 0 42.5 7.5t42.5 21.5l17 12q5 3 9 3q8 0 11 -5q5 -7 21 -37q2 -6 2 -9q0 -6 -5 -10
q-23 -20 -61 -37.5t-85 -17.5q-26 0 -56 8q-52 14 -81.5 55zM305 222q-3 40 -26 63.5t-60 23.5q-40 0 -71.5 -26t-39.5 -62z" />
    <glyph glyph-name="e" unicode="&#xeb;" horiz-adv-x="438" 
d="M43.5 61q-29.5 41 -29.5 97q0 40 15 80q19 53 60 90t94 46q20 4 42 4q70 0 110 -43.5t40 -114.5q0 -26 -6 -56q-1 -5 -5 -8.5t-9 -3.5h-254q-2 -19 8 -38.5t30.5 -31.5t47.5 -12q19 0 42.5 7.5t42.5 21.5l17 12q5 3 9 3q8 0 11 -5q5 -7 21 -37q2 -6 2 -9q0 -6 -5 -10
q-23 -20 -61 -37.5t-85 -17.5q-26 0 -56 8q-52 14 -81.5 55zM305 222q-3 40 -26 63.5t-60 23.5q-40 0 -71.5 -26t-39.5 -62z" />
    <glyph glyph-name="e" unicode="&#xea;" horiz-adv-x="438" 
d="M43.5 61q-29.5 41 -29.5 97q0 40 15 80q19 53 60 90t94 46q20 4 42 4q70 0 110 -43.5t40 -114.5q0 -26 -6 -56q-1 -5 -5 -8.5t-9 -3.5h-254q-2 -19 8 -38.5t30.5 -31.5t47.5 -12q19 0 42.5 7.5t42.5 21.5l17 12q5 3 9 3q8 0 11 -5q5 -7 21 -37q2 -6 2 -9q0 -6 -5 -10
q-23 -20 -61 -37.5t-85 -17.5q-26 0 -56 8q-52 14 -81.5 55zM305 222q-3 40 -26 63.5t-60 23.5q-40 0 -71.5 -26t-39.5 -62z" />
    <glyph glyph-name="e" unicode="&#xe9;" horiz-adv-x="438" 
d="M43.5 61q-29.5 41 -29.5 97q0 40 15 80q19 53 60 90t94 46q20 4 42 4q70 0 110 -43.5t40 -114.5q0 -26 -6 -56q-1 -5 -5 -8.5t-9 -3.5h-254q-2 -19 8 -38.5t30.5 -31.5t47.5 -12q19 0 42.5 7.5t42.5 21.5l17 12q5 3 9 3q8 0 11 -5q5 -7 21 -37q2 -6 2 -9q0 -6 -5 -10
q-23 -20 -61 -37.5t-85 -17.5q-26 0 -56 8q-52 14 -81.5 55zM305 222q-3 40 -26 63.5t-60 23.5q-40 0 -71.5 -26t-39.5 -62z" />
    <glyph glyph-name="e" unicode="&#xe8;" horiz-adv-x="438" 
d="M43.5 61q-29.5 41 -29.5 97q0 40 15 80q19 53 60 90t94 46q20 4 42 4q70 0 110 -43.5t40 -114.5q0 -26 -6 -56q-1 -5 -5 -8.5t-9 -3.5h-254q-2 -19 8 -38.5t30.5 -31.5t47.5 -12q19 0 42.5 7.5t42.5 21.5l17 12q5 3 9 3q8 0 11 -5q5 -7 21 -37q2 -6 2 -9q0 -6 -5 -10
q-23 -20 -61 -37.5t-85 -17.5q-26 0 -56 8q-52 14 -81.5 55zM305 222q-3 40 -26 63.5t-60 23.5q-40 0 -71.5 -26t-39.5 -62z" />
    <glyph glyph-name="f" unicode="f" horiz-adv-x="294" 
d="M57 8.5q-4 5.5 -2 13.5l39 281h-70q-10 0 -10 10l8 52q0 4 3.5 6.5t8.5 2.5h70l15 110q13 90 60.5 156.5t140.5 66.5q31 0 60 -7q15 -3 9 -17l-19 -56q-2 -6 -7 -9t-10 -1q-22 8 -41 8q-87 0 -110 -157l-13 -94h70q10 0 10 -9l-8 -52q0 -4 -3.5 -7t-8.5 -3h-70l-39 -281
q-2 -8 -7.5 -13.5t-13.5 -5.5h-51q-7 0 -11 5.5z" />
    <glyph glyph-name="g" unicode="g" horiz-adv-x="497" 
d="M113.5 -193q-3.5 4 -2.5 10l8 50q1 7 7.5 12t14.5 3q12 -2 33 -2q63 0 91 34t37 98l8 52q-35 -34 -72.5 -50.5t-74.5 -16.5q-44 0 -80.5 21.5t-58 59.5t-21.5 85q0 56 30.5 106t81 80.5t105.5 30.5q73 0 122 -65l4 47q0 4 4 8t9 4h66q5 0 8 -3.5t2 -8.5l-49 -351
q-13 -97 -65 -155t-151 -58q-22 0 -48 3q-5 2 -8.5 6zM118 105q27 -27 69 -27q33 0 63 18t48.5 47.5t18.5 62.5q0 41 -28 68.5t-70 27.5q-32 0 -62 -18.5t-48 -48.5t-18 -62q0 -41 27 -68z" />
    <glyph glyph-name="h" unicode="h" horiz-adv-x="495" 
d="M25 7.5q-4 4.5 -3 11.5l94 670q1 6 5.5 10t9.5 4h60q5 0 8.5 -4t2.5 -10l-52 -367q26 28 60.5 42.5t71.5 14.5q58 0 99.5 -33t41.5 -88q0 -7 -2 -21l-32 -217q-1 -7 -7 -12t-13 -5h-55q-7 0 -11 4.5t-3 11.5l25 175q2 16 2 24q0 41 -20 61t-52 20q-26 0 -52 -14t-45 -40
t-24 -59l-24 -165q-1 -11 -6.5 -14.5t-15.5 -3.5h-52q-7 0 -11 4.5z" />
    <glyph glyph-name="i" unicode="i" horiz-adv-x="224" 
d="M23 8q-5 5 -4 13l47 335q2 8 8 13t14 5h52q8 0 13 -5t3 -13l-46 -334q-2 -8 -7.5 -13.5t-12.5 -5.5h-54q-8 0 -13 5zM94.5 557q19.5 20 45.5 20q22 0 36 -14.5t14 -35.5q0 -26 -20 -45t-46 -19q-21 0 -35 13.5t-14 34.5q0 26 19.5 46z" />
    <glyph glyph-name="i" unicode="&#xef;" horiz-adv-x="224" 
d="M23 8q-5 5 -4 13l47 335q2 8 8 13t14 5h52q8 0 13 -5t3 -13l-46 -334q-2 -8 -7.5 -13.5t-12.5 -5.5h-54q-8 0 -13 5zM94.5 557q19.5 20 45.5 20q22 0 36 -14.5t14 -35.5q0 -26 -20 -45t-46 -19q-21 0 -35 13.5t-14 34.5q0 26 19.5 46z" />
    <glyph glyph-name="i" unicode="&#xee;" horiz-adv-x="224" 
d="M23 8q-5 5 -4 13l47 335q2 8 8 13t14 5h52q8 0 13 -5t3 -13l-46 -334q-2 -8 -7.5 -13.5t-12.5 -5.5h-54q-8 0 -13 5zM94.5 557q19.5 20 45.5 20q22 0 36 -14.5t14 -35.5q0 -26 -20 -45t-46 -19q-21 0 -35 13.5t-14 34.5q0 26 19.5 46z" />
    <glyph glyph-name="i" unicode="&#xed;" horiz-adv-x="224" 
d="M23 8q-5 5 -4 13l47 335q2 8 8 13t14 5h52q8 0 13 -5t3 -13l-46 -334q-2 -8 -7.5 -13.5t-12.5 -5.5h-54q-8 0 -13 5zM94.5 557q19.5 20 45.5 20q22 0 36 -14.5t14 -35.5q0 -26 -20 -45t-46 -19q-21 0 -35 13.5t-14 34.5q0 26 19.5 46z" />
    <glyph glyph-name="i" unicode="&#xec;" horiz-adv-x="224" 
d="M23 8q-5 5 -4 13l47 335q2 8 8 13t14 5h52q8 0 13 -5t3 -13l-46 -334q-2 -8 -7.5 -13.5t-12.5 -5.5h-54q-8 0 -13 5zM94.5 557q19.5 20 45.5 20q22 0 36 -14.5t14 -35.5q0 -26 -20 -45t-46 -19q-21 0 -35 13.5t-14 34.5q0 26 19.5 46z" />
    <glyph glyph-name="j" unicode="j" horiz-adv-x="248" 
d="M-66 -277q-6 0 -10.5 4.5t-2.5 10.5l13 62q2 6 5.5 10t8.5 3q38 -3 56 38.5t26 103.5l56 401q2 8 7.5 13t12.5 5h51q8 0 12 -5.5t3 -12.5l-53 -381q-20 -143 -69 -195t-114 -57h-2zM114.5 557q19.5 20 45.5 20q22 0 36 -14.5t14 -35.5q0 -26 -19.5 -45t-44.5 -19
q-22 0 -36.5 13.5t-14.5 34.5q0 26 19.5 46z" />
    <glyph glyph-name="k" unicode="k" horiz-adv-x="421" 
d="M26 8q-5 5 -4 13l94 663q1 8 7 13.5t14 5.5h51q8 0 12.5 -5.5t3.5 -13.5l-63 -437l124 115q9 8 16.5 10t20.5 2h75q13 0 13 -8q0 -5 -7 -12l-159 -132l130 -199q2 -2 2 -7q0 -6 -4.5 -9.5t-8.5 -3.5h-67h-5q-14 0 -20 8l-99 153l-25 -21l-17 -122q-1 -7 -6.5 -12.5
t-13.5 -5.5h-51q-8 0 -13 5z" />
    <glyph glyph-name="l" unicode="l" horiz-adv-x="234" 
d="M26 8.5q-5 5.5 -4 12.5l94 664q1 7 7 12.5t13 5.5h54q7 0 12 -5.5t4 -12.5l-93 -663q-1 -7 -7 -13t-12 -6h-56q-7 0 -12 5.5z" />
    <glyph glyph-name="m" unicode="m" horiz-adv-x="745" 
d="M24 8q-4 5 -3 11l48 339q1 7 6 11.5t12 4.5h52q7 0 11.5 -4.5t3.5 -11.5l-8 -37q21 30 53.5 44.5t69.5 14.5q40 0 75 -17.5t50 -46.5q27 31 65.5 48t78.5 17q38 0 71 -15q36 -15 52.5 -44t13.5 -56l-35 -246q-1 -6 -8 -11.5t-13 -5.5h-55q-7 0 -11.5 4.5t-3.5 11.5
l30 213l1 10q0 29 -22 45.5t-53 16.5q-29 0 -54.5 -13.5t-39.5 -39.5q-1 -1 -3 -9l-31 -221q-1 -7 -8 -12.5t-16 -5.5h-54q-6 0 -10.5 4.5t-3.5 11.5l29 209q1 4 1 11q0 30 -22.5 47t-54.5 17q-28 0 -54 -13.5t-40 -38.5l-33 -230q-1 -7 -7 -12.5t-15 -5.5h-54q-7 0 -11 5z
" />
    <glyph glyph-name="n" unicode="n" horiz-adv-x="491" 
d="M24.5 8q-4.5 5 -3.5 12l48 339q1 7 6.5 11t12.5 4h50q7 0 10.5 -4t2.5 -11l-9 -43q23 31 59 48t75 17q55 0 93 -31.5t38 -90.5q0 -7 -2 -23l-30 -215q-1 -9 -7.5 -13.5t-15.5 -4.5h-51q-6 0 -10.5 5.5t-3.5 12.5l27 188q2 16 2 22q0 38 -18.5 57t-47.5 19q-25 0 -51 -14
t-44.5 -41t-22.5 -62l-22 -168q-3 -19 -26 -19h-48q-7 0 -11.5 5z" />
    <glyph glyph-name="n" unicode="&#xf1;" horiz-adv-x="491" 
d="M24.5 8q-4.5 5 -3.5 12l48 339q1 7 6.5 11t12.5 4h50q7 0 10.5 -4t2.5 -11l-9 -43q23 31 59 48t75 17q55 0 93 -31.5t38 -90.5q0 -7 -2 -23l-30 -215q-1 -9 -7.5 -13.5t-15.5 -4.5h-51q-6 0 -10.5 5.5t-3.5 12.5l27 188q2 16 2 22q0 38 -18.5 57t-47.5 19q-25 0 -51 -14
t-44.5 -41t-22.5 -62l-22 -168q-3 -19 -26 -19h-48q-7 0 -11.5 5z" />
    <glyph glyph-name="o" unicode="o" horiz-adv-x="464" 
d="M94 19.5q-38 21.5 -59 59t-21 83.5q0 57 31 107t81.5 80t106.5 30q47 0 84.5 -21.5t59 -58.5t21.5 -83q0 -58 -31 -108t-81.5 -80t-106.5 -30q-47 0 -85 21.5zM123 105q26 -27 65 -27q32 0 61 18t46.5 47.5t17.5 63.5q0 46 -29.5 69.5t-63.5 23.5q-31 0 -59.5 -18
t-46 -47.5t-17.5 -62.5q0 -40 26 -67z" />
    <glyph glyph-name="o" unicode="&#xf8;" horiz-adv-x="464" 
d="M94 19.5q-38 21.5 -59 59t-21 83.5q0 57 31 107t81.5 80t106.5 30q47 0 84.5 -21.5t59 -58.5t21.5 -83q0 -58 -31 -108t-81.5 -80t-106.5 -30q-47 0 -85 21.5zM123 105q26 -27 65 -27q32 0 61 18t46.5 47.5t17.5 63.5q0 46 -29.5 69.5t-63.5 23.5q-31 0 -59.5 -18
t-46 -47.5t-17.5 -62.5q0 -40 26 -67z" />
    <glyph glyph-name="o" unicode="&#xf5;" horiz-adv-x="464" 
d="M94 19.5q-38 21.5 -59 59t-21 83.5q0 57 31 107t81.5 80t106.5 30q47 0 84.5 -21.5t59 -58.5t21.5 -83q0 -58 -31 -108t-81.5 -80t-106.5 -30q-47 0 -85 21.5zM123 105q26 -27 65 -27q32 0 61 18t46.5 47.5t17.5 63.5q0 46 -29.5 69.5t-63.5 23.5q-31 0 -59.5 -18
t-46 -47.5t-17.5 -62.5q0 -40 26 -67z" />
    <glyph glyph-name="o" unicode="&#xf4;" horiz-adv-x="464" 
d="M94 19.5q-38 21.5 -59 59t-21 83.5q0 57 31 107t81.5 80t106.5 30q47 0 84.5 -21.5t59 -58.5t21.5 -83q0 -58 -31 -108t-81.5 -80t-106.5 -30q-47 0 -85 21.5zM123 105q26 -27 65 -27q32 0 61 18t46.5 47.5t17.5 63.5q0 46 -29.5 69.5t-63.5 23.5q-31 0 -59.5 -18
t-46 -47.5t-17.5 -62.5q0 -40 26 -67z" />
    <glyph glyph-name="o" unicode="&#xf3;" horiz-adv-x="464" 
d="M94 19.5q-38 21.5 -59 59t-21 83.5q0 57 31 107t81.5 80t106.5 30q47 0 84.5 -21.5t59 -58.5t21.5 -83q0 -58 -31 -108t-81.5 -80t-106.5 -30q-47 0 -85 21.5zM123 105q26 -27 65 -27q32 0 61 18t46.5 47.5t17.5 63.5q0 46 -29.5 69.5t-63.5 23.5q-31 0 -59.5 -18
t-46 -47.5t-17.5 -62.5q0 -40 26 -67z" />
    <glyph glyph-name="o" unicode="&#xf2;" horiz-adv-x="464" 
d="M94 19.5q-38 21.5 -59 59t-21 83.5q0 57 31 107t81.5 80t106.5 30q47 0 84.5 -21.5t59 -58.5t21.5 -83q0 -58 -31 -108t-81.5 -80t-106.5 -30q-47 0 -85 21.5zM123 105q26 -27 65 -27q32 0 61 18t46.5 47.5t17.5 63.5q0 46 -29.5 69.5t-63.5 23.5q-31 0 -59.5 -18
t-46 -47.5t-17.5 -62.5q0 -40 26 -67z" />
    <glyph glyph-name="p" unicode="p" horiz-adv-x="491" 
d="M-33.5 -246q-3.5 4 -2.5 10l85 597q1 5 5.5 9t9.5 4h57q6 0 9.5 -4t2.5 -9l-9 -44q26 27 64 44.5t74 17.5q47 0 84 -21.5t58 -58.5t21 -83q0 -55 -30 -105.5t-79.5 -81.5t-104.5 -31q-51 1 -78 19.5t-43 39.5l-42 -293q-1 -6 -5.5 -10t-10.5 -4h-57q-5 0 -8.5 4zM142 106
q27 -29 68 -29q32 0 61 18t47 47.5t18 61.5q0 40 -27 67.5t-68 27.5q-32 0 -61 -17t-47 -46t-18 -61q0 -40 27 -69z" />
    <glyph glyph-name="q" unicode="q" horiz-adv-x="513" 
d="M273.5 -246q-3.5 4 -2.5 10l40 293q-58 -58 -137 -59q-46 0 -82.5 22.5t-57 60t-20.5 82.5q0 57 30.5 107t80.5 79.5t106 29.5q36 0 68.5 -17.5t51.5 -44.5l3 44q1 5 5.5 9t10.5 4h57q5 0 8.5 -4t2.5 -9l-83 -597q-1 -6 -5.5 -10t-9.5 -4h-57q-6 0 -9.5 4zM129.5 105.5
q26.5 -28.5 67.5 -28.5q32 0 61.5 18t47.5 47.5t18 60.5q0 41 -27.5 68.5t-68.5 27.5q-32 0 -61 -17.5t-46.5 -46.5t-17.5 -61q0 -40 26.5 -68.5z" />
    <glyph glyph-name="r" unicode="r" horiz-adv-x="283" 
d="M3 8q-4 5 -3 12l48 337q1 7 6 12t12 5h49q7 0 11.5 -5t2.5 -12l-9 -37q23 29 52.5 44t58.5 15q14 0 31 -5q10 -2 10 -12q0 -5 -3 -11q-18 -37 -24 -46t-15 -9q-5 0 -15.5 1.5t-22.5 1.5q-29 0 -49.5 -19.5t-27.5 -38.5l-31 -220q-2 -18 -23 -18h-47q-7 0 -11 5z" />
    <glyph glyph-name="s" unicode="s" horiz-adv-x="357" 
d="M-12 76q0 10 9 14l35 13q14 6 22 6q11 0 18 -11q10 -16 28 -23.5t38 -7.5q21 0 36.5 8.5t18.5 23.5q1 3 1 9q0 16 -18 28t-69 29q-82 28 -82 90q0 22 12 48q15 30 50 53t90 23q43 0 77 -18t48 -52q1 -2 1 -5q0 -9 -12 -14l-29 -12q-13 -6 -25 -6q-11 0 -16 8
q-7 14 -22.5 22.5t-33.5 8.5q-19 0 -34.5 -8.5t-21.5 -25.5q-2 -4 -2 -12q0 -15 17 -24.5t53 -20.5q46 -13 74.5 -36.5t28.5 -64.5q0 -37 -22 -64.5t-57.5 -42t-75.5 -14.5q-39 0 -73.5 14.5t-55.5 42.5q-8 11 -8 21z" />
    <glyph glyph-name="t" unicode="t" horiz-adv-x="316" 
d="M168 -1q-42 0 -70.5 23.5t-28.5 82.5q0 18 3 40l22 158h-62q-6 0 -10 4.5t-3 11.5l6 40q1 6 6 10.5t11 4.5h62l26 185q1 7 6 12t13 5h55q7 0 11.5 -4.5t3.5 -12.5l-26 -185h81q6 0 10 -4.5t3 -10.5l-6 -40q-1 -6 -6 -11t-11 -5h-86l-21 -149q-2 -20 -2 -27q0 -28 9 -40
t20 -14t31 -2q9 1 13 -2t4 -13q0 -3 -4 -29q-1 -10 -4.5 -15.5t-13.5 -7.5q-18 -5 -42 -5z" />
    <glyph glyph-name="u" unicode="u" horiz-adv-x="491" 
d="M290.5 7q-3.5 4 -2.5 11l9 44q-22 -32 -58 -49t-76 -17q-54 0 -92.5 31.5t-38.5 89.5q0 6 2 24l29 215q1 9 8 13.5t16 4.5h50q6 0 10.5 -5.5t3.5 -12.5l-26 -187q-2 -16 -2 -23q0 -39 19 -59t49 -20q25 0 50 14.5t43 41.5t23 64l21 168q1 10 8.5 14.5t17.5 4.5h49
q6 0 11 -5t4 -12l-48 -339q-1 -6 -7 -10.5t-12 -4.5h-50q-7 0 -10.5 4z" />
    <glyph glyph-name="u" unicode="&#xfb;" horiz-adv-x="491" 
d="M290.5 7q-3.5 4 -2.5 11l9 44q-22 -32 -58 -49t-76 -17q-54 0 -92.5 31.5t-38.5 89.5q0 6 2 24l29 215q1 9 8 13.5t16 4.5h50q6 0 10.5 -5.5t3.5 -12.5l-26 -187q-2 -16 -2 -23q0 -39 19 -59t49 -20q25 0 50 14.5t43 41.5t23 64l21 168q1 10 8.5 14.5t17.5 4.5h49
q6 0 11 -5t4 -12l-48 -339q-1 -6 -7 -10.5t-12 -4.5h-50q-7 0 -10.5 4z" />
    <glyph glyph-name="u" unicode="&#xfa;" horiz-adv-x="491" 
d="M290.5 7q-3.5 4 -2.5 11l9 44q-22 -32 -58 -49t-76 -17q-54 0 -92.5 31.5t-38.5 89.5q0 6 2 24l29 215q1 9 8 13.5t16 4.5h50q6 0 10.5 -5.5t3.5 -12.5l-26 -187q-2 -16 -2 -23q0 -39 19 -59t49 -20q25 0 50 14.5t43 41.5t23 64l21 168q1 10 8.5 14.5t17.5 4.5h49
q6 0 11 -5t4 -12l-48 -339q-1 -6 -7 -10.5t-12 -4.5h-50q-7 0 -10.5 4z" />
    <glyph glyph-name="u" unicode="&#xf9;" horiz-adv-x="491" 
d="M290.5 7q-3.5 4 -2.5 11l9 44q-22 -32 -58 -49t-76 -17q-54 0 -92.5 31.5t-38.5 89.5q0 6 2 24l29 215q1 9 8 13.5t16 4.5h50q6 0 10.5 -5.5t3.5 -12.5l-26 -187q-2 -16 -2 -23q0 -39 19 -59t49 -20q25 0 50 14.5t43 41.5t23 64l21 168q1 10 8.5 14.5t17.5 4.5h49
q6 0 11 -5t4 -12l-48 -339q-1 -6 -7 -10.5t-12 -4.5h-50q-7 0 -10.5 4z" />
    <glyph glyph-name="v" unicode="v" horiz-adv-x="407" 
d="M116.5 6.5q-3.5 3.5 -6.5 9.5l-98 333q-1 2 -1 5q0 8 6.5 14t14.5 6h62q13 0 14 -11l58 -254l130 254q7 11 18 11h62q7 0 11 -4.5t4 -10.5q0 -5 -3 -10l-191 -333q-5 -6 -9 -9.5t-12 -3.5h-48q-8 0 -11.5 3.5z" />
    <glyph glyph-name="w" unicode="w" horiz-adv-x="640" 
d="M104 18l-73 332q-1 3 -1 8q0 16 20 16h51q12 0 16.5 -4t5.5 -14l35 -236l130 243q6 11 18 11h30q4 0 8.5 -2.5t5.5 -7.5l60 -244l101 236q4 9 10.5 13.5t18.5 4.5h50q16 0 16 -12q0 -4 -3 -12l-167 -332q-3 -6 -9 -10.5t-14 -4.5h-43q-12 0 -17 15l-52 219l-114 -219
q-7 -15 -21 -15h-43q-14 0 -19 15z" />
    <glyph glyph-name="x" unicode="x" horiz-adv-x="423" 
d="M-9 5.5q-4 2.5 -4 6.5q0 3 5 10l132 172l-91 162q-2 6 -2 7q0 5 4.5 8t11.5 3h63q18 0 23 -12l56 -116l86 118q5 10 25 10h56q14 0 14 -7q0 -3 -5 -11l-123 -167l93 -168q3 -4 3 -8q0 -10 -17 -10h-60q-20 0 -23 12l-62 117l-91 -123q-6 -6 -17 -6h-68q-5 0 -9 2.5z" />
    <glyph glyph-name="y" unicode="y" horiz-adv-x="394" 
d="M-12 -245.5q-4 4.5 -4 11.5q0 5 2 8l134 256l-109 321q-1 2 -1 6q0 7 5 12t13 5h59q13 0 16 -10l68 -222l116 222q4 10 17 10h57q10 0 14.5 -7.5t0.5 -15.5l-308 -587q-3 -6 -9.5 -10t-13.5 -4h-46q-7 0 -11 4.5z" />
    <glyph glyph-name="y" unicode="&#xff;" horiz-adv-x="394" 
d="M-12 -245.5q-4 4.5 -4 11.5q0 5 2 8l134 256l-109 321q-1 2 -1 6q0 7 5 12t13 5h59q13 0 16 -10l68 -222l116 222q4 10 17 10h57q10 0 14.5 -7.5t0.5 -15.5l-308 -587q-3 -6 -9.5 -10t-13.5 -4h-46q-7 0 -11 4.5z" />
    <glyph glyph-name="y" unicode="&#xfd;" horiz-adv-x="394" 
d="M-12 -245.5q-4 4.5 -4 11.5q0 5 2 8l134 256l-109 321q-1 2 -1 6q0 7 5 12t13 5h59q13 0 16 -10l68 -222l116 222q4 10 17 10h57q10 0 14.5 -7.5t0.5 -15.5l-308 -587q-3 -6 -9.5 -10t-13.5 -4h-46q-7 0 -11 4.5z" />
    <glyph glyph-name="z" unicode="z" horiz-adv-x="370" 
d="M-9.5 6q-2.5 3 -2.5 7q0 6 3 9l205 277h-157q-5 0 -8.5 5.5t-2.5 10.5l6 47q2 14 16 14l270 -2q4 0 6.5 -3t2.5 -7q0 -5 -4 -9l-202 -274h160q8 0 11 -4.5t2 -9.5l-6 -49q-1 -8 -6 -11.5t-10 -3.5h-277q-4 0 -6.5 3z" />
    <glyph glyph-name="braceleft" unicode="{" horiz-adv-x="332" 
d="M84 -86.5q-40 30.5 -40 92.5q0 34 13 108q12 70 14 91q3 26 -9 35.5t-36 14.5q-2 1 -10 3t-11.5 5.5t-3.5 8.5l5 37q1 7 8 10t21 6q25 5 40.5 15t19.5 36q4 27 11 89q10 87 25 132t63.5 73t149.5 26h3q6 0 10 -4.5t3 -10.5l-5 -34q-1 -6 -6 -10t-11 -4h-2
q-61 2 -92 -13.5t-40.5 -42t-9.5 -67.5l1 -63q0 -52 -13 -82q-16 -36 -31 -49.5t-27.5 -17.5t-12.5 -9q0 -3 11.5 -7t22 -18t16.5 -48q1 -5 1 -17q0 -20 -5 -41.5t-16 -56.5q-19 -59 -19 -87q0 -34 26.5 -51.5t91.5 -15.5h2q6 0 10 -4t3 -10l-5 -34q-1 -6 -6 -10.5t-11 -4.5
h-3q-106 -1 -146 29.5z" />
    <glyph glyph-name="bar" unicode="|" horiz-adv-x="209" 
d="M-20 -275.5q-4 4.5 -3 10.5l141 1000q1 6 6 10.5t12 4.5h44q6 0 10 -4.5t3 -10.5l-141 -1000q-1 -6 -6 -10.5t-11 -4.5h-44q-7 0 -11 4.5z" />
    <glyph glyph-name="braceright" unicode="}" horiz-adv-x="332" 
d="M-49 -111.5q-4 4.5 -3 10.5l5 34q1 6 6 10t11 4h1q61 -2 92.5 14t41 43.5t9.5 69.5l-1 52q0 59 14 90q16 36 30.5 49t27 17t12.5 9q0 3 -11.5 7t-22 18.5t-15.5 48.5q-1 5 -1 17q0 32 20 96q19 59 19 87q0 34 -26.5 52t-92.5 16h-1q-6 0 -10 4t-3 10l5 34q1 6 6 10.5
t11 4.5h3q106 2 146 -28.5t40 -91.5q0 -22 -4.5 -52t-9.5 -61q-9 -53 -14 -87q-3 -26 10 -36t37 -15q13 -3 19.5 -6t5.5 -10l-5 -37q-1 -7 -7.5 -10t-23.5 -7q-25 -5 -40 -14.5t-20 -35.5q-4 -27 -11 -89q-8 -86 -23 -131.5t-64 -73.5t-150 -27h-3q-6 0 -10 4.5z" />
    <glyph glyph-name="asciitilde" unicode="~" horiz-adv-x="427" 
d="M305 305q-21 0 -42.5 5t-53.5 15t-53.5 15t-42.5 5q-33 0 -61 -14q-6 -3 -10 -3q-7 0 -5 8l6 48q2 7 7.5 15t12.5 12q29 14 61 14q22 0 43.5 -5t53.5 -15t53.5 -15t42.5 -5q33 0 61 14q6 3 9 3t5 -2t1 -6l-7 -48q-1 -7 -7 -15t-13 -12q-28 -14 -61 -14z" />
    <glyph glyph-name="uni00A0" unicode="&#xa0;" horiz-adv-x="279" 
 />
    <glyph glyph-name="exclamdown" unicode="&#xa1;" horiz-adv-x="209" 
d="M7.5 5.5q-4.5 5.5 -3.5 12.5l82 476q1 8 6.5 13t13.5 5h40q7 0 12 -5t4 -13l-58 -476q-1 -7 -7.5 -12.5t-13.5 -5.5h-63q-8 0 -12.5 5.5zM104.5 680q19.5 20 45.5 20q22 0 36 -14.5t14 -35.5q0 -26 -20 -45t-46 -19q-21 0 -35 13.5t-14 34.5q0 26 19.5 46z" />
    <glyph glyph-name="cent" unicode="&#xa2;" horiz-adv-x="353" 
d="M129 76.5q-4 4.5 -3 10.5l6 43q-48 11 -81 46.5t-39 83.5q-2 22 -2 30q0 25 9 62q17 53 58.5 93t94.5 54l12 3l8 55q1 6 6 10.5t12 4.5h33q6 0 10 -4.5t3 -10.5l-8 -52q40 -4 74 -27q6 -7 1 -15l-34 -44q-8 -10 -16 -4q-14 9 -35 14l-32 -224q26 4 49 18q5 3 8 3
q6 0 9 -5l26 -40q1 -1 1 -4q0 -7 -5 -10q-45 -32 -99 -40l-5 -40q-1 -6 -6 -10.5t-11 -4.5h-33q-7 0 -11 4.5zM108 252q12 -25 36 -38l29 207q-31 -14 -51 -44t-24 -70q-2 -30 10 -55z" />
    <glyph glyph-name="sterling" unicode="&#xa3;" horiz-adv-x="479" 
d="M4 4.5q-3 4.5 -2 10.5l4 36q0 3 1.5 13t4.5 14q50 66 72.5 110t24.5 84h-46q-8 0 -12.5 5.5t-3.5 13.5l5 33q1 8 7 13.5t14 5.5h38q-2 11 -15 52q-2 6 -8.5 28t-10 41t-3.5 34q0 60 29.5 108t79.5 75t108 27q65 0 112.5 -32.5t69.5 -93.5v-9q-2 -13 -13 -18l-62 -25
q-2 -1 -8 -1q-14 0 -17 12q-9 40 -35.5 60.5t-60.5 20.5q-29 0 -56 -14t-43.5 -39.5t-16.5 -59.5q0 -7 2 -21q5 -26 16 -72q13 -51 15 -73h127q8 0 12 -5.5t3 -13.5l-5 -33q-1 -8 -6.5 -13.5t-13.5 -5.5l-120 2q-8 -59 -25 -95t-56 -98h258q8 0 12 -5.5t3 -13.5l-6 -43
q-1 -8 -7 -13.5t-14 -5.5h-343q-6 0 -9 4.5z" />
    <glyph glyph-name="currency" unicode="&#xa4;" horiz-adv-x="529" 
d="M37 157q0 6 5 11l67 70q-13 25 -13 58q0 59 35 108l-48 69q-2 4 -2 7q0 11 7 15l40 29q5 4 11 4t10 -6l44 -62q42 25 91 25q42 0 78 -22l58 59q6 6 12 6t9 -4l32 -29q4 -4 4 -10q0 -7 -5 -12l-62 -63q15 -30 15 -67q0 -61 -40 -109l46 -66q2 -4 2 -7q0 -10 -7 -14
l-40 -29q-5 -4 -11 -4t-11 6l-42 60q-42 -21 -84 -21q-45 0 -82 24l-62 -63q-6 -6 -12 -6t-9 4l-32 29q-4 4 -4 10zM190.5 250.5q21.5 -22.5 54.5 -22.5q42 0 74 32.5t32 76.5q0 38 -25.5 58t-53.5 20q-26 0 -50 -15.5t-38.5 -40.5t-14.5 -52q0 -34 21.5 -56.5z" />
    <glyph glyph-name="yen" unicode="&#xa5;" horiz-adv-x="575" 
d="M193.5 5q-3.5 4 -2.5 11l21 154h-118q-8 0 -12.5 5t-3.5 12l4 34q1 8 7 13.5t14 5.5h119l7 51h-118q-8 0 -12.5 5t-3.5 12l5 34q1 8 6.5 13.5t13.5 5.5h107l-167 312q-2 6 -2 8q0 6 5 10.5t12 4.5h64q11 0 18 -4t13 -16l126 -247l193 247q10 12 18.5 16t18.5 4h64
q6 0 10 -3t4 -8t-5 -12l-253 -312h109q8 0 12.5 -5.5t3.5 -13.5l-5 -32q-1 -8 -7 -13.5t-14 -5.5h-121l-7 -51h121q8 0 12 -5.5t3 -13.5l-4 -32q-1 -8 -7 -13.5t-14 -5.5h-121l-21 -154q-1 -7 -6 -11t-11 -4h-64q-8 0 -11.5 4z" />
    <glyph glyph-name="brokenbar" unicode="&#xa6;" horiz-adv-x="375" 
d="M152 355.5q-4 4.5 -3 10.5l52 369q1 6 6 10.5t12 4.5h44q6 0 10 -4.5t3 -10.5l-52 -369q-1 -6 -6 -10.5t-11 -4.5h-44q-7 0 -11 4.5zM112 107q2 6 7 10.5t12 4.5h44q6 0 9.5 -4.5t2.5 -10.5l-51 -369q-2 -6 -6.5 -10.5t-10.5 -4.5h-44q-7 0 -11 4.5t-3 10.5z" />
    <glyph glyph-name="section" unicode="&#xa7;" horiz-adv-x="522" 
d="M44.5 -234q-52.5 31 -75.5 88q-1 2 -1 6q0 10 10 12l58 28q4 2 6 2q8 0 12 -9q12 -37 46.5 -57t78.5 -20q53 0 93.5 30t40.5 82q0 41 -32 67.5t-94 58.5q-9 5 -22 12t-30 17q-49 29 -70 60.5t-21 67.5q0 51 31.5 94t85.5 70q-37 25 -55.5 59.5t-18.5 73.5q0 50 28.5 96.5
t80 75.5t118.5 29q65 0 113.5 -31t68.5 -80q1 -1 1 -5t-3 -8.5t-7 -5.5l-57 -22q-2 -1 -6 -1q-9 0 -12 8q-14 32 -43 49t-64 17q-46 0 -83.5 -26.5t-43.5 -70.5l-1 -11q0 -40 36.5 -69t104.5 -63q53 -25 74 -42q63 -44 63 -105q0 -39 -22.5 -73t-54.5 -58t-58 -33
q37 -22 60.5 -59t23.5 -81q0 -59 -35.5 -105.5t-90 -72.5t-110.5 -26q-71 0 -123.5 31zM193 313q-25 -14 -42.5 -35.5t-17.5 -45.5q0 -62 119 -105q9 0 33.5 10t46 31.5t24.5 56.5q3 30 -24.5 50.5t-94.5 52.5q-19 -1 -44 -15z" />
    <glyph glyph-name="dieresis" unicode="&#xa8;" horiz-adv-x="409" 
d="M342 776.5q-11 11.5 -11 28.5q0 22 16 37.5t37 15.5q17 0 29 -11.5t12 -28.5q0 -21 -16.5 -37t-37.5 -16q-18 0 -29 11.5zM157 842.5q16 15.5 37 15.5q18 0 29.5 -11t11.5 -29q0 -21 -16.5 -37t-37.5 -16q-17 0 -28.5 11.5t-11.5 28.5q0 22 16 37.5z" />
    <glyph glyph-name="copyright" unicode="&#xa9;" horiz-adv-x="794" 
d="M186.5 35.5q-70.5 39.5 -110 109t-39.5 154.5q0 17 4 51q14 96 72.5 177.5t146.5 129t184 47.5q88 0 158 -40t109.5 -109.5t39.5 -155.5q0 -23 -3 -49q-14 -96 -73 -177.5t-147 -129t-183 -47.5q-88 0 -158.5 39.5zM120 309q0 -67 30 -122t84 -86.5t121 -31.5
q73 0 140.5 38t113 102.5t56.5 140.5q3 21 3 41q0 67 -30 122t-83.5 86.5t-120.5 31.5q-74 0 -141.5 -37.5t-113 -102t-56.5 -141.5q-3 -21 -3 -41zM218 325q0 25 9 61q16 52 57.5 92.5t94.5 54.5q30 8 54 8q53 0 96 -29q3 -2 3.5 -6t-2.5 -8l-33 -45q-3 -4 -7.5 -5.5
t-8.5 1.5q-27 16 -55 16q-48 0 -82 -35t-39 -89q-3 -43 22.5 -73.5t68.5 -30.5q31 0 68 21q4 2 7 2q7 0 9 -5l26 -40q1 -1 1 -4q0 -7 -5 -10q-57 -41 -123 -41q-16 0 -33 3q-50 8 -85 45t-41 87q-2 22 -2 30z" />
    <glyph glyph-name="guillemotleft" unicode="&#xab;" horiz-adv-x="387" 
d="M226 123l-73 111q-1 2 -1 6t4 11l103 114q6 8 18 8h59q6 0 8 -4.5t-2 -9.5l-107 -116l75 -113q1 -2 1 -5q0 -4 -3 -7t-8 -3h-59q-10 0 -15 8zM8 240q0 4 5 12l103 114q5 8 18 8h59q6 0 8 -4.5t-2 -10.5l-107 -116l75 -112q1 -2 1 -5q0 -4 -3 -7t-8 -3h-59q-10 0 -15 8
l-73 111z" />
    <glyph glyph-name="logicalnot" unicode="&#xac;" horiz-adv-x="570" 
d="M410 160q-5 5 -3 13l16 119h-390q-7 0 -11.5 5.5t-3.5 13.5l6 43q1 8 6.5 13t13.5 5h404q2 1 6 1h43q8 0 12.5 -4.5t2.5 -12.5l-25 -183q-2 -8 -7.5 -13t-13.5 -5h-43q-8 0 -13 5z" />
    <glyph glyph-name="uni00AD" unicode="&#xad;" 
 />
    <glyph glyph-name="registered" unicode="&#xae;" horiz-adv-x="795" 
d="M186.5 35.5q-70.5 39.5 -110 109t-39.5 154.5q0 17 4 51q14 96 72.5 177.5t146.5 129t184 47.5q88 0 158 -40t109.5 -109.5t39.5 -155.5q0 -23 -3 -49q-14 -96 -73 -177.5t-147 -129t-183 -47.5q-88 0 -158.5 39.5zM120 309q0 -67 30 -122t84 -86.5t121 -31.5
q73 0 140.5 38t113 102.5t56.5 140.5q3 21 3 41q0 67 -30 122t-83.5 86.5t-120.5 31.5q-74 0 -141.5 -37.5t-113 -102t-56.5 -141.5q-3 -21 -3 -41zM300 531q1 5 5 9t9 4h96q74 0 114.5 -36.5t40.5 -90.5q0 -40 -24.5 -80t-68.5 -67l31 -82v-1q0 -5 -4 -10.5t-9 -5.5h-53
q-9 0 -14 12l-21 65q-5 -1 -31 -1h-35l-9 -63q-1 -6 -4.5 -9.5t-8.5 -3.5h-53q-5 0 -8 3.5t-2 9.5zM382 318q49 0 78 27t29 61q0 29 -22.5 49.5t-63.5 20.5h-35l-22 -158h36z" />
    <glyph glyph-name="macron" unicode="&#xaf;" horiz-adv-x="404" 
d="M122 779.5q-4 5.5 -3 13.5l5 33q1 8 6.5 13.5t12.5 5.5h249q8 0 12.5 -5.5t3.5 -13.5l-5 -33q-1 -8 -7 -13.5t-14 -5.5h-248q-8 0 -12 5.5z" />
    <glyph glyph-name="degree" unicode="&#xb0;" horiz-adv-x="282" 
d="M81 506.5q-29 29.5 -29 73.5q0 36 19.5 67.5t51 50t66.5 18.5q45 0 74 -29t29 -72q0 -36 -19 -68t-51 -51t-67 -19q-45 0 -74 29.5zM123.5 548q15.5 -16 38.5 -16q29 0 51 22.5t22 53.5q0 26 -18 40t-37 14q-28 0 -50 -22.5t-22 -51.5q0 -24 15.5 -40z" />
    <glyph glyph-name="plusminus" unicode="&#xb1;" horiz-adv-x="487" 
d="M191 245q-5 5 -3 13l14 102h-106q-8 0 -12 5.5t-3 13.5l6 43q1 8 6 13t13 5h107l16 110q1 7 6.5 12.5t13.5 5.5h43q9 0 13.5 -4.5t3.5 -12.5l-16 -111h106q8 0 12.5 -5t3.5 -13l-6 -43q-1 -8 -7 -13.5t-14 -5.5h-106l-14 -102q-2 -8 -7.5 -13t-13.5 -5h-43q-8 0 -13 5z
M50 168q1 8 6.5 13t13.5 5h293q8 0 12 -5t3 -13l-6 -43q-1 -8 -7 -13.5t-14 -5.5h-292q-8 0 -12 5.5t-3 13.5z" />
    <glyph glyph-name="acute" unicode="&#xb4;" horiz-adv-x="264" 
d="M84 756q0 6 7 16l52 66q9 12 16.5 17.5t25.5 5.5h69q7 0 12 -3.5t5 -7.5q0 -7 -8 -12l-90 -71q-23 -19 -47 -19h-32q-10 0 -10 8z" />
    <glyph glyph-name="paragraph" unicode="&#xb6;" horiz-adv-x="654" 
d="M198.5 -256q-3.5 4 -2.5 9l76 542h-76q-47 0 -84 25t-58 68.5t-21 95.5q0 23 2 35q9 63 41 116t79.5 84t100.5 31h424q6 0 10 -4.5t3 -11.5l-5 -36q-1 -7 -6.5 -11.5t-11.5 -4.5h-50l-130 -929q-1 -5 -5.5 -9t-9.5 -4h-37q-5 0 -8.5 4t-2.5 9l130 929h-168l-130 -929
q-1 -5 -5 -9t-9 -4h-37q-6 0 -9.5 4z" />
    <glyph glyph-name="periodcentered" unicode="&#xb7;" horiz-adv-x="218" 
d="M40 177.5q-15 15.5 -15 38.5q0 28 21.5 49t50.5 21q23 0 38 -15t15 -37q0 -29 -22 -50.5t-49 -21.5q-24 0 -39 15.5z" />
    <glyph glyph-name="cedilla" unicode="&#xb8;" horiz-adv-x="222" 
d="M-18 -180.5q-17 9.5 -26 28.5l-1 4q0 4 2.5 8.5t6.5 6.5l18 9q2 1 6 1q7 0 10 -5q10 -17 30 -17q12 0 23.5 7t17.5 18q3 6 3 12q0 22 -32 29l-42 9q-16 4 -14 22l11 77q0 5 4.5 9t9.5 4h43q6 0 9 -3.5t3 -9.5l-9 -60q70 -14 70 -62q0 -29 -17 -52q-13 -20 -36.5 -32.5
t-51.5 -12.5q-21 0 -38 9.5z" />
    <glyph glyph-name="guillemotright" unicode="&#xbb;" horiz-adv-x="387" 
d="M6 119.5q-2 4.5 2 10.5l107 113l-75 116q-1 2 -1 5q0 4 3 6.5t8 2.5h59q12 0 16 -8l71 -114q1 -3 1 -7q0 -5 -4 -10l-103 -111q-7 -8 -17 -8h-59q-6 0 -8 4.5zM259 243l-76 116q-1 2 -1 5q0 4 3 7t8 3h59q13 0 16 -8l71 -114q2 -6 2 -8q0 -4 -5 -9l-103 -111
q-7 -8 -17 -8h-59q-6 0 -8 4.5t2 10.5z" />
    <glyph glyph-name="questiondown" unicode="&#xbf;" horiz-adv-x="237" 
d="M165.5 15q-54.5 -30 -110.5 -30q-44 0 -81 18.5t-59 52.5t-22 79q0 64 44 135q12 20 32 43.5t40 45.5q42 47 62.5 76.5t23.5 58.5q0 7 5 11.5t12 4.5h62q5 0 9 -4t4 -10q-3 -39 -28 -76.5t-73 -93.5q-52 -58 -75 -94q-27 -41 -27 -79q0 -37 24.5 -60.5t60.5 -23.5
q32 0 63 20t55 60q7 11 14 11q2 0 6 -2l49 -32q4 -1 6 -5.5t1 -8.5q0 -3 -3 -8q-40 -59 -94.5 -89zM121 677.5q20 20.5 46 20.5q22 0 36 -14.5t14 -35.5q0 -27 -20.5 -46.5t-46.5 -19.5q-22 0 -35.5 14t-13.5 35q0 26 20 46.5z" />
    <glyph glyph-name="Adieresis" unicode="&#xc4;" horiz-adv-x="674" 
d="M503 8l-44 191h-289l-100 -190q-2 -4 -6.5 -6.5t-8.5 -2.5h-75q-6 0 -10 4.5t1 12.5l360 667q3 7 9.5 11t12.5 4h68q8 0 14 -4t7 -11l161 -667v-3q0 -6 -5 -10.5t-11 -4.5h-73q-9 0 -11 9zM439 284l-68 296l-157 -296h225zM263 842.5q16 15.5 37 15.5q18 0 29.5 -11
t11.5 -29q0 -21 -16.5 -37t-37.5 -16q-17 0 -28.5 11.5t-11.5 28.5q0 22 16 37.5zM432 842.5q16 15.5 37 15.5q17 0 29 -11.5t12 -28.5q0 -21 -16.5 -37t-37.5 -16q-18 0 -29 11.5t-11 28.5q0 22 16 37.5z" />
    <glyph glyph-name="AE" unicode="&#xc6;" horiz-adv-x="1023" 
d="M482 8l29 191h-279l-173 -190q-7 -9 -18 -9h-85q-8 0 -8 6q0 5 6 11l616 667q13 15 26 15q2 1 6 1h384q6 0 10 -4.5t3 -10.5l-9 -60q-1 -6 -6 -10.5t-11 -4.5h-303l-31 -221h262q6 0 10 -4t3 -10l-8 -55q-1 -7 -6 -11t-11 -4h-263l-30 -215h302q6 0 11 -4.5t4 -10.5
l-8 -60q-2 -6 -6.5 -10.5t-11.5 -4.5h-318q-2 -1 -6 -1h-73q-9 0 -8 9zM524 284l12 63l31 219l-258 -282h215z" />
    <glyph glyph-name="Eth" unicode="&#xd0;" horiz-adv-x="788" 
d="M119.5 4.5q-3.5 4.5 -2.5 10.5l42 299h-80q-8 0 -12.5 5.5t-3.5 13.5l6 43q2 8 7.5 13.5t12.5 5.5h81l41 290q1 6 6 10.5t11 4.5h207q87 0 153 -39t102 -106.5t36 -150.5q0 -30 -4 -55q-14 -96 -69 -176t-138.5 -126.5t-178.5 -46.5h-207q-6 0 -9.5 4.5zM348 93
q71 0 131.5 34t100.5 93t50 132q3 21 3 42q0 62 -26 110.5t-74 75.5t-112 27h-127l-30 -212h144q8 0 12 -5.5t3 -13.5l-6 -43q-1 -8 -6.5 -13.5t-13.5 -5.5h-144l-31 -221h126z" />
    <glyph glyph-name="Odieresis" unicode="&#xd6;" horiz-adv-x="793" 
d="M185.5 35.5q-70.5 39.5 -110 109t-39.5 154.5q0 17 4 51q14 96 72.5 177.5t146.5 129t184 47.5q88 0 158 -40t109.5 -109.5t39.5 -155.5q0 -23 -3 -49q-14 -96 -73 -177.5t-147 -129t-183 -47.5q-88 0 -158.5 39.5zM132 311q0 -64 29 -116t80 -82t115 -30q70 0 134 36
t107.5 97t53.5 134q3 20 3 39q0 64 -29 116t-79.5 82t-114.5 30q-70 0 -134.5 -35.5t-108 -97t-53.5 -134.5q-3 -19 -3 -39zM304 842.5q16 15.5 37 15.5q18 0 29.5 -11t11.5 -29q0 -21 -16.5 -37t-37.5 -16q-17 0 -28.5 11.5t-11.5 28.5q0 22 16 37.5zM473 842.5
q16 15.5 37 15.5q17 0 29 -11.5t12 -28.5q0 -21 -16.5 -37t-37.5 -16q-18 0 -29 11.5t-11 28.5q0 22 16 37.5z" />
    <glyph glyph-name="multiply" unicode="&#xd7;" horiz-adv-x="411" 
d="M190 276l-82 -73q-7 -5 -13 -5q-7 0 -12 5l-27 31q-4 4 -4 11q0 9 7 15l83 72l-64 75q-4 4 -4 11q0 8 7 15l36 31q6 5 13 5q8 0 12 -5l64 -75l89 77q6 6 13 6q8 0 12 -6l27 -30q4 -4 4 -11q0 -8 -7 -14l-89 -79l65 -75q3 -4 3 -10q0 -9 -7 -15l-35 -31q-7 -5 -14 -5
t-12 5z" />
    <glyph glyph-name="Udieresis" unicode="&#xdc;" horiz-adv-x="705" 
d="M173 25.5q-55 32.5 -84 88t-23 122.5l63 449q1 6 6 10.5t11 4.5h65q6 0 10 -4.5t3 -10.5l-62 -438q-1 -7 -1 -20q0 -63 42 -105t108 -42q48 0 90.5 22.5t70.5 60.5t35 84l62 438q1 6 6 10.5t11 4.5h65q6 0 10 -4.5t3 -10.5l-63 -445q-11 -67 -55.5 -124t-110 -90
t-137.5 -33q-70 0 -125 32.5zM275.5 839.5q16.5 15.5 37.5 15.5q18 0 29.5 -11t11.5 -29q0 -21 -16.5 -37t-37.5 -16q-17 0 -29 11.5t-12 27.5q0 23 16.5 38.5zM444.5 839q16.5 16 37.5 16q17 0 29 -11.5t12 -28.5q0 -21 -16.5 -37t-37.5 -16q-18 0 -29.5 11t-11.5 28
q0 22 16.5 38z" />
    <glyph glyph-name="Thorn" unicode="&#xde;" horiz-adv-x="595" 
d="M64 4.5q-4 4.5 -2 10.5l94 670q1 6 6 10.5t12 4.5h64q6 0 10 -4.5t3 -10.5l-15 -105h125q56 0 99.5 -26t67.5 -71.5t24 -101.5q0 -23 -2 -35q-8 -61 -46 -113.5t-95 -84t-118 -31.5h-120l-14 -102q-2 -6 -7 -10.5t-11 -4.5h-64q-7 0 -11 4.5zM300 205q43 0 80.5 23
t59.5 61.5t22 84.5q0 54 -33.5 88.5t-87.5 34.5h-117l-41 -292h117z" />
    <glyph glyph-name="germandbls" unicode="&#xdf;" horiz-adv-x="556" 
d="M2.5 4.5q-3.5 4.5 -2.5 10.5l68 487q7 50 35 96.5t76.5 76.5t112.5 30q58 0 97.5 -24t57.5 -58t18 -65q0 -46 -21 -80t-58 -73q-21 -21 -30 -34q79 -27 112 -70.5t33 -95.5q0 -8 -2 -24q-13 -95 -78.5 -144.5t-152.5 -49.5q-61 0 -115 24q-7 4 -7 11q0 5 3 9l29 48
q3 6 9 8t12 -1q42 -19 79 -19q39 0 70 18.5t47.5 48.5t16.5 63q0 35 -28.5 61t-94.5 47q-29 10 -29 41q0 16 7 32t18 28q5 6 19 20q47 47 68 80q12 20 12 38q0 32 -28.5 54t-68.5 22q-42 0 -70 -21.5t-41 -48.5t-16 -48l-68 -487q-2 -6 -7 -10.5t-11 -4.5h-62q-6 0 -9.5 4.5
z" />
    <glyph glyph-name="adieresis" unicode="&#xe4;" horiz-adv-x="507" 
d="M93 21.5q-36 22.5 -56 60t-20 83.5q0 56 29.5 105t78 78.5t103.5 30.5q44 0 76 -19t46 -49l6 55q0 3 3 5.5t7 2.5h65q2 0 4.5 -2.5t2.5 -5.5l-49 -351q-3 -12 -16 -12h-57q-6 0 -8.5 3t-1.5 9l7 44q-28 -27 -65 -44t-74 -17q-45 1 -81 23.5zM128.5 105.5
q27.5 -29.5 68.5 -29.5q34 0 64 19t48 49t18 63q0 41 -27.5 67.5t-70.5 26.5q-33 0 -62.5 -17t-47.5 -45.5t-18 -62.5q0 -41 27.5 -70.5zM139 556.5q16 15.5 37 15.5q18 0 29.5 -11t11.5 -29q0 -21 -16.5 -37t-37.5 -16q-17 0 -28.5 11.5t-11.5 28.5q0 22 16 37.5z
M308 556.5q16 15.5 37 15.5q17 0 29 -11.5t12 -28.5q0 -21 -16.5 -37t-37.5 -16q-18 0 -29 11.5t-11 28.5q0 22 16 37.5z" />
    <glyph glyph-name="ae" unicode="&#xe6;" horiz-adv-x="775" 
d="M101 21.5q-36 22.5 -56 60t-20 83.5q0 56 29.5 105t78 78.5t103.5 30.5q47 0 91 -26t53 -67q23 35 57 58t73 30q20 4 42 4q70 0 110 -43.5t40 -114.5q0 -26 -6 -56q-1 -5 -5 -8.5t-9 -3.5h-254q-2 -19 8 -38.5t30.5 -31.5t47.5 -12q19 0 42.5 7.5t42.5 21.5l17 12
q5 3 9 3q8 0 11 -5q5 -7 21 -37q2 -6 2 -9q0 -6 -5 -10q-23 -20 -61 -37.5t-85 -17.5q-26 0 -56 8q-33 10 -53 26l-2 -17q-3 -12 -16 -12h-57q-6 0 -8.5 3t-1.5 9l7 44q-28 -27 -65 -44t-74 -17q-45 1 -81 23.5zM136.5 105.5q27.5 -29.5 68.5 -29.5q34 0 64 19t48 49t18 63
q0 41 -27.5 67.5t-70.5 26.5q-33 0 -62.5 -17t-47.5 -45.5t-18 -62.5q0 -41 27.5 -70.5zM631 222q-3 40 -27 63.5t-62 23.5q-41 0 -73.5 -26t-40.5 -62z" />
    <glyph glyph-name="odieresis" unicode="&#xf6;" horiz-adv-x="464" 
d="M94 19.5q-38 21.5 -59 59t-21 83.5q0 57 31 107t81.5 80t106.5 30q47 0 84.5 -21.5t59 -58.5t21.5 -83q0 -58 -31 -108t-81.5 -80t-106.5 -30q-47 0 -85 21.5zM123 105q26 -27 65 -27q32 0 61 18t46.5 47.5t17.5 63.5q0 46 -29.5 69.5t-63.5 23.5q-31 0 -59.5 -18
t-46 -47.5t-17.5 -62.5q0 -40 26 -67zM117 560q16 16 37 16q18 0 30 -11.5t12 -28.5q0 -21 -17 -37t-38 -16q-17 0 -28.5 11t-11.5 28q0 22 16 38zM286 560q16 16 37 16q17 0 29.5 -11.5t12.5 -28.5q0 -21 -17 -37t-38 -16q-17 0 -28.5 11t-11.5 28q0 22 16 38z" />
    <glyph glyph-name="divide" unicode="&#xf7;" horiz-adv-x="428" 
d="M44 295.5q-4 5.5 -3 13.5l6 43q1 8 6 13t13 5h293q8 0 12.5 -5t3.5 -13l-6 -43q-1 -8 -7 -13.5t-14 -5.5h-292q-8 0 -12 5.5zM147 204q19 18 43 18q20 0 32.5 -12.5t12.5 -32.5q0 -25 -18 -42.5t-42 -17.5q-20 0 -33.5 13t-13.5 32q0 24 19 42zM191.5 520
q18.5 18 42.5 18q20 0 33 -12.5t13 -32.5q0 -24 -18.5 -41.5t-42.5 -17.5q-20 0 -33 12.5t-13 31.5q0 24 18.5 42z" />
    <glyph glyph-name="udieresis" unicode="&#xfc;" horiz-adv-x="491" 
d="M290.5 7q-3.5 4 -2.5 11l9 44q-22 -32 -58 -49t-76 -17q-54 0 -92.5 31.5t-38.5 89.5q0 6 2 24l29 215q1 9 8 13.5t16 4.5h50q6 0 10.5 -5.5t3.5 -12.5l-26 -187q-2 -16 -2 -23q0 -39 19 -59t49 -20q25 0 50 14.5t43 41.5t23 64l21 168q1 10 8.5 14.5t17.5 4.5h49
q6 0 11 -5t4 -12l-48 -339q-1 -6 -7 -10.5t-12 -4.5h-50q-7 0 -10.5 4zM131 559.5q17 16.5 38 16.5q19 0 31 -12t12 -31q0 -22 -17 -38t-39 -16q-18 0 -30 11.5t-12 29.5q0 23 17 39.5zM306.5 559.5q16.5 16.5 38.5 16.5q18 0 30.5 -12t12.5 -31q0 -22 -17 -38t-39 -16
q-18 0 -30 11.5t-12 29.5q0 23 16.5 39.5z" />
    <glyph glyph-name="thorn" unicode="&#xfe;" horiz-adv-x="533" 
d="M-4.5 -266q-3.5 4 -2.5 10l130 916q1 5 5.5 9t9.5 4h54q6 0 9.5 -4t2.5 -9l-48 -343q26 27 64 44.5t74 17.5q47 0 84 -21.5t58 -58.5t21 -83q0 -55 -30 -105.5t-79.5 -81.5t-104.5 -31q-51 1 -78 19.5t-43 39.5l-45 -313q-1 -6 -5.5 -10t-10.5 -4h-57q-5 0 -8.5 4z
M174 106q27 -29 68 -29q32 0 61 18t47 47.5t18 61.5q0 40 -27 67.5t-68 27.5q-32 0 -61 -17t-47 -46t-18 -61q0 -40 27 -69z" />
    <glyph glyph-name="Amacron" unicode="&#x100;" horiz-adv-x="663" 
d="M497 8l-44 191h-289l-100 -190q-2 -4 -6.5 -6.5t-8.5 -2.5h-75q-6 0 -10 4.5t1 12.5l360 667q4 7 10 11t12 4h68q8 0 14 -4t7 -11l161 -667v-3q0 -6 -5 -10.5t-11 -4.5h-73q-9 0 -11 9zM433 284l-68 296l-157 -296h225zM255 806q1 8 6.5 13.5t12.5 5.5h249q8 0 12.5 -5.5
t3.5 -13.5l-5 -33q-1 -8 -7 -13.5t-14 -5.5h-248q-7 0 -11.5 5.5t-3.5 13.5z" />
    <glyph glyph-name="amacron" unicode="&#x101;" horiz-adv-x="523" 
d="M100 21.5q-36 22.5 -56 60t-20 83.5q0 56 29.5 105t78 78.5t103.5 30.5q44 0 76 -19t46 -49l6 55q0 3 3 5.5t7 2.5h65q2 0 4.5 -2.5t2.5 -5.5l-49 -351q-3 -12 -16 -12h-57q-6 0 -8.5 3t-1.5 9l7 44q-28 -27 -65 -44t-74 -17q-45 1 -81 23.5zM135.5 105.5
q27.5 -29.5 68.5 -29.5q34 0 64 19t48 49t18 63q0 41 -27.5 67.5t-70.5 26.5q-33 0 -62.5 -17t-47.5 -45.5t-18 -62.5q0 -41 27.5 -70.5zM129 579q1 8 6.5 13.5t12.5 5.5h249q8 0 12.5 -5.5t3.5 -13.5l-5 -33q-1 -8 -6.5 -13.5t-13.5 -5.5h-248q-8 0 -12.5 5.5t-3.5 13.5z
" />
    <glyph glyph-name="Abreve" unicode="&#x102;" horiz-adv-x="663" 
d="M497 8l-44 191h-289l-100 -190q-2 -4 -6.5 -6.5t-8.5 -2.5h-75q-6 0 -10 4.5t1 12.5l360 667q4 7 10 11t12 4h68q8 0 14 -4t7 -11l161 -667v-3q0 -6 -5 -10.5t-11 -4.5h-73q-9 0 -11 9zM433 284l-68 296l-157 -296h225zM287 851q5 5 11 5h32q5 0 8.5 -3.5t3.5 -8.5
q2 -19 15.5 -32t33.5 -13q19 0 36 13t24 32q1 5 5.5 8.5t9.5 3.5h36q6 0 9.5 -5t1.5 -11q-12 -43 -49 -72t-81 -29q-45 0 -74 29t-28 72q1 6 6 11z" />
    <glyph glyph-name="abreve" unicode="&#x103;" horiz-adv-x="523" 
d="M100 21.5q-36 22.5 -56 60t-20 83.5q0 56 29.5 105t78 78.5t103.5 30.5q44 0 76 -19t46 -49l6 55q0 3 3 5.5t7 2.5h65q2 0 4.5 -2.5t2.5 -5.5l-49 -351q-3 -12 -16 -12h-57q-6 0 -8.5 3t-1.5 9l7 44q-28 -27 -65 -44t-74 -17q-45 1 -81 23.5zM135.5 105.5
q27.5 -29.5 68.5 -29.5q34 0 64 19t48 49t18 63q0 41 -27.5 67.5t-70.5 26.5q-33 0 -62.5 -17t-47.5 -45.5t-18 -62.5q0 -41 27.5 -70.5zM161.5 605.5q4.5 5.5 11.5 5.5h32q5 0 9 -3.5t4 -8.5q1 -19 14.5 -32t33.5 -13q19 0 36 13t25 32q1 5 5 8.5t9 3.5h36q6 0 10 -5t2 -11
q-12 -43 -49 -72t-81 -29t-73 28.5t-29 70.5q0 7 4.5 12.5z" />
    <glyph glyph-name="Aogonek" unicode="&#x104;" horiz-adv-x="612" 
d="M-28.5 -141.5q-22.5 18.5 -22.5 48.5q0 23 12 47.5t33 45.5h-20q-6 0 -10 4.5t1 12.5l360 667q4 7 10 11t12 4h68q8 0 14 -4t7 -11l161 -667v-3q0 -6 -5 -10.5t-11 -4.5h-73q-9 0 -11 9l-44 191h-289l-100 -190q-3 -6 -10 -8q-15 -18 -26.5 -40t-11.5 -39q0 -27 32 -28
q11 0 19 4q2 1 5 1q6 0 9.5 -4t1.5 -9l-4 -30q-2 -10 -12 -13q-12 -3 -27 -3q-46 0 -68.5 18.5zM433 284l-68 296l-157 -296h225z" />
    <glyph glyph-name="aogonek" unicode="&#x105;" horiz-adv-x="493" 
d="M302 -140q-22 18 -22 48q0 23 12.5 48.5t33.5 46.5h-3q-6 0 -8.5 3t-1.5 9l7 44q-28 -27 -65 -44t-74 -17q-45 1 -81 23.5t-56 60t-20 83.5q0 56 29.5 105t78 78.5t103.5 30.5q44 0 76 -19t46 -49l6 55q0 3 3 5.5t7 2.5h65q2 0 4.5 -2.5t2.5 -5.5l-49 -349v-2
q-2 -9 -11 -11q-15 -18 -27 -40.5t-12 -39.5q0 -27 32 -28q11 0 19 4q2 1 5 1q6 0 9.5 -4t2.5 -9l-5 -30q0 -9 -11 -13q-13 -3 -28 -3q-46 0 -68 18zM135.5 105.5q27.5 -29.5 68.5 -29.5q34 0 64 19t48 49t18 63q0 41 -27.5 67.5t-70.5 26.5q-33 0 -62.5 -17t-47.5 -45.5
t-18 -62.5q0 -41 27.5 -70.5z" />
    <glyph glyph-name="Cacute" unicode="&#x106;" horiz-adv-x="643" 
d="M346 -6q-81 0 -148 38.5t-105.5 107t-38.5 155.5q0 31 4 56q14 101 72.5 182t144 127t175.5 46q92 0 170 -50q5 -3 5 -10q0 -5 -3 -10q-21 -21 -34.5 -33.5t-19 -14.5t-11.5 1q-54 32 -116 32q-66 0 -128 -35t-104.5 -97t-53.5 -138q-3 -22 -3 -43q0 -66 28.5 -117.5
t77 -80t108.5 -28.5q61 0 124 31q5 3 8 3q6 0 13 -8.5t28 -37.5q1 -2 1 -6q0 -14 -12 -20q-91 -50 -182 -50zM413 852q9 12 16.5 17.5t25.5 5.5h69q7 0 12 -3.5t5 -7.5q0 -7 -8 -12l-90 -71q-23 -19 -47 -19h-32q-10 0 -10 8q0 6 7 16z" />
    <glyph glyph-name="cacute" unicode="&#x107;" horiz-adv-x="407" 
d="M67 45.5q-35 36.5 -42 87.5q-2 20 -2 29q0 26 10 62q16 52 57.5 92.5t94.5 54.5q25 8 55 8q51 0 95 -28q6 -6 1 -15l-34 -45q-2 -4 -7 -5t-9 1q-23 16 -54 16q-51 0 -86 -38t-35 -95q0 -40 25 -67t64 -27q18 0 34 5t35 15q4 2 7 2q6 0 10 -5l25 -40q1 -1 1 -3
q0 -7 -4 -11q-58 -41 -123 -41q-15 0 -32 3q-51 8 -86 44.5zM243 592q9 12 16.5 17.5t25.5 5.5h69q7 0 11.5 -3t4.5 -8q0 -6 -7 -12l-90 -71q-12 -9 -22.5 -14t-25.5 -5h-32q-10 0 -10 8q0 6 7 16z" />
    <glyph glyph-name="Cdotaccent" unicode="&#x10a;" horiz-adv-x="643" 
d="M346 -6q-81 0 -148 38.5t-105.5 107t-38.5 155.5q0 31 4 56q14 101 72.5 182t144 127t175.5 46q92 0 170 -50q5 -3 5 -10q0 -5 -3 -10q-21 -21 -34.5 -33.5t-19 -14.5t-11.5 1q-54 32 -116 32q-66 0 -128 -35t-104.5 -97t-53.5 -138q-3 -22 -3 -43q0 -66 28.5 -117.5
t77 -80t108.5 -28.5q61 0 124 31q5 3 8 3q6 0 13 -8.5t28 -37.5q1 -2 1 -6q0 -14 -12 -20q-91 -50 -182 -50zM399 850.5q21 20.5 49 20.5q23 0 37.5 -14.5t14.5 -37.5q0 -28 -21 -48t-48 -20q-23 0 -38 14t-15 36q0 29 21 49.5z" />
    <glyph glyph-name="cdotaccent" unicode="&#x10b;" horiz-adv-x="407" 
d="M67 45.5q-35 36.5 -42 87.5q-2 20 -2 29q0 26 10 62q16 52 57.5 92.5t94.5 54.5q25 8 55 8q51 0 95 -28q6 -6 1 -15l-34 -45q-2 -4 -7 -5t-9 1q-23 16 -54 16q-51 0 -86 -38t-35 -95q0 -40 25 -67t64 -27q18 0 34 5t35 15q4 2 7 2q6 0 10 -5l25 -40q1 -1 1 -3
q0 -7 -4 -11q-58 -41 -123 -41q-15 0 -32 3q-51 8 -86 44.5zM211 590.5q21 20.5 48 20.5q23 0 38 -15t15 -37q0 -28 -21 -48t-49 -20q-23 0 -37.5 14t-14.5 36q0 29 21 49.5z" />
    <glyph glyph-name="Ccaron" unicode="&#x10c;" horiz-adv-x="643" 
d="M346 -6q-81 0 -148 38.5t-105.5 107t-38.5 155.5q0 31 4 56q14 101 72.5 182t144 127t175.5 46q92 0 170 -50q5 -3 5 -10q0 -5 -3 -10q-21 -21 -34.5 -33.5t-19 -14.5t-11.5 1q-54 32 -116 32q-66 0 -128 -35t-104.5 -97t-53.5 -138q-3 -22 -3 -43q0 -66 28.5 -117.5
t77 -80t108.5 -28.5q61 0 124 31q5 3 8 3q6 0 13 -8.5t28 -37.5q1 -2 1 -6q0 -14 -12 -20q-91 -50 -182 -50zM312 864q0 5 4 8t10 3h34q17 0 25 -2.5t13 -9.5l31 -46l46 46q7 7 15 9.5t25 2.5h36q8 0 8 -8q0 -7 -7 -14l-88 -82q-6 -6 -10.5 -7.5t-15.5 -1.5h-26
q-12 0 -16.5 2t-8.5 7l-70 82q-5 5 -5 11z" />
    <glyph glyph-name="ccaron" unicode="&#x10d;" horiz-adv-x="407" 
d="M67 45.5q-35 36.5 -42 87.5q-2 20 -2 29q0 26 10 62q16 52 57.5 92.5t94.5 54.5q25 8 55 8q51 0 95 -28q6 -6 1 -15l-34 -45q-2 -4 -7 -5t-9 1q-23 16 -54 16q-51 0 -86 -38t-35 -95q0 -40 25 -67t64 -27q18 0 34 5t35 15q4 2 7 2q6 0 10 -5l25 -40q1 -1 1 -3
q0 -7 -4 -11q-58 -41 -123 -41q-15 0 -32 3q-51 8 -86 44.5zM129 597q0 5 4 8t10 3h34q17 0 25 -2.5t12 -9.5l32 -46l45 46q8 7 16 9.5t25 2.5h36q8 0 8 -8q0 -7 -7 -14l-89 -82q-6 -6 -10.5 -7.5t-15.5 -1.5h-26q-12 0 -16.5 2t-8.5 7l-69 82q-5 5 -5 11z" />
    <glyph glyph-name="Dcaron" unicode="&#x10e;" horiz-adv-x="733" 
d="M64.5 4.5q-3.5 4.5 -2.5 10.5l94 670q1 6 6 10.5t11 4.5h207q87 0 153 -39t102 -106.5t36 -150.5q0 -30 -4 -55q-14 -96 -69 -176t-138.5 -126.5t-178.5 -46.5h-207q-6 0 -9.5 4.5zM293 93q71 0 131.5 34t100.5 93t50 132q3 21 3 42q0 62 -26 110.5t-74 75.5t-112 27
h-127l-72 -514h126zM281 863q0 5 4 8t10 3h34q17 0 25 -2.5t13 -9.5l31 -46l46 46q7 7 15 9.5t25 2.5h36q8 0 8 -8q0 -7 -7 -14l-88 -82q-5 -5 -10 -7t-17 -2h-26q-12 0 -16 1.5t-8 7.5l-70 82q-5 5 -5 11z" />
    <glyph glyph-name="dcaron" unicode="&#x10f;" horiz-adv-x="454" 
d="M101.5 20.5q-36.5 21.5 -57.5 58t-21 80.5q0 8 2 26q8 54 39 98.5t77 70t96 25.5q44 0 75 -19.5t46 -46.5l52 376q1 5 5.5 9.5t9.5 4.5h56q6 0 9.5 -4.5t2.5 -9.5l-94 -674q-1 -5 -5.5 -8.5t-10.5 -3.5h-56q-5 0 -8.5 3.5t-2.5 8.5l9 44q-28 -27 -66 -44t-76 -17
q-45 1 -81.5 22.5zM112 170q0 -40 28 -68.5t68 -28.5q45 0 82 33t43 78q1 6 1 19q0 42 -27 70t-67 28q-45 0 -82.5 -34t-44.5 -83q-1 -5 -1 -14zM536 679q1 11 6.5 17t23.5 6h23q12 0 18.5 -6t2.5 -17l-24 -94q-2 -10 -6.5 -13t-20.5 -3h-12q-15 0 -17 21z" />
    <glyph glyph-name="Dcroat" unicode="&#x110;" horiz-adv-x="788" 
d="M119.5 4.5q-3.5 4.5 -2.5 10.5l42 299h-80q-8 0 -12.5 5.5t-3.5 13.5l6 43q2 8 7.5 13.5t12.5 5.5h81l41 290q1 6 6 10.5t11 4.5h207q87 0 153 -39t102 -106.5t36 -150.5q0 -30 -4 -55q-14 -96 -69 -176t-138.5 -126.5t-178.5 -46.5h-207q-6 0 -9.5 4.5zM348 93
q71 0 131.5 34t100.5 93t50 132q3 21 3 42q0 62 -26 110.5t-74 75.5t-112 27h-127l-30 -212h144q8 0 12 -5.5t3 -13.5l-6 -43q-1 -8 -6.5 -13.5t-13.5 -5.5h-144l-31 -221h126z" />
    <glyph glyph-name="dcroat" unicode="&#x111;" horiz-adv-x="539" 
d="M101.5 20.5q-36.5 21.5 -57.5 58t-21 80.5q0 8 2 26q8 54 39 98.5t77 70t96 25.5q44 0 75 -19.5t46 -46.5l31 227h-124q-8 0 -12 5.5t-3 13.5l5 33q1 8 6.5 13.5t12.5 5.5h125l11 78q1 5 5.5 9.5t9.5 4.5h56q6 0 9.5 -4.5t2.5 -9.5l-11 -78h41q8 0 12.5 -5.5t3.5 -13.5
l-5 -33q-1 -8 -7 -13.5t-14 -5.5h-41l-73 -525q-1 -5 -5.5 -8.5t-10.5 -3.5h-56q-5 0 -8.5 3.5t-2.5 8.5l9 44q-28 -27 -66 -44t-76 -17q-45 1 -81.5 22.5zM112 170q0 -40 28 -68.5t68 -28.5q45 0 82 33t43 78q1 6 1 19q0 42 -27 70t-67 28q-45 0 -82.5 -34t-44.5 -83
q-1 -5 -1 -14z" />
    <glyph glyph-name="Emacron" unicode="&#x112;" horiz-adv-x="595" 
d="M64 4.5q-4 4.5 -2 10.5l94 670q1 6 6 10.5t12 4.5h384q6 0 10 -4.5t3 -10.5l-9 -60q-1 -6 -6 -10.5t-11 -4.5h-305l-31 -221h264q6 0 10 -4t3 -10l-8 -55q-1 -7 -6 -11t-11 -4h-264l-30 -215h303q6 0 11 -4.5t4 -10.5l-8 -60q-2 -6 -6.5 -10.5t-11.5 -4.5h-384
q-7 0 -11 4.5zM241 816q2 8 7.5 13.5t12.5 5.5h249q8 0 12 -5.5t3 -13.5l-5 -33q-1 -8 -6.5 -13.5t-13.5 -5.5h-248q-8 0 -12.5 5.5t-3.5 13.5z" />
    <glyph glyph-name="emacron" unicode="&#x113;" horiz-adv-x="458" 
d="M53.5 61q-29.5 41 -29.5 97q0 40 15 80q19 53 60 90t94 46q20 4 42 4q70 0 110 -43.5t40 -114.5q0 -26 -6 -56q-1 -5 -5 -8.5t-9 -3.5h-254q-2 -19 8 -38.5t30.5 -31.5t47.5 -12q19 0 42.5 7.5t42.5 21.5l17 12q5 3 9 3q8 0 11 -5q5 -7 21 -37q2 -6 2 -9q0 -6 -5 -10
q-23 -20 -61 -37.5t-85 -17.5q-26 0 -56 8q-52 14 -81.5 55zM314 222q-3 40 -27 63.5t-62 23.5q-41 0 -73.5 -26t-40.5 -62zM123 579q1 8 6.5 13.5t12.5 5.5h249q8 0 12.5 -5.5t3.5 -13.5l-5 -33q-1 -8 -6.5 -13.5t-13.5 -5.5h-248q-8 0 -12.5 5.5t-3.5 13.5z" />
    <glyph glyph-name="Edotaccent" unicode="&#x116;" horiz-adv-x="595" 
d="M64 4.5q-4 4.5 -2 10.5l94 670q1 6 6 10.5t12 4.5h384q6 0 10 -4.5t3 -10.5l-9 -60q-1 -6 -6 -10.5t-11 -4.5h-305l-31 -221h264q6 0 10 -4t3 -10l-8 -55q-1 -7 -6 -11t-11 -4h-264l-30 -215h303q6 0 11 -4.5t4 -10.5l-8 -60q-2 -6 -6.5 -10.5t-11.5 -4.5h-384
q-7 0 -11 4.5zM342 852q21 20 48 20q23 0 37.5 -14.5t14.5 -37.5q0 -28 -21 -48t-48 -20q-23 0 -37.5 14.5t-14.5 36.5q0 29 21 49z" />
    <glyph glyph-name="edotaccent" unicode="&#x117;" horiz-adv-x="458" 
d="M53.5 61q-29.5 41 -29.5 97q0 40 15 80q19 53 60 90t94 46q20 4 42 4q70 0 110 -43.5t40 -114.5q0 -26 -6 -56q-1 -5 -5 -8.5t-9 -3.5h-254q-2 -19 8 -38.5t30.5 -31.5t47.5 -12q19 0 42.5 7.5t42.5 21.5l17 12q5 3 9 3q8 0 11 -5q5 -7 21 -37q2 -6 2 -9q0 -6 -5 -10
q-23 -20 -61 -37.5t-85 -17.5q-26 0 -56 8q-52 14 -81.5 55zM314 222q-3 40 -27 63.5t-62 23.5q-41 0 -73.5 -26t-40.5 -62zM216 583.5q21 20.5 48 20.5q23 0 38 -15t15 -37q0 -28 -21 -48t-49 -20q-23 0 -37.5 14t-14.5 36q0 29 21 49.5z" />
    <glyph glyph-name="Eogonek" unicode="&#x118;" horiz-adv-x="562" 
d="M380 -147q-22 18 -22 48q0 24 13.5 51t35.5 48h-332q-7 0 -11 4.5t-2 10.5l94 670q1 6 6 10.5t12 4.5h384q6 0 10 -4.5t3 -10.5l-9 -60q-1 -6 -6 -10.5t-11 -4.5h-305l-31 -221h264q6 0 10 -4t3 -10l-8 -55q-1 -7 -6 -11t-11 -4h-264l-30 -215h303q6 0 11 -4.5t4 -10.5
l-8 -60q-2 -9 -8 -12q-16 -17 -30.5 -42.5t-14.5 -43.5q0 -27 32 -28q11 0 19 4q2 1 5 1q6 0 9.5 -4t2.5 -9l-5 -30q0 -9 -11 -13q-13 -3 -28 -3q-46 0 -68 18z" />
    <glyph glyph-name="eogonek" unicode="&#x119;" horiz-adv-x="466" 
d="M242 -104q-22 18 -22 48q0 28 18 59q-23 -5 -45 -5q-25 0 -57 8q-52 14 -81.5 55t-29.5 97q0 40 15 80q19 53 60 90t94 46q20 4 42 4q70 0 110 -43.5t40 -114.5q0 -26 -6 -56q-1 -5 -5 -8.5t-9 -3.5h-254q-2 -19 8 -38.5t30.5 -31.5t47.5 -12q19 0 42.5 7.5t42.5 21.5
l17 12q5 3 9 3q8 0 11 -5q5 -7 21 -37q2 -6 2 -9q0 -6 -5 -10l-4 -3q0 -1 -3 -4q-16 -16 -30.5 -41.5t-14.5 -44.5q0 -27 32 -28q11 0 19 4q2 1 5 1q6 0 9.5 -4t2.5 -9l-4 -30q-2 -10 -12 -13q-13 -3 -28 -3q-46 0 -68 18zM315 222q-3 40 -27 63.5t-62 23.5q-41 0 -73.5 -26
t-40.5 -62z" />
    <glyph glyph-name="Ecaron" unicode="&#x11a;" horiz-adv-x="595" 
d="M64 4.5q-4 4.5 -2 10.5l94 670q1 6 6 10.5t12 4.5h384q6 0 10 -4.5t3 -10.5l-9 -60q-1 -6 -6 -10.5t-11 -4.5h-305l-31 -221h264q6 0 10 -4t3 -10l-8 -55q-1 -7 -6 -11t-11 -4h-264l-30 -215h303q6 0 11 -4.5t4 -10.5l-8 -60q-2 -6 -6.5 -10.5t-11.5 -4.5h-384
q-7 0 -11 4.5zM268 863q0 5 4 8t10 3h34q17 0 25 -2.5t13 -9.5l31 -46l46 46q7 7 15 9.5t25 2.5h36q8 0 8 -8q0 -7 -7 -14l-88 -82q-5 -5 -10 -7t-17 -2h-26q-12 0 -16 1.5t-8 7.5l-70 82q-5 5 -5 11z" />
    <glyph glyph-name="ecaron" unicode="&#x11b;" horiz-adv-x="458" 
d="M53.5 61q-29.5 41 -29.5 97q0 40 15 80q19 53 60 90t94 46q20 4 42 4q70 0 110 -43.5t40 -114.5q0 -26 -6 -56q-1 -5 -5 -8.5t-9 -3.5h-254q-2 -19 8 -38.5t30.5 -31.5t47.5 -12q19 0 42.5 7.5t42.5 21.5l17 12q5 3 9 3q8 0 11 -5q5 -7 21 -37q2 -6 2 -9q0 -6 -5 -10
q-23 -20 -61 -37.5t-85 -17.5q-26 0 -56 8q-52 14 -81.5 55zM314 222q-3 40 -27 63.5t-62 23.5q-41 0 -73.5 -26t-40.5 -62zM138 594q0 5 4 8t10 3h34q17 0 25 -2.5t13 -9.5l31 -46l46 46q7 7 15 9.5t25 2.5h36q8 0 8 -8q0 -7 -7 -14l-88 -82q-6 -6 -10.5 -7.5t-15.5 -1.5
h-26q-12 0 -16.5 2t-8.5 7l-70 82q-5 5 -5 11z" />
    <glyph glyph-name="Gbreve" unicode="&#x11e;" horiz-adv-x="727" 
d="M203 28.5q-70 40.5 -109.5 110.5t-39.5 157q0 23 3 47q15 120 80 203.5t151.5 124.5t165.5 41q47 0 100.5 -13.5t91.5 -50.5q4 -4 4 -9q0 -7 -6 -13l-41 -43q-3 -4 -9 -5t-10 2q-59 45 -136 45q-71 0 -135 -36t-107.5 -100t-54.5 -146q-3 -19 -3 -39q0 -64 29 -116
t80 -81.5t114 -29.5q40 0 82.5 8.5t66.5 26.5l25 177h-129q-6 0 -10 4.5t-3 10.5l8 53q1 6 6 10.5t11 4.5h210q6 0 9.5 -4.5t2.5 -10.5l-34 -241l-6 -37q-12 -23 -47 -44t-87.5 -34t-114.5 -13q-88 0 -158 40.5zM338.5 866.5q4.5 5.5 11.5 5.5h32q5 0 8.5 -3.5t3.5 -8.5
q2 -19 15.5 -32t33.5 -13q19 0 36 13t24 32q1 5 5.5 8.5t9.5 3.5h36q6 0 10 -5t2 -11q-12 -43 -49 -72t-81 -29t-73 28.5t-29 70.5q0 7 4.5 12.5z" />
    <glyph glyph-name="gbreve" unicode="&#x11f;" horiz-adv-x="471" 
d="M123.5 -193q-3.5 4 -2.5 10l8 50q1 7 7.5 12t14.5 3q12 -2 33 -2q63 0 91 34t37 98l8 52q-35 -34 -72.5 -50.5t-74.5 -16.5q-44 0 -80.5 21.5t-58 59.5t-21.5 85q0 56 30.5 106t81 80.5t105.5 30.5q73 0 122 -65l4 47q0 4 4 8t9 4h66q5 0 8 -3.5t2 -8.5l-49 -351
q-13 -97 -65 -155t-151 -58q-22 0 -48 3q-5 2 -8.5 6zM128 105q27 -27 69 -27q33 0 63 18t48.5 47.5t18.5 62.5q0 41 -28 68.5t-70 27.5q-32 0 -62 -18.5t-48 -48.5t-18 -62q0 -41 27 -68zM158.5 595.5q4.5 5.5 11.5 5.5h32q5 0 8.5 -3.5t3.5 -8.5q2 -19 15.5 -32t33.5 -13
q19 0 36 13t24 32q1 5 5.5 8.5t9.5 3.5h36q6 0 10 -5t2 -11q-12 -43 -49.5 -72t-81.5 -29t-72.5 28.5t-28.5 70.5q0 7 4.5 12.5z" />
    <glyph glyph-name="Gdotaccent" unicode="&#x120;" horiz-adv-x="727" 
d="M203 28.5q-70 40.5 -109.5 110.5t-39.5 157q0 23 3 47q15 120 80 203.5t151.5 124.5t165.5 41q47 0 100.5 -13.5t91.5 -50.5q4 -4 4 -9q0 -7 -6 -13l-41 -43q-3 -4 -9 -5t-10 2q-59 45 -136 45q-71 0 -135 -36t-107.5 -100t-54.5 -146q-3 -19 -3 -39q0 -64 29 -116
t80 -81.5t114 -29.5q40 0 82.5 8.5t66.5 26.5l25 177h-129q-6 0 -10 4.5t-3 10.5l8 53q1 6 6 10.5t11 4.5h210q6 0 9.5 -4.5t2.5 -10.5l-34 -241l-6 -37q-12 -23 -47 -44t-87.5 -34t-114.5 -13q-88 0 -158 40.5zM422 859q21 20 48 20q23 0 37.5 -14.5t14.5 -37.5
q0 -28 -21 -48t-48 -20q-23 0 -37.5 14.5t-14.5 36.5q0 29 21 49z" />
    <glyph glyph-name="gdotaccent" unicode="&#x121;" horiz-adv-x="471" 
d="M123.5 -193q-3.5 4 -2.5 10l8 50q1 7 7.5 12t14.5 3q12 -2 33 -2q63 0 91 34t37 98l8 52q-35 -34 -72.5 -50.5t-74.5 -16.5q-44 0 -80.5 21.5t-58 59.5t-21.5 85q0 56 30.5 106t81 80.5t105.5 30.5q73 0 122 -65l4 47q0 4 4 8t9 4h66q5 0 8 -3.5t2 -8.5l-49 -351
q-13 -97 -65 -155t-151 -58q-22 0 -48 3q-5 2 -8.5 6zM128 105q27 -27 69 -27q33 0 63 18t48.5 47.5t18.5 62.5q0 41 -28 68.5t-70 27.5q-32 0 -62 -18.5t-48 -48.5t-18 -62q0 -41 27 -68zM214 599.5q21 20.5 49 20.5q23 0 37.5 -14.5t14.5 -37.5q0 -28 -21 -48t-48 -20
q-23 0 -38 14t-15 36q0 29 21 49.5z" />
    <glyph glyph-name="uni0122" unicode="&#x122;" horiz-adv-x="727" 
d="M203 28.5q-70 40.5 -109.5 110.5t-39.5 157q0 23 3 47q15 120 80 203.5t151.5 124.5t165.5 41q47 0 100.5 -13.5t91.5 -50.5q4 -4 4 -9q0 -7 -6 -13l-41 -43q-3 -4 -9 -5t-10 2q-59 45 -136 45q-71 0 -135 -36t-107.5 -100t-54.5 -146q-3 -19 -3 -39q0 -64 29 -116
t80 -81.5t114 -29.5q40 0 82.5 8.5t66.5 26.5l25 177h-129q-6 0 -10 4.5t-3 10.5l8 53q1 6 6 10.5t11 4.5h210q6 0 9.5 -4.5t2.5 -10.5l-34 -241l-6 -37q-12 -23 -47 -44t-87.5 -34t-114.5 -13q-88 0 -158 40.5zM316 -82q8 10 14 13t21 3h32q10 0 10 -8q0 -5 -5 -13l-53 -89
q-6 -11 -15.5 -17t-27.5 -6h-43q-15 0 -15 9q0 6 7 14z" />
    <glyph glyph-name="uni0123" unicode="&#x123;" horiz-adv-x="471" 
d="M123.5 -193q-3.5 4 -2.5 10l8 50q1 7 7.5 12t14.5 3q12 -2 33 -2q63 0 91 34t37 98l8 52q-35 -34 -72.5 -50.5t-74.5 -16.5q-44 0 -80.5 21.5t-58 59.5t-21.5 85q0 56 30.5 106t81 80.5t105.5 30.5q73 0 122 -65l4 47q0 4 4 8t9 4h66q5 0 8 -3.5t2 -8.5l-49 -351
q-13 -97 -65 -155t-151 -58q-22 0 -48 3q-5 2 -8.5 6zM128 105q27 -27 69 -27q33 0 63 18t48.5 47.5t18.5 62.5q0 41 -28 68.5t-70 27.5q-32 0 -62 -18.5t-48 -48.5t-18 -62q0 -41 27 -68zM233 664q1 6 6 10.5t11 4.5h46q6 0 10 -4.5t3 -10.5l-26 -180q-1 -6 -6 -10.5
t-11 -4.5h-46q-6 0 -10 4.5t-3 10.5z" />
    <glyph glyph-name="Hbar" unicode="&#x126;" horiz-adv-x="825" 
d="M98 4.5q-4 4.5 -2 10.5l69 492h-59q-6 0 -10 4.5t-3 10.5l5 37q1 7 6 11.5t11 4.5h59l16 110q1 6 6 10.5t12 4.5h64q6 0 10 -4.5t3 -10.5l-16 -110h337l16 110q1 6 6.5 10.5t12.5 4.5h64q6 0 10 -4.5t3 -10.5l-16 -110h64q6 0 10 -4.5t3 -11.5l-5 -37q-1 -6 -6 -10.5
t-11 -4.5h-64l-69 -492q-2 -6 -7 -10.5t-11 -4.5h-64q-7 0 -11.5 4.5t-2.5 10.5l39 279h-337l-39 -279q-2 -6 -7 -10.5t-11 -4.5h-64q-7 0 -11 4.5zM579 383l18 124h-337l-18 -124h337z" />
    <glyph glyph-name="hbar" unicode="&#x127;" horiz-adv-x="533" 
d="M42 7.5q-4 4.5 -3 11.5l69 493h-40q-7 0 -11.5 5.5t-3.5 13.5l3 23q2 8 7.5 13.5t12.5 5.5h41l16 116q1 6 5.5 10t9.5 4h60q5 0 8.5 -4t2.5 -10l-16 -116h122q8 0 12 -5.5t3 -13.5l-3 -23q-1 -8 -7 -13.5t-14 -5.5h-122l-27 -190q26 28 60.5 42.5t71.5 14.5
q58 0 99.5 -33t41.5 -88q0 -7 -2 -21l-32 -217q-1 -7 -7 -12t-13 -5h-55q-7 0 -11 4.5t-3 11.5l25 175q2 16 2 24q0 41 -20 61t-52 20q-26 0 -52 -14t-45 -40t-24 -59l-24 -165q-1 -11 -6.5 -14.5t-15.5 -3.5h-52q-7 0 -11 4.5z" />
    <glyph glyph-name="Itilde" unicode="&#x128;" horiz-adv-x="283" 
d="M46 4.5q-4 4.5 -2 10.5l94 670q1 6 6 10.5t12 4.5h64q6 0 10 -4.5t3 -10.5l-94 -670q-2 -6 -7 -10.5t-11 -4.5h-64q-7 0 -11 4.5zM71 842.5q16 26.5 40 41t50 14.5q25 0 45 -13.5t31 -41.5q10 -21 22 -21q9 0 14.5 12.5t4.5 33.5q0 9 9 13l47 7h3q9 0 11 -10
q3 -38 -10.5 -65t-37 -41t-49.5 -14t-46.5 13.5t-28.5 38.5q-11 25 -23 25q-9 0 -16 -11.5t-9 -28.5q0 -4 -3 -8.5t-6 -5.5l-53 -8l-3 -1q-4 0 -7 3t-2 7q1 34 17 60.5z" />
    <glyph glyph-name="itilde" unicode="&#x129;" horiz-adv-x="218" 
d="M-4 472q-4 0 -7 3t-2 7q1 34 17 60.5t40 41t50 14.5q25 0 45 -13.5t31 -41.5q10 -21 22 -21q9 0 14.5 12.5t4.5 33.5q0 9 9 13l47 7h3q4 0 7 -3t4 -7q3 -38 -10.5 -65t-37 -41t-49.5 -14t-46.5 13.5t-28.5 38.5q-11 25 -23 25q-9 0 -16 -11.5t-9 -28.5q0 -4 -3 -8.5
t-6 -5.5l-53 -8zM68 356q2 8 8 13t14 5h52q8 0 13 -5t3 -13l-46 -334q-2 -8 -7.5 -13.5t-12.5 -5.5h-54q-8 0 -13 5t-4 13z" />
    <glyph glyph-name="Imacron" unicode="&#x12a;" horiz-adv-x="292" 
d="M49 4.5q-4 4.5 -2 10.5l94 670q1 6 6 10.5t12 4.5h64q6 0 10 -4.5t3 -10.5l-94 -670q-2 -6 -7 -10.5t-11 -4.5h-64q-7 0 -11 4.5zM67 814q1 8 6.5 13.5t13.5 5.5h249q7 0 11.5 -5.5t3.5 -13.5l-5 -33q-1 -8 -6.5 -13.5t-13.5 -5.5h-248q-8 0 -12.5 5.5t-3.5 13.5z" />
    <glyph glyph-name="imacron" unicode="&#x12b;" horiz-adv-x="221" 
d="M22 8q-5 5 -4 13l47 335q2 8 8 13t14 5h52q8 0 13 -5t3 -13l-46 -334q-2 -8 -7.5 -13.5t-12.5 -5.5h-54q-8 0 -13 5zM-16 470q2 8 7.5 13.5t12.5 5.5h249q8 0 12 -5.5t3 -13.5l-4 -33q-1 -8 -7 -13.5t-14 -5.5h-248q-8 0 -12 5.5t-3 13.5z" />
    <glyph glyph-name="Iogonek" unicode="&#x12e;" horiz-adv-x="250" 
d="M18.5 -141.5q-22.5 18.5 -22.5 48.5q0 23 12 47.5t33 45.5h-5q-7 0 -11 4.5t-2 10.5l94 670q1 6 6 10.5t12 4.5h64q6 0 10 -4.5t3 -10.5l-94 -670q-2 -6 -7 -10.5t-11 -4.5q-15 -18 -26 -39.5t-11 -38.5q0 -27 32 -28q11 0 19 4q2 1 5 1q6 0 9.5 -4t1.5 -9l-4 -30
q-2 -10 -12 -13q-12 -3 -27 -3q-46 0 -68.5 18.5z" />
    <glyph glyph-name="iogonek" unicode="&#x12f;" horiz-adv-x="180" 
d="M-17 -143q-22 18 -22 48q0 24 13.5 50.5t35.5 47.5h-4q-8 0 -13 5t-4 13l47 335q2 8 8 13t14 5h52q8 0 13 -5t3 -13l-46 -334q-2 -6 -4 -9q0 -1 -5 -6q-16 -16 -30.5 -41.5t-14.5 -44.5q0 -27 32 -28q12 0 20 4q2 1 5 1q5 0 8.5 -4t2.5 -9l-4 -30q-2 -10 -12 -13
q-12 -3 -27 -3q-46 0 -68 18zM64.5 557q19.5 20 45.5 20q22 0 36 -14.5t14 -35.5q0 -26 -20 -45t-46 -19q-21 0 -35 13.5t-14 34.5q0 26 19.5 46z" />
    <glyph glyph-name="Idotaccent" unicode="&#x130;" horiz-adv-x="308" 
d="M58 4.5q-4 4.5 -2 10.5l94 670q1 6 6 10.5t12 4.5h64q6 0 10 -4.5t3 -10.5l-94 -670q-2 -6 -7 -10.5t-11 -4.5h-64q-7 0 -11 4.5zM174 838q21 20 48 20q23 0 37.5 -14.5t14.5 -37.5q0 -28 -21 -48t-48 -20q-23 0 -37.5 14.5t-14.5 36.5q0 29 21 49z" />
    <glyph glyph-name="dotlessi" unicode="&#x131;" horiz-adv-x="218" 
d="M25 8q-5 5 -4 13l47 335q2 8 8 13t14 5h52q8 0 13 -5t3 -13l-46 -334q-2 -8 -7.5 -13.5t-12.5 -5.5h-54q-8 0 -13 5z" />
    <glyph glyph-name="IJ" unicode="&#x132;" horiz-adv-x="598" 
d="M201 0q-3 4 -2 9l8 60q2 8 8 12.5t13 3.5q18 -2 29 -2q54 0 93 32.5t49 102.5l66 472q1 4 6 7t12 3h64q6 0 10 -3t3 -7l-67 -474q-17 -116 -87 -169.5t-162 -53.5q-12 0 -34 2q-6 1 -9 5zM156 685q1 6 6 10.5t12 4.5h64q6 0 10 -4.5t3 -10.5l-94 -670q-2 -6 -7 -10.5
t-11 -4.5h-64q-7 0 -11 4.5t-2 10.5z" />
    <glyph glyph-name="ij" unicode="&#x133;" horiz-adv-x="468" 
d="M144 -277q-6 0 -10.5 4.5t-2.5 10.5l13 62q2 6 5.5 10t8.5 3q38 -3 56 38.5t26 103.5l56 401q2 8 7.5 13t12.5 5h51q8 0 12 -5.5t3 -12.5l-53 -381q-20 -143 -69 -195t-114 -57h-2zM78 356q2 8 8 13t14 5h52q8 0 13 -5t3 -13l-46 -334q-2 -8 -7.5 -13.5t-12.5 -5.5h-54
q-8 0 -13 5t-4 13zM106.5 557q19.5 20 45.5 20q22 0 36 -14.5t14 -35.5q0 -26 -20 -45t-46 -19q-21 0 -35 13.5t-14 34.5q0 26 19.5 46zM324.5 557q19.5 20 45.5 20q22 0 36 -14.5t14 -35.5q0 -26 -19.5 -45t-44.5 -19q-22 0 -36.5 13.5t-14.5 34.5q0 26 19.5 46z" />
    <glyph glyph-name="uni0136" unicode="&#x136;" horiz-adv-x="654" 
d="M64 4.5q-4 4.5 -2 10.5l94 670q1 6 6 10.5t12 4.5h64q6 0 10 -4.5t3 -10.5l-44 -310l341 314q12 11 28 11h63q9 0 15 -4.5t6 -11.5t-7 -13l-342 -318l245 -320q6 -7 6 -14q0 -9 -8.5 -14t-18.5 -5h-61q-13 0 -19 4t-10 9.5t-6 7.5l-237 316l-45 -322q-2 -6 -7 -10.5
t-11 -4.5h-64q-7 0 -11 4.5zM256 -82q8 10 14 13t21 3h32q10 0 10 -8q0 -5 -5 -13l-53 -89q-6 -11 -15.5 -17t-27.5 -6h-43q-15 0 -15 9q0 6 7 14z" />
    <glyph glyph-name="uni0137" unicode="&#x137;" horiz-adv-x="440" 
d="M35 8q-5 5 -4 13l94 663q1 8 7 13.5t14 5.5h51q8 0 12.5 -5.5t3.5 -13.5l-62 -430l123 108q9 8 16.5 10t20.5 2h75q13 0 13 -8q0 -5 -7 -12l-159 -132l130 -199q2 -2 2 -7q0 -6 -4.5 -9.5t-8.5 -3.5h-67h-5q-14 0 -20 8l-99 153l-25 -21l-17 -122q-1 -7 -6.5 -12.5
t-13.5 -5.5h-51q-8 0 -13 5zM138 -82q8 10 14 13t21 3h32q10 0 10 -8q0 -5 -5 -13l-53 -89q-6 -11 -15.5 -17t-27.5 -6h-43q-15 0 -15 9q0 6 7 14z" />
    <glyph glyph-name="Lacute" unicode="&#x139;" horiz-adv-x="482" 
d="M1 4.5q-4 4.5 -2 10.5l94 670q1 6 6 10.5t12 4.5h64q6 0 10 -4.5t3 -10.5l-84 -595h308q7 0 10.5 -4.5t2.5 -10.5l-8 -60q-2 -6 -6.5 -10.5t-11.5 -4.5h-387q-7 0 -11 4.5zM180 852q9 12 16.5 17.5t25.5 5.5h69q7 0 12 -3.5t5 -7.5q0 -7 -8 -12l-90 -71q-23 -19 -47 -19
h-32q-10 0 -10 8q0 6 7 16z" />
    <glyph glyph-name="lacute" unicode="&#x13a;" horiz-adv-x="211" 
d="M-30 8.5q-5 5.5 -4 12.5l94 664q1 7 7 12.5t13 5.5h54q7 0 12 -5.5t4 -12.5l-93 -663q-1 -7 -7 -13t-12 -6h-56q-7 0 -12 5.5zM139 851q9 12 16.5 17.5t25.5 5.5h69q7 0 12 -3.5t5 -7.5q0 -7 -8 -12l-90 -71q-23 -19 -48 -19h-32q-9 0 -9 8q0 6 7 16z" />
    <glyph glyph-name="uni013B" unicode="&#x13b;" horiz-adv-x="546" 
d="M64 4.5q-4 4.5 -2 10.5l94 670q1 6 6 10.5t12 4.5h64q6 0 10 -4.5t3 -10.5l-84 -595h308q7 0 10.5 -4.5t2.5 -10.5l-8 -60q-2 -6 -6.5 -10.5t-11.5 -4.5h-387q-7 0 -11 4.5zM236 -82q8 10 14 13t21 3h32q10 0 10 -8q0 -5 -5 -13l-53 -89q-6 -11 -15.5 -17t-27.5 -6h-43
q-15 0 -15 9q0 6 7 14z" />
    <glyph glyph-name="uni013C" unicode="&#x13c;" horiz-adv-x="254" 
d="M65 8.5q-5 5.5 -4 12.5l94 664q1 7 7 12.5t13 5.5h54q7 0 12 -5.5t4 -12.5l-93 -663q-1 -7 -7 -13t-12 -6h-56q-7 0 -12 5.5zM57 -82q8 10 14 13t21 3h32q10 0 10 -8q0 -5 -5 -13l-53 -89q-6 -11 -15.5 -17t-27.5 -6h-43q-15 0 -15 9q0 6 7 14z" />
    <glyph glyph-name="Lcaron" unicode="&#x13d;" horiz-adv-x="545" 
d="M64 4.5q-4 4.5 -2 10.5l94 670q1 6 6 10.5t12 4.5h64q6 0 10 -4.5t3 -10.5l-84 -595h308q7 0 10.5 -4.5t2.5 -10.5l-8 -60q-2 -6 -6.5 -10.5t-11.5 -4.5h-387q-7 0 -11 4.5zM243 852q9 12 16.5 17.5t25.5 5.5h69q7 0 12 -3.5t5 -7.5q0 -7 -8 -12l-90 -71q-23 -19 -47 -19
h-32q-10 0 -10 8q0 6 7 16z" />
    <glyph glyph-name="lcaron" unicode="&#x13e;" horiz-adv-x="167" 
d="M36 8.5q-5 5.5 -4 12.5l94 664q1 7 7 12.5t13 5.5h54q7 0 12 -5.5t4 -12.5l-93 -663q-1 -7 -7 -13t-12 -6h-56q-7 0 -12 5.5zM248 688q1 6 6 10.5t11 4.5h46q6 0 10 -4.5t3 -10.5l-25 -180q-1 -6 -6 -10.5t-11 -4.5h-46q-6 0 -10 4.5t-3 10.5z" />
    <glyph glyph-name="Lslash" unicode="&#x141;" horiz-adv-x="642" 
d="M161 4.5q-4 4.5 -2 10.5l40 288l-54 -54q-15 -15 -26 -15h-55q-7 0 -13 5t-1 10l165 165l38 271q1 6 6 10.5t12 4.5h64q6 0 10 -4.5t3 -10.5l-23 -161l47 47q3 3 7.5 9t10.5 6h64q7 0 12.5 -5t0.5 -10l-157 -157l-46 -324h308q7 0 10.5 -4.5t2.5 -10.5l-8 -60
q-2 -6 -6.5 -10.5t-11.5 -4.5h-387q-7 0 -11 4.5z" />
    <glyph glyph-name="lslash" unicode="&#x142;" horiz-adv-x="362" 
d="M91 8.5q-5 5.5 -4 12.5l36 256l-28 -28q-15 -15 -26 -15h-55q-7 0 -13 5t-1 10l139 139l42 297q1 7 7 12.5t13 5.5h54q7 0 12 -5.5t4 -12.5l-27 -192l78 78q3 3 7.5 9t10.5 6h64q7 0 12.5 -5t0.5 -10l-189 -189l-50 -360q-1 -7 -7 -13t-12 -6h-56q-7 0 -12 5.5z" />
    <glyph glyph-name="Nacute" unicode="&#x143;" horiz-adv-x="797" 
d="M64.5 4.5q-3.5 4.5 -2.5 10.5l94 670q1 6 6 10.5t11 4.5h38q10 0 16 -4t13 -15l323 -501l71 505q1 6 6 10.5t12 4.5h64q6 0 10 -4.5t3 -10.5l-94 -670q-2 -6 -7 -10.5t-11 -4.5h-37q-16 0 -31 20l-320 509l-72 -514q-2 -6 -7 -10.5t-11 -4.5h-65q-6 0 -9.5 4.5zM464 852
q9 12 16.5 17.5t25.5 5.5h69q7 0 12 -3.5t5 -7.5q0 -7 -8 -12l-90 -71q-23 -19 -47 -19h-32q-10 0 -10 8q0 6 7 16z" />
    <glyph glyph-name="nacute" unicode="&#x144;" horiz-adv-x="511" 
d="M34.5 8q-4.5 5 -3.5 12l48 339q1 7 6.5 11t12.5 4h50q7 0 10.5 -4t2.5 -11l-9 -43q23 31 59 48t75 17q55 0 93 -31.5t38 -90.5q0 -7 -2 -23l-30 -215q-1 -9 -7.5 -13.5t-15.5 -4.5h-51q-6 0 -10.5 5.5t-3.5 12.5l27 188q2 16 2 23q0 37 -18.5 56t-47.5 19
q-25 0 -50.5 -14t-44 -41t-23.5 -62l-22 -168q-3 -19 -26 -19h-48q-7 0 -11.5 5zM275 589q9 12 16.5 17.5t25.5 5.5h69q7 0 12 -3.5t5 -7.5q0 -7 -8 -12l-90 -71q-23 -19 -47 -19h-32q-10 0 -10 8q0 6 7 16z" />
    <glyph glyph-name="uni0145" unicode="&#x145;" horiz-adv-x="797" 
d="M64.5 4.5q-3.5 4.5 -2.5 10.5l94 670q1 6 6 10.5t11 4.5h38q10 0 16 -4t13 -15l323 -501l71 505q1 6 6 10.5t12 4.5h64q6 0 10 -4.5t3 -10.5l-94 -670q-2 -6 -7 -10.5t-11 -4.5h-37q-16 0 -31 20l-320 509l-72 -514q-2 -6 -7 -10.5t-11 -4.5h-65q-6 0 -9.5 4.5zM326 -82
q8 10 14 13t21 3h32q10 0 10 -8q0 -5 -5 -13l-53 -89q-6 -11 -15.5 -17t-27.5 -6h-43q-15 0 -15 9q0 6 7 14z" />
    <glyph glyph-name="uni0146" unicode="&#x146;" horiz-adv-x="513" 
d="M35.5 8q-4.5 5 -3.5 12l48 339q1 7 6.5 11t12.5 4h50q7 0 10.5 -4t2.5 -11l-9 -43q23 31 59 48t75 17q55 0 93 -31.5t38 -90.5q0 -7 -2 -23l-30 -215q-1 -9 -7.5 -13.5t-15.5 -4.5h-51q-6 0 -10.5 5.5t-3.5 12.5l27 188q2 16 2 23q0 37 -18.5 56t-47.5 19
q-25 0 -50.5 -14t-44 -41t-23.5 -62l-22 -168q-3 -19 -26 -19h-48q-7 0 -11.5 5zM152 -82q8 10 14 13t21 3h32q10 0 10 -8q0 -5 -5 -13l-53 -89q-6 -11 -15.5 -17t-27.5 -6h-43q-15 0 -15 9q0 6 7 14z" />
    <glyph glyph-name="Ncaron" unicode="&#x147;" horiz-adv-x="797" 
d="M64.5 4.5q-3.5 4.5 -2.5 10.5l94 670q1 6 6 10.5t11 4.5h38q10 0 16 -4t13 -15l323 -501l71 505q1 6 6 10.5t12 4.5h64q6 0 10 -4.5t3 -10.5l-94 -670q-2 -6 -7 -10.5t-11 -4.5h-37q-16 0 -31 20l-320 509l-72 -514q-2 -6 -7 -10.5t-11 -4.5h-65q-6 0 -9.5 4.5zM345 864
q0 5 4 8t10 3h34q17 0 25 -2.5t13 -9.5l31 -46l46 46q7 7 15 9.5t25 2.5h36q8 0 8 -8q0 -7 -7 -14l-88 -82q-6 -6 -10.5 -7.5t-15.5 -1.5h-26q-12 0 -16.5 2t-8.5 7l-70 82q-5 5 -5 11z" />
    <glyph glyph-name="ncaron" unicode="&#x148;" horiz-adv-x="511" 
d="M34.5 8q-4.5 5 -3.5 12l48 339q1 7 6.5 11t12.5 4h50q7 0 10.5 -4t2.5 -11l-9 -43q23 31 59 48t75 17q55 0 93 -31.5t38 -90.5q0 -7 -2 -23l-30 -215q-1 -9 -7.5 -13.5t-15.5 -4.5h-51q-6 0 -10.5 5.5t-3.5 12.5l27 188q2 16 2 23q0 37 -18.5 56t-47.5 19
q-25 0 -50.5 -14t-44 -41t-23.5 -62l-22 -168q-3 -19 -26 -19h-48q-7 0 -11.5 5zM174 603q0 5 4 8t10 3h34q17 0 24.5 -2.5t12.5 -9.5l32 -46l45 46q7 7 15.5 9.5t25.5 2.5h36q8 0 8 -8q0 -7 -7 -14l-89 -82q-6 -6 -10.5 -7.5t-15.5 -1.5h-26q-12 0 -16.5 2t-8.5 7l-69 82
q-5 5 -5 11z" />
    <glyph glyph-name="Omacron" unicode="&#x14c;" horiz-adv-x="829" 
d="M203.5 35.5q-70.5 39.5 -110 109t-39.5 154.5q0 17 4 51q14 96 72.5 177.5t146.5 129t184 47.5q88 0 158 -40t109.5 -109.5t39.5 -155.5q0 -23 -3 -49q-14 -96 -73 -177.5t-147 -129t-183 -47.5q-88 0 -158.5 39.5zM150 311q0 -64 29 -116t80 -82t115 -30q70 0 134 36
t107.5 97t53.5 134q3 20 3 39q0 64 -29 116t-79.5 82t-114.5 30q-70 0 -134.5 -35.5t-108 -97t-53.5 -134.5q-3 -19 -3 -39zM336 822q2 8 7.5 13.5t12.5 5.5h249q8 0 12 -5.5t3 -13.5l-5 -33q-1 -8 -6.5 -13.5t-13.5 -5.5h-248q-8 0 -12.5 5.5t-3.5 13.5z" />
    <glyph glyph-name="omacron" unicode="&#x14d;" horiz-adv-x="484" 
d="M104 19.5q-38 21.5 -59 59t-21 83.5q0 57 31 107t81.5 80t106.5 30q47 0 84.5 -21.5t59 -58.5t21.5 -83q0 -58 -31 -108t-81.5 -80t-106.5 -30q-47 0 -85 21.5zM133 105q26 -27 65 -27q32 0 61 18t46.5 47.5t17.5 63.5q0 46 -29.5 69.5t-63.5 23.5q-31 0 -59.5 -18
t-46 -47.5t-17.5 -62.5q0 -40 26 -67zM129 578q1 8 6.5 13.5t12.5 5.5h249q8 0 12.5 -5.5t3.5 -13.5l-5 -33q-1 -8 -7 -13.5t-14 -5.5h-248q-8 0 -12 5.5t-3 13.5z" />
    <glyph glyph-name="Ohungarumlaut" unicode="&#x150;" horiz-adv-x="829" 
d="M203.5 35.5q-70.5 39.5 -110 109t-39.5 154.5q0 17 4 51q14 96 72.5 177.5t146.5 129t184 47.5q88 0 158 -40t109.5 -109.5t39.5 -155.5q0 -23 -3 -49q-14 -96 -73 -177.5t-147 -129t-183 -47.5q-88 0 -158.5 39.5zM150 311q0 -64 29 -116t80 -82t115 -30q70 0 134 36
t107.5 97t53.5 134q3 20 3 39q0 64 -29 116t-79.5 82t-114.5 30q-70 0 -134.5 -35.5t-108 -97t-53.5 -134.5q-3 -19 -3 -39zM426 872q7 11 15.5 17t26.5 6h23q16 0 16 -9q0 -6 -7 -14l-75 -94q-8 -10 -14 -13t-21 -3h-12q-10 0 -10 9q0 5 4 12zM546 874q6 11 15.5 17t27.5 6
h23q15 0 15 -9q0 -6 -7 -14l-75 -94q-8 -10 -14 -13t-21 -3h-12q-10 0 -10 8q0 5 5 13z" />
    <glyph glyph-name="ohungarumlaut" unicode="&#x151;" horiz-adv-x="482" 
d="M104 19.5q-38 21.5 -59 59t-21 83.5q0 57 31 107t81.5 80t106.5 30q47 0 84.5 -21.5t59 -58.5t21.5 -83q0 -58 -31 -108t-81.5 -80t-106.5 -30q-47 0 -85 21.5zM133 105q26 -27 65 -27q32 0 61 18t46.5 47.5t17.5 63.5q0 46 -29.5 69.5t-63.5 23.5q-31 0 -59.5 -18
t-46 -47.5t-17.5 -62.5q0 -40 26 -67zM220 579q5 11 14.5 17t27.5 6h23q16 0 16 -9q0 -6 -7 -14l-75 -94q-8 -10 -14 -13t-22 -3h-12q-10 0 -10 8q0 5 5 13zM340 581q7 11 15.5 17t26.5 6h23q16 0 16 -9q0 -6 -7 -14l-75 -94q-8 -10 -14 -13t-21 -3h-12q-10 0 -10 8
q0 5 5 13z" />
    <glyph glyph-name="OE" unicode="&#x152;" horiz-adv-x="928" 
d="M203.5 35.5q-70.5 39.5 -110 109t-39.5 154.5q0 17 4 51q14 96 72.5 177.5t146.5 129t184 47.5q29 0 48 -4h382q6 0 10 -4.5t3 -10.5l-9 -60q-1 -6 -6 -10.5t-11 -4.5h-305l-31 -221h264q6 0 10 -4t3 -10l-8 -55q-1 -7 -6 -11t-11 -4h-264l-30 -215h303q6 0 11 -4.5
t4 -10.5l-8 -60q-2 -6 -6.5 -10.5t-11.5 -4.5h-384q-17 -4 -46 -4q-88 0 -158.5 39.5zM150 311q0 -64 29 -116t80 -82t115 -30q12 0 30 2l75 530q-18 2 -30 2q-70 0 -134.5 -35.5t-108 -97t-53.5 -134.5q-3 -19 -3 -39z" />
    <glyph glyph-name="oe" unicode="&#x153;" horiz-adv-x="757" 
d="M103 19.5q-38 21.5 -59 59t-21 83.5q0 57 31 107t81.5 80t106.5 30q44 0 80 -18.5t57 -51.5q50 55 113 65q20 4 42 4q70 0 110 -43.5t40 -114.5q0 -26 -6 -56q-1 -5 -5 -8.5t-9 -3.5h-254q-2 -19 8 -38.5t30.5 -31.5t47.5 -12q19 0 42.5 7.5t42.5 21.5l17 12q5 3 9 3
q8 0 11 -5q5 -7 21 -37q2 -6 2 -9q0 -6 -5 -10q-23 -20 -61 -37.5t-85 -17.5q-26 0 -56 8q-58 16 -87 64q-31 -34 -73 -53t-86 -19q-47 0 -85 21.5zM132 105q26 -27 65 -27q32 0 61 18t46.5 47.5t17.5 63.5q0 46 -29.5 69.5t-63.5 23.5q-31 0 -59.5 -18t-46 -47.5
t-17.5 -62.5q0 -40 26 -67zM613 222q-3 40 -27 63.5t-62 23.5q-41 0 -73.5 -26t-40.5 -62z" />
    <glyph glyph-name="Racute" unicode="&#x154;" horiz-adv-x="642" 
d="M64.5 4.5q-3.5 4.5 -2.5 10.5l94 670q1 6 6 10.5t11 4.5h220q56 0 99.5 -26t67.5 -71.5t24 -101.5q0 -23 -2 -35q-9 -64 -49.5 -118t-98.5 -83l81 -243v-3q0 -6 -4.5 -12.5t-11.5 -6.5h-65q-6 0 -11 4t-7 9l-75 225q-6 -1 -18 -1h-136l-31 -222q-2 -6 -6.5 -10.5
t-11.5 -4.5h-64q-6 0 -9.5 4.5zM332 325q43 0 80.5 23t59.5 61.5t22 84.5q0 54 -33.5 88.5t-87.5 34.5h-133l-41 -292h133zM382 847q1 2 7 8.5t15 10.5t21 4h69q7 0 11.5 -3t4.5 -8q0 -7 -8 -12l-90 -71q-23 -19 -47 -19h-32q-10 0 -10 8q0 6 7 16z" />
    <glyph glyph-name="racute" unicode="&#x155;" horiz-adv-x="334" 
d="M44 8q-4 5 -3 12l48 337q1 7 6 12t12 5h49q7 0 11.5 -5t2.5 -12l-9 -37q23 29 52.5 44t58.5 15q14 0 31 -5q10 -2 10 -12q0 -5 -3 -11q-18 -37 -24 -46t-15 -9q-5 0 -15.5 1.5t-22.5 1.5q-29 0 -49.5 -19.5t-27.5 -38.5l-31 -220q-2 -18 -23 -18h-47q-7 0 -11 5zM160 598
q1 2 7 8.5t15 10.5t21 4h69q7 0 11.5 -3t4.5 -8q0 -7 -8 -12l-89 -71q-12 -9 -22.5 -14t-25.5 -5h-32q-10 0 -10 8q0 6 7 16z" />
    <glyph glyph-name="uni0156" unicode="&#x156;" horiz-adv-x="641" 
d="M64.5 4.5q-3.5 4.5 -2.5 10.5l94 670q1 6 6 10.5t11 4.5h220q56 0 99.5 -26t67.5 -71.5t24 -101.5q0 -23 -2 -35q-9 -64 -49.5 -118t-98.5 -83l81 -243v-3q0 -6 -4.5 -12.5t-11.5 -6.5h-65q-6 0 -11 4t-7 9l-75 225q-6 -1 -18 -1h-136l-31 -222q-2 -6 -6.5 -10.5
t-11.5 -4.5h-64q-6 0 -9.5 4.5zM240 -82q8 10 14 13t21 3h32q10 0 10 -8q0 -5 -5 -13l-53 -89q-6 -11 -15.5 -17t-27.5 -6h-43q-15 0 -15 9q0 6 7 14zM332 325q43 0 80.5 23t59.5 61.5t22 84.5q0 54 -33.5 88.5t-87.5 34.5h-133l-41 -292h133z" />
    <glyph glyph-name="uni0157" unicode="&#x157;" horiz-adv-x="361" 
d="M71 8q-4 5 -3 12l48 337q1 7 6 12t12 5h49q7 0 11.5 -5t2.5 -12l-9 -37q23 29 52.5 44t58.5 15q14 0 31 -5q10 -2 10 -12q0 -5 -3 -11q-18 -37 -24 -46t-15 -9q-5 0 -15.5 1.5t-22.5 1.5q-29 0 -49.5 -19.5t-27.5 -38.5l-31 -220q-2 -18 -23 -18h-47q-7 0 -11 5zM60 -82
q8 10 14 13t21 3h32q10 0 10 -8q0 -5 -5 -13l-53 -89q-6 -11 -15.5 -17t-27.5 -6h-43q-15 0 -15 9q0 6 7 14z" />
    <glyph glyph-name="Rcaron" unicode="&#x158;" horiz-adv-x="642" 
d="M64.5 4.5q-3.5 4.5 -2.5 10.5l94 670q1 6 6 10.5t11 4.5h220q56 0 99.5 -26t67.5 -71.5t24 -101.5q0 -23 -2 -35q-9 -64 -49.5 -118t-98.5 -83l81 -243v-3q0 -6 -4.5 -12.5t-11.5 -6.5h-65q-6 0 -11 4t-7 9l-75 225q-6 -1 -18 -1h-136l-31 -222q-2 -6 -6.5 -10.5
t-11.5 -4.5h-64q-6 0 -9.5 4.5zM332 325q43 0 80.5 23t59.5 61.5t22 84.5q0 54 -33.5 88.5t-87.5 34.5h-133l-41 -292h133zM257 862q0 5 4 8t10 3h34q17 0 25 -2.5t12 -9.5l32 -46l45 46q8 7 16 9.5t25 2.5h36q8 0 8 -8q0 -7 -7 -14l-88 -82q-5 -5 -10 -7t-17 -2h-26
q-12 0 -16 1.5t-8 7.5l-70 82q-5 5 -5 11z" />
    <glyph glyph-name="rcaron" unicode="&#x159;" horiz-adv-x="308" 
d="M18 8q-4 5 -3 12l48 337q1 7 6 12t12 5h49q7 0 11.5 -5t2.5 -12l-9 -37q23 29 52.5 44t58.5 15q14 0 31 -5q10 -2 10 -12q0 -5 -3 -11q-18 -37 -24 -46t-15 -9q-5 0 -15.5 1.5t-22.5 1.5q-29 0 -49.5 -19.5t-27.5 -38.5l-31 -220q-2 -18 -23 -18h-47q-7 0 -11 5zM72 602
q0 5 4.5 8t10.5 3h34q17 0 24.5 -2.5t12.5 -9.5l31 -46l46 46q7 7 15.5 9.5t25.5 2.5h36q8 0 8 -8q0 -6 -8 -14l-88 -82q-6 -6 -10.5 -7.5t-15.5 -1.5h-26q-12 0 -16.5 2t-8.5 7l-70 82q-5 5 -5 11z" />
    <glyph glyph-name="Sacute" unicode="&#x15a;" horiz-adv-x="551" 
d="M107.5 22.5q-57.5 32.5 -80.5 96.5l-1 5q0 9 11 16l62 29q2 1 5 1q9 0 12 -10q12 -41 47.5 -63.5t80.5 -22.5q55 0 96 32t41 88q0 29 -15.5 50t-38 35.5t-62.5 34.5q-42 21 -65 36q-43 29 -68.5 64t-25.5 83q0 15 1 22q7 53 40.5 96.5t83.5 68.5t106 25q69 0 118.5 -34
t69.5 -89l1 -3q0 -6 -3 -11t-8 -6l-59 -23q-2 -1 -6 -1q-9 0 -12 9q-13 36 -43 55t-66 19q-47 0 -85 -28.5t-45 -75.5q-1 -5 -1 -14q0 -30 19 -54.5t47 -40.5l40 -20q57 -28 91 -49.5t56 -54t22 -78.5q0 -65 -35.5 -115t-91.5 -77.5t-113 -27.5q-68 0 -125.5 32.5zM361 852
q9 12 16.5 17.5t25.5 5.5h69q7 0 12 -3.5t5 -7.5q0 -7 -8 -12l-90 -71q-23 -19 -47 -19h-32q-10 0 -10 8q0 6 7 16z" />
    <glyph glyph-name="sacute" unicode="&#x15b;" horiz-adv-x="388" 
d="M13 77q0 10 9 13l35 13q14 6 22 6q11 0 18 -11q10 -16 28 -23.5t38 -7.5q21 0 36.5 8.5t18.5 23.5q1 3 1 9q0 16 -18 28t-69 29q-82 28 -82 90q0 22 12 48q15 30 50 53t90 23q43 0 77 -18t48 -52q1 -2 1 -5q0 -9 -12 -14l-29 -12q-16 -6 -25 -6q-11 0 -16 8
q-7 14 -22.5 22.5t-33.5 8.5q-19 0 -34.5 -8.5t-21.5 -25.5q-2 -4 -2 -12q0 -15 17 -24.5t53 -20.5q46 -13 74.5 -36.5t28.5 -64.5q0 -37 -22 -64.5t-57.5 -42t-75.5 -14.5q-39 0 -73.5 14.5t-55.5 42.5q-8 11 -8 22zM215 598q1 2 7 8.5t15 10.5t21 4h69q7 0 11.5 -3t4.5 -8
q0 -7 -8 -12l-89 -71q-12 -9 -22.5 -14t-25.5 -5h-32q-10 0 -10 8q0 6 7 16z" />
    <glyph glyph-name="Scedilla" unicode="&#x15e;" horiz-adv-x="552" 
d="M172 -193.5q-17 9.5 -26 28.5l-1 4q0 4 2.5 8.5t6.5 6.5l18 9q2 1 6 1q6 0 11 -5q9 -17 29 -17q12 0 23.5 7t17.5 18q3 6 3 13q0 10 -7.5 17.5t-23.5 10.5l-43 9q-16 4 -14 22l8 56q-53 11 -94.5 42t-59.5 82l-1 5q0 9 11 16l62 29q2 1 5 1q9 0 12 -10q12 -41 47.5 -63.5
t80.5 -22.5q55 0 96 32t41 88q0 29 -15.5 50t-38 35.5t-62.5 34.5q-42 21 -65 36q-43 29 -68.5 64t-25.5 83q0 15 1 22q7 53 40.5 96.5t83.5 68.5t106 25q69 0 118.5 -34t69.5 -89l1 -3q0 -6 -3 -11t-8 -6l-59 -23q-2 -1 -6 -1q-9 0 -12 9q-13 36 -43 55t-66 19
q-47 0 -85 -28.5t-45 -75.5q-1 -5 -1 -14q0 -30 19 -54.5t47 -40.5l40 -20q57 -28 91 -49.5t56 -54t22 -78.5q0 -62 -32.5 -110.5t-84.5 -76.5t-107 -32l-5 -35q70 -14 70 -62q0 -29 -17 -52q-13 -20 -36.5 -32.5t-51.5 -12.5q-21 0 -38 9.5z" />
    <glyph glyph-name="scedilla" unicode="&#x15f;" horiz-adv-x="390" 
d="M109 -180.5q-17 9.5 -26 28.5l-1 4q0 4 2.5 8.5t6.5 6.5l18 9q2 1 6 1q7 0 10 -5q10 -17 30 -17q12 0 23.5 7t17.5 18q3 6 3 12q0 22 -32 29l-42 9q-16 4 -14 22l7 49q-62 10 -96 54q-8 11 -8 22q0 10 9 13l35 13q14 6 22 6q11 0 18 -11q10 -16 28 -23.5t38 -7.5
q21 0 36.5 8.5t18.5 23.5q1 3 1 9q0 16 -18 28t-69 29q-82 28 -82 90q0 22 12 48q15 30 50 53t90 23q43 0 77 -18t48 -52q1 -2 1 -5q0 -9 -12 -14l-29 -12q-16 -6 -25 -6q-11 0 -16 8q-7 14 -22.5 22.5t-33.5 8.5q-19 0 -34.5 -8.5t-21.5 -25.5q-2 -4 -2 -12q0 -15 17 -24.5
t53 -20.5q46 -13 74.5 -36.5t28.5 -64.5q0 -48 -34 -79t-85 -39l-5 -32q70 -14 70 -62q0 -29 -17 -52q-13 -20 -36.5 -32.5t-51.5 -12.5q-21 0 -38 9.5z" />
    <glyph glyph-name="Scaron" unicode="&#x160;" horiz-adv-x="551" 
d="M107.5 22.5q-57.5 32.5 -80.5 96.5l-1 5q0 9 11 16l62 29q2 1 5 1q9 0 12 -10q12 -41 47.5 -63.5t80.5 -22.5q55 0 96 32t41 88q0 29 -15.5 50t-38 35.5t-62.5 34.5q-42 21 -65 36q-43 29 -68.5 64t-25.5 83q0 15 1 22q7 53 40.5 96.5t83.5 68.5t106 25q69 0 118.5 -34
t69.5 -89l1 -3q0 -6 -3 -11t-8 -6l-59 -23q-2 -1 -6 -1q-9 0 -12 9q-13 36 -43 55t-66 19q-47 0 -85 -28.5t-45 -75.5q-1 -5 -1 -14q0 -30 19 -54.5t47 -40.5l40 -20q57 -28 91 -49.5t56 -54t22 -78.5q0 -65 -35.5 -115t-91.5 -77.5t-113 -27.5q-68 0 -125.5 32.5zM248 864
q0 5 4 8t10 3h34q17 0 25 -2.5t13 -9.5l31 -46l46 46q7 7 15 9.5t25 2.5h36q8 0 8 -8q0 -7 -7 -14l-88 -82q-6 -6 -10.5 -7.5t-15.5 -1.5h-26q-12 0 -16.5 2t-8.5 7l-70 82q-5 5 -5 11z" />
    <glyph glyph-name="scaron" unicode="&#x161;" horiz-adv-x="380" 
d="M13 77q0 10 9 13l35 13q14 6 22 6q11 0 18 -11q10 -16 28 -23.5t38 -7.5q21 0 36.5 8.5t18.5 23.5q1 3 1 9q0 16 -18 28t-69 29q-82 28 -82 90q0 22 12 48q15 30 50 53t90 23q43 0 77 -18t48 -52q1 -2 1 -5q0 -9 -12 -14l-29 -12q-16 -6 -25 -6q-11 0 -16 8
q-7 14 -22.5 22.5t-33.5 8.5q-19 0 -34.5 -8.5t-21.5 -25.5q-2 -4 -2 -12q0 -15 17 -24.5t53 -20.5q46 -13 74.5 -36.5t28.5 -64.5q0 -37 -22 -64.5t-57.5 -42t-75.5 -14.5q-39 0 -73.5 14.5t-55.5 42.5q-8 11 -8 22zM107 605q0 5 4 8t10 3h34q17 0 25 -2.5t12 -9.5l32 -46
l45 46q8 7 16 9.5t25 2.5h36q8 0 8 -8q0 -7 -7 -14l-89 -82q-6 -6 -10.5 -7.5t-15.5 -1.5h-26q-12 0 -16.5 2t-8.5 7l-69 82q-5 5 -5 11z" />
    <glyph glyph-name="uni0162" unicode="&#x162;" horiz-adv-x="481" 
d="M155.5 -190.5q-16.5 9.5 -25.5 28.5q-1 1 -1 4q0 4 2 8.5t6 6.5l19 9q2 1 6 1q7 0 10 -5q9 -17 29 -17q12 0 23.5 7t17.5 18q3 6 3 13q0 10 -7.5 17.5t-23.5 10.5l-43 9q-8 2 -11.5 8.5t-2.5 13.5l8 58h-8q-7 0 -11.5 4.5t-2.5 10.5l83 595h-179q-6 0 -9.5 4.5t-2.5 10.5
l9 60q1 6 5.5 10.5t10.5 4.5h453q6 0 9.5 -4.5t2.5 -10.5l-9 -60q-1 -6 -5 -10.5t-11 -4.5h-179l-83 -595l-2 -6l-7 -50q69 -14 69 -62q0 -25 -16 -52q-14 -20 -37.5 -32.5t-51.5 -12.5q-21 0 -37.5 9.5z" />
    <glyph glyph-name="uni0163" unicode="&#x163;" horiz-adv-x="316" 
d="M82 -188.5q-17 9.5 -26 28.5l-1 4q0 4 2.5 8.5t6.5 6.5l18 9q2 1 6 1q7 0 10 -5q10 -17 30 -17q16 0 30 11t14 27q0 10 -8 17.5t-24 10.5l-43 9q-8 2 -11.5 8.5t-1.5 13.5l10 77l2 4q-27 27 -27 81q0 18 3 39l22 158h-62q-6 0 -10 4.5t-3 11.5l6 40q1 6 6 10.5t11 4.5h62
l26 185q1 7 6 12t13 5h55q7 0 11.5 -4.5t3.5 -12.5l-26 -185h81q6 0 10 -4.5t3 -10.5l-6 -40q-1 -6 -6 -11t-11 -5h-86l-21 -149q-2 -20 -2 -27q0 -28 9 -40t20 -14t31 -2q9 1 13 -2t4 -13q0 -3 -4 -29q-1 -10 -4.5 -15.5t-13.5 -7.5q-27 -6 -50 -5l-5 -38q69 -14 69 -62
q0 -30 -16 -52q-14 -20 -37 -32.5t-51 -12.5q-21 0 -38 9.5z" />
    <glyph glyph-name="Tcaron" unicode="&#x164;" horiz-adv-x="517" 
d="M163.5 4.5q-4.5 4.5 -2.5 10.5l83 595h-179q-6 0 -9.5 4.5t-2.5 10.5l9 60q1 6 5.5 10.5t10.5 4.5h453q6 0 9.5 -4.5t2.5 -10.5l-9 -60q-1 -6 -5 -10.5t-11 -4.5h-179l-83 -595q-2 -6 -6.5 -10.5t-11.5 -4.5h-63q-7 0 -11.5 4.5zM204 847q0 5 4 8t10 3h34q17 0 25 -2.5
t12 -9.5l32 -46l45 46q8 7 16 9.5t25 2.5h36q8 0 8 -8q0 -7 -7 -14l-89 -82q-6 -6 -10.5 -7.5t-15.5 -1.5h-26q-12 0 -16.5 2t-8.5 7l-69 82q-5 5 -5 11z" />
    <glyph glyph-name="tcaron" unicode="&#x165;" horiz-adv-x="171" 
d="M178 -1q-42 0 -70.5 23.5t-28.5 82.5q0 18 3 40l22 158h-62q-6 0 -10 4.5t-3 11.5l6 40q1 6 6 10.5t11 4.5h62l26 185q1 7 6 12t13 5h55q7 0 11.5 -4.5t3.5 -12.5l-26 -185h81q6 0 10 -4.5t3 -10.5l-6 -40q-1 -6 -6 -11t-11 -5h-86l-21 -149q-2 -20 -2 -27q0 -28 9 -40
t20 -14t31 -2q9 1 13 -2t4 -13q0 -3 -4 -29q-1 -10 -4.5 -15.5t-13.5 -7.5q-18 -5 -42 -5zM209 732q1 2 7 8.5t15 10.5t21 4h69q7 0 11.5 -3t4.5 -8q0 -7 -8 -12l-90 -71q-23 -19 -47 -19h-32q-10 0 -10 8q0 6 7 16z" />
    <glyph glyph-name="Utilde" unicode="&#x168;" horiz-adv-x="705" 
d="M173 25.5q-55 32.5 -84 88t-23 122.5l63 449q1 6 6 10.5t11 4.5h65q6 0 10 -4.5t3 -10.5l-62 -438q-1 -7 -1 -20q0 -63 42 -105t108 -42q48 0 90.5 22.5t70.5 60.5t35 84l62 438q1 6 6 10.5t11 4.5h65q6 0 10 -4.5t3 -10.5l-63 -445q-11 -67 -55.5 -124t-110 -90
t-137.5 -33q-70 0 -125 32.5zM278.5 829.5q15.5 26.5 39.5 41t50 14.5q25 0 45 -13.5t31 -41.5q10 -21 22 -21q9 0 14.5 12.5t5.5 33.5v2q0 7 8 11l47 7h3q9 0 11 -10q3 -38 -10.5 -65t-37 -41t-49.5 -14t-46.5 13.5t-28.5 38.5q-11 25 -23 25q-9 0 -16 -11.5t-9 -28.5
q0 -5 -2.5 -9t-6.5 -5l-53 -8l-3 -1q-4 0 -6.5 3t-1.5 7q1 34 16.5 60.5z" />
    <glyph glyph-name="utilde" unicode="&#x169;" horiz-adv-x="491" 
d="M290.5 7q-3.5 4 -2.5 11l9 44q-22 -32 -58 -49t-76 -17q-54 0 -92.5 31.5t-38.5 89.5q0 6 2 24l29 215q1 9 8 13.5t16 4.5h50q6 0 10.5 -5.5t3.5 -12.5l-26 -187q-2 -16 -2 -23q0 -39 19 -59t49 -20q25 0 50 14.5t43 41.5t23 64l21 168q1 10 8.5 14.5t17.5 4.5h49
q6 0 11 -5t4 -12l-48 -339q-1 -6 -7 -10.5t-12 -4.5h-50q-7 0 -10.5 4zM122 536.5q16 26.5 40 41t50 14.5q25 0 45 -13.5t31 -41.5q10 -21 22 -21q9 0 14.5 12.5t4.5 33.5q0 9 9 13l47 7h3q9 0 11 -10q3 -38 -10.5 -65t-37 -41t-49.5 -14t-46.5 13.5t-28.5 38.5
q-11 25 -23 25q-9 0 -16 -11.5t-9 -28.5q0 -4 -3 -8.5t-6 -5.5l-53 -8l-3 -1q-4 0 -7 3t-2 7q1 34 17 60.5z" />
    <glyph glyph-name="Umacron" unicode="&#x16a;" horiz-adv-x="741" 
d="M191 25.5q-55 32.5 -84 88t-23 122.5l63 449q1 6 6 10.5t11 4.5h65q6 0 10 -4.5t3 -10.5l-62 -438q-2 -16 -2 -23q0 -40 19.5 -73t54 -52t77.5 -19q48 0 91 22.5t71 60.5t34 84l62 438q1 6 6 10.5t11 4.5h65q6 0 10 -4.5t3 -10.5l-63 -445q-9 -67 -53.5 -124t-111 -90
t-138.5 -33q-70 0 -125 32.5zM289 814q1 8 6.5 13.5t13.5 5.5h249q7 0 11.5 -5.5t3.5 -13.5l-5 -33q-1 -8 -6.5 -13.5t-13.5 -5.5h-248q-8 0 -12.5 5.5t-3.5 13.5z" />
    <glyph glyph-name="umacron" unicode="&#x16b;" horiz-adv-x="511" 
d="M300.5 7q-3.5 4 -2.5 11l9 44q-22 -32 -58 -49t-75 -17q-55 0 -93.5 32t-38.5 90q0 7 2 23l29 215q1 9 8 13.5t16 4.5h50q6 0 10.5 -5.5t3.5 -12.5l-26 -187q-2 -16 -2 -23q0 -39 19 -59t49 -20q25 0 50 14.5t43 41.5t23 64l21 168q1 10 8.5 14.5t17.5 4.5h49q6 0 11 -5
t4 -12l-48 -339q-1 -6 -7 -10.5t-12 -4.5h-50q-7 0 -10.5 4zM142 560q2 8 7.5 13.5t12.5 5.5h249q8 0 12 -5.5t3 -13.5l-4 -33q-1 -8 -7 -13.5t-14 -5.5h-248q-8 0 -12 5.5t-3 13.5z" />
    <glyph glyph-name="Uring" unicode="&#x16e;" horiz-adv-x="741" 
d="M191 25.5q-55 32.5 -84 88t-23 122.5l63 449q1 6 6 10.5t11 4.5h65q6 0 10 -4.5t3 -10.5l-62 -438q-2 -16 -2 -23q0 -40 19.5 -73t54 -52t77.5 -19q48 0 91 22.5t71 60.5t34 84l62 438q1 6 6 10.5t11 4.5h65q6 0 10 -4.5t3 -10.5l-63 -445q-9 -67 -53.5 -124t-111 -90
t-138.5 -33q-70 0 -125 32.5zM347 872.5q17 27.5 45 44t58 16.5q41 0 67 -25.5t26 -64.5q0 -32 -17 -60t-45.5 -44.5t-60.5 -16.5q-39 0 -64.5 26t-25.5 66q0 31 17 58.5zM397 789q12 -13 30 -13q23 0 41 18t18 43q0 20 -14.5 31.5t-29.5 11.5q-22 0 -39.5 -18t-17.5 -41
q0 -19 12 -32z" />
    <glyph glyph-name="uring" unicode="&#x16f;" horiz-adv-x="511" 
d="M300.5 7q-3.5 4 -2.5 11l9 44q-22 -32 -58 -49t-75 -17q-55 0 -93.5 32t-38.5 90q0 7 2 23l29 215q1 9 8 13.5t16 4.5h50q6 0 10.5 -5.5t3.5 -12.5l-26 -187q-2 -16 -2 -23q0 -39 19 -59t49 -20q25 0 50 14.5t43 41.5t23 64l21 168q1 10 8.5 14.5t17.5 4.5h49q6 0 11 -5
t4 -12l-48 -339q-1 -6 -7 -10.5t-12 -4.5h-50q-7 0 -10.5 4zM191.5 594q16.5 28 44.5 44.5t58 16.5q41 0 67.5 -25.5t26.5 -64.5q0 -32 -17 -60t-45.5 -44.5t-60.5 -16.5q-39 0 -64.5 26t-25.5 65q0 31 16.5 59zM242 511q12 -13 30 -13q23 0 41 18t18 43q0 20 -14.5 31.5
t-29.5 11.5q-22 0 -39.5 -18t-17.5 -41q0 -19 12 -32z" />
    <glyph glyph-name="Uhungarumlaut" unicode="&#x170;" horiz-adv-x="741" 
d="M191 25.5q-55 32.5 -84 88t-23 122.5l63 449q1 6 6 10.5t11 4.5h65q6 0 10 -4.5t3 -10.5l-62 -438q-2 -16 -2 -23q0 -40 19.5 -73t54 -52t77.5 -19q48 0 91 22.5t71 60.5t34 84l62 438q1 6 6 10.5t11 4.5h65q6 0 10 -4.5t3 -10.5l-63 -445q-9 -67 -53.5 -124t-111 -90
t-138.5 -33q-70 0 -125 32.5zM391 872q7 11 15.5 17t26.5 6h23q16 0 16 -9q0 -6 -7 -14l-75 -94q-8 -10 -14 -13t-21 -3h-12q-10 0 -10 9q0 5 4 12zM511 874q6 11 15.5 17t27.5 6h23q15 0 15 -9q0 -6 -7 -14l-75 -94q-8 -10 -14 -13t-21 -3h-12q-10 0 -10 8q0 5 5 13z" />
    <glyph glyph-name="uhungarumlaut" unicode="&#x171;" horiz-adv-x="489" 
d="M300.5 7q-3.5 4 -2.5 11l9 44q-22 -32 -58 -49t-75 -17q-55 0 -93.5 32t-38.5 90q0 7 2 23l29 215q1 9 8 13.5t16 4.5h50q6 0 10.5 -5.5t3.5 -12.5l-26 -187q-2 -16 -2 -23q0 -39 19 -59t49 -20q25 0 50 14.5t43 41.5t23 64l21 168q1 10 8.5 14.5t17.5 4.5h49q6 0 11 -5
t4 -12l-48 -339q-1 -6 -7 -10.5t-12 -4.5h-50q-7 0 -10.5 4zM225 580q7 11 15.5 17t26.5 6h23q16 0 16 -9q0 -6 -7 -14l-75 -94q-8 -10 -14 -13t-22 -3h-12q-9 0 -9 8q0 6 4 13zM345 582q7 11 15.5 17t26.5 6h23q16 0 16 -9q0 -6 -7 -14l-75 -94q-8 -10 -14 -13t-21 -3h-12
q-10 0 -10 8q0 5 5 13z" />
    <glyph glyph-name="Uogonek" unicode="&#x172;" horiz-adv-x="745" 
d="M277.5 -142.5q-22.5 18.5 -22.5 47.5q0 21 11 44.5t30 44.5q-65 5 -114.5 38.5t-75 87t-20.5 116.5l63 449q1 6 6 10.5t11 4.5h65q6 0 10 -4.5t3 -10.5l-62 -438q-2 -16 -2 -23q0 -40 19.5 -73t54 -52t77.5 -19q48 0 91 22.5t71 60.5t34 84l62 438q1 6 6 10.5t11 4.5h65
q6 0 10 -4.5t3 -10.5l-63 -445q-8 -61 -46 -114t-96 -88t-123 -43q-14 -17 -24.5 -37.5t-10.5 -36.5q0 -27 32 -28q12 0 20 4q2 1 5 1q5 0 8.5 -4t2.5 -9l-4 -30q-2 -10 -12 -13q-12 -3 -27 -3q-46 0 -68.5 18.5z" />
    <glyph glyph-name="uogonek" unicode="&#x173;" horiz-adv-x="479" 
d="M285 -144q-22 18 -22 48q0 24 13.5 51t35.5 48h-1q-7 0 -10.5 4t-2.5 11l9 44q-22 -32 -58 -49t-75 -17q-55 0 -93.5 32t-38.5 90q0 7 2 23l29 215q1 9 8 13.5t16 4.5h50q6 0 10.5 -5.5t3.5 -12.5l-26 -187q-2 -16 -2 -23q0 -39 19 -59t49 -20q25 0 50 14.5t43 41.5
t23 64l21 168q1 10 8.5 14.5t17.5 4.5h49q6 0 11 -5t4 -12l-48 -339q0 -3 -2 -5q1 -1 -5 -7q-16 -16 -30.5 -41.5t-14.5 -44.5q0 -27 32 -28q11 0 20 4q2 1 5 1q5 0 8.5 -4t2.5 -9l-4 -30q-2 -10 -12 -13q-12 -3 -27 -3q-46 0 -68 18z" />
    <glyph glyph-name="Wcircumflex" unicode="&#x174;" horiz-adv-x="930" 
d="M204 0q-21 0 -23 16l-91 670v2q0 5 4.5 9t11.5 4h67q18 0 20 -15l59 -531l207 522q10 23 25 23h53q7 0 12.5 -5t6.5 -14l61 -525l208 530q6 15 24 15h68q7 0 10 -4.5t1 -10.5l-279 -672q-4 -11 -11.5 -12.5t-16.5 -1.5h-56q-6 0 -10.5 4.5t-4.5 10.5l-63 513l-208 -515
q-2 -6 -8 -9.5t-12 -3.5h-54h-1zM493 866q6 6 10.5 7.5t15.5 1.5h26q12 0 16.5 -2t8.5 -7l70 -82q5 -5 5 -11q0 -5 -4 -8t-10 -3h-34q-17 0 -25 2.5t-13 9.5l-31 46l-46 -46q-7 -7 -15 -9.5t-25 -2.5h-36q-8 0 -8 8q0 7 7 14z" />
    <glyph glyph-name="wcircumflex" unicode="&#x175;" horiz-adv-x="660" 
d="M120 8q-5 5 -6 10l-73 332q-1 3 -1 8q0 16 20 16h51q12 0 16.5 -4t5.5 -14l35 -236l130 243q7 11 18 11h30q4 0 8.5 -2.5t5.5 -7.5l60 -244l101 236q4 9 10.5 13.5t18.5 4.5h50q16 0 16 -12q0 -4 -3 -12l-167 -332q-3 -6 -9 -10.5t-14 -4.5h-43q-7 0 -11.5 4.5t-5.5 10.5
l-52 219l-114 -219q-7 -15 -21 -15h-43q-8 0 -13 5zM325 601q6 6 10.5 7.5t15.5 1.5h26q12 0 16.5 -2t8.5 -7l69 -82q5 -5 5 -11q0 -5 -4 -8t-10 -3h-34q-17 0 -24.5 2.5t-12.5 9.5l-32 46l-45 -46q-7 -7 -15.5 -9.5t-25.5 -2.5h-36q-8 0 -8 8q0 7 7 14z" />
    <glyph glyph-name="Ycircumflex" unicode="&#x176;" horiz-adv-x="562" 
d="M187.5 5q-3.5 4 -2.5 11l46 327l-177 330q-2 6 -2 8q0 6 5 10.5t12 4.5h64q11 0 18 -4t13 -16l126 -247l193 247q10 12 18.5 16t18.5 4h64q6 0 10 -3t4 -8t-5 -12l-267 -330l-46 -327q-1 -7 -6 -11t-11 -4h-64q-8 0 -11.5 4zM309 866q6 6 10.5 7.5t15.5 1.5h26
q12 0 16.5 -2t8.5 -7l70 -82q5 -5 5 -11q0 -5 -4 -8t-10 -3h-34q-17 0 -25 2.5t-13 9.5l-31 46l-46 -46q-7 -7 -15 -9.5t-25 -2.5h-36q-8 0 -8 8q0 7 7 14z" />
    <glyph glyph-name="ycircumflex" unicode="&#x177;" horiz-adv-x="414" 
d="M-2 -245.5q-4 4.5 -4 11.5q0 5 2 8l134 256l-109 321q-1 2 -1 6q0 7 5 12t13 5h59q13 0 16 -10l68 -222l116 222q6 10 17 10h57q10 0 14.5 -7.5t0.5 -15.5l-308 -587q-3 -6 -9.5 -10t-13.5 -4h-46q-7 0 -11 4.5zM192 583q5 5 10 7t17 2h26q12 0 16 -1.5t8 -7.5l70 -82
q5 -5 5 -11q0 -5 -4 -8t-10 -3h-34q-17 0 -25 2.5t-13 9.5l-31 46l-46 -46q-7 -7 -15 -9.5t-25 -2.5h-36q-8 0 -8 8q0 7 7 14z" />
    <glyph glyph-name="Zacute" unicode="&#x179;" horiz-adv-x="542" 
d="M-10 15q0 9 6 18l371 577h-278q-6 0 -10 4.5t-3 10.5l9 59q1 7 6 11.5t11 4.5h392q20 0 20 -15q0 -9 -6 -18l-370 -577h307q6 0 10 -4.5t3 -10.5l-8 -59q-2 -7 -7 -11.5t-12 -4.5h-421q-20 0 -20 15zM335 852q9 12 16.5 17.5t25.5 5.5h69q7 0 12 -3.5t5 -7.5q0 -7 -8 -12
l-90 -71q-23 -19 -47 -19h-32q-10 0 -10 8q0 6 7 16z" />
    <glyph glyph-name="zacute" unicode="&#x17a;" horiz-adv-x="390" 
d="M0.5 6q-2.5 3 -2.5 7q0 5 3 9l205 277h-157q-5 0 -8.5 5.5t-2.5 10.5l6 47q2 14 16 14l270 -2q4 0 6.5 -3t2.5 -7q0 -5 -4 -9l-202 -274h160q8 0 11 -4.5t2 -9.5l-6 -49q-1 -8 -6 -11.5t-10 -3.5h-277q-4 0 -6.5 3zM215 566q9 12 16.5 17.5t25.5 5.5h69q7 0 12 -3.5
t5 -7.5q0 -7 -8 -12l-90 -71q-23 -19 -48 -19h-32q-10 0 -10 8q0 7 8 16z" />
    <glyph glyph-name="Zdotaccent" unicode="&#x17b;" horiz-adv-x="542" 
d="M-10 15q0 9 6 18l371 577h-278q-6 0 -10 4.5t-3 10.5l9 59q1 7 6 11.5t11 4.5h392q20 0 20 -15q0 -9 -6 -18l-370 -577h307q6 0 10 -4.5t3 -10.5l-8 -59q-2 -7 -7 -11.5t-12 -4.5h-421q-20 0 -20 15zM281 855.5q21 20.5 49 20.5q23 0 37.5 -14.5t14.5 -37.5
q0 -28 -21 -48t-48 -20q-23 0 -38 14t-15 36q0 29 21 49.5z" />
    <glyph glyph-name="zdotaccent" unicode="&#x17c;" horiz-adv-x="390" 
d="M0.5 6q-2.5 3 -2.5 7q0 5 3 9l205 277h-157q-5 0 -8.5 5.5t-2.5 10.5l6 47q2 14 16 14l270 -2q4 0 6.5 -3t2.5 -7q0 -5 -4 -9l-202 -274h160q8 0 11 -4.5t2 -9.5l-6 -49q-1 -8 -6 -11.5t-10 -3.5h-277q-4 0 -6.5 3zM173.5 562.5q20.5 20.5 48.5 20.5q23 0 38 -15t15 -37
q0 -28 -21 -48t-48 -20q-23 0 -38 14t-15 36q0 29 20.5 49.5z" />
    <glyph glyph-name="Zcaron" unicode="&#x17d;" horiz-adv-x="542" 
d="M-10 15q0 9 6 18l371 577h-278q-6 0 -10 4.5t-3 10.5l9 59q1 7 6 11.5t11 4.5h392q20 0 20 -15q0 -9 -6 -18l-370 -577h307q6 0 10 -4.5t3 -10.5l-8 -59q-2 -7 -7 -11.5t-12 -4.5h-421q-20 0 -20 15zM202 864q0 5 4 8t10 3h34q17 0 25 -2.5t13 -9.5l31 -46l46 46
q7 7 15 9.5t25 2.5h36q8 0 8 -8q0 -7 -7 -14l-88 -82q-6 -6 -10.5 -7.5t-15.5 -1.5h-26q-12 0 -16.5 2t-8.5 7l-70 82q-5 5 -5 11z" />
    <glyph glyph-name="zcaron" unicode="&#x17e;" horiz-adv-x="390" 
d="M0.5 6q-2.5 3 -2.5 7q0 5 3 9l205 277h-157q-5 0 -8.5 5.5t-2.5 10.5l6 47q2 14 16 14l270 -2q4 0 6.5 -3t2.5 -7q0 -5 -4 -9l-202 -274h160q8 0 11 -4.5t2 -9.5l-6 -49q-1 -8 -6 -11.5t-10 -3.5h-277q-4 0 -6.5 3zM111 571q0 5 4 8t10 3h34q17 0 25 -2.5t13 -9.5l31 -46
l46 46q7 7 15 9.5t25 2.5h36q8 0 8 -8q0 -7 -7 -14l-88 -82q-5 -5 -10 -7t-17 -2h-26q-12 0 -16 1.5t-8 7.5l-70 82q-5 5 -5 11z" />
    <glyph glyph-name="uni0218" unicode="&#x218;" horiz-adv-x="551" 
d="M107.5 22.5q-57.5 32.5 -80.5 96.5l-1 5q0 9 11 16l62 29q2 1 5 1q9 0 12 -10q12 -41 47.5 -63.5t80.5 -22.5q55 0 96 32t41 88q0 29 -15.5 50t-38 35.5t-62.5 34.5q-42 21 -65 36q-43 29 -68.5 64t-25.5 83q0 15 1 22q7 53 40.5 96.5t83.5 68.5t106 25q69 0 118.5 -34
t69.5 -89l1 -3q0 -6 -3 -11t-8 -6l-59 -23q-2 -1 -6 -1q-9 0 -12 9q-13 36 -43 55t-66 19q-47 0 -85 -28.5t-45 -75.5q-1 -5 -1 -14q0 -30 19 -54.5t47 -40.5l40 -20q57 -28 91 -49.5t56 -54t22 -78.5q0 -65 -35.5 -115t-91.5 -77.5t-113 -27.5q-68 0 -125.5 32.5zM180 -82
q8 10 14 13t21 3h32q10 0 10 -8q0 -5 -5 -13l-53 -89q-6 -11 -15.5 -17t-27.5 -6h-43q-15 0 -15 9q0 6 7 14z" />
    <glyph glyph-name="uni0219" unicode="&#x219;" horiz-adv-x="388" 
d="M13 77q0 10 9 13l35 13q14 6 22 6q11 0 18 -11q10 -16 28 -23.5t38 -7.5q21 0 36.5 8.5t18.5 23.5q1 3 1 9q0 16 -18 28t-69 29q-82 28 -82 90q0 22 12 48q15 30 50 53t90 23q43 0 77 -18t48 -52q1 -2 1 -5q0 -9 -12 -14l-29 -12q-16 -6 -25 -6q-11 0 -16 8
q-7 14 -22.5 22.5t-33.5 8.5q-19 0 -34.5 -8.5t-21.5 -25.5q-2 -4 -2 -12q0 -15 17 -24.5t53 -20.5q46 -13 74.5 -36.5t28.5 -64.5q0 -37 -22 -64.5t-57.5 -42t-75.5 -14.5q-39 0 -73.5 14.5t-55.5 42.5q-8 11 -8 22zM114 -82q8 10 14 13t21 3h32q10 0 10 -8q0 -5 -5 -13
l-53 -89q-6 -11 -15.5 -17t-27.5 -6h-43q-15 0 -15 9q0 6 7 14z" />
    <glyph glyph-name="uni021A" unicode="&#x21a;" horiz-adv-x="517" 
d="M163.5 4.5q-4.5 4.5 -2.5 10.5l83 595h-179q-6 0 -9.5 4.5t-2.5 10.5l9 60q1 6 5.5 10.5t10.5 4.5h453q6 0 9.5 -4.5t2.5 -10.5l-9 -60q-1 -6 -5 -10.5t-11 -4.5h-179l-83 -595q-2 -6 -6.5 -10.5t-11.5 -4.5h-63q-7 0 -11.5 4.5zM170 -82q8 10 14 13t21 3h32q10 0 10 -8
q0 -5 -5 -13l-53 -89q-6 -11 -15.5 -17t-27.5 -6h-43q-15 0 -15 9q0 6 7 14z" />
    <glyph glyph-name="uni021B" unicode="&#x21b;" horiz-adv-x="337" 
d="M178 -1q-42 0 -70.5 23.5t-28.5 82.5q0 18 3 40l22 158h-62q-6 0 -10 4.5t-3 11.5l6 40q1 6 6 10.5t11 4.5h62l26 185q1 7 6 12t13 5h55q7 0 11.5 -4.5t3.5 -12.5l-26 -185h81q6 0 10 -4.5t3 -10.5l-6 -40q-1 -6 -6 -11t-11 -5h-86l-21 -149q-2 -20 -2 -27q0 -28 9 -40
t20 -14t31 -2q9 1 13 -2t4 -13q0 -3 -4 -29q-1 -10 -4.5 -15.5t-13.5 -7.5q-18 -5 -42 -5zM114 -82q8 10 14 13t21 3h32q10 0 10 -8q0 -5 -5 -13l-53 -89q-6 -11 -15.5 -17t-27.5 -6h-43q-15 0 -15 9q0 6 7 14z" />
    <glyph glyph-name="uni0237" unicode="&#x237;" horiz-adv-x="248" 
d="M-66 -277q-6 0 -10.5 4.5t-2.5 10.5l13 62q2 6 5.5 10t8.5 3q38 -3 56 38.5t26 103.5l56 401q2 8 7.5 13t12.5 5h51q8 0 12 -5.5t3 -12.5l-53 -381q-20 -143 -69 -195t-114 -57h-2z" />
    <glyph glyph-name="circumflex" unicode="&#x2c6;" horiz-adv-x="338" 
d="M97 753q0 7 7 14l89 82q6 6 10.5 7.5t15.5 1.5h26q12 0 16.5 -2t8.5 -7l69 -82q5 -5 5 -11q0 -5 -4 -8t-10 -3h-34q-17 0 -25 2.5t-12 9.5l-32 46l-45 -46q-8 -7 -16 -9.5t-25 -2.5h-36q-8 0 -8 8z" />
    <glyph glyph-name="caron" unicode="&#x2c7;" horiz-adv-x="338" 
d="M193.5 747q-4.5 2 -8.5 7l-69 82q-5 5 -5 11q0 5 4 8t10 3h34q17 0 25 -2.5t12 -9.5l32 -46l45 46q8 7 16 9.5t25 2.5h36q8 0 8 -8q0 -7 -7 -14l-89 -82q-6 -6 -10.5 -7.5t-15.5 -1.5h-26q-12 0 -16.5 2z" />
    <glyph glyph-name="breve" unicode="&#x2d8;" horiz-adv-x="308" 
d="M131 768q-29 29 -28 72q1 6 6 11t11 5h32q5 0 8.5 -3.5t3.5 -8.5q2 -19 15.5 -32t33.5 -13q19 0 36 13t24 32q1 5 5.5 8.5t9.5 3.5h36q6 0 9.5 -5t1.5 -11q-12 -43 -49 -72t-81 -29q-45 0 -74 29z" />
    <glyph glyph-name="dotaccent" unicode="&#x2d9;" horiz-adv-x="225" 
d="M124.5 752.5q-14.5 14.5 -14.5 36.5q0 29 21 49t48 20q23 0 37.5 -14.5t14.5 -37.5q0 -28 -21 -48t-48 -20q-23 0 -37.5 14.5z" />
    <glyph glyph-name="ring" unicode="&#x2da;" horiz-adv-x="283" 
d="M121.5 728q-25.5 26 -25.5 66q0 31 17 58.5t45 44t58 16.5q41 0 67 -25.5t26 -64.5q0 -32 -17 -60t-45.5 -44.5t-60.5 -16.5q-39 0 -64.5 26zM163 768.5q12 -12.5 31 -12.5q23 0 40.5 18t17.5 43q0 20 -14.5 31.5t-29.5 11.5q-22 0 -39.5 -18t-17.5 -41q0 -20 12 -32.5z
" />
    <glyph glyph-name="ogonek" unicode="&#x2db;" horiz-adv-x="224" 
d="M1 -141.5q-22 18.5 -22 47.5q0 28 17.5 58.5t45.5 51.5q1 1 4 1h42q7 0 7 -2t-5 -7q-16 -15 -30.5 -41t-14.5 -45q0 -27 32 -28q11 0 19 4q2 1 5 1q6 0 9.5 -4t1.5 -9l-4 -30q-2 -10 -12 -13q-12 -3 -27 -3q-46 0 -68 18.5z" />
    <glyph glyph-name="tilde" unicode="&#x2dc;" horiz-adv-x="369" 
d="M103 740q-4 0 -6.5 3t-1.5 7q1 34 16.5 60.5t39.5 41t50 14.5q25 0 45 -13.5t31 -41.5q10 -21 22 -21q9 0 14.5 12.5t5.5 33.5q0 9 9 13l47 7h3q8 0 10 -10q3 -38 -10.5 -65t-36.5 -41t-49 -14t-46.5 13.5t-28.5 38.5q-11 25 -24 25q-8 0 -15 -11.5t-9 -28.5
q0 -4 -3 -8.5t-6 -5.5l-53 -8z" />
    <glyph glyph-name="hungarumlaut" unicode="&#x2dd;" horiz-adv-x="340" 
d="M229 753q0 5 5 13l54 89q5 11 14.5 17t27.5 6h23q16 0 16 -9q0 -6 -7 -14l-76 -94q-7 -10 -13 -13t-22 -3h-12q-10 0 -10 8zM167 853q6 11 15.5 17t27.5 6h23q15 0 15 -9q0 -6 -7 -14l-75 -94q-8 -10 -14 -13t-21 -3h-12q-10 0 -10 8q0 5 5 13z" />
    <glyph glyph-name="gravecomb" unicode="&#x300;" 
d="M201 767l-70 71q-5 5 -5 10t6 9t14 4h69q16 0 23 -5.5t9.5 -11t3.5 -6.5l34 -66q3 -7 3 -12q0 -12 -12 -12h-32q-24 0 -43 19z" />
    <glyph glyph-name="acutecomb" unicode="&#x301;" 
d="M84 756q0 6 7 16l52 66q9 12 16.5 17.5t25.5 5.5h69q7 0 12 -3.5t5 -7.5q0 -7 -8 -12l-90 -71q-23 -19 -47 -19h-32q-10 0 -10 8z" />
    <glyph glyph-name="uni0302" unicode="&#x302;" 
d="M97 753q0 7 7 14l89 82q6 6 10.5 7.5t15.5 1.5h26q12 0 16.5 -2t8.5 -7l69 -82q5 -5 5 -11q0 -5 -4 -8t-10 -3h-34q-17 0 -25 2.5t-12 9.5l-32 46l-45 -46q-8 -7 -16 -9.5t-25 -2.5h-36q-8 0 -8 8z" />
    <glyph glyph-name="tildecomb" unicode="&#x303;" 
d="M103 740q-4 0 -6.5 3t-1.5 7q1 34 16.5 60.5t39.5 41t50 14.5q25 0 45 -13.5t31 -41.5q10 -21 22 -21q9 0 14.5 12.5t5.5 33.5q0 9 9 13l47 7h3q8 0 10 -10q3 -38 -10.5 -65t-36.5 -41t-49 -14t-46.5 13.5t-28.5 38.5q-11 25 -24 25q-8 0 -15 -11.5t-9 -28.5
q0 -4 -3 -8.5t-6 -5.5l-53 -8z" />
    <glyph glyph-name="uni0304" unicode="&#x304;" 
d="M122 779.5q-4 5.5 -3 13.5l5 33q1 8 6.5 13.5t12.5 5.5h249q8 0 12.5 -5.5t3.5 -13.5l-5 -33q-1 -8 -7 -13.5t-14 -5.5h-248q-8 0 -12 5.5z" />
    <glyph glyph-name="uni0306" unicode="&#x306;" 
d="M131 768q-29 29 -28 72q1 6 6 11t11 5h32q5 0 8.5 -3.5t3.5 -8.5q2 -19 15.5 -32t33.5 -13q19 0 36 13t24 32q1 5 5.5 8.5t9.5 3.5h36q6 0 9.5 -5t1.5 -11q-12 -43 -49 -72t-81 -29q-45 0 -74 29z" />
    <glyph glyph-name="uni0307" unicode="&#x307;" 
d="M124.5 752.5q-14.5 14.5 -14.5 36.5q0 29 21 49t48 20q23 0 37.5 -14.5t14.5 -37.5q0 -28 -21 -48t-48 -20q-23 0 -37.5 14.5z" />
    <glyph glyph-name="uni0308" unicode="&#x308;" 
d="M323 776.5q-11 11.5 -11 28.5q0 22 16 37.5t37 15.5q17 0 29 -11.5t12 -28.5q0 -21 -16.5 -37t-37.5 -16q-18 0 -29 11.5zM159 842.5q16 15.5 37 15.5q18 0 29.5 -11t11.5 -29q0 -21 -16.5 -37t-37.5 -16q-17 0 -28.5 11.5t-11.5 28.5q0 22 16 37.5z" />
    <glyph glyph-name="uni030A" unicode="&#x30a;" 
d="M121.5 728q-25.5 26 -25.5 66q0 31 17 58.5t45 44t58 16.5q41 0 67 -25.5t26 -64.5q0 -32 -17 -60t-45.5 -44.5t-60.5 -16.5q-39 0 -64.5 26zM163 768.5q12 -12.5 31 -12.5q23 0 40.5 18t17.5 43q0 20 -14.5 31.5t-29.5 11.5q-22 0 -39.5 -18t-17.5 -41q0 -20 12 -32.5z
" />
    <glyph glyph-name="uni030B" unicode="&#x30b;" 
d="M229 753q0 5 5 13l54 89q5 11 14.5 17t27.5 6h23q16 0 16 -9q0 -6 -7 -14l-76 -94q-7 -10 -13 -13t-22 -3h-12q-10 0 -10 8zM167 853q6 11 15.5 17t27.5 6h23q15 0 15 -9q0 -6 -7 -14l-75 -94q-8 -10 -14 -13t-21 -3h-12q-10 0 -10 8q0 5 5 13z" />
    <glyph glyph-name="uni030C" unicode="&#x30c;" 
d="M193.5 747q-4.5 2 -8.5 7l-69 82q-5 5 -5 11q0 5 4 8t10 3h34q17 0 25 -2.5t12 -9.5l32 -46l45 46q8 7 16 9.5t25 2.5h36q8 0 8 -8q0 -7 -7 -14l-89 -82q-6 -6 -10.5 -7.5t-15.5 -1.5h-26q-12 0 -16.5 2z" />
    <glyph glyph-name="uni0312" unicode="&#x312;" 
d="M78 685.5q-4 4.5 -3 10.5l26 180q1 6 6 10.5t11 4.5h46q6 0 10 -4.5t3 -10.5l-26 -180q-1 -6 -6 -10.5t-11 -4.5h-46q-6 0 -10 4.5z" />
    <glyph glyph-name="uni0326" unicode="&#x326;" 
d="M-49 -187q0 6 7 14l75 94q8 10 14.5 13t21.5 3h12q9 0 9 -8q0 -6 -4 -13l-54 -89q-7 -11 -15.5 -17t-26.5 -6h-23q-16 0 -16 9z" />
    <glyph glyph-name="uni0327" unicode="&#x327;" 
d="M-18 -180.5q-17 9.5 -26 28.5l-1 4q0 4 2.5 8.5t6.5 6.5l18 9q2 1 6 1q7 0 10 -5q10 -17 30 -17q12 0 23.5 7t17.5 18q3 6 3 12q0 22 -32 29l-42 9q-16 4 -14 22l11 77q0 5 4.5 9t9.5 4h43q6 0 9 -3.5t3 -9.5l-9 -60q70 -14 70 -62q0 -29 -17 -52q-13 -20 -36.5 -32.5
t-51.5 -12.5q-21 0 -38 9.5z" />
    <glyph glyph-name="uni0328" unicode="&#x328;" 
d="M1 -141.5q-22 18.5 -22 47.5q0 28 17.5 58.5t45.5 51.5q1 1 4 1h42q7 0 7 -2t-5 -7q-16 -15 -30.5 -41t-14.5 -45q0 -27 32 -28q11 0 19 4q2 1 5 1q6 0 9.5 -4t1.5 -9l-4 -30q-2 -10 -12 -13q-12 -3 -27 -3q-46 0 -68 18.5z" />
    <glyph glyph-name="Wgrave" unicode="&#x1e80;" horiz-adv-x="930" 
d="M204 0q-21 0 -23 16l-91 670v2q0 5 4.5 9t11.5 4h67q18 0 20 -15l59 -531l207 522q10 23 25 23h53q7 0 12.5 -5t6.5 -14l61 -525l208 530q6 15 24 15h68q7 0 10 -4.5t1 -10.5l-279 -672q-4 -11 -11.5 -12.5t-16.5 -1.5h-56q-6 0 -10.5 4.5t-4.5 10.5l-63 513l-208 -515
q-2 -6 -8 -9.5t-12 -3.5h-54h-1zM384 861q0 5 6 9t14 4h69q16 0 23 -5.5t9.5 -11t3.5 -6.5l34 -66q3 -7 3 -12q0 -6 -3.5 -9t-9.5 -3h-32q-15 0 -24 5t-18 14l-70 71q-5 5 -5 10z" />
    <glyph glyph-name="wgrave" unicode="&#x1e81;" horiz-adv-x="660" 
d="M120 8q-5 5 -6 10l-73 332q-1 3 -1 8q0 16 20 16h51q12 0 16.5 -4t5.5 -14l35 -236l130 243q7 11 18 11h30q4 0 8.5 -2.5t5.5 -7.5l60 -244l101 236q4 9 10.5 13.5t18.5 4.5h50q16 0 16 -12q0 -4 -3 -12l-167 -332q-3 -6 -9 -10.5t-14 -4.5h-43q-7 0 -11.5 4.5t-5.5 10.5
l-52 219l-114 -219q-7 -15 -21 -15h-43q-8 0 -13 5zM214 585q0 6 6.5 10t14.5 4h69q18 0 24 -6t11 -17l34 -66q3 -7 3 -12q0 -12 -12 -12h-32q-24 0 -43 19l-70 71q-5 5 -5 9z" />
    <glyph glyph-name="Wacute" unicode="&#x1e82;" horiz-adv-x="930" 
d="M204 0q-21 0 -23 16l-91 670v2q0 5 4.5 9t11.5 4h67q18 0 20 -15l59 -531l207 522q10 23 25 23h53q7 0 12.5 -5t6.5 -14l61 -525l208 530q6 15 24 15h68q7 0 10 -4.5t1 -10.5l-279 -672q-4 -11 -11.5 -12.5t-16.5 -1.5h-56q-6 0 -10.5 4.5t-4.5 10.5l-63 513l-208 -515
q-2 -6 -8 -9.5t-12 -3.5h-54h-1zM554 852q9 12 16.5 17.5t25.5 5.5h69q7 0 12 -3.5t5 -7.5q0 -7 -8 -12l-90 -71q-23 -19 -47 -19h-32q-10 0 -10 8q0 6 7 16z" />
    <glyph glyph-name="wacute" unicode="&#x1e83;" horiz-adv-x="660" 
d="M120 8q-5 5 -6 10l-73 332q-1 3 -1 8q0 16 20 16h51q12 0 16.5 -4t5.5 -14l35 -236l130 243q7 11 18 11h30q4 0 8.5 -2.5t5.5 -7.5l60 -244l101 236q4 9 10.5 13.5t18.5 4.5h50q16 0 16 -12q0 -4 -3 -12l-167 -332q-3 -6 -9 -10.5t-14 -4.5h-43q-7 0 -11.5 4.5t-5.5 10.5
l-52 219l-114 -219q-7 -15 -21 -15h-43q-8 0 -13 5zM350 591q1 2 7 8.5t15 10.5t21 4h69q7 0 11.5 -3t4.5 -8q0 -7 -8 -12l-89 -71q-12 -9 -22.5 -14t-25.5 -5h-32q-10 0 -10 8q0 6 7 16z" />
    <glyph glyph-name="Wdieresis" unicode="&#x1e84;" horiz-adv-x="930" 
d="M204 0q-21 0 -23 16l-91 670v2q0 5 4.5 9t11.5 4h67q18 0 20 -15l59 -531l207 522q10 23 25 23h53q7 0 12.5 -5t6.5 -14l61 -525l208 530q6 15 24 15h68q7 0 10 -4.5t1 -10.5l-279 -672q-4 -11 -11.5 -12.5t-16.5 -1.5h-56q-6 0 -10.5 4.5t-4.5 10.5l-63 513l-208 -515
q-2 -6 -8 -9.5t-12 -3.5h-54h-1zM398.5 839.5q16.5 15.5 37.5 15.5q18 0 29.5 -11t11.5 -29q0 -21 -16.5 -37t-37.5 -16q-17 0 -29 11.5t-12 27.5q0 23 16.5 38.5zM588.5 839q16.5 16 37.5 16q17 0 29 -11.5t12 -28.5q0 -21 -16.5 -37t-37.5 -16q-18 0 -29.5 11t-11.5 28
q0 22 16.5 38z" />
    <glyph glyph-name="wdieresis" unicode="&#x1e85;" horiz-adv-x="660" 
d="M120 8q-5 5 -6 10l-73 332q-1 3 -1 8q0 16 20 16h51q12 0 16.5 -4t5.5 -14l35 -236l130 243q7 11 18 11h30q4 0 8.5 -2.5t5.5 -7.5l60 -244l101 236q4 9 10.5 13.5t18.5 4.5h50q16 0 16 -12q0 -4 -3 -12l-167 -332q-3 -6 -9 -10.5t-14 -4.5h-43q-7 0 -11.5 4.5t-5.5 10.5
l-52 219l-114 -219q-7 -15 -21 -15h-43q-8 0 -13 5zM227 571.5q16 15.5 37 15.5q18 0 29.5 -11t11.5 -29q0 -21 -16.5 -37t-37.5 -16q-17 0 -28.5 11.5t-11.5 28.5q0 22 16 37.5zM417 571.5q16 15.5 37 15.5q17 0 29 -11.5t12 -28.5q0 -21 -16.5 -37t-37.5 -16
q-18 0 -29 11.5t-11 28.5q0 22 16 37.5z" />
    <glyph glyph-name="uni1EBC" unicode="&#x1ebc;" horiz-adv-x="559" 
d="M46 4.5q-4 4.5 -2 10.5l94 670q1 6 6 10.5t12 4.5h384q6 0 10 -4.5t3 -10.5l-9 -60q-1 -6 -6 -10.5t-11 -4.5h-305l-31 -221h264q6 0 10 -4t3 -10l-8 -55q-1 -7 -6 -11t-11 -4h-264l-30 -215h303q6 0 11 -4.5t4 -10.5l-8 -60q-2 -6 -6.5 -10.5t-11.5 -4.5h-384
q-7 0 -11 4.5zM226 841.5q16 26.5 40 41t50 14.5q25 0 45 -13.5t31 -41.5q10 -21 22 -21q9 0 14.5 12.5t4.5 33.5q0 9 9 13l47 7h3q4 0 7 -3t4 -7q3 -38 -10.5 -65t-37 -41t-49.5 -14t-46.5 13.5t-28.5 38.5q-11 25 -23 25q-9 0 -16 -11.5t-9 -28.5q0 -4 -3 -8.5t-6 -5.5
l-53 -8l-3 -1q-4 0 -7 3t-2 7q1 34 17 60.5z" />
    <glyph glyph-name="uni1EBD" unicode="&#x1ebd;" horiz-adv-x="438" 
d="M43.5 61q-29.5 41 -29.5 97q0 40 15 80q19 53 60 90t94 46q20 4 42 4q70 0 110 -43.5t40 -114.5q0 -26 -6 -56q-1 -5 -5 -8.5t-9 -3.5h-254q-2 -19 8 -38.5t30.5 -31.5t47.5 -12q19 0 42.5 7.5t42.5 21.5l17 12q5 3 9 3q8 0 11 -5q5 -7 21 -37q2 -6 2 -9q0 -6 -5 -10
q-23 -20 -61 -37.5t-85 -17.5q-26 0 -56 8q-52 14 -81.5 55zM106.5 553.5q15.5 26.5 39.5 41t50 14.5q25 0 45 -13.5t31 -41.5q10 -21 22 -21q9 0 14.5 12.5t5.5 33.5q0 9 9 13l47 7h3q8 0 10 -10q3 -38 -10.5 -65t-37 -41t-49.5 -14t-46 13.5t-28 38.5q-11 25 -24 25
q-8 0 -15 -11.5t-9 -28.5q0 -4 -3 -8.5t-6 -5.5l-54 -8l-3 -1q-4 0 -6.5 3t-1.5 7q1 34 16.5 60.5zM305 222q-3 40 -26 63.5t-60 23.5q-40 0 -71.5 -26t-39.5 -62z" />
    <glyph glyph-name="Ygrave" unicode="&#x1ef2;" horiz-adv-x="562" 
d="M187.5 5q-3.5 4 -2.5 11l46 327l-177 330q-2 6 -2 8q0 6 5 10.5t12 4.5h64q11 0 18 -4t13 -16l126 -247l193 247q10 12 18.5 16t18.5 4h64q6 0 10 -3t4 -8t-5 -12l-267 -330l-46 -327q-1 -7 -6 -11t-11 -4h-64q-8 0 -11.5 4zM220 862q0 5 6 9t14 4h69q16 0 23 -5.5
t9.5 -11t3.5 -6.5l34 -66q3 -7 3 -12q0 -12 -12 -12h-32q-24 0 -43 19l-70 71q-5 5 -5 10z" />
    <glyph glyph-name="ygrave" unicode="&#x1ef3;" horiz-adv-x="414" 
d="M-2 -245.5q-4 4.5 -4 11.5q0 5 2 8l134 256l-109 321q-1 2 -1 6q0 7 5 12t13 5h59q13 0 16 -10l68 -222l116 222q6 10 17 10h57q10 0 14.5 -7.5t0.5 -15.5l-308 -587q-3 -6 -9.5 -10t-13.5 -4h-46q-7 0 -11 4.5zM113 577q0 5 6 9t14 4h69q16 0 23 -5.5t9.5 -11t3.5 -6.5
l34 -66q3 -7 3 -12q0 -6 -3.5 -9t-9.5 -3h-32q-15 0 -24 5t-18 14l-70 71q-5 5 -5 10z" />
    <glyph glyph-name="uni1EF8" unicode="&#x1ef8;" horiz-adv-x="526" 
d="M169.5 5q-3.5 4 -2.5 11l46 327l-177 330q-2 6 -2 8q0 6 5 10.5t12 4.5h64q12 0 19 -3.5t12 -16.5l126 -247l193 247q9 13 17.5 16.5t19.5 3.5h64q6 0 10 -3t4 -8t-5 -12l-267 -330l-46 -327q-1 -7 -6 -11t-11 -4h-64q-8 0 -11.5 4zM189 827.5q16 26.5 40 41t50 14.5
q25 0 45 -13.5t31 -41.5q10 -21 22 -21q9 0 14.5 12.5t4.5 33.5q0 9 9 13l47 7h3q4 0 7 -3t4 -7q3 -38 -10.5 -65t-37 -41t-49.5 -14t-46.5 13.5t-28.5 38.5q-11 25 -23 25q-9 0 -16 -11.5t-9 -28.5q0 -4 -3 -8.5t-6 -5.5l-53 -8l-3 -1q-4 0 -7 3t-2 7q1 34 17 60.5z" />
    <glyph glyph-name="uni1EF9" unicode="&#x1ef9;" horiz-adv-x="394" 
d="M-12 -245.5q-4 4.5 -4 11.5q0 5 2 8l134 256l-109 321q-1 2 -1 6q0 7 5 12t13 5h59q13 0 16 -10l68 -222l116 222q4 10 17 10h57q10 0 14.5 -7.5t0.5 -15.5l-308 -587q-3 -6 -9.5 -10t-13.5 -4h-46q-7 0 -11 4.5zM73 535.5q16 26.5 40 41t50 14.5q25 0 45 -13.5t31 -41.5
q10 -21 22 -21q9 0 14.5 12.5t4.5 33.5q0 9 9 13l47 7h3q4 0 7 -3t4 -7q3 -38 -10.5 -65t-37 -41t-49.5 -14t-46.5 13.5t-28.5 38.5q-11 25 -23 25q-9 0 -16 -11.5t-9 -28.5q0 -4 -3 -8.5t-6 -5.5l-53 -8l-3 -1q-4 0 -7 3t-2 7q1 34 17 60.5z" />
    <glyph glyph-name="endash" unicode="&#x2013;" horiz-adv-x="529" 
d="M59 225.5q-4 5.5 -3 13.5l6 43q1 8 6.5 13t13.5 5h344q8 0 12 -5t3 -13l-6 -43q-1 -8 -7 -13.5t-14 -5.5h-343q-8 0 -12 5.5z" />
    <glyph glyph-name="emdash" unicode="&#x2014;" horiz-adv-x="692" 
d="M58 215.5q-4 5.5 -3 13.5l6 43q0 8 5.5 13t13.5 5h508q7 0 11.5 -5t3.5 -13l-6 -43q-1 -8 -7 -13.5t-13 -5.5h-507q-8 0 -12 5.5z" />
    <glyph glyph-name="quoteleft" unicode="&#x2018;" horiz-adv-x="167" 
d="M55 556q0 26 15 52q9 17 27.5 40.5t39.5 43.5q9 8 13 8h20q5 0 5 -6q0 -4 -4 -8q-15 -15 -32 -39.5t-22 -39.5q18 2 33.5 -9.5t11.5 -41.5q-5 -24 -22 -36.5t-37 -12.5q-16 0 -28 7t-17 20q-3 9 -3 22z" />
    <glyph glyph-name="quoteright" unicode="&#x2019;" horiz-adv-x="165" 
d="M60 517q0 4 4 8q15 16 32 40.5t22 38.5q-19 -2 -34.5 9.5t-11.5 41.5q5 24 22 36.5t38 12.5q15 0 27 -7t17 -20q4 -14 4 -24q0 -21 -15 -50q-9 -17 -27.5 -40t-39.5 -44q-8 -8 -14 -8h-19q-5 0 -5 6z" />
    <glyph glyph-name="quotesinglbase" unicode="&#x201a;" horiz-adv-x="196" 
d="M-14 -84q0 4 4 8q14 15 31 40t23 39q-19 -1 -34.5 10.5t-11.5 40.5q5 24 22.5 37t37.5 13q15 0 27 -7t16 -20q5 -12 5 -25q0 -21 -15 -50q-10 -17 -28.5 -40.5t-38.5 -43.5q-10 -7 -14 -7h-19q-5 0 -5 5z" />
    <glyph glyph-name="quotedblleft" unicode="&#x201c;" horiz-adv-x="306" 
d="M193 556q0 26 15 52q9 17 27.5 40.5t39.5 43.5q9 8 14 8h19q5 0 5 -6q0 -4 -4 -8q-15 -16 -32 -40.5t-22 -38.5q19 2 34.5 -9.5t11.5 -41.5q-5 -24 -22 -36.5t-38 -12.5q-16 0 -28 7t-17 20q-3 9 -3 22zM55 556q0 26 15 52q9 17 27.5 40.5t39.5 43.5q9 8 13 8h20
q5 0 5 -6q0 -4 -4 -8q-15 -15 -32 -39.5t-22 -39.5q18 2 33.5 -9.5t11.5 -41.5q-5 -24 -22 -36.5t-37 -12.5q-16 0 -28 7t-17 20q-3 9 -3 22z" />
    <glyph glyph-name="quotedblright" unicode="&#x201d;" horiz-adv-x="304" 
d="M198 517q0 5 4 9q15 16 32 40.5t22 38.5q-19 -2 -34.5 9.5t-10.5 41.5q5 24 22 36.5t37 12.5q16 0 28 -7t17 -20q3 -9 3 -22q0 -26 -15 -52q-9 -17 -27.5 -40.5t-38.5 -43.5q-9 -8 -15 -8h-19q-5 0 -5 5zM96 566.5q17 24.5 22 38.5q-19 -2 -34.5 9.5t-10.5 41.5
q5 24 22 36.5t37 12.5q15 0 27 -7t17 -20q4 -14 4 -24q0 -21 -15 -50q-18 -34 -66 -84q-9 -8 -15 -8h-19q-5 0 -5 5t4 9q15 16 32 40.5z" />
    <glyph glyph-name="quotedblbase" unicode="&#x201e;" horiz-adv-x="335" 
d="M122.5 -93.5q-0.5 4.5 3.5 8.5q15 16 32 40.5t23 38.5q-20 -1 -35 10.5t-11 41.5q5 24 22 36.5t37 12.5q16 0 28 -7t16 -20q5 -12 5 -25q0 -22 -15 -49q-10 -18 -28.5 -41.5t-38.5 -42.5q-9 -8 -14 -8h-19q-5 0 -5.5 4.5zM20 -44.5q17 24.5 23 38.5q-20 -1 -35 10.5
t-11 41.5q5 24 22 36.5t37 12.5q16 0 28 -7t16 -20q5 -12 5 -25q0 -22 -15 -49q-9 -17 -28 -40.5t-39 -43.5q-9 -8 -14 -8h-19q-5 0 -5.5 4.5t3.5 8.5q15 16 32 40.5z" />
    <glyph glyph-name="dagger" unicode="&#x2020;" horiz-adv-x="370" 
d="M116 154.5q-4 4.5 -3 10.5l53 377h-87q-6 0 -10 4.5t-3 10.5l4 34q1 7 6.5 11.5t11.5 4.5h87l11 78q1 6 6 10.5t12 4.5h54q6 0 10 -4.5t3 -10.5l-11 -78h88q6 0 9.5 -4.5t2.5 -11.5l-4 -34q-1 -6 -6 -10.5t-11 -4.5h-88l-53 -377q-1 -6 -6 -10.5t-11 -4.5h-54
q-7 0 -11 4.5z" />
    <glyph glyph-name="daggerdbl" unicode="&#x2021;" horiz-adv-x="370" 
d="M116 154.5q-4 4.5 -3 10.5l35 252h-87q-6 0 -10 4.5t-3 10.5l5 34q1 7 6 11.5t11 4.5h87l9 60h-87q-6 0 -10 4.5t-3 10.5l4 34q1 7 6.5 11.5t11.5 4.5h87l11 78q1 6 6 10.5t12 4.5h54q6 0 10 -4.5t3 -10.5l-11 -78h88q6 0 9.5 -4.5t2.5 -11.5l-4 -34q-1 -6 -6 -10.5
t-11 -4.5h-88l-9 -60h88q6 0 10 -4.5t3 -11.5l-5 -34q-1 -6 -6 -10.5t-11 -4.5h-88l-35 -252q-1 -6 -6 -10.5t-11 -4.5h-54q-7 0 -11 4.5z" />
    <glyph glyph-name="bullet" unicode="&#x2022;" horiz-adv-x="286" 
d="M62.5 192.5q-20.5 20.5 -20.5 51.5q0 36 29 64.5t66 28.5q31 0 52 -20.5t21 -50.5q0 -39 -29 -66.5t-67 -27.5q-31 0 -51.5 20.5z" />
    <glyph glyph-name="ellipsis" unicode="&#x2026;" horiz-adv-x="218" 
d="M54 -6q-23 0 -36.5 13.5t-13.5 35.5q0 27 21 46.5t48 19.5q22 0 36 -14.5t14 -36.5q0 -23 -17 -41.5t-39 -21.5q-4 -1 -13 -1z" />
    <glyph glyph-name="perthousand" unicode="&#x2030;" horiz-adv-x="912" 
d="M45.5 4q-2.5 4 1.5 10l439 672q9 14 21 14h47q6 0 8 -4t-2 -10l-438 -672q-9 -14 -20 -14h-47q-7 0 -9.5 4zM88 625.5q21 33.5 55 54t72 20.5q48 0 79.5 -31.5t31.5 -79.5q0 -39 -20.5 -73t-54.5 -54t-72 -20q-48 0 -80 32t-32 79q0 39 21 72.5zM144 518q17 -17 42 -17
q32 0 55.5 24t23.5 57q0 29 -19 44t-40 15q-30 0 -54.5 -24.5t-24.5 -56.5q0 -25 17 -42zM316 182.5q21 34.5 55.5 55t72.5 20.5q48 0 79.5 -31.5t31.5 -79.5q0 -39 -21 -73t-55 -54t-72 -20q-48 0 -80 31t-32 78q0 39 21 73.5zM373 76q17 -17 42 -17q32 0 55.5 24t23.5 57
q0 28 -19.5 43.5t-40.5 15.5q-32 0 -55 -24t-23 -57q0 -25 17 -42zM610 182.5q21 34.5 55.5 55t72.5 20.5q48 0 79.5 -31.5t31.5 -79.5q0 -39 -21 -73t-55 -54t-72 -20q-48 0 -80 31t-32 78q0 39 21 73.5zM667 76q17 -17 42 -17q32 0 55.5 24t23.5 57q0 28 -19.5 43.5
t-40.5 15.5q-32 0 -55 -24t-23 -57q0 -25 17 -42z" />
    <glyph glyph-name="fraction" unicode="&#x2044;" horiz-adv-x="57" 
d="M-193 -22q-2 4 1 10l362 671q3 6 9 10t13 4h56q6 0 8 -4t-1 -10l-363 -671q-3 -6 -8.5 -10t-11.5 -4h-56q-7 0 -9 4z" />
    <glyph glyph-name="Euro" unicode="&#x20ac;" horiz-adv-x="636" 
d="M343 -6q-71 0 -128.5 32.5t-93.5 91.5t-43 135h-71q-8 0 -13 5t-4 12l5 34q1 8 7 13.5t14 5.5h62q0 10 1 17t2 11l4 23h-61q-8 0 -13 5t-4 12l5 34q1 8 7 13.5t14 5.5h71q29 77 82 136.5t121 92.5t140 33q88 0 166 -50q5 -3 5 -10q0 -5 -3 -10q-21 -21 -34.5 -33.5
t-19 -14.5t-11.5 1q-52 31 -112 31q-73 0 -137 -48t-98 -128h165q8 0 12 -5.5t3 -13.5l-4 -32q-1 -8 -7 -13.5t-14 -5.5h-176q-2 -9 -4 -23q-3 -15 -3 -28h176q8 0 12 -5.5t3 -13.5l-4 -32q-1 -8 -7 -13.5t-14 -5.5h-163q13 -78 63 -124.5t122 -46.5q58 0 120 31q5 3 8 3
q6 0 13 -8.5t28 -37.5q1 -2 1 -6q0 -14 -12 -20q-91 -50 -178 -50z" />
    <glyph glyph-name="trademark" unicode="&#x2122;" horiz-adv-x="438" 
d="M137.5 2.5q-1.5 2.5 -0.5 5.5l38 167q0 2 2.5 4.5t6.5 2.5h25q5 0 6 -4l29 -113l60 113q4 4 8 4h25q7 0 7 -7l-8 -167q-1 -3 -3.5 -5.5t-5.5 -2.5h-27q-7 0 -7 7l7 96l-51 -97q-2 -4 -5.5 -5t-9.5 -1t-8 1t-3 2.5t-1 2.5l-23 97l-22 -96q0 -7 -8 -7h-27q-3 0 -4.5 2.5z
M12 175q2 7 8 7h121q3 0 5 -2t1 -5l-3 -23q-2 -7 -8 -7h-40l-20 -138q0 -3 -2.5 -5t-5.5 -2h-27q-7 0 -7 7l20 138h-39q-3 0 -5 2t-1 5z" />
    <glyph glyph-name="minus" unicode="&#x2212;" horiz-adv-x="408" 
d="M34 295.5q-4 5.5 -3 13.5l6 43q1 8 6 13t13 5h293q8 0 12.5 -5t3.5 -13l-6 -43q-1 -8 -7 -13.5t-14 -5.5h-292q-8 0 -12 5.5z" />
    <glyph glyph-name="approxequal" unicode="&#x2248;" horiz-adv-x="402" 
d="M293 376q-21 0 -42.5 5t-53.5 15t-53.5 15t-42.5 5q-33 0 -61 -14q-6 -3 -10 -3q-7 0 -5 8l6 48q2 7 7.5 15t12.5 12q29 14 61 14q22 0 43.5 -5t53.5 -15q30 -10 52 -15t43 -5q33 0 61 14q6 3 10 3q3 0 5 -2t1 -6l-7 -48q-1 -7 -7 -15t-13 -12q-28 -14 -61 -14zM10 304
q1 7 7 15t13 12q28 14 61 14q21 0 42.5 -5t53.5 -15t53.5 -15t42.5 -5q33 0 61 14q6 3 10 3q3 0 5 -2t1 -6l-7 -48q-1 -7 -7 -15t-13 -12q-28 -14 -61 -14q-21 0 -42.5 5t-53.5 15t-53.5 15t-42.5 5q-33 0 -61 -14q-6 -3 -10 -3q-3 0 -5 2t-1 6z" />
    <glyph glyph-name="notequal" unicode="&#x2260;" horiz-adv-x="408" 
d="M58 154q0 4 3 10l33 52h-58q-8 0 -12.5 5.5t-3.5 13.5l7 43q1 8 6 13t13 5h97l49 79h-134q-8 0 -12 5.5t-3 13.5l6 43q1 8 6 13t13 5h173l59 94q4 7 11 10t14 -1l18 -9q9 -4 9 -14q0 -5 -3 -10l-44 -70h56q8 0 12.5 -5t3.5 -13l-6 -43q-1 -8 -7 -13.5t-14 -5.5h-94
l-49 -79h132q8 0 12.5 -5t3.5 -13l-7 -43q-1 -8 -6.5 -13.5t-13.5 -5.5h-170l-47 -75q-6 -11 -18 -11q-4 0 -8 2l-18 9q-9 5 -9 13z" />
    <glyph glyph-name="lessequal" unicode="&#x2264;" horiz-adv-x="341" 
d="M12.5 387.5q-3.5 5.5 -2.5 14.5l8 59q2 8 7 12t14 8l312 136l4 1q6 0 9 -7t1 -16l-7 -53q-2 -17 -22 -24l-231 -89l205 -88q17 -7 15 -24l-7 -53q-2 -11 -8 -18.5t-13 -3.5l-273 136q-8 4 -11.5 9.5zM-23 168q1 8 7 13t14 5h293q8 0 11.5 -5t2.5 -13l-6 -43
q-1 -8 -7 -13.5t-14 -5.5h-292q-8 0 -12 5.5t-3 13.5z" />
    <glyph glyph-name="greaterequal" unicode="&#x2265;" horiz-adv-x="341" 
d="M1 241q-5 0 -8 7.5t-1 15.5l7 53q2 17 21 24l231 88l-207 89q-16 7 -14 24l7 53q2 11 8 18.5t12 3.5l274 -136q8 -4 12 -8t3 -12l-8 -59q-2 -15 -20 -24l-313 -136q-1 -1 -4 -1zM-23 168q1 8 6.5 13t13.5 5h293q8 0 12 -5t3 -13l-6 -43q-1 -8 -7 -13.5t-14 -5.5h-292
q-8 0 -12 5.5t-3 13.5z" />
    <glyph glyph-name="LF" 
 />
    <glyph glyph-name="controlCR" 
 />
    <glyph glyph-name="J_acutecomb" horiz-adv-x="299" 
d="M-80 0q-3 4 -2 9l8 60q2 8 8 12.5t13 3.5q18 -2 29 -2q54 0 93 32.5t49 102.5l66 472q1 4 6 7t12 3h64q6 0 10 -3t3 -7l-67 -474q-17 -116 -87 -169.5t-162 -53.5q-12 0 -34 2q-6 1 -9 5zM264 851q9 12 16.5 17.5t25.5 5.5h69q7 0 12 -3.5t5 -7.5q0 -7 -8 -12l-90 -71
q-23 -19 -48 -19h-32q-9 0 -9 8q0 6 7 16z" />
    <glyph glyph-name="i.loclTRK" horiz-adv-x="238" 
d="M25 8q-5 5 -4 13l47 335q2 8 8 13t14 5h52q8 0 13 -5t3 -13l-46 -334q-2 -8 -7.5 -13.5t-12.5 -5.5h-54q-8 0 -13 5zM103 567.5q21 20.5 48 20.5q23 0 37.5 -15t14.5 -38q0 -28 -21 -47.5t-48 -19.5q-23 0 -37.5 14t-14.5 36q0 29 21 49.5z" />
    <glyph glyph-name="j_acutecomb" horiz-adv-x="274" 
d="M-66 -277q-6 0 -10.5 4.5t-2.5 10.5l13 62q2 6 5.5 10t8.5 3q38 -3 56 38.5t26 103.5l56 401q2 8 7.5 13t12.5 5h51q8 0 12 -5.5t3 -12.5l-53 -381q-20 -143 -69 -195t-114 -57h-2zM170 534q1 2 7 8.5t15 10.5t21 4h69q7 0 11.5 -3t4.5 -8q0 -7 -8 -12l-89 -71
q-12 -9 -22.5 -14t-25.5 -5h-32q-10 0 -10 8q0 6 7 16z" />
    <glyph glyph-name="uni030C.alt" 
d="M109 753q0 5 5 13l54 89q5 11 14.5 17t27.5 6h23q16 0 16 -9q0 -6 -7 -14l-76 -94q-7 -10 -13 -13t-22 -3h-12q-10 0 -10 8z" />
    </font>
</defs>
</svg>
