<?xml version="1.0" encoding="utf-8"?>
<!-- Generator: Adobe Illustrator 24.0.0, SVG Export Plug-In . SVG Version: 6.00 Build 0)  -->
<svg version="1.1" id="Layer_1" xmlns="http://www.w3.org/2000/svg" xmlns:xlink="http://www.w3.org/1999/xlink" x="0px" y="0px"
	 viewBox="0 0 512 512" style="enable-background:new 0 0 512 512;" xml:space="preserve">
<style type="text/css">
	.st0{clip-path:url(#SVGID_2_);}
	.st1{clip-path:url(#SVGID_4_);fill:#0068FF;}
	.st2{clip-path:url(#SVGID_6_);}
	.st3{opacity:0.12;clip-path:url(#SVGID_8_);}
	.st4{clip-path:url(#SVGID_10_);}
	.st5{clip-path:url(#SVGID_12_);}
	.st6{clip-path:url(#SVGID_14_);fill:#FFFFFF;}
	.st7{fill-rule:evenodd;clip-rule:evenodd;fill:none;}
	.st8{clip-path:url(#SVGID_16_);}
	.st9{clip-path:url(#SVGID_18_);fill:#FFFFFF;}
	.st10{clip-path:url(#SVGID_20_);}
	.st11{clip-path:url(#SVGID_22_);fill:#0068FF;}
	.st12{clip-path:url(#SVGID_24_);}
	.st13{clip-path:url(#SVGID_26_);fill:#0068FF;}
	.st14{clip-path:url(#SVGID_28_);}
	.st15{clip-path:url(#SVGID_30_);fill:#0068FF;}
	.st16{clip-path:url(#SVGID_32_);}
	.st17{clip-path:url(#SVGID_34_);fill:#0068FF;}
	.st18{clip-path:url(#SVGID_36_);}
	.st19{clip-path:url(#SVGID_38_);fill:#0068FF;}
	.st20{fill:none;}
</style>
<g>
	<g>
		<defs>
			<path id="SVGID_1_" d="M433.9,21.6H171.1H79.2C44.4,21.6,16,50.1,16,84.9v353.6c0,34.8,28.5,63.2,63.2,63.2h86.6h267
				c34.8,0,63.2-28.5,63.2-63.2V377v-5.9v-52.4V83.8C496,49.6,468.1,21.6,433.9,21.6z"/>
		</defs>
		<clipPath id="SVGID_2_">
			<use xlink:href="#SVGID_1_"  style="overflow:visible;"/>
		</clipPath>
		<g class="st0">
			<g>
				<defs>
					<rect id="SVGID_3_" x="16" y="21.6" width="480.1" height="480.1"/>
				</defs>
				<clipPath id="SVGID_4_">
					<use xlink:href="#SVGID_3_"  style="overflow:visible;"/>
				</clipPath>
				<rect x="-38.6" y="-32.9" class="st1" width="589.2" height="589.2"/>
			</g>
			<g>
				<defs>
					<polygon id="SVGID_5_" points="86.2,439.5 234,591.7 884.1,591.7 884.1,121.6 					"/>
				</defs>
				<clipPath id="SVGID_6_">
					<use xlink:href="#SVGID_5_"  style="overflow:visible;"/>
				</clipPath>
				<g class="st2">
					<defs>
						<rect id="SVGID_7_" x="16" y="21.6" width="480.1" height="480.1"/>
					</defs>
					<clipPath id="SVGID_8_">
						<use xlink:href="#SVGID_7_"  style="overflow:visible;"/>
					</clipPath>
					<rect x="31.7" y="67.1" class="st3" width="907" height="579.2"/>
				</g>
			</g>
			<g>
				<defs>
					<rect id="SVGID_9_" x="26.9" y="-43.8" width="556.4" height="534.6"/>
				</defs>
				<clipPath id="SVGID_10_">
					<use xlink:href="#SVGID_9_"  style="overflow:visible;"/>
				</clipPath>
				<g class="st4">
					<defs>
						<path id="SVGID_11_" d="M120.8,399.3c-86.4-83.2-86.4-272,0-355.2c86.4-83.2,282.5-83.2,369,0c86.5,83.2,86.5,272,0,355.2
							C403.3,482.5,207.3,482.5,120.8,399.3"/>
					</defs>
					<clipPath id="SVGID_12_">
						<use xlink:href="#SVGID_11_"  style="overflow:visible;"/>
					</clipPath>
					<g class="st5">
						<defs>
							<rect id="SVGID_13_" x="37.8" y="21.6" width="458.2" height="447.3"/>
						</defs>
						<clipPath id="SVGID_14_">
							<use xlink:href="#SVGID_13_"  style="overflow:visible;"/>
						</clipPath>
						<rect x="1.4" y="-72.9" class="st6" width="607.8" height="589.2"/>
					</g>
				</g>
			</g>
			<rect x="46" y="-15.6" class="st7" width="495.8" height="477.3"/>
			<g>
				<defs>
					<path id="SVGID_15_" d="M89.5,441.2c34.9,3.8,83.2-13.7,93.5-31.8c23-40.5-91.5-47.4-80.2-30.6c10.4,15.5,0.3,42.4-15.4,58
						C84.8,439.3,85.9,440.8,89.5,441.2z"/>
				</defs>
				<clipPath id="SVGID_16_">
					<use xlink:href="#SVGID_15_"  style="overflow:visible;"/>
				</clipPath>
				<g class="st8">
					<defs>
						<rect id="SVGID_17_" x="16" y="21.6" width="480.1" height="480.1"/>
					</defs>
					<clipPath id="SVGID_18_">
						<use xlink:href="#SVGID_17_"  style="overflow:visible;"/>
					</clipPath>
					<rect x="31.4" y="315.7" class="st9" width="209.2" height="180.5"/>
				</g>
			</g>
			<g>
				<defs>
					<path id="SVGID_19_" d="M213.9,184.3h-95.2v20h66l-65.2,79.2c-2,2.9-3.5,5.6-3.5,11.8v5h89.8c4.5,0,8.2-3.6,8.2-8v-10.7h-69.3
						l61.2-75.3c0.9-1.1,2.7-3.1,3.4-4l0.4-0.5c3.5-5.1,4.2-9.4,4.2-14.7V184.3z"/>
				</defs>
				<clipPath id="SVGID_20_">
					<use xlink:href="#SVGID_19_"  style="overflow:visible;"/>
				</clipPath>
				<g class="st10">
					<defs>
						<rect id="SVGID_21_" x="16" y="21.6" width="480.1" height="480.1"/>
					</defs>
					<clipPath id="SVGID_22_">
						<use xlink:href="#SVGID_21_"  style="overflow:visible;"/>
					</clipPath>
					<rect x="61.4" y="129.8" class="st11" width="207" height="225.1"/>
				</g>
			</g>
			<g>
				<defs>
					<path id="SVGID_23_" d="M335,300.3h13.6V183h-20.4v110.7C328.2,297.3,331.2,300.3,335,300.3"/>
				</defs>
				<clipPath id="SVGID_24_">
					<use xlink:href="#SVGID_23_"  style="overflow:visible;"/>
				</clipPath>
				<g class="st12">
					<defs>
						<rect id="SVGID_25_" x="16" y="21.6" width="480.1" height="480.1"/>
					</defs>
					<clipPath id="SVGID_26_">
						<use xlink:href="#SVGID_25_"  style="overflow:visible;"/>
					</clipPath>
					<rect x="273.6" y="128.4" class="st13" width="129.5" height="226.5"/>
				</g>
			</g>
			<g>
				<defs>
					<path id="SVGID_27_" d="M300.9,300.3h10.9v-87.8h-19.1v79.8C292.8,296.7,296.4,300.3,300.9,300.3"/>
				</defs>
				<clipPath id="SVGID_28_">
					<use xlink:href="#SVGID_27_"  style="overflow:visible;"/>
				</clipPath>
				<g class="st14">
					<defs>
						<rect id="SVGID_29_" x="16" y="21.6" width="480.1" height="480.1"/>
					</defs>
					<clipPath id="SVGID_30_">
						<use xlink:href="#SVGID_29_"  style="overflow:visible;"/>
					</clipPath>
					<rect x="238.2" y="158" class="st15" width="128.2" height="196.9"/>
				</g>
			</g>
			<g>
				<defs>
					<path id="SVGID_31_" d="M265.6,210c-25.5,0-46.2,20.3-46.2,45.3c0,25,20.7,45.3,46.2,45.3c25.5,0,46.2-20.3,46.2-45.3
						C311.8,230.3,291.1,210,265.6,210 M265.6,282c-15,0-27.2-11.9-27.2-26.7c0-14.7,12.2-26.7,27.2-26.7c15,0,27.2,11.9,27.2,26.7
						C292.8,270.1,280.6,282,265.6,282"/>
				</defs>
				<clipPath id="SVGID_32_">
					<use xlink:href="#SVGID_31_"  style="overflow:visible;"/>
				</clipPath>
				<g class="st16">
					<defs>
						<rect id="SVGID_33_" x="16" y="21.6" width="480.1" height="480.1"/>
					</defs>
					<clipPath id="SVGID_34_">
						<use xlink:href="#SVGID_33_"  style="overflow:visible;"/>
					</clipPath>
					<rect x="164.8" y="155.5" class="st17" width="201.6" height="199.8"/>
				</g>
			</g>
			<g>
				<defs>
					<path id="SVGID_35_" d="M408.9,209.5c-25.9,0-46.8,20.5-46.8,45.9c0,25.3,21,45.9,46.8,45.9s46.8-20.5,46.8-45.9
						C455.7,230,434.7,209.5,408.9,209.5 M408.9,282.3c-15.2,0-27.5-12.1-27.5-27c0-14.9,12.3-27,27.5-27c15.2,0,27.5,12.1,27.5,27
						C436.4,270.3,424.1,282.3,408.9,282.3"/>
				</defs>
				<clipPath id="SVGID_36_">
					<use xlink:href="#SVGID_35_"  style="overflow:visible;"/>
				</clipPath>
				<g class="st18">
					<defs>
						<rect id="SVGID_37_" x="16" y="21.6" width="480.1" height="480.1"/>
					</defs>
					<clipPath id="SVGID_38_">
						<use xlink:href="#SVGID_37_"  style="overflow:visible;"/>
					</clipPath>
					<rect x="307.5" y="154.9" class="st19" width="202.7" height="200.9"/>
				</g>
			</g>
			<rect x="-38.6" y="-32.9" class="st20" width="927.4" height="632.8"/>
			<rect x="-27.7" y="-32.9" class="st20" width="567.4" height="567.4"/>
			<path class="st7" d="M234.7,21.6h42.5c58.5,0,92.8,8.7,123.3,24.9c30.4,16.3,54.3,40.1,70.6,70.6c16.3,30.4,24.9,64.7,24.9,123.3
				v42.5c0,58.5-8.7,92.8-24.9,123.3c-16.3,30.4-40.1,54.3-70.6,70.6c-30.4,16.3-64.7,24.9-123.3,24.9h-42.5
				c-58.5,0-92.8-8.7-123.3-24.9c-30.4-16.3-54.3-40.1-70.6-70.6C24.6,375.8,16,341.5,16,282.9v-42.5c0-58.5,8.7-92.8,24.9-123.3
				C57.2,86.7,81,62.8,111.5,46.6C141.9,30.3,176.2,21.6,234.7,21.6z"/>
			<rect x="-5.9" y="-0.2" class="st20" width="523.7" height="523.7"/>
		</g>
	</g>
</g>
</svg>
