<?xml version="1.0" encoding="utf-8"?>
<!-- Generator: Adobe Illustrator 24.0.0, SVG Export Plug-In . SVG Version: 6.00 Build 0)  -->
<svg version="1.1" id="Layer_1" xmlns="http://www.w3.org/2000/svg" xmlns:xlink="http://www.w3.org/1999/xlink" x="0px" y="0px"
	 viewBox="0 0 800 300" style="enable-background:new 0 0 800 300;" xml:space="preserve">
<style type="text/css">
	.st0{fill:#FFFFFF;}
	.st1{fill:#FFFFFF;enable-background:new    ;}
	.st2{opacity:0.35;}
	.st3{opacity:0.2;fill:#FFFFFF;}
	.st4{fill:#EE2B74;}
	.st5{fill:#F47B20;}
	.st6{fill:#49A942;}
	.st7{fill:#009DDC;}
	.st8{fill:#808285;}
</style>
<g>
	<g>
		<path class="st0" d="M208.51,186.32c0.56,4.85,2.38,9.27,5.34,12.86c4.07,4.94,10.09,7.65,16.97,7.65
			c6.83,0,12.85-2.72,16.93-7.65c3.64-4.38,5.58-9.99,5.58-16.13v-61.34c0-5.19-1.43-9.93-4.2-14.1c-0.87-1.32-0.84-3.06,0.12-4.29
			c3.11-4.04,4.7-8.63,4.7-13.62c0-6.09-2.3-11.6-6.58-15.92c-4.31-4.3-9.84-6.59-15.93-6.59c-6.13,0-11.63,2.27-15.94,6.59h-0.02
			c-4.28,4.32-6.56,9.83-6.56,15.92c0,4.75,1.37,9.07,4.1,12.93c0.45,0.63,0.66,1.35,0.66,2.11c0,0.74-0.24,1.5-0.72,2.13
			c-3.04,4.26-4.66,9.38-4.66,14.84V180c0.18,1.41,0.3,2.85,0.3,4.33C208.59,184.99,208.56,185.67,208.51,186.32z"/>
		<path class="st1" d="M348.33,108.5c-7.85-7.64-18.2-11.51-30.71-11.51c-6.9,0-13.09,1.22-18.34,3.62
			c-1.03,0.45-2.24,0.44-3.25-0.11c-3.23-1.71-6.94-2.57-11.02-2.57c-6.86,0-12.88,2.72-16.98,7.69c-3.64,4.39-5.56,9.95-5.56,16.1
			v61.34c0,6.15,1.92,11.71,5.57,16.13c4.05,4.94,10.11,7.65,16.95,7.65c6.86,0,12.91-2.72,16.99-7.68c3.61-4.4,5.51-9.96,5.51-16.1
			v-40.26l0.14-1.52c0.12-1.99,1.61-3.2,3.61-3.12l0.52,0.04c1.9,0.1,3.33,1.34,3.43,3.23l0.08,1.37v40.26
			c0,6.14,1.92,11.71,5.55,16.1c4.08,4.97,10.11,7.68,16.96,7.68c6.88,0,12.89-2.72,16.96-7.65c3.65-4.42,5.57-9.99,5.57-16.13
			v-21.2c-0.31-2.99-0.51-5.99-0.51-9.15c0-2.88,0.2-5.72,0.51-8.5V139C360.3,126.47,356.26,116.22,348.33,108.5z"/>
		<path class="st0" d="M385.63,198.01c0.82,0.7,1.3,1.73,1.3,2.8c0,0.24-0.02,0.48-0.08,0.69c-0.22,1.32-1.15,2.39-2.42,2.79
			c-8.28,2.76-14.26,11.21-14.26,20.11c0,11.38,9.08,20.98,19.81,20.98h25.81c16.46,0,29.74-4.39,39.5-13.07
			c11.78-10.58,15.97-29.69,15.97-44.08v-66.53c0-6.13-1.89-11.7-5.54-16.11c-4.08-4.96-10.1-7.68-16.96-7.68
			c-4.28,0-8.14,0.95-11.53,2.85c-1.07,0.61-2.34,0.63-3.44,0.08c-5.06-2.54-11-3.86-17.63-3.86c-14.92,0-27.69,6.27-36.85,18.17
			l-0.02,0.04c-6.51,8.52-10.41,18.41-11.67,29.44v16.89c1.2,10.61,4.48,19.91,9.97,27.66
			C379.85,192.47,382.55,195.44,385.63,198.01z"/>
		<path class="st1" d="M178.73,162.75h-17.66c-1.38,0-2.63-0.77-3.25-1.99c-0.64-1.24-0.51-2.71,0.28-3.82
			c0,0,34.5-47.76,34.47-47.75c3.65-5.16,5.51-10.73,5.51-16.54c0-7.09-2.9-13.23-8.14-17.25c-4.43-3.44-10.07-5.24-16.31-5.24
			h-58.53c-5.91,0-11.26,2.13-15.5,6.17c-4.38,4.17-6.68,9.61-6.68,15.75c0,6.37,2.52,12.03,7.1,15.88
			c4.11,3.51,9.34,5.35,15.09,5.35h13.34c1.38,0,2.64,0.78,3.25,2.01c0.65,1.21,0.53,2.7-0.26,3.82c0,0-34.95,48.77-34.93,48.74
			c-1.13,1.62-2.06,3.24-2.75,4.81l-0.1,0.18c-1.53,3.61-2.31,7.17-2.31,10.57c0,7.01,2.9,13.11,8.2,17.21
			c4.49,3.46,10.09,5.29,16.23,5.29h62.97c5.65,0,10.92-1.95,15.27-5.76c4.08-3.56,6.59-8.27,7.13-13.55
			c-0.12-1.16-0.18-2.33-0.18-3.56v-2.7C199.33,169.54,191,162.75,178.73,162.75z"/>
	</g>
	<path class="st2" d="M471.39,100.96c-5.51-6.69-13.54-10.38-22.63-10.38c-4.85,0-9.33,1.04-13.39,3.02
		c-5.69-2.58-12.12-3.95-19.2-3.95c-17.3,0-32.07,7.27-42.65,21.06l-0.05,0.04c-3.16,4.12-5.75,8.52-7.79,13.16
		c-2.21-7.96-6.31-14.9-12.23-20.68c-9.29-9-21.36-13.59-35.84-13.59c-7.29,0-13.91,1.27-19.76,3.65
		c-3.89-1.77-8.22-2.72-12.86-2.72c-9.09,0-17.15,3.69-22.64,10.38c-1.89,2.24-3.43,4.79-4.56,7.49c-0.44-0.92-0.85-1.85-1.39-2.75
		c3.13-4.83,4.85-10.26,4.85-16c0-8.11-3.01-15.4-8.72-21.11c-5.72-5.7-13.04-8.73-21.12-8.73c-8.11,0-15.42,3.03-21.13,8.73
		l-0.02,0.04c-3.47,3.43-5.92,7.49-7.3,11.96c-1.87-4.3-4.73-8.07-8.55-11.01c-5.76-4.43-12.95-6.76-20.8-6.76h-58.53
		c-7.83,0-14.95,2.84-20.56,8.19c-5.86,5.59-8.95,12.86-8.95,21.07c0,8.56,3.42,16.17,9.67,21.5c5.44,4.63,12.32,7.07,19.84,7.07
		c0,0,3.13,0,6.19,0c-6.46,9.01-30.79,42.97-30.79,42.97c-1.4,2.04-2.58,4.07-3.49,6.1c-0.01,0.06-0.08,0.25-0.08,0.25
		c-1.94,4.53-2.96,9.06-2.96,13.46c0,9.33,3.95,17.52,11.08,23.01c5.75,4.47,12.93,6.84,20.71,6.84h62.97
		c7.46,0,14.39-2.61,20.05-7.58c2.42-2.04,4.4-4.43,5.94-7.05c0.99,1.84,2.13,3.59,3.47,5.21c5.49,6.67,13.53,10.33,22.62,10.33
		c9.08,0,17.11-3.68,22.6-10.33c1.84-2.22,3.34-4.67,4.48-7.31c1.17,2.61,2.62,5.09,4.46,7.31c5.49,6.66,13.52,10.33,22.62,10.33
		c9.12,0,17.13-3.68,22.64-10.36c1.53-1.84,2.7-3.85,3.77-6c1.03,2.15,2.25,4.16,3.76,6c5.5,6.68,13.54,10.36,22.62,10.36
		c9.08,0,17.14-3.68,22.63-10.33c4.01-4.9,6.4-10.81,7.05-17.33c1.22,2.38,2.58,4.68,4.11,6.88c1.59,2.28,3.42,4.39,5.37,6.43
		c-8.36,5.03-14.08,14.57-14.08,24.58c0,15.36,12.43,28.33,27.13,28.33h25.81c18.33,0,33.23-5.03,44.36-14.93
		c13.6-12.21,18.46-33.6,18.46-49.56v-66.53C478.61,113.83,476.1,106.67,471.39,100.96z M471.25,188.24
		c0,14.39-4.19,33.5-15.97,44.08c-9.76,8.68-23.04,13.07-39.5,13.07h-25.81c-10.73,0-19.81-9.59-19.81-20.98
		c0-8.9,5.98-17.35,14.26-20.11c1.27-0.4,2.2-1.47,2.42-2.79c0.06-0.21,0.08-0.45,0.08-0.69c0-1.07-0.48-2.1-1.3-2.8
		c-3.08-2.57-5.77-5.54-8.03-8.82c-5.49-7.76-8.78-17.05-9.97-27.66c-0.32-2.86-0.5-5.78-0.5-8.83c0-2.77,0.18-5.45,0.5-8.06
		c1.26-11.03,5.17-20.92,11.67-29.44l0.02-0.04c9.17-11.9,21.93-18.17,36.85-18.17c6.63,0,12.57,1.32,17.63,3.86
		c1.1,0.55,2.37,0.53,3.44-0.08c3.39-1.9,7.25-2.85,11.53-2.85c6.86,0,12.87,2.72,16.96,7.68c3.65,4.4,5.54,9.98,5.54,16.11V188.24z
		 M360.3,183.05c0,6.14-1.92,11.71-5.57,16.13c-4.07,4.94-10.07,7.65-16.96,7.65c-6.85,0-12.88-2.72-16.96-7.68
		c-3.64-4.4-5.55-9.97-5.55-16.1v-40.26l-0.08-1.37c-0.1-1.89-1.53-3.13-3.43-3.23l-0.52-0.04c-2-0.08-3.49,1.13-3.61,3.12
		l-0.14,1.52v40.26c0,6.15-1.9,11.71-5.51,16.1c-4.08,4.97-10.13,7.68-16.99,7.68c-6.84,0-12.9-2.72-16.95-7.65
		c-3.65-4.42-5.57-9.99-5.57-16.13v-61.34c0-6.15,1.92-11.7,5.56-16.1c4.11-4.97,10.12-7.69,16.98-7.69c4.08,0,7.79,0.86,11.02,2.57
		c1.01,0.55,2.22,0.56,3.25,0.11c5.25-2.39,11.44-3.62,18.34-3.62c12.51,0,22.86,3.87,30.71,11.51
		c7.93,7.72,11.97,17.97,11.97,30.49v5.21c-0.31,2.77-0.51,5.62-0.51,8.5c0,3.16,0.2,6.16,0.51,9.15V183.05z M230.82,206.84
		c-6.88,0-12.89-2.72-16.97-7.65c-2.96-3.59-4.78-8.01-5.34-12.86c0.05-0.65,0.09-1.33,0.09-1.99c0-1.49-0.12-2.92-0.3-4.33v-58.29
		c0-5.46,1.63-10.59,4.66-14.84c0.47-0.63,0.72-1.39,0.72-2.13c0-0.75-0.21-1.47-0.66-2.11c-2.74-3.86-4.1-8.19-4.1-12.93
		c0-6.09,2.29-11.6,6.56-15.92h0.02c4.3-4.31,9.81-6.59,15.94-6.59c6.09,0,11.62,2.29,15.93,6.59c4.28,4.32,6.58,9.83,6.58,15.92
		c0,4.99-1.59,9.58-4.7,13.62c-0.96,1.22-0.99,2.97-0.12,4.29c2.77,4.17,4.2,8.91,4.2,14.1v61.34c0,6.15-1.94,11.75-5.58,16.13
		C243.67,204.12,237.64,206.84,230.82,206.84z M201.14,186.61c-0.54,5.28-3.05,9.99-7.13,13.55c-4.36,3.81-9.62,5.76-15.27,5.76
		h-62.97c-6.14,0-11.74-1.83-16.23-5.29c-5.29-4.1-8.2-10.2-8.2-17.21c0-3.4,0.78-6.96,2.31-10.57l0.1-0.18
		c0.69-1.57,1.63-3.19,2.75-4.81c-0.01,0.04,34.93-48.74,34.93-48.74c0.79-1.12,0.91-2.61,0.26-3.82c-0.62-1.23-1.88-2.01-3.25-2.01
		h-13.34c-5.75,0-10.98-1.83-15.09-5.35c-4.58-3.85-7.1-9.52-7.1-15.88c0-6.14,2.3-11.58,6.68-15.75c4.24-4.03,9.59-6.17,15.5-6.17
		h58.53c6.24,0,11.87,1.81,16.31,5.24c5.24,4.03,8.14,10.16,8.14,17.25c0,5.81-1.86,11.38-5.51,16.54
		c0.03-0.01-34.47,47.75-34.47,47.75c-0.79,1.11-0.92,2.59-0.28,3.82c0.62,1.23,1.88,1.99,3.25,1.99h17.66
		c12.26,0,20.6,6.79,22.22,17.6c0.18,1.28,0.32,2.6,0.32,3.98C201.28,185.1,201.22,185.86,201.14,186.61z M205.73,104.74
		c-3.07,5.04-4.77,10.84-4.77,16.97v42.52c-5.29-5.54-13.02-8.8-22.22-8.8c0,0-5.42,0-10.47,0c6.45-8.99,30.31-41.96,30.31-41.96
		c2.63-3.77,4.49-7.71,5.62-11.82C204.64,102.68,205.15,103.73,205.73,104.74z"/>
	<path class="st3" d="M205.73,104.74c-3.07,5.04-4.77,10.84-4.77,16.97v42.52c-5.29-5.54-13.02-8.8-22.22-8.8c0,0-5.42,0-10.47,0
		c6.45-8.99,30.31-41.96,30.31-41.96c2.63-3.77,4.49-7.71,5.62-11.82C204.64,102.68,205.15,103.73,205.73,104.74z"/>
	<g>
		<g>
			<g>
				<path class="st4" d="M389.99,234.38c-4.79,0-8.79-4.79-8.79-9.97c0-5.19,4.7-9.96,8.57-9.96c3.91,0,26.03,0,26.03,0
					c5.87,0,12.56-1.63,16.12-4.83c3.56-3.24,5.35-12.4,5.35-18.2v-5.44c-5.2,7.18-13.1,10.79-23.65,10.79
					c-11.61,0-20.6-4.64-27-13.9c-5.67-7.97-8.48-18.03-8.48-30.18c0-11.92,3.32-22.18,9.92-30.79c7.13-9.27,16.5-13.91,28.12-13.91
					c9.68,0,16.74,3.5,21.09,10.49c1.38-6.37,5.22-9.56,11.5-9.56c3.62,0,6.45,1.24,8.45,3.69c2.03,2.44,3.03,5.49,3.03,9.09v66.53
					c0,13.41-4.11,28.5-12.28,35.86c-7.8,6.9-18.54,10.28-32.18,10.28C415.79,234.38,394.76,234.38,389.99,234.38z M437.26,153.02
					c0-6.25-1.44-11.64-4.32-16.07c-3.29-5.17-7.95-7.79-13.91-7.79c-5.63,0-10.13,2.48-13.42,7.5c-2.98,4.44-4.47,9.6-4.47,15.43
					c0,6.25,1.37,11.55,4.15,15.91c3.21,5.08,7.79,7.62,13.74,7.62c5.97,0,10.62-2.39,13.91-7.15
					C435.82,164.33,437.26,159.19,437.26,153.02z"/>
				<g>
					<path class="st5" d="M273.49,183.05v-61.34c0-3.62,1.01-6.66,3.04-9.09c2.02-2.45,4.83-3.69,8.48-3.69
						c5.96,0,9.48,2.79,10.57,8.3c4.56-6.13,11.91-9.23,22.04-9.23c9.6,0,17.27,2.78,23.04,8.36c5.75,5.61,8.64,13.16,8.64,22.64
						v44.06c0,3.64-1.03,6.66-3.05,9.13c-2.03,2.45-4.84,3.66-8.47,3.66c-3.6,0-6.42-1.21-8.46-3.66c-2.03-2.47-3.03-5.51-3.03-9.13
						v-40.26c0-4.77-1.33-8.6-3.91-11.41c-2.63-2.81-6.34-4.25-11.14-4.25c-4.59,0-8.21,1.48-10.82,4.43
						c-2.61,2.92-3.93,6.67-3.93,11.23v40.26c0,3.62-0.99,6.66-3.05,9.13c-1.99,2.45-4.83,3.66-8.45,3.66
						c-3.63,0-6.46-1.21-8.46-3.66C274.49,189.71,273.49,186.67,273.49,183.05z"/>
					<g>
						<path class="st6" d="M219.3,183.05v-61.34c0-3.62,0.99-6.66,3.03-9.09c2.02-2.45,4.83-3.69,8.48-3.69
							c3.6,0,6.43,1.24,8.44,3.69c2.03,2.44,3.05,5.47,3.05,9.09v61.34c0,3.62-1.02,6.66-3.05,9.13c-2.02,2.45-4.84,3.66-8.44,3.66
							c-3.65,0-6.46-1.21-8.48-3.66C220.29,189.71,219.3,186.67,219.3,183.05z M219.91,89.7c0-3.17,1.13-5.9,3.36-8.12
							c2.24-2.25,4.96-3.39,8.17-3.39c3.17,0,5.9,1.14,8.14,3.39c2.23,2.23,3.34,4.95,3.34,8.12c0,3.21-1.11,5.92-3.34,8.15
							c-2.24,2.24-4.97,3.36-8.14,3.36c-3.21,0-5.93-1.12-8.17-3.36C221.03,95.61,219.91,92.91,219.91,89.7z"/>
						<path class="st7" d="M132.39,173.75h46.35c7.68,0,11.52,3.56,11.52,10.58c0,3-1.17,5.52-3.49,7.56
							c-2.35,2.01-5.02,3.03-8.03,3.03h-62.97c-3.74,0-6.91-1.02-9.53-3.03c-2.61-2.03-3.9-4.86-3.9-8.48
							c0-1.94,0.45-3.98,1.42-6.23c0.44-0.96,1.03-1.95,1.76-3.04l51.49-71.87h-41.92c-3.17,0-5.84-0.89-7.97-2.74
							c-2.14-1.78-3.19-4.3-3.19-7.48c0-3.11,1.08-5.72,3.29-7.78c2.17-2.09,4.8-3.16,7.88-3.16h58.53c3.82,0,7.05,0.99,9.59,2.97
							c2.55,1.97,3.82,4.81,3.82,8.55c0,3.52-1.15,6.9-3.47,10.21L132.39,173.75z"/>
					</g>
				</g>
			</g>
			<path class="st3" d="M231.43,50.96c10.34,0,20.06,4.02,27.42,11.34c5.19,5.19,8.76,11.7,10.35,18.8l0.11,0.55
				c0.19,0.71,0.63,1.32,1.25,1.68c0.66,0.36,1.4,0.48,2.09,0.26l0.55-0.16c3.77-1.15,7.74-1.75,11.8-1.75c4,0,8.01,0.62,11.95,1.8
				c-0.03,0,0.12,0.05,0.12,0.05c0.53,0.16,1.06,0.16,1.59,0l0.14-0.07c5.81-1.77,12.17-2.7,18.81-2.7
				c16.63,0,31.19,5.57,42.07,16.11c1.54,1.54,3.11,3.25,4.6,5.1l0.38,0.48c0.5,0.61,1.21,1,1.98,1.01c0.77,0.01,1.5-0.33,2.03-0.92
				l0.42-0.48c11.97-13.74,28.69-21.3,47.07-21.3c6.37,0,12.53,0.99,18.25,2.87l0.14,0.07c0.52,0.16,1.08,0.16,1.64,0l0.18-0.06
				c4.06-1.27,8.21-1.94,12.39-1.94c11.82,0,22.27,4.84,29.49,13.59c6.08,7.35,9.25,16.49,9.25,26.44v66.53
				c0,8.67-1.55,38.34-21.41,56.21c-12.83,11.39-29.74,17.19-50.3,17.19h-25.81c-19.55,0-36.04-17.06-36.04-37.23v-0.83
				c0-0.86-0.4-1.61-1.08-2.11c-0.66-0.49-1.53-0.67-2.34-0.38l-0.69,0.19c-3.83,1.22-7.91,1.82-12.06,1.82
				c-9.17,0-17.6-2.95-24.38-8.53l-0.39-0.3c-0.95-0.78-2.33-0.78-3.31,0l-0.31,0.3c-6.79,5.57-15.21,8.53-24.41,8.53
				c-9.53,0-18.2-3.1-25.04-9.02l-0.36-0.28c-0.99-0.85-2.44-0.85-3.4,0l-0.34,0.28c-6.85,5.92-15.51,9.02-25.03,9.02
				c-9.33,0-17.86-3-24.62-8.65c-0.02,0-0.32-0.28-0.32-0.28c-0.93-0.79-2.29-0.83-3.27-0.09l-0.31,0.28
				c-6.84,5.11-14.99,7.83-23.56,7.83h-62.97c-9.78,0-18.83-3-26.14-8.68c-9.26-7.14-14.55-18.09-14.55-30.08
				c0-5.63,1.25-11.36,3.67-17.04l0.18-0.34c1.11-2.5,2.54-5.02,4.24-7.48c0,0.02,19.58-27.3,19.58-27.3
				c0.48-0.67,0.6-1.51,0.37-2.31c-0.24-0.77-0.82-1.39-1.59-1.67l-0.64-0.23c-4.19-1.58-8.02-3.84-11.39-6.7
				c-8.27-7.03-12.83-17.09-12.83-28.29c0-10.55,4.18-20.3,11.72-27.5c7.33-6.98,16.55-10.66,26.72-10.66h58.53
				c9.81,0,18.91,2.97,26.24,8.62l0.4,0.29c1.03,0.79,2.52,0.71,3.44-0.23l0.33-0.33l0,0C211.33,54.94,221.06,50.96,231.43,50.96z
				 M471.39,100.96c-5.51-6.69-13.54-10.38-22.63-10.38c-4.85,0-9.33,1.04-13.39,3.02c-5.69-2.58-12.12-3.95-19.2-3.95
				c-17.3,0-32.07,7.27-42.65,21.06l-0.05,0.04c-3.16,4.12-5.75,8.52-7.79,13.16c-2.21-7.96-6.31-14.9-12.23-20.68
				c-9.29-9-21.36-13.59-35.84-13.59c-7.29,0-13.91,1.27-19.76,3.65c-3.89-1.77-8.22-2.72-12.86-2.72
				c-9.09,0-17.15,3.69-22.64,10.38c-1.89,2.24-3.43,4.79-4.56,7.49c-0.44-0.92-0.85-1.85-1.39-2.75c3.13-4.83,4.85-10.26,4.85-16
				c0-8.11-3.01-15.4-8.72-21.11c-5.72-5.7-13.04-8.73-21.12-8.73c-8.11,0-15.42,3.03-21.13,8.73l-0.02,0.04
				c-3.47,3.43-5.92,7.49-7.3,11.96c-1.87-4.3-4.73-8.07-8.55-11.01c-5.76-4.43-12.95-6.76-20.8-6.76h-58.53
				c-7.83,0-14.95,2.84-20.56,8.19c-5.86,5.59-8.95,12.86-8.95,21.07c0,8.56,3.42,16.17,9.67,21.5c5.44,4.63,12.32,7.07,19.84,7.07
				c0,0,3.13,0,6.19,0c-6.46,9.01-30.79,42.97-30.79,42.97c-1.4,2.04-2.58,4.07-3.49,6.1c-0.01,0.06-0.08,0.25-0.08,0.25
				c-1.94,4.53-2.96,9.06-2.96,13.46c0,9.33,3.95,17.52,11.08,23.01c5.75,4.47,12.93,6.84,20.71,6.84h62.97
				c7.46,0,14.39-2.61,20.05-7.58c2.42-2.04,4.4-4.43,5.94-7.05c0.99,1.84,2.13,3.59,3.47,5.21c5.49,6.67,13.53,10.33,22.62,10.33
				c9.08,0,17.11-3.68,22.6-10.33c1.84-2.22,3.34-4.67,4.48-7.31c1.17,2.61,2.62,5.09,4.46,7.31c5.49,6.66,13.52,10.33,22.62,10.33
				c9.12,0,17.13-3.68,22.64-10.36c1.53-1.84,2.7-3.85,3.77-6c1.03,2.15,2.25,4.16,3.76,6c5.5,6.68,13.54,10.36,22.62,10.36
				c9.08,0,17.14-3.68,22.63-10.33c4.01-4.9,6.4-10.81,7.05-17.33c1.22,2.38,2.58,4.68,4.11,6.88c1.59,2.28,3.42,4.39,5.37,6.43
				c-8.36,5.03-14.08,14.57-14.08,24.58c0,15.36,12.43,28.33,27.13,28.33h25.81c18.33,0,33.23-5.03,44.36-14.93
				c13.6-12.21,18.46-33.6,18.46-49.56v-66.53C478.61,113.83,476.1,106.67,471.39,100.96z"/>
		</g>
		<g>
			<path class="st8" d="M554.04,156.8c0-4.43-1.17-7.92-3.5-10.48c-2.33-2.56-5.59-3.84-9.78-3.84c-4.19,0-7.44,1.28-9.73,3.84
				c-2.29,2.56-3.44,6.06-3.44,10.48v34.71c0,1.71-0.47,3.05-1.4,4.02c-0.93,0.97-2.18,1.46-3.73,1.46c-1.55,0-2.8-0.49-3.73-1.46
				c-0.93-0.97-1.4-2.31-1.4-4.02V139.1c0-1.71,0.47-3.05,1.4-4.02c0.93-0.97,2.17-1.46,3.73-1.46c1.55,0,2.8,0.49,3.73,1.46
				c0.93,0.97,1.4,2.31,1.4,4.02v1.86l0.23,0.23c0.62-0.78,1.34-1.61,2.15-2.5c0.82-0.89,1.84-1.71,3.09-2.44
				c1.24-0.74,2.7-1.36,4.37-1.87c1.67-0.5,3.67-0.76,6-0.76c3.03,0,6.04,0.76,9.03,2.27c2.99,1.51,5.65,4.25,7.98,8.21
				c2.25-3.26,4.85-5.82,7.8-7.69c2.95-1.86,6.68-2.79,11.18-2.79c2.4,0,4.87,0.41,7.39,1.22c2.52,0.82,4.83,2.16,6.93,4.02
				c2.1,1.86,3.82,4.29,5.18,7.28c1.36,2.99,2.04,6.66,2.04,11.01v34.36c0,1.71-0.47,3.05-1.4,4.02c-0.93,0.97-2.17,1.46-3.73,1.46
				c-1.55,0-2.8-0.49-3.73-1.46c-0.93-0.97-1.4-2.31-1.4-4.02V156.8c0-4.43-1.17-7.92-3.5-10.48c-2.33-2.56-5.59-3.84-9.78-3.84
				c-4.19,0-7.44,1.28-9.73,3.84c-2.29,2.56-3.44,6.06-3.44,10.48v34.71c0,1.71-0.47,3.05-1.4,4.02c-0.93,0.97-2.17,1.46-3.73,1.46
				s-2.8-0.49-3.73-1.46s-1.4-2.31-1.4-4.02V156.8z"/>
			<path class="st8" d="M614.95,139.1c0-1.71,0.47-3.05,1.4-4.02c0.93-0.97,2.17-1.46,3.73-1.46c1.55,0,2.8,0.49,3.73,1.46
				c0.93,0.97,1.4,2.31,1.4,4.02v3.03h0.23c2.95-5.67,8.46-8.5,16.54-8.5c4.19,0,7.92,0.87,11.18,2.62
				c3.26,1.75,6.04,4.09,8.33,7.04c2.29,2.95,4.02,6.33,5.18,10.13c1.17,3.81,1.75,7.76,1.75,11.88c0,4.12-0.58,8.08-1.75,11.88
				c-1.16,3.81-2.89,7.18-5.18,10.13c-2.29,2.95-5.06,5.3-8.33,7.05c-3.26,1.75-6.99,2.62-11.18,2.62c-2.02,0-3.9-0.25-5.65-0.76
				c-1.75-0.5-3.32-1.17-4.72-1.98c-1.4-0.82-2.6-1.73-3.61-2.74c-1.01-1.01-1.86-1.98-2.56-2.91h-0.23v27.37
				c0,1.7-0.47,3.04-1.4,4.02c-0.93,0.97-2.17,1.46-3.73,1.46c-1.55,0-2.79-0.49-3.73-1.46c-0.93-0.97-1.4-2.31-1.4-4.02V139.1z
				 M625.18,165.3c0,2.64,0.28,5.3,0.85,7.98c0.56,2.68,1.5,5.12,2.82,7.34c1.32,2.22,3.01,4.02,5.08,5.42
				c2.07,1.4,4.65,2.1,7.74,2.1c3.01,0,5.57-0.7,7.68-2.1c2.11-1.4,3.82-3.2,5.14-5.42c1.32-2.21,2.26-4.66,2.82-7.34
				c0.56-2.68,0.85-5.34,0.85-7.98c0-2.64-0.28-5.3-0.85-7.98c-0.57-2.68-1.5-5.12-2.82-7.34c-1.32-2.21-3.03-4.02-5.14-5.42
				c-2.11-1.4-4.67-2.1-7.68-2.1c-3.09,0-5.67,0.7-7.74,2.1c-2.07,1.4-3.77,3.2-5.08,5.42c-1.32,2.21-2.26,4.66-2.82,7.34
				C625.46,160,625.18,162.66,625.18,165.3z"/>
			<path class="st8" d="M727.92,171.83c0,3.96-0.68,7.49-2.04,10.6c-1.36,3.11-3.24,5.73-5.65,7.86c-2.41,2.14-5.2,3.78-8.39,4.95
				c-3.18,1.17-6.64,1.75-10.37,1.75c-4.35,0-8.04-0.7-11.07-2.1c-3.03-1.4-5.53-3.11-7.51-5.12c-1.98-2.02-3.42-4.12-4.31-6.29
				c-0.89-2.17-1.34-4.04-1.34-5.59c0-1.78,0.41-3.18,1.22-4.19c0.82-1.01,1.84-1.51,3.09-1.51c1.55,0,2.74,0.45,3.55,1.34
				c0.82,0.89,1.53,2.23,2.16,4.02c1.01,2.95,2.6,5.46,4.77,7.51c2.17,2.06,5.24,3.09,9.2,3.09c2.33,0,4.44-0.41,6.35-1.22
				c1.9-0.82,3.55-1.92,4.95-3.32c1.4-1.4,2.48-3.03,3.26-4.89c0.78-1.86,1.17-3.84,1.17-5.94c0-3.1-0.39-5.65-1.17-7.63
				c-0.78-1.98-1.82-3.55-3.14-4.72c-1.32-1.16-2.86-1.98-4.6-2.44c-1.75-0.47-3.59-0.7-5.53-0.7c-2.02,0-3.57-0.41-4.66-1.22
				c-1.09-0.82-1.63-1.88-1.63-3.2c0-1.17,0.41-2.1,1.22-2.8c0.82-0.7,2.19-1.24,4.13-1.63c4.19-0.93,7.18-2.45,8.97-4.54
				c1.78-2.1,2.68-5.05,2.68-8.85c0-3.96-1.07-7.2-3.2-9.73c-2.13-2.52-4.99-3.78-8.56-3.78c-2.02,0-3.75,0.33-5.18,0.99
				c-1.44,0.66-2.62,1.56-3.55,2.68c-0.93,1.13-1.63,2.43-2.1,3.9c-0.47,1.48-0.78,2.99-0.93,4.54c-0.08,1.17-0.29,2.08-0.64,2.74
				c-0.35,0.66-0.78,1.13-1.28,1.4c-0.51,0.27-1.01,0.45-1.52,0.52c-0.51,0.08-0.99,0.12-1.46,0.12c-1.48,0-2.62-0.47-3.44-1.4
				c-0.82-0.93-1.22-2.06-1.22-3.38c0-2.8,0.48-5.45,1.46-7.98c0.97-2.52,2.39-4.74,4.25-6.64c1.87-1.9,4.15-3.43,6.87-4.6
				c2.72-1.17,5.78-1.75,9.2-1.75c3.34,0,6.33,0.57,8.97,1.69c2.64,1.13,4.89,2.68,6.75,4.66c1.86,1.98,3.3,4.27,4.31,6.87
				c1.01,2.6,1.52,5.34,1.52,8.21c0,3.49-0.82,6.8-2.45,9.9c-1.63,3.11-4.08,5.67-7.34,7.69c4.66,1.4,8.19,3.92,10.6,7.57
				C726.71,162.9,727.92,167.09,727.92,171.83z"/>
		</g>
	</g>
</g>
</svg>
