<?xml version="1.0" standalone="no"?>
<!DOCTYPE svg PUBLIC "-//W3C//DTD SVG 1.1//EN" "http://www.w3.org/Graphics/SVG/1.1/DTD/svg11.dtd" >
<svg>
<metadata>
Created by FontForge 20090622 at Fri Mar 13 08:31:37 2020
 By deploy user
Copyright 2011 by Joel Carrouche. All rights reserved.
</metadata>
<defs>
<font id="AndoLight" horiz-adv-x="352" >
  <font-face 
    font-family="Ando Light"
    font-weight="300"
    font-stretch="normal"
    units-per-em="1000"
    panose-1="2 0 0 0 0 0 0 0 0 0"
    ascent="770"
    descent="-230"
    x-height="530"
    cap-height="700"
    bbox="-33 -200 982 864"
    underline-thickness="50"
    underline-position="-50"
    unicode-range="U+0020-U+FB04"
  />
<missing-glyph horiz-adv-x="413" 
d="M50 -116v816h313v-816h-313zM78 674v-765h257v765h-257z" />
    <glyph glyph-name="ff" unicode="ff" horiz-adv-x="395" 
d="M292 530h95v-29h-95v-501h-31v501h-144v-501h-31v501h-68v29h68v92q0 47 27.5 75t71.5 28q38 0 68 -25q-3 -4 -8 -12.5t-6 -10.5q-24 19 -54 19q-31 0 -49.5 -19.5t-18.5 -54.5v-92h144v110q0 47 24.5 74t67.5 27q24 0 51 -15l-10 -24q-20 11 -41 11q-28 0 -44.5 -19.5
t-16.5 -53.5v-110z" />
    <glyph glyph-name="fi" unicode="fi" horiz-adv-x="361" 
d="M266 616v27q0 32 -21.5 53t-52.5 21q-32 0 -53.5 -20.5t-21.5 -54.5v-112h180v-530h-31v501h-149v-501h-31v501h-68v29h68v112q0 46 31 75t75 29q45 0 75 -29t30 -74v-27h-31z" />
    <glyph glyph-name="fl" unicode="fl" horiz-adv-x="359" 
d="M295 740v-740h-31v711h-79q-31 0 -53.5 -20t-22.5 -51v-110h93v-29h-93v-501h-31v501h-60v29h60v110q0 45 30.5 72.5t76.5 27.5h110z" />
    <glyph glyph-name="ffi" unicode="ffi" horiz-adv-x="536" 
d="M441 616v27q0 32 -21.5 53t-52.5 21q-32 0 -53.5 -20.5t-21.5 -54.5v-112h180v-530h-31v501h-149v-501h-31v501h-144v-501h-31v501h-68v29h68v92q0 47 27.5 75t71.5 28q38 0 68 -25q-3 -4 -8 -12.5t-6 -10.5q-24 19 -54 19q-31 0 -49.5 -19.5t-18.5 -54.5v-92h144v112
q0 46 31 75t75 29q45 0 75 -29t30 -74v-27h-31z" />
    <glyph glyph-name="ffl" unicode="ffl" horiz-adv-x="542" 
d="M478 740v-740h-31v711h-79q-31 0 -53.5 -20t-22.5 -51v-110h93v-29h-93v-501h-31v501h-144v-501h-31v501h-68v29h68v92q0 47 27.5 75t71.5 28q38 0 68 -25q-3 -4 -8 -12.5t-6 -10.5q-24 19 -54 19q-31 0 -49.5 -19.5t-18.5 -54.5v-92h144v110q0 45 30.5 72.5t76.5 27.5
h110z" />
    <glyph glyph-name="f_j" unicode="fj" horiz-adv-x="361" 
d="M18 501v29h68v112q0 47 30.5 75.5t75.5 28.5t75 -29.5t30 -74.5v-27h-31v27q0 33 -21.5 54t-52.5 21q-32 0 -53.5 -20.5t-21.5 -54.5v-112h180v-624q0 -105 -83 -105q-28 0 -45 13l10 27q16 -11 35 -11q52 0 52 76v595h-149v-501h-31v501h-68z" />
    <glyph glyph-name=".notdef" horiz-adv-x="413" 
d="M50 -116v816h313v-816h-313zM78 674v-765h257v765h-257z" />
    <glyph glyph-name=".null" horiz-adv-x="0" 
 />
    <glyph glyph-name="nonmarkingreturn" horiz-adv-x="333" 
 />
    <glyph glyph-name="space" unicode=" " horiz-adv-x="172" 
 />
    <glyph glyph-name="exclam" unicode="!" horiz-adv-x="159" 
d="M64 161v539h31v-539h-31zM57 17q0 23 22 23q23 0 23 -23q0 -22 -23 -22q-22 0 -22 22z" />
    <glyph glyph-name="quotedbl" unicode="&#x22;" horiz-adv-x="241" 
d="M85 740v-210h-29v210h29zM185 740v-210h-29v210h29z" />
    <glyph glyph-name="numbersign" unicode="#" 
d="M13 246h66l22 199h-69v28h72l25 227h30l-25 -227h110l26 227h30l-26 -227h63v-28h-66l-21 -199h69v-28h-72l-24 -218h-30l23 218h-110l-23 -218h-30l23 218h-63v28zM131 445l-22 -199h110l22 199h-110z" />
    <glyph glyph-name="dollar" unicode="$" 
d="M292 127q0 -51 -27 -81.5t-74 -34.5v-71h-30v71q-47 4 -74 34.5t-27 81.5v52h31v-52q0 -41 23 -64.5t62 -23.5q40 0 62.5 23.5t22.5 64.5v79q0 35 -15 62.5t-37 44.5l-48.5 36.5t-48.5 37.5t-37 48t-15 69v70q0 50 26.5 80.5t74.5 35.5v71h30v-71q47 -5 74 -35.5
t27 -80.5v-53h-31v53q0 41 -22.5 64.5t-62.5 23.5t-62.5 -23.5t-22.5 -64.5v-70q0 -34 15 -61t37 -43.5l48.5 -36t48.5 -37.5t37 -49t15 -71v-79z" />
    <glyph glyph-name="percent" unicode="%" horiz-adv-x="486" 
d="M203 634v-159q0 -37 -20.5 -57.5t-57.5 -20.5t-58 20.5t-21 57.5v159q0 35 21 55.5t58 20.5t57.5 -20.5t20.5 -55.5zM73 634v-159q0 -23 15 -37.5t37 -14.5q23 0 37 14t14 38v159q0 23 -14 36.5t-37 13.5q-22 0 -37 -13.5t-15 -36.5zM76 0l308 700h29l-308 -700h-29z
M440 227v-159q0 -37 -20.5 -57.5t-57.5 -20.5t-58 20.5t-21 57.5v159q0 35 21 55.5t58 20.5t57.5 -20.5t20.5 -55.5zM310 227v-159q0 -23 15 -37.5t37 -14.5q23 0 37 14t14 38v159q0 23 -14 36.5t-37 13.5q-22 0 -37 -13.5t-15 -36.5z" />
    <glyph glyph-name="ampersand" unicode="&#x26;" horiz-adv-x="386" 
d="M292 537h-31v58q0 40 -23 63t-62 23t-62 -23t-23 -63v-119q0 -39 23 -63t61 -24h199v-29h-82v-253q0 -40 21.5 -62.5t60.5 -22.5v-28q-80 2 -98 57q-24 -61 -100 -61q-55 0 -85.5 31t-30.5 85v168q0 36 16.5 62.5t43.5 37.5q-60 25 -60 102v119q0 53 31 84t85 31t85 -31
t31 -84v-58zM261 360h-86q-38 0 -61 -24t-23 -62v-168q0 -40 23 -63.5t62 -23.5t62 23.5t23 63.5v254z" />
    <glyph glyph-name="quotesingle" unicode="'" horiz-adv-x="141" 
d="M85 740v-210h-29v210h29z" />
    <glyph glyph-name="parenleft" unicode="(" horiz-adv-x="189" 
d="M87 295q0 -141 28.5 -262.5t63.5 -174.5h-27q-39 56 -67.5 172.5t-28.5 264.5t28.5 264.5t67.5 172.5h27q-36 -55 -64 -175.5t-28 -261.5z" />
    <glyph glyph-name="parenright" unicode=")" horiz-adv-x="189" 
d="M102 295q0 141 -28.5 262t-63.5 175h27q39 -56 67.5 -172.5t28.5 -264.5t-28.5 -264.5t-67.5 -172.5h-27q35 53 63.5 174.5t28.5 262.5z" />
    <glyph glyph-name="asterisk" unicode="*" horiz-adv-x="176" 
d="M144 627l-49 33l3 -60h-20l3 60l-49 -33l-10 19l53 25l-53 25l10 19l49 -33l-3 60h20l-3 -60l49 33l10 -19l-53 -25l53 -25z" />
    <glyph glyph-name="plus" unicode="+" 
d="M38 264v28h124v150h28v-150h124v-28h-124v-150h-28v150h-124z" />
    <glyph glyph-name="comma" unicode="," horiz-adv-x="107" 
d="M39 47l30 3q5 -22 5 -44q0 -58 -38 -115l-23 5q31 54 31 109q0 22 -5 42z" />
    <glyph glyph-name="hyphen" unicode="-" horiz-adv-x="221" 
d="M32 264v29h157v-29h-157z" />
    <glyph glyph-name="period" unicode="." horiz-adv-x="109" 
d="M32 19q0 22 22 22q23 0 23 -22q0 -23 -23 -23q-22 0 -22 23z" />
    <glyph glyph-name="slash" unicode="/" horiz-adv-x="303" 
d="M22 0l229 700h30l-229 -700h-30z" />
    <glyph glyph-name="zero" unicode="0" 
d="M292 595v-489q0 -54 -31.5 -85t-84.5 -31t-84.5 31t-31.5 85v489q0 53 31.5 84t84.5 31t84.5 -31.5t31.5 -83.5zM91 595v-489q0 -40 23 -63.5t62 -23.5t62 23.5t23 63.5v489q0 39 -23.5 62.5t-61.5 23.5t-61.5 -23.5t-23.5 -62.5z" />
    <glyph glyph-name="one" unicode="1" horiz-adv-x="280" 
d="M167 700h27v-700h-31v648q-58 -75 -125 -95v30q41 15 76.5 49.5t52.5 67.5z" />
    <glyph glyph-name="two" unicode="2" horiz-adv-x="328" 
d="M243 537v57q0 40 -23 63.5t-62 23.5t-62 -23.5t-23 -63.5v-57h-31v57q0 54 31.5 85t84.5 31t84.5 -31t31.5 -85v-57q0 -46 -20.5 -98.5t-49.5 -101l-58.5 -97.5t-50.5 -104.5t-22 -106.5h201v-29h-232v19q0 56 20.5 115t50 109l59.5 98t50.5 99.5t20.5 96.5z" />
    <glyph glyph-name="three" unicode="3" horiz-adv-x="334" 
d="M73 537h-31v58q0 53 31.5 84t84.5 31t84.5 -31t31.5 -84v-141q0 -37 -17.5 -65t-46.5 -37q29 -9 46.5 -37t17.5 -64v-145q0 -54 -31.5 -85t-84.5 -31t-84.5 31t-31.5 85v60h31v-60q0 -40 23 -63.5t62 -23.5t62 23.5t23 63.5v145q0 37 -24 62t-60 25h-49v29h49q38 0 61 24
t23 63v141q0 39 -24 62.5t-61 23.5q-39 0 -62 -23t-23 -63v-58z" />
    <glyph glyph-name="four" unicode="4" horiz-adv-x="343" 
d="M284 373v-373h-31v144h-206v28q0 54 30 144.5t60.5 194t30.5 189.5h31q0 -88 -30.5 -192.5t-60.5 -193.5t-30 -141h175v200h31z" />
    <glyph glyph-name="five" unicode="5" 
d="M60 166h31v-61q0 -39 23.5 -62.5t61.5 -23.5t61.5 23.5t23.5 62.5v188q0 39 -23 63t-61 24q-57 0 -86 -39h-29v359h227v-29h-196v-298q36 36 84 36q53 0 84 -32t31 -84v-188q0 -53 -31.5 -84t-84.5 -31t-84.5 31t-31.5 84v61z" />
    <glyph glyph-name="six" unicode="6" 
d="M292 292v-187q0 -53 -31.5 -84t-84.5 -31t-84.5 31t-31.5 84v489q0 53 31.5 84.5t84.5 31.5t84.5 -31.5t31.5 -84.5v-57h-31v57q0 40 -23 63.5t-62 23.5t-62 -23.5t-23 -63.5v-232q26 46 85 46q54 0 85 -31.5t31 -84.5zM261 105v187q0 40 -23 63.5t-62 23.5t-62 -23.5
t-23 -63.5v-187q0 -40 23.5 -63.5t61.5 -23.5t61.5 23.5t23.5 63.5z" />
    <glyph glyph-name="seven" unicode="7" horiz-adv-x="303" 
d="M26 671v29h231q2 -8 2 -19q0 -90 -23 -180.5t-50.5 -154.5t-50.5 -157.5t-23 -188.5h-31q0 81 15 157t37 135.5l43.5 117t36.5 125t15 136.5h-202z" />
    <glyph glyph-name="eight" unicode="8" 
d="M60 106v119q0 45 23 73t67 56q-43 26 -66.5 54.5t-23.5 75.5v110q0 54 31.5 85t84.5 31t84.5 -31t31.5 -85v-110q0 -32 -14.5 -58.5t-31 -40t-45.5 -31.5q43 -27 67 -55.5t24 -73.5v-119q0 -54 -31.5 -85t-84.5 -31t-84.5 31t-31.5 85zM91 225v-119q0 -40 23.5 -63.5
t61.5 -23.5q39 0 62 23.5t23 63.5v119q0 39 -22 63.5t-64 49.5q-41 -25 -62.5 -49.5t-21.5 -63.5zM176 370q27 17 42.5 29.5t29 35t13.5 49.5v110q0 40 -23.5 63.5t-61.5 23.5t-61.5 -23.5t-23.5 -63.5v-110q0 -39 21.5 -63.5t63.5 -50.5z" />
    <glyph glyph-name="nine" unicode="9" 
d="M292 106q0 -54 -31.5 -85t-84.5 -31t-84.5 31t-31.5 85v60h31v-60q0 -40 23.5 -63.5t61.5 -23.5q39 0 62 23.5t23 63.5v231q-28 -43 -85 -43q-53 0 -84.5 31t-31.5 85v185q0 53 31.5 84t84.5 31t84.5 -31t31.5 -84v-489zM91 595v-185q0 -40 23 -63.5t62 -23.5t62 23.5
t23 63.5v185q0 39 -23.5 62.5t-61.5 23.5q-39 0 -62 -23t-23 -63z" />
    <glyph glyph-name="colon" unicode=":" horiz-adv-x="109" 
d="M32 116q0 22 22 22q23 0 23 -22q0 -23 -23 -23q-22 0 -22 23zM32 414q0 22 22 22q23 0 23 -22q0 -23 -23 -23q-22 0 -22 23z" />
    <glyph glyph-name="semicolon" unicode=";" horiz-adv-x="109" 
d="M39 47l30 3q5 -22 5 -44q0 -58 -38 -115l-23 5q31 54 31 109q0 22 -5 42zM32 414q0 22 22 22q23 0 23 -22q0 -23 -23 -23q-22 0 -22 23z" />
    <glyph glyph-name="less" unicode="&#x3c;" 
d="M39 263v23l263 170v-32l-233 -150l233 -150v-32z" />
    <glyph glyph-name="equal" unicode="=" 
d="M37 335v28h276v-28h-276zM37 198v28h276v-28h-276z" />
    <glyph glyph-name="greater" unicode="&#x3e;" 
d="M307 286v-23l-263 -171v32l233 150l-233 150v32z" />
    <glyph glyph-name="question" unicode="?" horiz-adv-x="307" 
d="M131 161v181h20q42 0 63.5 25t21.5 61v167q0 39 -23 62.5t-61 23.5t-61.5 -23.5t-23.5 -62.5v-58h-31v58q0 54 30.5 84.5t85.5 30.5q54 0 84.5 -30.5t30.5 -84.5v-167q0 -103 -105 -114v-153h-31zM124 17q0 23 23 23q22 0 22 -23q0 -22 -22 -22q-23 0 -23 22z" />
    <glyph glyph-name="at" unicode="@" horiz-adv-x="457" 
d="M367 97v446q0 63 -38.5 101t-100.5 38q-61 0 -99.5 -38.5t-38.5 -100.5v-522q0 -73 47 -115t112 -42q61 0 102 28l10 -26q-51 -30 -112 -30q-79 0 -134 49t-55 136v522q0 76 47 121.5t121 45.5q77 0 123 -45.5t46 -121.5v-446q0 -49 -31.5 -78t-78.5 -29q-48 0 -78.5 29
t-30.5 79v277q0 50 31.5 80.5t78.5 30.5q30 0 52 -15v-29q-22 15 -52 15q-34 0 -57 -22.5t-23 -59.5v-277q0 -37 22 -58.5t57 -21.5q34 0 57 21.5t23 57.5z" />
    <glyph glyph-name="A" unicode="A" 
d="M91 0h-31v594q0 54 31.5 85t84.5 31t84.5 -31t31.5 -85v-594h-31v286h-170v-286zM91 594v-279h170v279q0 38 -24 62.5t-61 24.5q-38 0 -61.5 -23.5t-23.5 -63.5z" />
    <glyph glyph-name="B" unicode="B" horiz-adv-x="348" 
d="M60 700h116q53 0 84.5 -31t31.5 -84v-131q0 -36 -19 -65.5t-48 -36.5q30 -7 48.5 -35.5t18.5 -65.5v-135q0 -54 -31.5 -85t-84.5 -31h-116v700zM261 116v135q0 39 -23 63t-60 24h-87v-310h85q38 0 61.5 24t23.5 64zM176 671h-85v-304h87q38 0 60.5 23.5t22.5 63.5v130
q0 40 -23 63.5t-62 23.5z" />
    <glyph glyph-name="C" unicode="C" horiz-adv-x="334" 
d="M292 537h-31v58q0 38 -24 62t-61 24q-38 0 -61.5 -23.5t-23.5 -62.5v-489q0 -39 24.5 -63t60.5 -24q40 0 62.5 23t22.5 64v60h31v-60q0 -54 -31.5 -85t-84.5 -31t-84.5 31t-31.5 85v489q0 53 31.5 84t84.5 31t84.5 -31t31.5 -84v-58z" />
    <glyph glyph-name="D" unicode="D" 
d="M176 0h-116v700h116q54 0 85 -31t31 -84v-469q0 -54 -31 -85t-85 -31zM91 671v-642h85q38 0 61.5 24t23.5 63v469q0 39 -23.5 62.5t-61.5 23.5h-85z" />
    <glyph glyph-name="E" unicode="E" horiz-adv-x="284" 
d="M60 0v700h192v-29h-161v-304h145v-29h-145v-309h161v-29h-192z" />
    <glyph glyph-name="F" unicode="F" horiz-adv-x="278" 
d="M252 700v-29h-161v-304h145v-29h-145v-338h-31v700h192z" />
    <glyph glyph-name="G" unicode="G" 
d="M180 338v29h112v-261q0 -54 -31.5 -85t-84.5 -31t-84.5 31t-31.5 85v489q0 53 31.5 84t84.5 31t84.5 -31t31.5 -84v-57h-31v57q0 39 -23.5 62.5t-61.5 23.5t-61.5 -23.5t-23.5 -62.5v-489q0 -40 23.5 -63.5t61.5 -23.5q40 0 62.5 23t22.5 64v232h-81z" />
    <glyph glyph-name="H" unicode="H" 
d="M91 700v-333h170v333h31v-700h-31v338h-170v-338h-31v700h31z" />
    <glyph glyph-name="I" unicode="I" horiz-adv-x="159" 
d="M95 700v-700h-31v700h31z" />
    <glyph glyph-name="J" unicode="J" horiz-adv-x="305" 
d="M52 671v29h193v-603q0 -49 -29.5 -78t-76.5 -29t-76 29.5t-29 77.5v71h31v-71q0 -35 20 -57t54 -22t54.5 22t20.5 57v574h-162z" />
    <glyph glyph-name="K" unicode="K" horiz-adv-x="349" 
d="M91 281v-281h-31v700h31v-380l79 77q50 49 71 92t21 104v107h31v-107q0 -112 -81 -196l-27 -28q55 -49 81.5 -99t26.5 -124v-146h-31v146q0 65 -25 110t-73 93z" />
    <glyph glyph-name="L" unicode="L" horiz-adv-x="263" 
d="M60 0v700h31v-671h154v-29h-185z" />
    <glyph glyph-name="M" unicode="M" horiz-adv-x="513" 
d="M272 605v-605h-31v605q0 35 -21.5 55.5t-53.5 20.5t-53.5 -20.5t-21.5 -55.5v-605h-31v605q0 48 30 76.5t76 28.5q30 0 55 -15t35 -40q11 25 36.5 40t54.5 15q45 0 75.5 -28.5t30.5 -76.5v-605h-31v605q0 35 -21.5 55.5t-53.5 20.5t-53.5 -20.5t-21.5 -55.5z" />
    <glyph glyph-name="N" unicode="N" 
d="M91 0h-31v594q0 54 31.5 85t84.5 31t84.5 -31t31.5 -85v-594h-31v594q0 40 -23 63.5t-62 23.5t-62 -23.5t-23 -63.5v-594z" />
    <glyph glyph-name="O" unicode="O" 
d="M292 595v-489q0 -54 -31.5 -85t-84.5 -31t-84.5 31t-31.5 85v489q0 53 31.5 84t84.5 31t84.5 -31.5t31.5 -83.5zM91 595v-489q0 -40 23 -63.5t62 -23.5t62 23.5t23 63.5v489q0 39 -23.5 62.5t-61.5 23.5t-61.5 -23.5t-23.5 -62.5z" />
    <glyph glyph-name="P" unicode="P" horiz-adv-x="338" 
d="M91 0h-31v700h116q53 0 84.5 -31.5t31.5 -83.5v-183q0 -54 -31.5 -85.5t-84.5 -31.5h-85v-285zM91 671v-357h85q38 0 61.5 24t23.5 64v183q0 38 -24 62t-61 24h-85z" />
    <glyph glyph-name="Q" unicode="Q" 
d="M292 595v-489q0 -50 -27 -80t-74 -35v-117h-31v117q-47 5 -73.5 35t-26.5 80v489q0 53 31.5 84t84.5 31t84.5 -31.5t31.5 -83.5zM91 595v-489q0 -40 23 -63.5t62 -23.5t62 23.5t23 63.5v489q0 39 -23.5 62.5t-61.5 23.5t-61.5 -23.5t-23.5 -62.5z" />
    <glyph glyph-name="R" unicode="R" horiz-adv-x="348" 
d="M292 0h-31v251q0 39 -23 63t-60 24h-87v-338h-31v700h116q53 0 84.5 -31t31.5 -84v-131q0 -36 -19 -65.5t-48 -36.5q30 -7 48.5 -35.5t18.5 -65.5v-251zM176 671h-85v-304h87q38 0 60.5 23.5t22.5 63.5v130q0 40 -23 63.5t-62 23.5z" />
    <glyph glyph-name="S" unicode="S" horiz-adv-x="332" 
d="M282 195v-88q0 -55 -31 -86t-85 -31t-85 31t-31 86v58h31v-58q0 -41 23 -64.5t62 -23.5q40 0 62.5 23.5t22.5 64.5v88q0 39 -15 69.5t-37 48.5l-48.5 38t-48.5 39t-37 52t-15 76v75q0 55 31 86t85 31t85 -31t31 -86v-57h-31v57q0 40 -23.5 64t-61.5 24q-39 0 -62 -24
t-23 -64v-75q0 -38 15 -67.5t37 -47l48.5 -38t48.5 -39.5t37 -53t15 -78z" />
    <glyph glyph-name="T" unicode="T" horiz-adv-x="281" 
d="M20 671v29h241v-29h-105v-671h-31v671h-105z" />
    <glyph glyph-name="U" unicode="U" 
d="M60 700h31v-594q0 -40 23.5 -63.5t61.5 -23.5q40 0 62.5 23t22.5 64v594h31v-594q0 -54 -31.5 -85t-84.5 -31t-84.5 31t-31.5 85v594z" />
    <glyph glyph-name="V" unicode="V" 
d="M261 700h31v-473q0 -59 -42 -148t-74 -89t-74 89t-42 148v473h31v-473q0 -47 34 -124.5t51 -77.5t51 77t34 125v473z" />
    <glyph glyph-name="W" unicode="W" horiz-adv-x="505" 
d="M414 700h31v-511q0 -60 -34 -129.5t-65 -69.5q-22 0 -50.5 41.5t-42.5 89.5q-15 -48 -44 -89.5t-50 -41.5q-30 0 -64.5 68.5t-34.5 130.5v511h31v-511q0 -46 26 -105.5t42 -59.5t47 59t31 106v496h31v-496q0 -48 30 -106.5t48 -58.5q15 0 41.5 59.5t26.5 105.5v511z" />
    <glyph glyph-name="X" unicode="X" horiz-adv-x="344" 
d="M87 0h-31v125q0 67 25.5 121t72.5 117q-33 44 -50 71t-32.5 69.5t-15.5 84.5v112h31v-112q0 -54 21.5 -98.5t63.5 -102.5q28 39 43 63t28.5 62t13.5 76v112h31v-112q0 -42 -16 -85t-33 -69.5t-49 -70.5q31 -43 48.5 -71t33.5 -74t16 -93v-125h-31v125q0 59 -22 107.5
t-63 105.5q-41 -55 -63 -104.5t-22 -108.5v-125z" />
    <glyph glyph-name="Y" unicode="Y" horiz-adv-x="336" 
d="M253 700h31v-207q0 -34 -16 -72t-34.5 -65t-34.5 -54.5t-16 -43.5v-258h-31v258q0 19 -25 57t-50 86t-25 92v207h31v-207q0 -32 15 -66t38 -71t31 -56q8 20 31 56t39 70t16 67v207z" />
    <glyph glyph-name="Z" unicode="Z" horiz-adv-x="296" 
d="M44 671v29h206q2 -9 2 -19q0 -77 -18 -144t-43.5 -118.5l-51.5 -104.5t-45 -126t-20 -159h178v-29h-206q-2 9 -2 19q0 89 18 164.5t43.5 129l51.5 105t44.5 116t19.5 137.5h-177z" />
    <glyph glyph-name="bracketleft" unicode="[" horiz-adv-x="194" 
d="M64 -141v873h98v-28h-68v-817h68v-28h-98z" />
    <glyph glyph-name="backslash" unicode="\" horiz-adv-x="303" 
d="M52 700l229 -700h-30l-229 700h30z" />
    <glyph glyph-name="bracketright" unicode="]" horiz-adv-x="194" 
d="M130 732v-873h-98v28h68v817h-68v28h98z" />
    <glyph glyph-name="asciicircum" unicode="^" 
d="M164 701h22l141 -326h-29l-123 290l-124 -290h-29z" />
    <glyph glyph-name="underscore" unicode="_" horiz-adv-x="500" 
d="M20 -38v28h460v-28h-460z" />
    <glyph glyph-name="grave" unicode="`" horiz-adv-x="160" 
d="M101 602l-71 108h36l64 -108h-29z" />
    <glyph glyph-name="a" unicode="a" horiz-adv-x="317" 
d="M156 19q32 0 53 20.5t21 54.5v201l-102 -48q-47 -22 -47 -76v-77q0 -34 21.5 -54.5t53.5 -20.5zM261 436v-342q0 -47 -29.5 -75.5t-75.5 -28.5q-45 0 -75.5 28.5t-30.5 75.5v77q0 72 67 103l113 53v109q0 33 -22 54t-53 21q-32 0 -53 -20.5t-21 -54.5v-45h-31v45
q0 47 29.5 75.5t75.5 28.5q47 0 76.5 -28.5t29.5 -75.5z" />
    <glyph glyph-name="b" unicode="b" horiz-adv-x="323" 
d="M267 436v-342q0 -48 -30 -76t-76 -28t-75.5 28t-29.5 76v646h31v-239q23 39 74 39q46 0 76 -28t30 -76zM236 94v342q0 34 -21.5 54.5t-53.5 20.5t-53 -20.5t-21 -54.5v-342q0 -35 21 -55t53 -20t53.5 20t21.5 55z" />
    <glyph glyph-name="c" unicode="c" horiz-adv-x="303" 
d="M236 145h31v-51q0 -48 -30 -76t-76 -28q-45 0 -75 28t-30 76v342q0 47 30 75.5t75 28.5q46 0 76 -28t30 -76v-45h-31v45q0 34 -21.5 54.5t-53.5 20.5t-53 -20.5t-21 -54.5v-342q0 -35 21 -55t53 -20q33 0 54 20t21 55v51z" />
    <glyph glyph-name="d" unicode="d" horiz-adv-x="323" 
d="M267 740v-646q0 -48 -30 -76t-76 -28q-45 0 -75 28t-30 76v342q0 47 30 75.5t75 28.5q50 0 75 -39v239h31zM87 436v-342q0 -35 21 -55t53 -20q33 0 54 20t21 55v342q0 34 -21.5 54.5t-53.5 20.5t-53 -20.5t-21 -54.5z" />
    <glyph glyph-name="e" unicode="e" horiz-adv-x="317" 
d="M267 436v-85q0 -43 -41 -64l-139 -69v-124q0 -33 21.5 -54t52.5 -21q32 0 53.5 20.5t21.5 54.5v51h31v-51q0 -48 -30 -76t-76 -28t-75.5 28t-29.5 76v342q0 47 30 75.5t75 28.5q46 0 76 -28.5t30 -75.5zM87 436v-184l129 63q20 10 20 36v85q0 34 -21.5 54.5t-53.5 20.5
q-31 0 -52.5 -20.5t-21.5 -54.5z" />
    <glyph glyph-name="f" unicode="f" horiz-adv-x="220" 
d="M117 530h95v-29h-95v-501h-31v501h-68v29h68v110q0 47 24.5 74t67.5 27q24 0 51 -15l-10 -24q-18 10 -41 10q-29 0 -45 -18.5t-16 -53.5v-110z" />
    <glyph glyph-name="g" unicode="g" horiz-adv-x="323" 
d="M267 436v-534q0 -46 -30 -74t-75 -28q-49 0 -77 27t-28 75q0 13 5 27.5t9.5 21t6.5 8.5l27 -12q-18 -24 -18 -45q0 -33 22 -53t53 -20q32 0 53 19.5t21 53.5v126q-25 -38 -75 -38q-45 0 -75 28t-30 76v342q0 47 30 75.5t75 28.5q46 0 76 -28t30 -76zM236 94v342
q0 34 -21.5 54.5t-53.5 20.5t-53 -20.5t-21 -54.5v-342q0 -35 21 -55t53 -20q33 0 54 20t21 55z" />
    <glyph glyph-name="h" unicode="h" horiz-adv-x="323" 
d="M267 0h-31v436q0 34 -21.5 54.5t-53.5 20.5t-53 -20.5t-21 -54.5v-436h-31v740h31v-239q23 39 74 39q46 0 76 -28t30 -76v-436z" />
    <glyph glyph-name="i" unicode="i" horiz-adv-x="159" 
d="M64 530h31v-530h-31v530zM56 670q0 23 23 23q24 0 24 -23q0 -10 -6.5 -17t-17.5 -7q-10 0 -16.5 7t-6.5 17z" />
    <glyph glyph-name="j" unicode="j" horiz-adv-x="159" 
d="M64 530h31v-624q0 -105 -83 -105q-28 0 -45 13l10 27q16 -11 35 -11q52 0 52 76v624zM56 670q0 23 23 23q24 0 24 -23q0 -10 -6.5 -17t-17.5 -7q-10 0 -16.5 7t-6.5 17z" />
    <glyph glyph-name="k" unicode="k" horiz-adv-x="318" 
d="M87 740v-504q83 78 115.5 126.5t32.5 109.5q0 20 -9.5 29.5t-26.5 7.5l4 28q31 2 47 -13.5t16 -50.5q0 -53 -19.5 -95.5t-64.5 -90.5q40 -30 62 -65.5t22 -93.5v-128h-31v128q0 82 -74 137l-33 -31q-34 -31 -41 -36v-198h-31v740h31z" />
    <glyph glyph-name="l" unicode="l" horiz-adv-x="159" 
d="M95 740v-740h-31v740h31z" />
    <glyph glyph-name="m" unicode="m" horiz-adv-x="489" 
d="M260 436v-436h-31v436q0 34 -20 54.5t-51 20.5q-32 0 -51.5 -20t-19.5 -55v-436h-31v436q0 48 28.5 76t73.5 28q30 0 53 -14.5t33 -40.5q10 25 33.5 40t53.5 15q45 0 73.5 -28t28.5 -76v-436h-31v436q0 35 -20 55t-51 20t-51 -20t-20 -55z" />
    <glyph glyph-name="n" unicode="n" horiz-adv-x="323" 
d="M267 0h-31v436q0 34 -21.5 54.5t-53.5 20.5t-53 -20.5t-21 -54.5v-436h-31v436q0 48 30 76t75 28q46 0 76 -28t30 -76v-436z" />
    <glyph glyph-name="o" unicode="o" horiz-adv-x="323" 
d="M267 436v-342q0 -48 -30 -76t-76 -28t-75.5 28t-29.5 76v342q0 48 30 76t75 28q46 0 76 -28t30 -76zM236 94v342q0 34 -21.5 54.5t-53.5 20.5t-53 -20.5t-21 -54.5v-342q0 -35 21 -55t53 -20q33 0 54 20t21 55z" />
    <glyph glyph-name="p" unicode="p" horiz-adv-x="323" 
d="M267 436v-342q0 -48 -30 -76t-76 -28q-50 0 -74 38v-222h-31v630q0 48 30 76t75 28q46 0 76 -28t30 -76zM236 94v342q0 34 -21.5 54.5t-53.5 20.5t-53 -20.5t-21 -54.5v-342q0 -35 21 -55t53 -20t53.5 20t21.5 55z" />
    <glyph glyph-name="q" unicode="q" horiz-adv-x="323" 
d="M267 436v-630h-31v222q-25 -38 -75 -38q-45 0 -75 28t-30 76v342q0 47 30 75.5t75 28.5q46 0 76 -28t30 -76zM236 92v344q0 34 -21.5 54.5t-53.5 20.5t-53 -20.5t-21 -54.5v-342q0 -34 21.5 -54.5t52.5 -20.5q32 0 53.5 20t21.5 53z" />
    <glyph glyph-name="r" unicode="r" horiz-adv-x="274" 
d="M87 437v-437h-31v437q0 49 26 76t70 27t69 -27.5t25 -75.5v-46h-31v46q0 36 -17 55t-46 19t-47 -19t-18 -55z" />
    <glyph glyph-name="s" unicode="s" horiz-adv-x="306" 
d="M48 145h31v-51q0 -35 21 -55t53 -20t53 20t21 55v45q0 39 -18.5 66t-44.5 42.5l-52.5 32t-45 45t-18.5 69.5v42q0 48 30 76t76 28q45 0 74.5 -28t29.5 -76v-45h-31v45q0 34 -20.5 54.5t-52.5 20.5t-53.5 -20.5t-21.5 -54.5v-42q0 -35 18.5 -59t44.5 -38.5t52.5 -31
t45 -48t18.5 -78.5v-45q0 -48 -30 -76t-75 -28q-46 0 -75.5 28t-29.5 76v51z" />
    <glyph glyph-name="t" unicode="t" horiz-adv-x="225" 
d="M16 501v29h64v131h31v-131h100v-29h-100v-410q0 -72 61 -72q23 0 41 6l1 -27q-23 -8 -42 -8q-44 0 -68 26t-24 75v410h-64z" />
    <glyph glyph-name="u" unicode="u" horiz-adv-x="323" 
d="M236 530h31v-436q0 -48 -30 -76t-76 -28q-45 0 -75 28t-30 76v436h31v-436q0 -35 21 -55t53 -20q33 0 54 20t21 55v436z" />
    <glyph glyph-name="v" unicode="v" horiz-adv-x="322" 
d="M266 444v-284q0 -45 -37.5 -107.5t-67.5 -62.5q-31 0 -68 62.5t-37 107.5v370h31v-370q0 -35 28 -85t46 -50q17 0 45.5 50t28.5 85v284q0 32 -9.5 45.5t-32.5 12.5v29q40 3 56.5 -17t16.5 -70z" />
    <glyph glyph-name="w" unicode="w" horiz-adv-x="489" 
d="M433 530v-370q0 -57 -32.5 -113.5t-65.5 -56.5q-23 0 -50.5 36t-40.5 77q-12 -41 -39.5 -77t-50.5 -36q-34 0 -66 56.5t-32 113.5v370h31v-370q0 -43 24.5 -90t42.5 -47q17 0 46 47.5t29 87.5v372h31v-372q0 -41 27.5 -88t47.5 -47q18 0 42.5 47t24.5 90v370h31z" />
    <glyph glyph-name="x" unicode="x" horiz-adv-x="314" 
d="M83 0h-31v85q0 41 13.5 78t29 59t43.5 54q-28 33 -43 55t-29 59t-14 78v62h31v-62q0 -50 19 -88.5t55 -81.5q36 43 55 81.5t19 88.5v62h31v-62q0 -31 -6.5 -58t-22 -53t-26 -40t-32.5 -41q28 -32 43.5 -54t29.5 -59.5t14 -77.5v-85h-31v85q0 50 -19 88.5t-55 81.5
q-36 -43 -55 -81.5t-19 -88.5v-85z" />
    <glyph glyph-name="y" unicode="y" horiz-adv-x="323" 
d="M236 530h31v-628q0 -46 -30 -74t-75 -28q-49 0 -77 27t-28 75q0 13 5 27t9 21t6 9l27 -12q-17 -24 -17 -45q0 -33 22 -53t53 -20q32 0 53 19.5t21 53.5v126q-25 -38 -75 -38q-45 0 -75 28t-30 76v436h31v-436q0 -34 21.5 -54.5t52.5 -20.5t53 20t22 55v436z" />
    <glyph glyph-name="z" unicode="z" horiz-adv-x="266" 
d="M36 501v29h192q2 -6 2 -14q0 -59 -17 -111t-41 -91.5l-47.5 -79t-40.5 -92t-17 -113.5h162v-29h-191q-2 9 -2 17q0 68 17 125.5t40.5 98.5l47.5 79.5t41 84.5t17 96h-163z" />
    <glyph glyph-name="braceleft" unicode="{" horiz-adv-x="203" 
d="M70 295q15 -7 29 -27t14 -46v-283q0 -25 16 -39t42 -14v-28q-40 0 -64 21.5t-24 59.5v283q0 23 -17 40.5t-34 18.5v28q17 1 34 18.5t17 40.5v283q0 38 24 59.5t64 21.5v-28q-26 -1 -42 -15t-16 -38v-283q0 -27 -14 -47.5t-29 -25.5z" />
    <glyph glyph-name="bar" unicode="|" horiz-adv-x="158" 
d="M64 -194v934h30v-934h-30z" />
    <glyph glyph-name="braceright" unicode="}" horiz-adv-x="203" 
d="M133 295q-15 5 -29 25.5t-14 47.5v283q0 24 -16 38t-42 15v28q40 0 64 -21.5t24 -59.5v-283q0 -23 17 -40.5t34 -18.5v-28q-17 -1 -34 -18.5t-17 -40.5v-283q0 -38 -24 -59.5t-64 -21.5v28q26 0 42 14.5t16 38.5v283q0 26 14 46t29 27z" />
    <glyph glyph-name="asciitilde" unicode="~" 
d="M60 236h-26q-4 39 18.5 60.5t57.5 21.5q28 0 70 -28t62 -28q23 0 38 15.5t12 40.5h26q4 -38 -18.5 -61t-57.5 -23q-26 0 -68 28.5t-64 28.5q-23 0 -38 -14.5t-12 -40.5z" />
    <glyph glyph-name="uni00A0" unicode="&#xa0;" horiz-adv-x="172" 
 />
    <glyph glyph-name="exclamdown" unicode="&#xa1;" horiz-adv-x="159" 
d="M57 512q0 23 22 23q23 0 23 -23q0 -22 -23 -22q-22 0 -22 22zM64 -170v538h31v-538h-31z" />
    <glyph glyph-name="cent" unicode="&#xa2;" 
d="M250 229h31v-51q0 -44 -25.5 -71.5t-64.5 -31.5v-85h-30v85q-40 4 -65.5 31.5t-25.5 71.5v342q0 43 25.5 70.5t65.5 32.5v87h30v-87q40 -5 65 -32t25 -71v-45h-31v45q0 35 -21 55.5t-53 20.5t-53.5 -20.5t-21.5 -55.5v-342q0 -35 21.5 -55t53.5 -20t53 20t21 55v51z" />
    <glyph glyph-name="sterling" unicode="&#xa3;" 
d="M43 336v29h56v241q0 47 29 75.5t74 28.5q49 0 77 -27.5t28 -75.5v-70h-31v70q0 35 -20.5 54.5t-53.5 19.5t-52.5 -20t-19.5 -55v-241h124v-29h-124v-307h187v-29h-284v29h66v307h-56z" />
    <glyph glyph-name="currency" unicode="&#xa4;" 
d="M67 343q0 43 21 73l-56 60l20 20l55 -60q30 23 68 23q40 0 68 -23l56 60l19 -20l-57 -60q22 -31 22 -73q0 -43 -22 -73l57 -60l-19 -20l-57 59q-26 -21 -67 -21t-67 21l-56 -59l-20 19l57 60q-22 29 -22 74zM96 343q0 -40 21.5 -63.5t57.5 -23.5t57.5 23.5t21.5 63.5
t-21.5 64t-57.5 24t-57.5 -24t-21.5 -64z" />
    <glyph glyph-name="yen" unicode="&#xa5;" 
d="M261 700h31v-207q0 -37 -16 -75.5t-34.5 -64.5t-34.5 -52.5t-16 -42.5v-8h90v-29h-90v-64h90v-29h-90v-128h-31v128h-90v29h90v64h-90v29h90v9q0 15 -15.5 41.5t-34.5 52.5t-34.5 64.5t-15.5 75.5v207h31v-207q0 -33 13.5 -65.5t38 -71.5t32.5 -55q8 18 32.5 55.5
t39 70.5t14.5 66v207z" />
    <glyph glyph-name="brokenbar" unicode="&#xa6;" horiz-adv-x="158" 
d="M94 386h-30v374h30v-374zM64 179h30v-373h-30v373z" />
    <glyph glyph-name="section" unicode="&#xa7;" horiz-adv-x="310" 
d="M260 559h-31v47q0 34 -21.5 54.5t-52.5 20.5q-32 0 -53 -20.5t-21 -54.5v-52q0 -33 18.5 -55.5t44.5 -36.5l52.5 -29t45 -42t18.5 -66v-51q0 -70 -81 -109q40 -21 60.5 -47t20.5 -73v-51q0 -48 -30 -76t-75 -28t-75 28t-30 76v46h31v-46q0 -34 21 -54.5t53 -20.5t53 20.5
t21 54.5v51q0 33 -18.5 56t-44.5 36.5l-52.5 28.5t-45 42t-18.5 67v51q0 24 8.5 44t24 33t24 18.5t22.5 12.5q-39 21 -59 47t-20 73v52q0 47 30 75.5t75 28.5t75 -28t30 -76v-47zM81 326v-51q0 -37 17 -56.5t54 -38.5q15 7 22 11.5t23 16t24 28.5t8 38v51q0 37 -17.5 56
t-56.5 39q-74 -37 -74 -94z" />
    <glyph glyph-name="dieresis" unicode="&#xa8;" horiz-adv-x="198" 
d="M30 670q0 23 23 23q24 0 24 -23q0 -10 -6.5 -17t-17.5 -7q-10 0 -16.5 7t-6.5 17zM121 670q0 23 23 23q24 0 24 -23q0 -10 -6.5 -17t-17.5 -7q-10 0 -16.5 7t-6.5 17z" />
    <glyph glyph-name="copyright" unicode="&#xa9;" horiz-adv-x="740" 
d="M443 200v55h31v-55q0 -48 -30 -76t-76 -28t-75 28t-29 76v301q0 48 30 76.5t76 28.5q45 0 74.5 -28.5t29.5 -76.5v-48h-31v48q0 35 -20.5 55.5t-52.5 20.5t-53.5 -20.5t-21.5 -55.5v-301q0 -35 20.5 -55t52.5 -20q33 0 54 20t21 55zM32 350q0 158 93.5 259t244.5 101
q153 0 245.5 -101t92.5 -259t-92.5 -259t-245.5 -101q-152 0 -245 101t-93 259zM63 350q0 -145 84.5 -238t222.5 -93q139 0 223 92.5t84 238.5t-84.5 238.5t-222.5 92.5t-222.5 -93t-84.5 -238z" />
    <glyph glyph-name="ordfeminine" unicode="&#xaa;" horiz-adv-x="211" 
d="M108 436q15 0 25.5 11.5t10.5 29.5v92q-6 -3 -24 -9.5t-27 -11t-17.5 -15.5t-8.5 -26v-30q0 -18 11.5 -29.5t29.5 -11.5zM167 646v-169q0 -27 -17 -45t-42 -18q-32 0 -48 17.5t-16 45.5v30q0 17 6 30t18.5 21.5t23 13.5t28 11t24.5 9v54q0 18 -11 29t-27 11
q-17 0 -28 -11t-11 -29v-26h-23v26q0 28 16 45t46 17q27 0 44 -17t17 -45zM45 355v22h121v-22h-121z" />
    <glyph glyph-name="guillemotleft" unicode="&#xab;" horiz-adv-x="333" 
d="M32 270l113 177h33l-113 -177l113 -177h-33zM155 270l113 177h33l-113 -177l113 -177h-33z" />
    <glyph glyph-name="logicalnot" unicode="&#xac;" 
d="M37 264v28h276v-176h-28v148h-248z" />
    <glyph glyph-name="uni00AD" unicode="&#xad;" horiz-adv-x="221" 
d="M32 264v29h157v-29h-157z" />
    <glyph glyph-name="registered" unicode="&#xae;" horiz-adv-x="741" 
d="M32 350q0 158 93.5 259t245.5 101q153 0 245.5 -101t92.5 -259t-92.5 -259t-245.5 -101q-152 0 -245.5 101t-93.5 259zM63 350q0 -145 85 -238t223 -93q139 0 223 92.5t84 238.5t-84.5 238.5t-222.5 92.5t-223 -93t-85 -238zM269 606h98q53 0 83 -28t30 -78v-76
q0 -32 -15 -56t-40 -35q55 -25 55 -91v-136h-29v136q0 35 -22 56t-59 21h-70v-218h-31v505zM450 424v76q0 36 -22 56.5t-61 20.5h-67v-229h70q37 0 58.5 20.5t21.5 55.5z" />
    <glyph glyph-name="macron" unicode="&#xaf;" horiz-adv-x="226" 
d="M30 637v27h166v-27h-166z" />
    <glyph glyph-name="degree" unicode="&#xb0;" horiz-adv-x="224" 
d="M32 626q0 37 21.5 60.5t58.5 23.5t58.5 -23.5t21.5 -60.5t-21.5 -60.5t-58.5 -23.5t-58.5 23.5t-21.5 60.5zM56 626q0 -27 15 -44.5t41 -17.5q25 0 40.5 17.5t15.5 44.5t-15.5 44.5t-40.5 17.5t-40.5 -17.5t-15.5 -44.5z" />
    <glyph glyph-name="plusminus" unicode="&#xb1;" 
d="M38 0v27h276v-27h-276zM38 264v28h124v150h28v-150h124v-28h-124v-150h-28v150h-124z" />
    <glyph glyph-name="twosuperior" unicode="&#xb2;" horiz-adv-x="203" 
d="M140 689v29q0 17 -11 27.5t-28 10.5q-16 0 -27 -10.5t-11 -27.5v-31h-27v31q0 29 18.5 46.5t46.5 17.5q29 0 47.5 -17.5t18.5 -46.5v-28q0 -37 -26 -80.5l-52 -86.5t-26 -78h103v-25h-130v18q0 43 26 89.5t52 88.5t26 73z" />
    <glyph glyph-name="threesuperior" unicode="&#xb3;" horiz-adv-x="203" 
d="M63 690h-27v29q0 29 18 46t47 17q30 0 48 -17t18 -46v-67q0 -39 -30 -51q30 -12 30 -49v-76q0 -29 -18 -45.5t-48 -16.5q-31 0 -48 16t-17 46v32h27v-32q0 -16 11 -26.5t27 -10.5q17 0 28 10.5t11 26.5v76q0 16 -11 26t-27 10h-30v26h30q16 0 27 11t11 27v67
q0 16 -11 26.5t-28 10.5q-16 0 -27 -10.5t-11 -26.5v-29z" />
    <glyph glyph-name="acute" unicode="&#xb4;" horiz-adv-x="160" 
d="M130 710l-71 -108h-29l64 108h36z" />
    <glyph glyph-name="mu" unicode="&#xb5;" horiz-adv-x="323" 
d="M323 28v-28q-4 -1 -11 -1q-50 0 -63 39q-11 -22 -35 -35t-53 -13q-23 0 -44.5 11t-29.5 29v-224h-31v724h31v-408q0 -103 74 -103q33 0 54 20t21 56v435h31v-435q0 -67 50 -67h6z" />
    <glyph glyph-name="paragraph" unicode="&#xb6;" horiz-adv-x="386" 
d="M32 585q0 50 30.5 82.5t78.5 32.5h213v-27h-54v-673h-29v673h-101v-673h-29v472q-47 1 -78 33t-31 80z" />
    <glyph glyph-name="periodcentered" unicode="&#xb7;" horiz-adv-x="111" 
d="M32 288q0 23 23 23q24 0 24 -23q0 -10 -6.5 -17t-17.5 -7q-10 0 -16.5 7t-6.5 17z" />
    <glyph glyph-name="cedilla" unicode="&#xb8;" horiz-adv-x="161" 
d="M59 -2h25l-4 -37q51 -2 51 -53q0 -23 -17.5 -37t-40.5 -14q-21 0 -43 16l9 19q19 -12 35 -12q12 0 20.5 8t8.5 21q0 32 -31 32h-14l-7 7z" />
    <glyph glyph-name="onesuperior" unicode="&#xb9;" horiz-adv-x="168" 
d="M122 776v-356h-27v311q-28 -32 -69 -45v28q23 8 44 27t28 35h24z" />
    <glyph glyph-name="ordmasculine" unicode="&#xba;" horiz-adv-x="211" 
d="M108 414q-28 0 -46 18t-18 45v169q0 28 17 45t45 17q27 0 44 -17t17 -45v-169q0 -27 -17 -45t-42 -18zM67 646v-169q0 -18 11.5 -29.5t29.5 -11.5q15 0 25.5 11.5t10.5 29.5v169q0 18 -11 29t-27 11q-17 0 -28 -11t-11 -29zM45 355v22h121v-22h-121z" />
    <glyph glyph-name="guillemotright" unicode="&#xbb;" horiz-adv-x="333" 
d="M188 447l113 -177l-113 -177h-33l113 177l-113 177h33zM65 447l113 -177l-113 -177h-33l113 177l-113 177h33z" />
    <glyph glyph-name="onequarter" unicode="&#xbc;" horiz-adv-x="491" 
d="M82 0l307 700h29l-307 -700h-29zM142 700v-356h-27v311q-28 -32 -69 -45v28q23 8 44 27t28 35h24zM445 193v-193h-27v72h-104v22q0 36 30.5 122.5t30.5 139.5h27q0 -56 -30.5 -143.5t-30.5 -115.5h77v96h27z" />
    <glyph glyph-name="onehalf" unicode="&#xbd;" horiz-adv-x="500" 
d="M82 0l307 700h29l-307 -700h-29zM427 269v29q0 17 -11 27.5t-28 10.5q-16 0 -27 -10.5t-11 -27.5v-31h-27v31q0 29 18.5 46.5t46.5 17.5q29 0 47.5 -17.5t18.5 -46.5v-28q0 -37 -26 -80.5l-52 -86.5t-26 -78h103v-25h-130v18q0 43 26 89.5t52 88.5t26 73zM142 700v-356
h-27v311q-28 -32 -69 -45v28q23 8 44 27t28 35h24z" />
    <glyph glyph-name="threequarters" unicode="&#xbe;" horiz-adv-x="480" 
d="M88 0l307 700h29l-307 -700h-29zM73 612h-27v29q0 29 18 46t47 17q30 0 48 -17t18 -46v-67q0 -39 -30 -51q30 -12 30 -49v-76q0 -29 -18 -45.5t-48 -16.5q-31 0 -48 16t-17 46v32h27v-32q0 -16 11 -26.5t27 -10.5q17 0 28 10.5t11 26.5v76q0 16 -11 26t-27 10h-30v26h30
q16 0 27 11t11 27v67q0 16 -11 26.5t-28 10.5q-16 0 -27 -10.5t-11 -26.5v-29zM434 193v-193h-27v72h-104v22q0 36 30.5 122.5t30.5 139.5h27q0 -56 -30.5 -143.5t-30.5 -115.5h77v96h27z" />
    <glyph glyph-name="questiondown" unicode="&#xbf;" horiz-adv-x="307" 
d="M176 369v-181h-20q-42 0 -63.5 -24.5t-21.5 -61.5v-167q0 -39 23 -62.5t61 -23.5q39 0 62 23.5t23 62.5v58h31v-58q0 -54 -30.5 -84.5t-85.5 -30.5q-54 0 -84.5 30.5t-30.5 84.5v167q0 101 105 114v153h31zM183 512q0 -22 -23 -22q-22 0 -22 22q0 23 22 23q23 0 23 -23z
" />
    <glyph glyph-name="Agrave" unicode="&#xc0;" 
d="M91 0h-31v594q0 54 31.5 85t84.5 31t84.5 -31t31.5 -85v-594h-31v286h-170v-286zM91 594v-279h170v279q0 38 -24 62.5t-61 24.5q-38 0 -61.5 -23.5t-23.5 -63.5zM182 742l-71 108h36l64 -108h-29z" />
    <glyph glyph-name="Aacute" unicode="&#xc1;" 
d="M91 0h-31v594q0 54 31.5 85t84.5 31t84.5 -31t31.5 -85v-594h-31v286h-170v-286zM91 594v-279h170v279q0 38 -24 62.5t-61 24.5q-38 0 -61.5 -23.5t-23.5 -63.5zM240 850l-71 -108h-29l64 108h36z" />
    <glyph glyph-name="Acircumflex" unicode="&#xc2;" 
d="M91 0h-31v594q0 54 31.5 85t84.5 31t84.5 -31t31.5 -85v-594h-31v286h-170v-286zM91 594v-279h170v279q0 38 -24 62.5t-61 24.5q-38 0 -61.5 -23.5t-23.5 -63.5zM191 850l66 -108h-29l-52 82l-52 -82h-29l66 108h30z" />
    <glyph glyph-name="Atilde" unicode="&#xc3;" 
d="M91 0h-31v594q0 54 31.5 85t84.5 31t84.5 -31t31.5 -85v-594h-31v286h-170v-286zM91 594v-279h170v279q0 38 -24 62.5t-61 24.5q-38 0 -61.5 -23.5t-23.5 -63.5zM105 779h-24q0 29 15 45.5t39 16.5q18 0 42.5 -21t40.5 -21q28 0 30 35h24q-1 -30 -15.5 -46.5t-38.5 -16.5
q-18 0 -42.5 21t-40.5 21q-13 0 -21.5 -9t-8.5 -25z" />
    <glyph glyph-name="Adieresis" unicode="&#xc4;" 
d="M91 0h-31v594q0 54 31.5 85t84.5 31t84.5 -31t31.5 -85v-594h-31v286h-170v-286zM91 594v-279h170v279q0 38 -24 62.5t-61 24.5q-38 0 -61.5 -23.5t-23.5 -63.5zM106 810q0 23 23 23q24 0 24 -23q0 -10 -6.5 -17t-17.5 -7q-10 0 -16.5 7t-6.5 17zM197 810q0 23 23 23
q24 0 24 -23q0 -10 -6.5 -17t-17.5 -7q-10 0 -16.5 7t-6.5 17z" />
    <glyph glyph-name="Aring" unicode="&#xc5;" 
d="M91 0h-31v594q0 54 31.5 85t84.5 31t84.5 -31t31.5 -85v-594h-31v286h-170v-286zM91 594v-279h170v279q0 38 -24 62.5t-61 24.5q-38 0 -61.5 -23.5t-23.5 -63.5zM113 800q0 28 18.5 46t44.5 18q27 0 45.5 -18t18.5 -46q0 -27 -18.5 -45t-45.5 -18q-26 0 -44.5 18
t-18.5 45zM139 800q0 -17 10.5 -28t26.5 -11q17 0 27.5 11t10.5 28q0 18 -10.5 29t-27.5 11q-16 0 -26.5 -11t-10.5 -29z" />
    <glyph glyph-name="AE" unicode="&#xc6;" horiz-adv-x="486" 
d="M454 700v-29h-165v-304h146v-29h-146v-309h165v-29h-196v338h-167v-338h-31v584q0 54 30.5 85t85.5 31h278zM91 584v-217h167v304h-82q-39 0 -62 -23.5t-23 -63.5z" />
    <glyph glyph-name="Ccedilla" unicode="&#xc7;" horiz-adv-x="334" 
d="M292 537h-31v58q0 38 -24 62t-61 24q-38 0 -61.5 -23.5t-23.5 -62.5v-489q0 -39 24.5 -63t60.5 -24q40 0 62.5 23t22.5 64v60h31v-60q0 -53 -30 -83.5t-81 -32.5l-3 -29q51 -2 51 -53q0 -23 -17.5 -37t-40.5 -14q-21 0 -43 16l9 19q19 -12 35 -12q12 0 20.5 8t8.5 21
q0 32 -31 32h-14l-7 7l7 43q-45 6 -70.5 36t-25.5 79v489q0 53 31.5 84t84.5 31t84.5 -31t31.5 -84v-58z" />
    <glyph glyph-name="Egrave" unicode="&#xc8;" horiz-adv-x="284" 
d="M60 0v700h192v-29h-161v-304h145v-29h-145v-309h161v-29h-192zM164 742l-71 108h36l64 -108h-29z" />
    <glyph glyph-name="Eacute" unicode="&#xc9;" horiz-adv-x="284" 
d="M60 0v700h192v-29h-161v-304h145v-29h-145v-309h161v-29h-192zM222 850l-71 -108h-29l64 108h36z" />
    <glyph glyph-name="Ecircumflex" unicode="&#xca;" horiz-adv-x="284" 
d="M60 0v700h192v-29h-161v-304h145v-29h-145v-309h161v-29h-192zM173 850l66 -108h-29l-52 82l-52 -82h-29l66 108h30z" />
    <glyph glyph-name="Edieresis" unicode="&#xcb;" horiz-adv-x="284" 
d="M60 0v700h192v-29h-161v-304h145v-29h-145v-309h161v-29h-192zM88 810q0 23 23 23q24 0 24 -23q0 -10 -6.5 -17t-17.5 -7q-10 0 -16.5 7t-6.5 17zM179 810q0 23 23 23q24 0 24 -23q0 -10 -6.5 -17t-17.5 -7q-10 0 -16.5 7t-6.5 17z" />
    <glyph glyph-name="Igrave" unicode="&#xcc;" horiz-adv-x="159" 
d="M95 700v-700h-31v700h31zM86 742l-71 108h36l64 -108h-29z" />
    <glyph glyph-name="Iacute" unicode="&#xcd;" horiz-adv-x="159" 
d="M95 700v-700h-31v700h31zM144 850l-71 -108h-29l64 108h36z" />
    <glyph glyph-name="Icircumflex" unicode="&#xce;" horiz-adv-x="159" 
d="M95 700v-700h-31v700h31zM95 850l66 -108h-29l-52 82l-52 -82h-29l66 108h30z" />
    <glyph glyph-name="Idieresis" unicode="&#xcf;" horiz-adv-x="159" 
d="M95 700v-700h-31v700h31zM10 810q0 23 23 23q24 0 24 -23q0 -10 -6.5 -17t-17.5 -7q-10 0 -16.5 7t-6.5 17zM101 810q0 23 23 23q24 0 24 -23q0 -10 -6.5 -17t-17.5 -7q-10 0 -16.5 7t-6.5 17z" />
    <glyph glyph-name="Eth" unicode="&#xd0;" 
d="M20 337v28h40v335h116q54 0 85 -31t31 -84v-469q0 -54 -31 -85t-85 -31h-116v337h-40zM91 671v-306h85v-28h-85v-308h85q38 0 61.5 24t23.5 63v469q0 39 -23.5 62.5t-61.5 23.5h-85z" />
    <glyph glyph-name="Ntilde" unicode="&#xd1;" 
d="M91 0h-31v594q0 54 31.5 85t84.5 31t84.5 -31t31.5 -85v-594h-31v594q0 40 -23 63.5t-62 23.5t-62 -23.5t-23 -63.5v-594zM105 779h-24q0 29 15 45.5t39 16.5q18 0 42.5 -21t40.5 -21q28 0 30 35h24q-1 -30 -15.5 -46.5t-38.5 -16.5q-18 0 -42.5 21t-40.5 21
q-13 0 -21.5 -9t-8.5 -25z" />
    <glyph glyph-name="Ograve" unicode="&#xd2;" 
d="M292 595v-489q0 -54 -31.5 -85t-84.5 -31t-84.5 31t-31.5 85v489q0 53 31.5 84t84.5 31t84.5 -31.5t31.5 -83.5zM91 595v-489q0 -40 23 -63.5t62 -23.5t62 23.5t23 63.5v489q0 39 -23.5 62.5t-61.5 23.5t-61.5 -23.5t-23.5 -62.5zM182 742l-71 108h36l64 -108h-29z" />
    <glyph glyph-name="Oacute" unicode="&#xd3;" 
d="M292 595v-489q0 -54 -31.5 -85t-84.5 -31t-84.5 31t-31.5 85v489q0 53 31.5 84t84.5 31t84.5 -31.5t31.5 -83.5zM91 595v-489q0 -40 23 -63.5t62 -23.5t62 23.5t23 63.5v489q0 39 -23.5 62.5t-61.5 23.5t-61.5 -23.5t-23.5 -62.5zM240 850l-71 -108h-29l64 108h36z" />
    <glyph glyph-name="Ocircumflex" unicode="&#xd4;" 
d="M292 595v-489q0 -54 -31.5 -85t-84.5 -31t-84.5 31t-31.5 85v489q0 53 31.5 84t84.5 31t84.5 -31.5t31.5 -83.5zM91 595v-489q0 -40 23 -63.5t62 -23.5t62 23.5t23 63.5v489q0 39 -23.5 62.5t-61.5 23.5t-61.5 -23.5t-23.5 -62.5zM191 850l66 -108h-29l-52 82l-52 -82
h-29l66 108h30z" />
    <glyph glyph-name="Otilde" unicode="&#xd5;" 
d="M292 595v-489q0 -54 -31.5 -85t-84.5 -31t-84.5 31t-31.5 85v489q0 53 31.5 84t84.5 31t84.5 -31.5t31.5 -83.5zM91 595v-489q0 -40 23 -63.5t62 -23.5t62 23.5t23 63.5v489q0 39 -23.5 62.5t-61.5 23.5t-61.5 -23.5t-23.5 -62.5zM105 779h-24q0 29 15 45.5t39 16.5
q18 0 42.5 -21t40.5 -21q28 0 30 35h24q-1 -30 -15.5 -46.5t-38.5 -16.5q-18 0 -42.5 21t-40.5 21q-13 0 -21.5 -9t-8.5 -25z" />
    <glyph glyph-name="Odieresis" unicode="&#xd6;" 
d="M292 595v-489q0 -54 -31.5 -85t-84.5 -31t-84.5 31t-31.5 85v489q0 53 31.5 84t84.5 31t84.5 -31.5t31.5 -83.5zM91 595v-489q0 -40 23 -63.5t62 -23.5t62 23.5t23 63.5v489q0 39 -23.5 62.5t-61.5 23.5t-61.5 -23.5t-23.5 -62.5zM106 810q0 23 23 23q24 0 24 -23
q0 -10 -6.5 -17t-17.5 -7q-10 0 -16.5 7t-6.5 17zM197 810q0 23 23 23q24 0 24 -23q0 -10 -6.5 -17t-17.5 -7q-10 0 -16.5 7t-6.5 17z" />
    <glyph glyph-name="multiply" unicode="&#xd7;" 
d="M63 138l-21 19l114 123l-114 124l21 20l113 -123l114 123l20 -20l-115 -123l115 -123l-21 -20l-113 122z" />
    <glyph glyph-name="Oslash" unicode="&#xd8;" 
d="M292 595v-489q0 -54 -31.5 -85t-84.5 -31q-47 0 -77 24l-13 -50l-22 6l16 64q-20 29 -20 72v489q0 53 31.5 84t84.5 31q42 0 72 -22l13 48l23 -6l-16 -61q24 -30 24 -74zM261 106v489q0 11 -4 29l-149 -575q24 -30 68 -30q39 0 62 23.5t23 63.5zM91 595v-489q0 -16 2 -23
l147 572q-24 26 -64 26q-38 0 -61.5 -23.5t-23.5 -62.5z" />
    <glyph glyph-name="Ugrave" unicode="&#xd9;" 
d="M60 700h31v-594q0 -40 23.5 -63.5t61.5 -23.5q40 0 62.5 23t22.5 64v594h31v-594q0 -54 -31.5 -85t-84.5 -31t-84.5 31t-31.5 85v594zM182 742l-71 108h36l64 -108h-29z" />
    <glyph glyph-name="Uacute" unicode="&#xda;" 
d="M60 700h31v-594q0 -40 23.5 -63.5t61.5 -23.5q40 0 62.5 23t22.5 64v594h31v-594q0 -54 -31.5 -85t-84.5 -31t-84.5 31t-31.5 85v594zM240 850l-71 -108h-29l64 108h36z" />
    <glyph glyph-name="Ucircumflex" unicode="&#xdb;" 
d="M60 700h31v-594q0 -40 23.5 -63.5t61.5 -23.5q40 0 62.5 23t22.5 64v594h31v-594q0 -54 -31.5 -85t-84.5 -31t-84.5 31t-31.5 85v594zM191 850l66 -108h-29l-52 82l-52 -82h-29l66 108h30z" />
    <glyph glyph-name="Udieresis" unicode="&#xdc;" 
d="M60 700h31v-594q0 -40 23.5 -63.5t61.5 -23.5q40 0 62.5 23t22.5 64v594h31v-594q0 -54 -31.5 -85t-84.5 -31t-84.5 31t-31.5 85v594zM106 810q0 23 23 23q24 0 24 -23q0 -10 -6.5 -17t-17.5 -7q-10 0 -16.5 7t-6.5 17zM197 810q0 23 23 23q24 0 24 -23q0 -10 -6.5 -17
t-17.5 -7q-10 0 -16.5 7t-6.5 17z" />
    <glyph glyph-name="Yacute" unicode="&#xdd;" horiz-adv-x="336" 
d="M253 700h31v-207q0 -34 -16 -72t-34.5 -65t-34.5 -54.5t-16 -43.5v-258h-31v258q0 19 -25 57t-50 86t-25 92v207h31v-207q0 -32 15 -66t38 -71t31 -56q8 20 31 56t39 70t16 67v207zM232 850l-71 -108h-29l64 108h36z" />
    <glyph glyph-name="Thorn" unicode="&#xde;" horiz-adv-x="335" 
d="M89 0h-31v700h31v-155h86q54 0 84 -31.5t30 -84.5v-156q0 -55 -30 -86t-84 -31h-86v-156zM175 516h-86v-331h86q39 0 61 23.5t22 64.5v156q0 40 -22 63.5t-61 23.5z" />
    <glyph glyph-name="germandbls" unicode="&#xdf;" horiz-adv-x="350" 
d="M143 0v29h33q40 0 62.5 23t22.5 64v135q0 38 -22.5 62.5t-59.5 24.5h-35v29h32q39 0 62 23.5t23 63.5v141q0 40 -23 63t-62 23q-38 0 -61.5 -23.5t-23.5 -62.5v-595h-31v595q0 53 31.5 84t84.5 31t84.5 -31t31.5 -84v-141q0 -36 -17 -63.5t-45 -37.5q28 -9 45 -37.5
t17 -64.5v-135q0 -54 -31.5 -85t-84.5 -31h-33z" />
    <glyph glyph-name="agrave" unicode="&#xe0;" horiz-adv-x="317" 
d="M156 19q32 0 53 20.5t21 54.5v201l-102 -48q-47 -22 -47 -76v-77q0 -34 21.5 -54.5t53.5 -20.5zM261 436v-342q0 -47 -29.5 -75.5t-75.5 -28.5q-45 0 -75.5 28.5t-30.5 75.5v77q0 72 67 103l113 53v109q0 33 -22 54t-53 21q-32 0 -53 -20.5t-21 -54.5v-45h-31v45
q0 47 29.5 75.5t75.5 28.5q47 0 76.5 -28.5t29.5 -75.5zM161 602l-71 108h36l64 -108h-29z" />
    <glyph glyph-name="aacute" unicode="&#xe1;" horiz-adv-x="317" 
d="M156 19q32 0 53 20.5t21 54.5v201l-102 -48q-47 -22 -47 -76v-77q0 -34 21.5 -54.5t53.5 -20.5zM261 436v-342q0 -47 -29.5 -75.5t-75.5 -28.5q-45 0 -75.5 28.5t-30.5 75.5v77q0 72 67 103l113 53v109q0 33 -22 54t-53 21q-32 0 -53 -20.5t-21 -54.5v-45h-31v45
q0 47 29.5 75.5t75.5 28.5q47 0 76.5 -28.5t29.5 -75.5zM219 710l-71 -108h-29l64 108h36z" />
    <glyph glyph-name="acircumflex" unicode="&#xe2;" horiz-adv-x="317" 
d="M156 19q32 0 53 20.5t21 54.5v201l-102 -48q-47 -22 -47 -76v-77q0 -34 21.5 -54.5t53.5 -20.5zM261 436v-342q0 -47 -29.5 -75.5t-75.5 -28.5q-45 0 -75.5 28.5t-30.5 75.5v77q0 72 67 103l113 53v109q0 33 -22 54t-53 21q-32 0 -53 -20.5t-21 -54.5v-45h-31v45
q0 47 29.5 75.5t75.5 28.5q47 0 76.5 -28.5t29.5 -75.5zM170 710l66 -108h-29l-52 82l-52 -82h-29l66 108h30z" />
    <glyph glyph-name="atilde" unicode="&#xe3;" horiz-adv-x="317" 
d="M156 19q32 0 53 20.5t21 54.5v201l-102 -48q-47 -22 -47 -76v-77q0 -34 21.5 -54.5t53.5 -20.5zM261 436v-342q0 -47 -29.5 -75.5t-75.5 -28.5q-45 0 -75.5 28.5t-30.5 75.5v77q0 72 67 103l113 53v109q0 33 -22 54t-53 21q-32 0 -53 -20.5t-21 -54.5v-45h-31v45
q0 47 29.5 75.5t75.5 28.5q47 0 76.5 -28.5t29.5 -75.5zM84 639h-24q0 29 15 45.5t39 16.5q18 0 42.5 -21t40.5 -21q28 0 30 35h24q-1 -30 -15.5 -46.5t-38.5 -16.5q-18 0 -42.5 21t-40.5 21q-13 0 -21.5 -9t-8.5 -25z" />
    <glyph glyph-name="adieresis" unicode="&#xe4;" horiz-adv-x="317" 
d="M156 19q32 0 53 20.5t21 54.5v201l-102 -48q-47 -22 -47 -76v-77q0 -34 21.5 -54.5t53.5 -20.5zM261 436v-342q0 -47 -29.5 -75.5t-75.5 -28.5q-45 0 -75.5 28.5t-30.5 75.5v77q0 72 67 103l113 53v109q0 33 -22 54t-53 21q-32 0 -53 -20.5t-21 -54.5v-45h-31v45
q0 47 29.5 75.5t75.5 28.5q47 0 76.5 -28.5t29.5 -75.5zM85 670q0 23 23 23q24 0 24 -23q0 -10 -6.5 -17t-17.5 -7q-10 0 -16.5 7t-6.5 17zM176 670q0 23 23 23q24 0 24 -23q0 -10 -6.5 -17t-17.5 -7q-10 0 -16.5 7t-6.5 17z" />
    <glyph glyph-name="aring" unicode="&#xe5;" horiz-adv-x="317" 
d="M156 19q32 0 53 20.5t21 54.5v201l-102 -48q-47 -22 -47 -76v-77q0 -34 21.5 -54.5t53.5 -20.5zM261 436v-342q0 -47 -29.5 -75.5t-75.5 -28.5q-45 0 -75.5 28.5t-30.5 75.5v77q0 72 67 103l113 53v109q0 33 -22 54t-53 21q-32 0 -53 -20.5t-21 -54.5v-45h-31v45
q0 47 29.5 75.5t75.5 28.5q47 0 76.5 -28.5t29.5 -75.5zM92 660q0 28 18.5 46t44.5 18q27 0 45.5 -18t18.5 -46q0 -27 -18.5 -45t-45.5 -18q-26 0 -44.5 18t-18.5 45zM118 660q0 -17 10.5 -28t26.5 -11q17 0 27.5 11t10.5 28q0 18 -10.5 29t-27.5 11q-16 0 -26.5 -11
t-10.5 -29z" />
    <glyph glyph-name="ae" unicode="&#xe6;" horiz-adv-x="486" 
d="M436 441v-58q0 -51 -49 -69l-128 -49v-175q0 -35 19.5 -53t53.5 -18q32 0 52.5 18t20.5 53v50h31v-50q0 -47 -29 -73.5t-75 -26.5q-65 0 -88 50q-24 -50 -89 -50q-48 0 -76.5 26t-28.5 73v63q0 38 20 58.5t54 33.5l104 40v156q0 34 -20.5 52t-52.5 18q-34 0 -54 -18
t-20 -52v-44h-31v44q0 47 29 73.5t76 26.5q64 0 88 -52q23 52 89 52q46 0 75 -26.5t29 -72.5zM155 19q32 0 52.5 18t20.5 53v163l-92 -35q-55 -21 -55 -66v-63q0 -34 20 -52t54 -18zM259 440v-144l120 45q26 9 26 42v58q0 33 -20.5 51t-52.5 18q-34 0 -53.5 -18t-19.5 -52z
" />
    <glyph glyph-name="ccedilla" unicode="&#xe7;" horiz-adv-x="303" 
d="M236 145h31v-51q0 -47 -29 -74.5t-73 -29.5l-3 -29q51 -2 51 -53q0 -23 -17.5 -37t-40.5 -14q-21 0 -43 16l9 19q19 -12 35 -12q12 0 20.5 8t8.5 21q0 32 -31 32h-14l-7 7l7 44q-37 6 -60.5 33t-23.5 69v342q0 47 30 75.5t75 28.5q46 0 76 -28t30 -76v-45h-31v45
q0 34 -21.5 54.5t-53.5 20.5t-53 -20.5t-21 -54.5v-342q0 -35 21 -55t53 -20q33 0 54 20t21 55v51z" />
    <glyph glyph-name="egrave" unicode="&#xe8;" horiz-adv-x="317" 
d="M267 436v-85q0 -43 -41 -64l-139 -69v-124q0 -33 21.5 -54t52.5 -21q32 0 53.5 20.5t21.5 54.5v51h31v-51q0 -48 -30 -76t-76 -28t-75.5 28t-29.5 76v342q0 47 30 75.5t75 28.5q46 0 76 -28.5t30 -75.5zM87 436v-184l129 63q20 10 20 36v85q0 34 -21.5 54.5t-53.5 20.5
q-31 0 -52.5 -20.5t-21.5 -54.5zM167 602l-71 108h36l64 -108h-29z" />
    <glyph glyph-name="eacute" unicode="&#xe9;" horiz-adv-x="317" 
d="M267 436v-85q0 -43 -41 -64l-139 -69v-124q0 -33 21.5 -54t52.5 -21q32 0 53.5 20.5t21.5 54.5v51h31v-51q0 -48 -30 -76t-76 -28t-75.5 28t-29.5 76v342q0 47 30 75.5t75 28.5q46 0 76 -28.5t30 -75.5zM87 436v-184l129 63q20 10 20 36v85q0 34 -21.5 54.5t-53.5 20.5
q-31 0 -52.5 -20.5t-21.5 -54.5zM225 710l-71 -108h-29l64 108h36z" />
    <glyph glyph-name="ecircumflex" unicode="&#xea;" horiz-adv-x="317" 
d="M267 436v-85q0 -43 -41 -64l-139 -69v-124q0 -33 21.5 -54t52.5 -21q32 0 53.5 20.5t21.5 54.5v51h31v-51q0 -48 -30 -76t-76 -28t-75.5 28t-29.5 76v342q0 47 30 75.5t75 28.5q46 0 76 -28.5t30 -75.5zM87 436v-184l129 63q20 10 20 36v85q0 34 -21.5 54.5t-53.5 20.5
q-31 0 -52.5 -20.5t-21.5 -54.5zM176 710l66 -108h-29l-52 82l-52 -82h-29l66 108h30z" />
    <glyph glyph-name="edieresis" unicode="&#xeb;" horiz-adv-x="317" 
d="M267 436v-85q0 -43 -41 -64l-139 -69v-124q0 -33 21.5 -54t52.5 -21q32 0 53.5 20.5t21.5 54.5v51h31v-51q0 -48 -30 -76t-76 -28t-75.5 28t-29.5 76v342q0 47 30 75.5t75 28.5q46 0 76 -28.5t30 -75.5zM87 436v-184l129 63q20 10 20 36v85q0 34 -21.5 54.5t-53.5 20.5
q-31 0 -52.5 -20.5t-21.5 -54.5zM91 670q0 23 23 23q24 0 24 -23q0 -10 -6.5 -17t-17.5 -7q-10 0 -16.5 7t-6.5 17zM182 670q0 23 23 23q24 0 24 -23q0 -10 -6.5 -17t-17.5 -7q-10 0 -16.5 7t-6.5 17z" />
    <glyph glyph-name="igrave" unicode="&#xec;" horiz-adv-x="159" 
d="M64 530h31v-530h-31v530zM85 602l-71 108h36l64 -108h-29z" />
    <glyph glyph-name="iacute" unicode="&#xed;" horiz-adv-x="159" 
d="M64 530h31v-530h-31v530zM143 710l-71 -108h-29l64 108h36z" />
    <glyph glyph-name="icircumflex" unicode="&#xee;" horiz-adv-x="159" 
d="M64 530h31v-530h-31v530zM94 710l66 -108h-29l-52 82l-52 -82h-29l66 108h30z" />
    <glyph glyph-name="idieresis" unicode="&#xef;" horiz-adv-x="159" 
d="M64 530h31v-530h-31v530zM9 670q0 23 23 23q24 0 24 -23q0 -10 -6.5 -17t-17.5 -7q-10 0 -16.5 7t-6.5 17zM100 670q0 23 23 23q24 0 24 -23q0 -10 -6.5 -17t-17.5 -7q-10 0 -16.5 7t-6.5 17z" />
    <glyph glyph-name="eth" unicode="&#xf0;" horiz-adv-x="322" 
d="M164 595l-11 19l57 31q-26 36 -73 36q-20 0 -35 -4v28q20 5 35 5q65 0 100 -50l53 29l10 -20l-51 -28q17 -36 17 -87v-460q0 -48 -29.5 -76t-74.5 -28q-46 0 -76 28t-30 76v342q0 48 30 76t75 28q51 0 74 -43v57q0 41 -13 72zM235 94v342q0 34 -21 54.5t-53 20.5
t-53 -20.5t-21 -54.5v-342q0 -35 21 -55t54 -20q32 0 52.5 20t20.5 55z" />
    <glyph glyph-name="ntilde" unicode="&#xf1;" horiz-adv-x="323" 
d="M267 0h-31v436q0 34 -21.5 54.5t-53.5 20.5t-53 -20.5t-21 -54.5v-436h-31v436q0 48 30 76t75 28q46 0 76 -28t30 -76v-436zM90 639h-24q0 29 15 45.5t39 16.5q18 0 42.5 -21t40.5 -21q28 0 30 35h24q-1 -30 -15.5 -46.5t-38.5 -16.5q-18 0 -42.5 21t-40.5 21
q-13 0 -21.5 -9t-8.5 -25z" />
    <glyph glyph-name="ograve" unicode="&#xf2;" horiz-adv-x="323" 
d="M267 436v-342q0 -48 -30 -76t-76 -28t-75.5 28t-29.5 76v342q0 48 30 76t75 28q46 0 76 -28t30 -76zM236 94v342q0 34 -21.5 54.5t-53.5 20.5t-53 -20.5t-21 -54.5v-342q0 -35 21 -55t53 -20q33 0 54 20t21 55zM167 602l-71 108h36l64 -108h-29z" />
    <glyph glyph-name="oacute" unicode="&#xf3;" horiz-adv-x="323" 
d="M267 436v-342q0 -48 -30 -76t-76 -28t-75.5 28t-29.5 76v342q0 48 30 76t75 28q46 0 76 -28t30 -76zM236 94v342q0 34 -21.5 54.5t-53.5 20.5t-53 -20.5t-21 -54.5v-342q0 -35 21 -55t53 -20q33 0 54 20t21 55zM225 710l-71 -108h-29l64 108h36z" />
    <glyph glyph-name="ocircumflex" unicode="&#xf4;" horiz-adv-x="323" 
d="M267 436v-342q0 -48 -30 -76t-76 -28t-75.5 28t-29.5 76v342q0 48 30 76t75 28q46 0 76 -28t30 -76zM236 94v342q0 34 -21.5 54.5t-53.5 20.5t-53 -20.5t-21 -54.5v-342q0 -35 21 -55t53 -20q33 0 54 20t21 55zM176 710l66 -108h-29l-52 82l-52 -82h-29l66 108h30z" />
    <glyph glyph-name="otilde" unicode="&#xf5;" horiz-adv-x="323" 
d="M267 436v-342q0 -48 -30 -76t-76 -28t-75.5 28t-29.5 76v342q0 48 30 76t75 28q46 0 76 -28t30 -76zM236 94v342q0 34 -21.5 54.5t-53.5 20.5t-53 -20.5t-21 -54.5v-342q0 -35 21 -55t53 -20q33 0 54 20t21 55zM90 639h-24q0 29 15 45.5t39 16.5q18 0 42.5 -21t40.5 -21
q28 0 30 35h24q-1 -30 -15.5 -46.5t-38.5 -16.5q-18 0 -42.5 21t-40.5 21q-13 0 -21.5 -9t-8.5 -25z" />
    <glyph glyph-name="odieresis" unicode="&#xf6;" horiz-adv-x="323" 
d="M267 436v-342q0 -48 -30 -76t-76 -28t-75.5 28t-29.5 76v342q0 48 30 76t75 28q46 0 76 -28t30 -76zM236 94v342q0 34 -21.5 54.5t-53.5 20.5t-53 -20.5t-21 -54.5v-342q0 -35 21 -55t53 -20q33 0 54 20t21 55zM91 670q0 23 23 23q24 0 24 -23q0 -10 -6.5 -17t-17.5 -7
q-10 0 -16.5 7t-6.5 17zM182 670q0 23 23 23q24 0 24 -23q0 -10 -6.5 -17t-17.5 -7q-10 0 -16.5 7t-6.5 17z" />
    <glyph glyph-name="divide" unicode="&#xf7;" 
d="M191 391h-30v50h30v-50zM191 121h-30v50h30v-50zM38 263v28h276v-28h-276z" />
    <glyph glyph-name="oslash" unicode="&#xf8;" horiz-adv-x="323" 
d="M267 436v-342q0 -48 -30 -76t-76 -28q-34 0 -61 16l-12 -44l-22 7l15 54q-25 28 -25 71v342q0 48 30 76t75 28q29 0 56 -15l12 43l22 -7l-14 -50q30 -30 30 -75zM236 94v342q0 22 -9 38l-119 -436q20 -19 53 -19t54 20t21 55zM87 94q0 -19 5 -30l117 431q-21 16 -48 16
q-32 0 -53 -20.5t-21 -54.5v-342z" />
    <glyph glyph-name="ugrave" unicode="&#xf9;" horiz-adv-x="323" 
d="M236 530h31v-436q0 -48 -30 -76t-76 -28q-45 0 -75 28t-30 76v436h31v-436q0 -35 21 -55t53 -20q33 0 54 20t21 55v436zM167 602l-71 108h36l64 -108h-29z" />
    <glyph glyph-name="uacute" unicode="&#xfa;" horiz-adv-x="323" 
d="M236 530h31v-436q0 -48 -30 -76t-76 -28q-45 0 -75 28t-30 76v436h31v-436q0 -35 21 -55t53 -20q33 0 54 20t21 55v436zM225 710l-71 -108h-29l64 108h36z" />
    <glyph glyph-name="ucircumflex" unicode="&#xfb;" horiz-adv-x="323" 
d="M236 530h31v-436q0 -48 -30 -76t-76 -28q-45 0 -75 28t-30 76v436h31v-436q0 -35 21 -55t53 -20q33 0 54 20t21 55v436zM176 710l66 -108h-29l-52 82l-52 -82h-29l66 108h30z" />
    <glyph glyph-name="udieresis" unicode="&#xfc;" horiz-adv-x="323" 
d="M236 530h31v-436q0 -48 -30 -76t-76 -28q-45 0 -75 28t-30 76v436h31v-436q0 -35 21 -55t53 -20q33 0 54 20t21 55v436zM91 670q0 23 23 23q24 0 24 -23q0 -10 -6.5 -17t-17.5 -7q-10 0 -16.5 7t-6.5 17zM182 670q0 23 23 23q24 0 24 -23q0 -10 -6.5 -17t-17.5 -7
q-10 0 -16.5 7t-6.5 17z" />
    <glyph glyph-name="yacute" unicode="&#xfd;" horiz-adv-x="323" 
d="M236 530h31v-628q0 -46 -30 -74t-75 -28q-49 0 -77 27t-28 75q0 13 5 27t9 21t6 9l27 -12q-17 -24 -17 -45q0 -33 22 -53t53 -20q32 0 53 19.5t21 53.5v126q-25 -38 -75 -38q-45 0 -75 28t-30 76v436h31v-436q0 -34 21.5 -54.5t52.5 -20.5t53 20t22 55v436zM225 710
l-71 -108h-29l64 108h36z" />
    <glyph glyph-name="thorn" unicode="&#xfe;" horiz-adv-x="323" 
d="M267 436v-342q0 -48 -30 -76t-76 -28q-53 0 -74 38v-222h-31v934h31v-239q23 39 74 39q46 0 76 -28t30 -76zM236 94v342q0 34 -21.5 54.5t-53.5 20.5t-53 -20.5t-21 -54.5v-342q0 -35 21 -55t53 -20t53.5 20t21.5 55z" />
    <glyph glyph-name="ydieresis" unicode="&#xff;" horiz-adv-x="323" 
d="M236 530h31v-628q0 -46 -30 -74t-75 -28q-49 0 -77 27t-28 75q0 13 5 27t9 21t6 9l27 -12q-17 -24 -17 -45q0 -33 22 -53t53 -20q32 0 53 19.5t21 53.5v126q-25 -38 -75 -38q-45 0 -75 28t-30 76v436h31v-436q0 -34 21.5 -54.5t52.5 -20.5t53 20t22 55v436zM91 670
q0 23 23 23q24 0 24 -23q0 -10 -6.5 -17t-17.5 -7q-10 0 -16.5 7t-6.5 17zM182 670q0 23 23 23q24 0 24 -23q0 -10 -6.5 -17t-17.5 -7q-10 0 -16.5 7t-6.5 17z" />
    <glyph glyph-name="Amacron" unicode="&#x100;" 
d="M91 0h-31v594q0 54 31.5 85t84.5 31t84.5 -31t31.5 -85v-594h-31v286h-170v-286zM91 594v-279h170v279q0 38 -24 62.5t-61 24.5q-38 0 -61.5 -23.5t-23.5 -63.5zM93 777v27h166v-27h-166z" />
    <glyph glyph-name="amacron" unicode="&#x101;" horiz-adv-x="317" 
d="M156 19q32 0 53 20.5t21 54.5v201l-102 -48q-47 -22 -47 -76v-77q0 -34 21.5 -54.5t53.5 -20.5zM261 436v-342q0 -47 -29.5 -75.5t-75.5 -28.5q-45 0 -75.5 28.5t-30.5 75.5v77q0 72 67 103l113 53v109q0 33 -22 54t-53 21q-32 0 -53 -20.5t-21 -54.5v-45h-31v45
q0 47 29.5 75.5t75.5 28.5q47 0 76.5 -28.5t29.5 -75.5zM72 637v27h166v-27h-166z" />
    <glyph glyph-name="Abreve" unicode="&#x102;" 
d="M91 0h-31v594q0 54 31.5 85t84.5 31t84.5 -31t31.5 -85v-594h-31v286h-170v-286zM91 594v-279h170v279q0 38 -24 62.5t-61 24.5q-38 0 -61.5 -23.5t-23.5 -63.5zM223 835h26q-1 -34 -21.5 -56t-52.5 -22q-31 0 -51.5 22t-20.5 56h26q0 -22 13 -36.5t33 -14.5q22 0 35 14
t13 37z" />
    <glyph glyph-name="abreve" unicode="&#x103;" horiz-adv-x="317" 
d="M156 19q32 0 53 20.5t21 54.5v201l-102 -48q-47 -22 -47 -76v-77q0 -34 21.5 -54.5t53.5 -20.5zM261 436v-342q0 -47 -29.5 -75.5t-75.5 -28.5q-45 0 -75.5 28.5t-30.5 75.5v77q0 72 67 103l113 53v109q0 33 -22 54t-53 21q-32 0 -53 -20.5t-21 -54.5v-45h-31v45
q0 47 29.5 75.5t75.5 28.5q47 0 76.5 -28.5t29.5 -75.5zM202 695h26q-1 -34 -21.5 -56t-52.5 -22q-31 0 -51.5 22t-20.5 56h26q0 -22 13 -36.5t33 -14.5q22 0 35 14t13 37z" />
    <glyph glyph-name="Aogonek" unicode="&#x104;" 
d="M91 0h-31v594q0 54 31.5 85t84.5 31t84.5 -31t31.5 -85v-594q-19 -10 -38 -33.5t-19 -46.5q0 -17 9.5 -27t24.5 -10t23 5v-24q-14 -8 -29 -8q-23 0 -39.5 15t-16.5 41q0 27 20.5 52t40.5 36h-7v286h-170v-286zM91 594v-279h170v279q0 38 -24 62.5t-61 24.5
q-38 0 -61.5 -23.5t-23.5 -63.5z" />
    <glyph glyph-name="aogonek" unicode="&#x105;" horiz-adv-x="317" 
d="M261 436v-342q0 -68 -60 -95q-17 -8 -35.5 -32t-18.5 -47q0 -17 9.5 -27t24.5 -10t23 5v-24q-14 -8 -29 -8q-23 0 -39.5 15t-16.5 41q0 41 47 79q-4 -1 -10 -1q-45 0 -75.5 28.5t-30.5 75.5v77q0 72 67 103l113 53v109q0 33 -22 54t-53 21q-32 0 -53 -20.5t-21 -54.5v-45
h-31v45q0 47 29.5 75.5t75.5 28.5q47 0 76.5 -28.5t29.5 -75.5zM156 19q32 0 53 20.5t21 54.5v201l-102 -48q-47 -22 -47 -76v-77q0 -34 21.5 -54.5t53.5 -20.5z" />
    <glyph glyph-name="Cacute" unicode="&#x106;" horiz-adv-x="334" 
d="M292 537h-31v58q0 38 -24 62t-61 24q-38 0 -61.5 -23.5t-23.5 -62.5v-489q0 -39 24.5 -63t60.5 -24q40 0 62.5 23t22.5 64v60h31v-60q0 -54 -31.5 -85t-84.5 -31t-84.5 31t-31.5 85v489q0 53 31.5 84t84.5 31t84.5 -31t31.5 -84v-58zM240 850l-71 -108h-29l64 108h36z
" />
    <glyph glyph-name="cacute" unicode="&#x107;" horiz-adv-x="303" 
d="M236 145h31v-51q0 -48 -30 -76t-76 -28q-45 0 -75 28t-30 76v342q0 47 30 75.5t75 28.5q46 0 76 -28t30 -76v-45h-31v45q0 34 -21.5 54.5t-53.5 20.5t-53 -20.5t-21 -54.5v-342q0 -35 21 -55t53 -20q33 0 54 20t21 55v51zM225 710l-71 -108h-29l64 108h36z" />
    <glyph glyph-name="Ccircumflex" unicode="&#x108;" horiz-adv-x="334" 
d="M292 537h-31v58q0 38 -24 62t-61 24q-38 0 -61.5 -23.5t-23.5 -62.5v-489q0 -39 24.5 -63t60.5 -24q40 0 62.5 23t22.5 64v60h31v-60q0 -54 -31.5 -85t-84.5 -31t-84.5 31t-31.5 85v489q0 53 31.5 84t84.5 31t84.5 -31t31.5 -84v-58zM191 850l66 -108h-29l-52 82l-52 -82
h-29l66 108h30z" />
    <glyph glyph-name="ccircumflex" unicode="&#x109;" horiz-adv-x="303" 
d="M236 145h31v-51q0 -48 -30 -76t-76 -28q-45 0 -75 28t-30 76v342q0 47 30 75.5t75 28.5q46 0 76 -28t30 -76v-45h-31v45q0 34 -21.5 54.5t-53.5 20.5t-53 -20.5t-21 -54.5v-342q0 -35 21 -55t53 -20q33 0 54 20t21 55v51zM176 710l66 -108h-29l-52 82l-52 -82h-29l66 108
h30z" />
    <glyph glyph-name="Cdotaccent" unicode="&#x10a;" horiz-adv-x="334" 
d="M292 537h-31v58q0 38 -24 62t-61 24q-38 0 -61.5 -23.5t-23.5 -62.5v-489q0 -39 24.5 -63t60.5 -24q40 0 62.5 23t22.5 64v60h31v-60q0 -54 -31.5 -85t-84.5 -31t-84.5 31t-31.5 85v489q0 53 31.5 84t84.5 31t84.5 -31t31.5 -84v-58zM153 810q0 23 23 23q24 0 24 -23
q0 -10 -6.5 -17t-17.5 -7q-10 0 -16.5 7t-6.5 17z" />
    <glyph glyph-name="cdotaccent" unicode="&#x10b;" horiz-adv-x="303" 
d="M236 145h31v-51q0 -48 -30 -76t-76 -28q-45 0 -75 28t-30 76v342q0 47 30 75.5t75 28.5q46 0 76 -28t30 -76v-45h-31v45q0 34 -21.5 54.5t-53.5 20.5t-53 -20.5t-21 -54.5v-342q0 -35 21 -55t53 -20q33 0 54 20t21 55v51zM138 670q0 23 23 23q24 0 24 -23q0 -10 -6.5 -17
t-17.5 -7q-10 0 -16.5 7t-6.5 17z" />
    <glyph glyph-name="Ccaron" unicode="&#x10c;" horiz-adv-x="334" 
d="M292 537h-31v58q0 38 -24 62t-61 24q-38 0 -61.5 -23.5t-23.5 -62.5v-489q0 -39 24.5 -63t60.5 -24q40 0 62.5 23t22.5 64v60h31v-60q0 -54 -31.5 -85t-84.5 -31t-84.5 31t-31.5 85v489q0 53 31.5 84t84.5 31t84.5 -31t31.5 -84v-58zM257 850l-66 -108h-30l-66 108h29
l52 -82l52 82h29z" />
    <glyph glyph-name="ccaron" unicode="&#x10d;" horiz-adv-x="303" 
d="M236 145h31v-51q0 -48 -30 -76t-76 -28q-45 0 -75 28t-30 76v342q0 47 30 75.5t75 28.5q46 0 76 -28t30 -76v-45h-31v45q0 34 -21.5 54.5t-53.5 20.5t-53 -20.5t-21 -54.5v-342q0 -35 21 -55t53 -20q33 0 54 20t21 55v51zM242 710l-66 -108h-30l-66 108h29l52 -82l52 82
h29z" />
    <glyph glyph-name="Dcaron" unicode="&#x10e;" 
d="M176 0h-116v700h116q54 0 85 -31t31 -84v-469q0 -54 -31 -85t-85 -31zM91 671v-642h85q38 0 61.5 24t23.5 63v469q0 39 -23.5 62.5t-61.5 23.5h-85zM253 850l-66 -108h-30l-66 108h29l52 -82l52 82h29z" />
    <glyph glyph-name="dcaron" unicode="&#x10f;" horiz-adv-x="363" 
d="M332 739l29 4q5 -22 5 -40q0 -51 -30 -96l-22 5q23 42 23 90q0 17 -5 37zM267 740v-646q0 -48 -30 -76t-76 -28q-45 0 -75 28t-30 76v342q0 47 30 75.5t75 28.5q50 0 75 -39v239h31zM87 436v-342q0 -35 21 -55t53 -20q33 0 54 20t21 55v342q0 34 -21.5 54.5t-53.5 20.5
t-53 -20.5t-21 -54.5z" />
    <glyph glyph-name="Dcroat" unicode="&#x110;" 
d="M20 337v28h40v335h116q54 0 85 -31t31 -84v-469q0 -54 -31 -85t-85 -31h-116v337h-40zM91 671v-306h85v-28h-85v-308h85q38 0 61.5 24t23.5 63v469q0 39 -23.5 62.5t-61.5 23.5h-85z" />
    <glyph glyph-name="dcroat" unicode="&#x111;" horiz-adv-x="323" 
d="M267 740v-97h46v-27h-46v-522q0 -48 -30 -76t-76 -28q-45 0 -75 28t-30 76v342q0 47 30 75.5t75 28.5q50 0 75 -39v115h-79v27h79v97h31zM87 436v-342q0 -35 21 -55t53 -20q33 0 54 20t21 55v342q0 34 -21.5 54.5t-53.5 20.5t-53 -20.5t-21 -54.5z" />
    <glyph glyph-name="Emacron" unicode="&#x112;" horiz-adv-x="284" 
d="M60 0v700h192v-29h-161v-304h145v-29h-145v-309h161v-29h-192zM75 777v27h166v-27h-166z" />
    <glyph glyph-name="emacron" unicode="&#x113;" horiz-adv-x="317" 
d="M267 436v-85q0 -43 -41 -64l-139 -69v-124q0 -33 21.5 -54t52.5 -21q32 0 53.5 20.5t21.5 54.5v51h31v-51q0 -48 -30 -76t-76 -28t-75.5 28t-29.5 76v342q0 47 30 75.5t75 28.5q46 0 76 -28.5t30 -75.5zM87 436v-184l129 63q20 10 20 36v85q0 34 -21.5 54.5t-53.5 20.5
q-31 0 -52.5 -20.5t-21.5 -54.5zM78 637v27h166v-27h-166z" />
    <glyph glyph-name="Ebreve" unicode="&#x114;" horiz-adv-x="284" 
d="M60 0v700h192v-29h-161v-304h145v-29h-145v-309h161v-29h-192zM205 835h26q-1 -34 -21.5 -56t-52.5 -22q-31 0 -51.5 22t-20.5 56h26q0 -22 13 -36.5t33 -14.5q22 0 35 14t13 37z" />
    <glyph glyph-name="ebreve" unicode="&#x115;" horiz-adv-x="317" 
d="M267 436v-85q0 -43 -41 -64l-139 -69v-124q0 -33 21.5 -54t52.5 -21q32 0 53.5 20.5t21.5 54.5v51h31v-51q0 -48 -30 -76t-76 -28t-75.5 28t-29.5 76v342q0 47 30 75.5t75 28.5q46 0 76 -28.5t30 -75.5zM87 436v-184l129 63q20 10 20 36v85q0 34 -21.5 54.5t-53.5 20.5
q-31 0 -52.5 -20.5t-21.5 -54.5zM208 695h26q-1 -34 -21.5 -56t-52.5 -22q-31 0 -51.5 22t-20.5 56h26q0 -22 13 -36.5t33 -14.5q22 0 35 14t13 37z" />
    <glyph glyph-name="Edotaccent" unicode="&#x116;" horiz-adv-x="284" 
d="M60 0v700h192v-29h-161v-304h145v-29h-145v-309h161v-29h-192zM135 810q0 23 23 23q24 0 24 -23q0 -10 -6.5 -17t-17.5 -7q-10 0 -16.5 7t-6.5 17z" />
    <glyph glyph-name="edotaccent" unicode="&#x117;" horiz-adv-x="317" 
d="M267 436v-85q0 -43 -41 -64l-139 -69v-124q0 -33 21.5 -54t52.5 -21q32 0 53.5 20.5t21.5 54.5v51h31v-51q0 -48 -30 -76t-76 -28t-75.5 28t-29.5 76v342q0 47 30 75.5t75 28.5q46 0 76 -28.5t30 -75.5zM87 436v-184l129 63q20 10 20 36v85q0 34 -21.5 54.5t-53.5 20.5
q-31 0 -52.5 -20.5t-21.5 -54.5zM138 670q0 23 23 23q24 0 24 -23q0 -10 -6.5 -17t-17.5 -7q-10 0 -16.5 7t-6.5 17z" />
    <glyph glyph-name="Eogonek" unicode="&#x118;" horiz-adv-x="284" 
d="M60 0v700h192v-29h-161v-304h145v-29h-145v-309h161v-29q-19 -10 -38 -33.5t-19 -46.5q0 -17 9.5 -27t24.5 -10t23 5v-24q-14 -8 -29 -8q-23 0 -39.5 15t-16.5 41q0 27 20.5 52t40.5 36h-168z" />
    <glyph glyph-name="eogonek" unicode="&#x119;" horiz-adv-x="317" 
d="M267 436v-85q0 -43 -41 -64l-139 -69v-124q0 -33 21.5 -54t52.5 -21q32 0 53.5 20.5t21.5 54.5v51h31v-51q0 -69 -58 -94q-17 -7 -36.5 -32t-19.5 -48q0 -17 9.5 -27t24.5 -10t23 5v-24q-14 -8 -29 -8q-23 0 -39.5 15t-16.5 41q0 41 47 79q-4 -1 -11 -1q-46 0 -75.5 28
t-29.5 76v342q0 47 30 75.5t75 28.5q46 0 76 -28.5t30 -75.5zM87 436v-184l129 63q20 10 20 36v85q0 34 -21.5 54.5t-53.5 20.5q-31 0 -52.5 -20.5t-21.5 -54.5z" />
    <glyph glyph-name="Ecaron" unicode="&#x11a;" horiz-adv-x="284" 
d="M60 0v700h192v-29h-161v-304h145v-29h-145v-309h161v-29h-192zM239 850l-66 -108h-30l-66 108h29l52 -82l52 82h29z" />
    <glyph glyph-name="ecaron" unicode="&#x11b;" horiz-adv-x="317" 
d="M267 436v-85q0 -43 -41 -64l-139 -69v-124q0 -33 21.5 -54t52.5 -21q32 0 53.5 20.5t21.5 54.5v51h31v-51q0 -48 -30 -76t-76 -28t-75.5 28t-29.5 76v342q0 47 30 75.5t75 28.5q46 0 76 -28.5t30 -75.5zM87 436v-184l129 63q20 10 20 36v85q0 34 -21.5 54.5t-53.5 20.5
q-31 0 -52.5 -20.5t-21.5 -54.5zM242 710l-66 -108h-30l-66 108h29l52 -82l52 82h29z" />
    <glyph glyph-name="Gcircumflex" unicode="&#x11c;" 
d="M180 338v29h112v-261q0 -54 -31.5 -85t-84.5 -31t-84.5 31t-31.5 85v489q0 53 31.5 84t84.5 31t84.5 -31t31.5 -84v-57h-31v57q0 39 -23.5 62.5t-61.5 23.5t-61.5 -23.5t-23.5 -62.5v-489q0 -40 23.5 -63.5t61.5 -23.5q40 0 62.5 23t22.5 64v232h-81zM191 850l66 -108
h-29l-52 82l-52 -82h-29l66 108h30z" />
    <glyph glyph-name="gcircumflex" unicode="&#x11d;" horiz-adv-x="323" 
d="M267 436v-534q0 -46 -30 -74t-75 -28q-49 0 -77 27t-28 75q0 13 5 27.5t9.5 21t6.5 8.5l27 -12q-18 -24 -18 -45q0 -33 22 -53t53 -20q32 0 53 19.5t21 53.5v126q-25 -38 -75 -38q-45 0 -75 28t-30 76v342q0 47 30 75.5t75 28.5q46 0 76 -28t30 -76zM236 94v342
q0 34 -21.5 54.5t-53.5 20.5t-53 -20.5t-21 -54.5v-342q0 -35 21 -55t53 -20q33 0 54 20t21 55zM176 710l66 -108h-29l-52 82l-52 -82h-29l66 108h30z" />
    <glyph glyph-name="Gbreve" unicode="&#x11e;" 
d="M180 338v29h112v-261q0 -54 -31.5 -85t-84.5 -31t-84.5 31t-31.5 85v489q0 53 31.5 84t84.5 31t84.5 -31t31.5 -84v-57h-31v57q0 39 -23.5 62.5t-61.5 23.5t-61.5 -23.5t-23.5 -62.5v-489q0 -40 23.5 -63.5t61.5 -23.5q40 0 62.5 23t22.5 64v232h-81zM223 835h26
q-1 -34 -21.5 -56t-52.5 -22q-31 0 -51.5 22t-20.5 56h26q0 -22 13 -36.5t33 -14.5q22 0 35 14t13 37z" />
    <glyph glyph-name="gbreve" unicode="&#x11f;" horiz-adv-x="323" 
d="M267 436v-534q0 -46 -30 -74t-75 -28q-49 0 -77 27t-28 75q0 13 5 27.5t9.5 21t6.5 8.5l27 -12q-18 -24 -18 -45q0 -33 22 -53t53 -20q32 0 53 19.5t21 53.5v126q-25 -38 -75 -38q-45 0 -75 28t-30 76v342q0 47 30 75.5t75 28.5q46 0 76 -28t30 -76zM236 94v342
q0 34 -21.5 54.5t-53.5 20.5t-53 -20.5t-21 -54.5v-342q0 -35 21 -55t53 -20q33 0 54 20t21 55zM208 695h26q-1 -34 -21.5 -56t-52.5 -22q-31 0 -51.5 22t-20.5 56h26q0 -22 13 -36.5t33 -14.5q22 0 35 14t13 37z" />
    <glyph glyph-name="Gdotaccent" unicode="&#x120;" 
d="M180 338v29h112v-261q0 -54 -31.5 -85t-84.5 -31t-84.5 31t-31.5 85v489q0 53 31.5 84t84.5 31t84.5 -31t31.5 -84v-57h-31v57q0 39 -23.5 62.5t-61.5 23.5t-61.5 -23.5t-23.5 -62.5v-489q0 -40 23.5 -63.5t61.5 -23.5q40 0 62.5 23t22.5 64v232h-81zM153 810q0 23 23 23
q24 0 24 -23q0 -10 -6.5 -17t-17.5 -7q-10 0 -16.5 7t-6.5 17z" />
    <glyph glyph-name="gdotaccent" unicode="&#x121;" horiz-adv-x="323" 
d="M267 436v-534q0 -46 -30 -74t-75 -28q-49 0 -77 27t-28 75q0 13 5 27.5t9.5 21t6.5 8.5l27 -12q-18 -24 -18 -45q0 -33 22 -53t53 -20q32 0 53 19.5t21 53.5v126q-25 -38 -75 -38q-45 0 -75 28t-30 76v342q0 47 30 75.5t75 28.5q46 0 76 -28t30 -76zM236 94v342
q0 34 -21.5 54.5t-53.5 20.5t-53 -20.5t-21 -54.5v-342q0 -35 21 -55t53 -20q33 0 54 20t21 55zM138 670q0 23 23 23q24 0 24 -23q0 -10 -6.5 -17t-17.5 -7q-10 0 -16.5 7t-6.5 17z" />
    <glyph glyph-name="Gcommaaccent" unicode="&#x122;" 
d="M180 338v29h112v-261q0 -54 -31.5 -85t-84.5 -31t-84.5 31t-31.5 85v489q0 53 31.5 84t84.5 31t84.5 -31t31.5 -84v-57h-31v57q0 39 -23.5 62.5t-61.5 23.5t-61.5 -23.5t-23.5 -62.5v-489q0 -40 23.5 -63.5t61.5 -23.5q40 0 62.5 23t22.5 64v232h-81zM166 -52l27 10
q17 -15 17 -42q0 -22 -11.5 -39.5t-39.5 -42.5l-18 11q24 23 32.5 38t8.5 33q0 16 -16 32z" />
    <glyph glyph-name="gcommaaccent" unicode="&#x123;" horiz-adv-x="323" 
d="M178 601l-27 -10q-17 15 -17 42q0 22 11.5 39.5t39.5 42.5l18 -11q-24 -23 -32.5 -38t-8.5 -33q0 -16 16 -32zM267 436v-534q0 -46 -30 -74t-75 -28q-49 0 -77 27t-28 75q0 13 5 27.5t9.5 21t6.5 8.5l27 -12q-18 -24 -18 -45q0 -33 22 -53t53 -20q32 0 53 19.5t21 53.5
v126q-25 -38 -75 -38q-45 0 -75 28t-30 76v342q0 47 30 75.5t75 28.5q46 0 76 -28t30 -76zM236 94v342q0 34 -21.5 54.5t-53.5 20.5t-53 -20.5t-21 -54.5v-342q0 -35 21 -55t53 -20q33 0 54 20t21 55z" />
    <glyph glyph-name="Hcircumflex" unicode="&#x124;" 
d="M91 700v-333h170v333h31v-700h-31v338h-170v-338h-31v700h31zM191 850l66 -108h-29l-52 82l-52 -82h-29l66 108h30z" />
    <glyph glyph-name="hcircumflex" unicode="&#x125;" horiz-adv-x="323" 
d="M267 0h-31v436q0 34 -21.5 54.5t-53.5 20.5t-53 -20.5t-21 -54.5v-436h-31v740h31v-239q23 39 74 39q46 0 76 -28t30 -76v-436zM88 850l66 -108h-29l-52 82l-52 -82h-29l66 108h30z" />
    <glyph glyph-name="Hbar" unicode="&#x126;" 
d="M91 700v-162h170v162h31v-162h40v-27h-40v-511h-31v338h-170v-338h-31v511h-40v27h40v162h31zM91 367h170v144h-170v-144z" />
    <glyph glyph-name="hbar" unicode="&#x127;" horiz-adv-x="323" 
d="M10 616v27h46v97h31v-97h79v-27h-79v-115q23 39 74 39q46 0 76 -28t30 -76v-436h-31v436q0 34 -21.5 54.5t-53.5 20.5t-53 -20.5t-21 -54.5v-436h-31v616h-46z" />
    <glyph glyph-name="Itilde" unicode="&#x128;" horiz-adv-x="159" 
d="M95 700v-700h-31v700h31zM9 779h-24q0 29 15 45.5t39 16.5q18 0 42.5 -21t40.5 -21q28 0 30 35h24q-1 -30 -15.5 -46.5t-38.5 -16.5q-18 0 -42.5 21t-40.5 21q-13 0 -21.5 -9t-8.5 -25z" />
    <glyph glyph-name="itilde" unicode="&#x129;" horiz-adv-x="159" 
d="M64 530h31v-530h-31v530zM8 639h-24q0 29 15 45.5t39 16.5q18 0 42.5 -21t40.5 -21q28 0 30 35h24q-1 -30 -15.5 -46.5t-38.5 -16.5q-18 0 -42.5 21t-40.5 21q-13 0 -21.5 -9t-8.5 -25z" />
    <glyph glyph-name="Imacron" unicode="&#x12a;" horiz-adv-x="159" 
d="M95 700v-700h-31v700h31zM-3 777v27h166v-27h-166z" />
    <glyph glyph-name="imacron" unicode="&#x12b;" horiz-adv-x="159" 
d="M64 530h31v-530h-31v530zM-4 637v27h166v-27h-166z" />
    <glyph glyph-name="Ibreve" unicode="&#x12c;" horiz-adv-x="159" 
d="M95 700v-700h-31v700h31zM127 835h26q-1 -34 -21.5 -56t-52.5 -22q-31 0 -51.5 22t-20.5 56h26q0 -22 13 -36.5t33 -14.5q22 0 35 14t13 37z" />
    <glyph glyph-name="ibreve" unicode="&#x12d;" horiz-adv-x="159" 
d="M64 530h31v-530h-31v530zM126 695h26q-1 -34 -21.5 -56t-52.5 -22q-31 0 -51.5 22t-20.5 56h26q0 -22 13 -36.5t33 -14.5q22 0 35 14t13 37z" />
    <glyph glyph-name="Iogonek" unicode="&#x12e;" horiz-adv-x="159" 
d="M95 700v-700q-19 -10 -38 -33.5t-19 -46.5q0 -17 9.5 -27t24.5 -10t23 5v-24q-14 -8 -29 -8q-23 0 -39.5 15t-16.5 41q0 27 20.5 52t40.5 36h-7v700h31z" />
    <glyph glyph-name="iogonek" unicode="&#x12f;" horiz-adv-x="159" 
d="M64 530h31v-530q-19 -10 -38 -33.5t-19 -46.5q0 -17 9.5 -27t24.5 -10t23 5v-24q-14 -8 -29 -8q-23 0 -39.5 15t-16.5 41q0 27 20.5 52t40.5 36h-7v530zM56 670q0 23 23 23q24 0 24 -23q0 -10 -6.5 -17t-17.5 -7q-10 0 -16.5 7t-6.5 17z" />
    <glyph glyph-name="Idotaccent" unicode="&#x130;" horiz-adv-x="159" 
d="M95 700v-700h-31v700h31zM57 810q0 23 23 23q24 0 24 -23q0 -10 -6.5 -17t-17.5 -7q-10 0 -16.5 7t-6.5 17z" />
    <glyph glyph-name="dotlessi" unicode="&#x131;" horiz-adv-x="159" 
d="M64 530h31v-530h-31v530z" />
    <glyph glyph-name="IJ" unicode="&#x132;" horiz-adv-x="464" 
d="M95 700v-700h-31v700h31zM211 671v29h193v-603q0 -49 -29 -78t-77 -29q-47 0 -76 29.5t-29 77.5v71h31v-71q0 -35 20 -57t54 -22t54.5 22t20.5 57v574h-162z" />
    <glyph glyph-name="ij" unicode="&#x133;" horiz-adv-x="310" 
d="M215 530h31v-632q0 -46 -24 -72t-67 -26t-67 25.5t-24 72.5v37h31v-37q0 -33 16 -51.5t44 -18.5t44 18.5t16 51.5v632zM64 530h31v-530h-31v530zM56 670q0 23 23 23q24 0 24 -23q0 -10 -6.5 -17t-17.5 -7q-10 0 -16.5 7t-6.5 17zM207 670q0 23 23 23q24 0 24 -23
q0 -10 -6.5 -17t-17.5 -7q-10 0 -16.5 7t-6.5 17z" />
    <glyph glyph-name="Jcircumflex" unicode="&#x134;" horiz-adv-x="305" 
d="M52 671v29h193v-603q0 -49 -29.5 -78t-76.5 -29t-76 29.5t-29 77.5v71h31v-71q0 -35 20 -57t54 -22t54.5 22t20.5 57v574h-162zM169 850l66 -108h-29l-52 82l-52 -82h-29l66 108h30z" />
    <glyph glyph-name="jcircumflex" unicode="&#x135;" horiz-adv-x="159" 
d="M64 530h31v-624q0 -105 -83 -105q-28 0 -45 13l10 27q16 -11 35 -11q52 0 52 76v624zM95 710l66 -108h-29l-52 82l-52 -82h-29l66 108h30z" />
    <glyph glyph-name="Kcommaaccent" unicode="&#x136;" horiz-adv-x="349" 
d="M91 281v-281h-31v700h31v-380l79 77q50 49 71 92t21 104v107h31v-107q0 -112 -81 -196l-27 -28q55 -49 81.5 -99t26.5 -124v-146h-31v146q0 65 -25 110t-73 93zM162 -52l27 10q17 -15 17 -42q0 -22 -11.5 -39.5t-39.5 -42.5l-18 11q24 23 32.5 38t8.5 33q0 16 -16 32z
" />
    <glyph glyph-name="kcommaaccent" unicode="&#x137;" horiz-adv-x="318" 
d="M87 740v-504q83 78 115.5 126.5t32.5 109.5q0 20 -9.5 29.5t-26.5 7.5l4 28q31 2 47 -13.5t16 -50.5q0 -53 -19.5 -95.5t-64.5 -90.5q40 -30 62 -65.5t22 -93.5v-128h-31v128q0 82 -74 137l-33 -31q-34 -31 -41 -36v-198h-31v740h31zM147 -52l27 10q17 -15 17 -42
q0 -22 -11.5 -39.5t-39.5 -42.5l-18 11q24 23 32.5 38t8.5 33q0 16 -16 32z" />
    <glyph glyph-name="kgreenlandic" unicode="&#x138;" horiz-adv-x="318" 
d="M87 530v-294q83 78 115.5 126.5t32.5 109.5q0 20 -9.5 29.5t-26.5 7.5l4 28q31 2 47 -13.5t16 -50.5q0 -53 -19.5 -95.5t-64.5 -90.5q40 -30 62 -65.5t22 -93.5v-128h-31v128q0 82 -74 137l-33 -31q-34 -31 -41 -36v-198h-31v530h31z" />
    <glyph glyph-name="Lacute" unicode="&#x139;" horiz-adv-x="263" 
d="M60 0v700h31v-671h154v-29h-185zM146 850l-71 -108h-29l64 108h36z" />
    <glyph glyph-name="lacute" unicode="&#x13a;" horiz-adv-x="159" 
d="M152 849l-71 -92h-29l64 92h36zM95 740v-740h-31v740h31z" />
    <glyph glyph-name="Lcommaaccent" unicode="&#x13b;" horiz-adv-x="263" 
d="M60 0v700h31v-671h154v-29h-185zM125 -52l27 10q17 -15 17 -42q0 -22 -11.5 -39.5t-39.5 -42.5l-18 11q24 23 32.5 38t8.5 33q0 16 -16 32z" />
    <glyph glyph-name="lcommaaccent" unicode="&#x13c;" horiz-adv-x="159" 
d="M95 740v-740h-31v740h31zM62 -52l27 10q17 -15 17 -42q0 -22 -11.5 -39.5t-39.5 -42.5l-18 11q24 23 32.5 38t8.5 33q0 16 -16 32z" />
    <glyph glyph-name="Lcaron" unicode="&#x13d;" horiz-adv-x="263" 
d="M204 700l29 4q5 -22 5 -40q0 -51 -30 -96l-22 5q23 42 23 90q0 17 -5 37zM60 0v700h31v-671h154v-29h-185z" />
    <glyph glyph-name="lcaron" unicode="&#x13e;" horiz-adv-x="199" 
d="M159 739l29 4q5 -22 5 -40q0 -51 -30 -96l-22 5q23 42 23 90q0 17 -5 37zM95 740v-740h-31v740h31z" />
    <glyph glyph-name="Ldot" unicode="&#x13f;" horiz-adv-x="263" 
d="M60 0v700h31v-671h154v-29h-185zM179 345q0 23 23 23q24 0 24 -23q0 -10 -6.5 -17t-17.5 -7q-10 0 -16.5 7t-6.5 17z" />
    <glyph glyph-name="ldot" unicode="&#x140;" horiz-adv-x="204" 
d="M95 740v-740h-31v740h31zM157 357q0 23 23 23q24 0 24 -23q0 -10 -6.5 -17t-17.5 -7q-10 0 -16.5 7t-6.5 17z" />
    <glyph glyph-name="Lslash" unicode="&#x141;" horiz-adv-x="263" 
d="M10 276v28l50 32v364h31v-343l89 58v-27l-89 -59v-300h154v-29h-185v309z" />
    <glyph glyph-name="lslash" unicode="&#x142;" horiz-adv-x="159" 
d="M95 740v-348l54 36v-28l-54 -36v-364h-31v344l-54 -35v27l54 35v369h31z" />
    <glyph glyph-name="Nacute" unicode="&#x143;" 
d="M91 0h-31v594q0 54 31.5 85t84.5 31t84.5 -31t31.5 -85v-594h-31v594q0 40 -23 63.5t-62 23.5t-62 -23.5t-23 -63.5v-594zM240 850l-71 -108h-29l64 108h36z" />
    <glyph glyph-name="nacute" unicode="&#x144;" horiz-adv-x="323" 
d="M267 0h-31v436q0 34 -21.5 54.5t-53.5 20.5t-53 -20.5t-21 -54.5v-436h-31v436q0 48 30 76t75 28q46 0 76 -28t30 -76v-436zM225 710l-71 -108h-29l64 108h36z" />
    <glyph glyph-name="Ncommaaccent" unicode="&#x145;" 
d="M91 0h-31v594q0 54 31.5 85t84.5 31t84.5 -31t31.5 -85v-594h-31v594q0 40 -23 63.5t-62 23.5t-62 -23.5t-23 -63.5v-594zM163 -52l27 10q17 -15 17 -42q0 -22 -11.5 -39.5t-39.5 -42.5l-18 11q24 23 32.5 38t8.5 33q0 16 -16 32z" />
    <glyph glyph-name="ncommaaccent" unicode="&#x146;" horiz-adv-x="323" 
d="M267 0h-31v436q0 34 -21.5 54.5t-53.5 20.5t-53 -20.5t-21 -54.5v-436h-31v436q0 48 30 76t75 28q46 0 76 -28t30 -76v-436zM149 -52l27 10q17 -15 17 -42q0 -22 -11.5 -39.5t-39.5 -42.5l-18 11q24 23 32.5 38t8.5 33q0 16 -16 32z" />
    <glyph glyph-name="Ncaron" unicode="&#x147;" 
d="M91 0h-31v594q0 54 31.5 85t84.5 31t84.5 -31t31.5 -85v-594h-31v594q0 40 -23 63.5t-62 23.5t-62 -23.5t-23 -63.5v-594zM257 850l-66 -108h-30l-66 108h29l52 -82l52 82h29z" />
    <glyph glyph-name="ncaron" unicode="&#x148;" horiz-adv-x="323" 
d="M267 0h-31v436q0 34 -21.5 54.5t-53.5 20.5t-53 -20.5t-21 -54.5v-436h-31v436q0 48 30 76t75 28q46 0 76 -28t30 -76v-436zM242 710l-66 -108h-30l-66 108h29l52 -82l52 82h29z" />
    <glyph glyph-name="napostrophe" unicode="&#x149;" horiz-adv-x="323" 
d="M45 739l29 4q5 -22 5 -40q0 -51 -30 -96l-22 5q23 42 23 90q0 17 -5 37zM267 0h-31v436q0 34 -21.5 54.5t-53.5 20.5t-53 -20.5t-21 -54.5v-436h-31v436q0 48 30 76t75 28q46 0 76 -28t30 -76v-436z" />
    <glyph glyph-name="Eng" unicode="&#x14a;" 
d="M292 594v-594q0 -105 -83 -105q-26 0 -45 14l10 26q16 -11 35 -11q52 0 52 76v594q0 40 -23 63.5t-62 23.5t-62 -23.5t-23 -63.5v-594h-31v594q0 54 31.5 85t84.5 31t84.5 -31t31.5 -85z" />
    <glyph glyph-name="eng" unicode="&#x14b;" horiz-adv-x="323" 
d="M236 0v436q0 34 -21.5 54.5t-53.5 20.5t-53 -20.5t-21 -54.5v-436h-31v436q0 48 30 76t75 28q46 0 76 -28t30 -76v-436q0 -104 -83 -104q-28 0 -45 13q4 9 10 27q16 -11 35 -11q52 0 52 75z" />
    <glyph glyph-name="Omacron" unicode="&#x14c;" 
d="M292 595v-489q0 -54 -31.5 -85t-84.5 -31t-84.5 31t-31.5 85v489q0 53 31.5 84t84.5 31t84.5 -31.5t31.5 -83.5zM91 595v-489q0 -40 23 -63.5t62 -23.5t62 23.5t23 63.5v489q0 39 -23.5 62.5t-61.5 23.5t-61.5 -23.5t-23.5 -62.5zM93 777v27h166v-27h-166z" />
    <glyph glyph-name="omacron" unicode="&#x14d;" horiz-adv-x="323" 
d="M267 436v-342q0 -48 -30 -76t-76 -28t-75.5 28t-29.5 76v342q0 48 30 76t75 28q46 0 76 -28t30 -76zM236 94v342q0 34 -21.5 54.5t-53.5 20.5t-53 -20.5t-21 -54.5v-342q0 -35 21 -55t53 -20q33 0 54 20t21 55zM78 637v27h166v-27h-166z" />
    <glyph glyph-name="Obreve" unicode="&#x14e;" 
d="M292 595v-489q0 -54 -31.5 -85t-84.5 -31t-84.5 31t-31.5 85v489q0 53 31.5 84t84.5 31t84.5 -31.5t31.5 -83.5zM91 595v-489q0 -40 23 -63.5t62 -23.5t62 23.5t23 63.5v489q0 39 -23.5 62.5t-61.5 23.5t-61.5 -23.5t-23.5 -62.5zM223 835h26q-1 -34 -21.5 -56t-52.5 -22
q-31 0 -51.5 22t-20.5 56h26q0 -22 13 -36.5t33 -14.5q22 0 35 14t13 37z" />
    <glyph glyph-name="obreve" unicode="&#x14f;" horiz-adv-x="323" 
d="M267 436v-342q0 -48 -30 -76t-76 -28t-75.5 28t-29.5 76v342q0 48 30 76t75 28q46 0 76 -28t30 -76zM236 94v342q0 34 -21.5 54.5t-53.5 20.5t-53 -20.5t-21 -54.5v-342q0 -35 21 -55t53 -20q33 0 54 20t21 55zM208 695h26q-1 -34 -21.5 -56t-52.5 -22q-31 0 -51.5 22
t-20.5 56h26q0 -22 13 -36.5t33 -14.5q22 0 35 14t13 37z" />
    <glyph glyph-name="Ohungarumlaut" unicode="&#x150;" 
d="M292 595v-489q0 -54 -31.5 -85t-84.5 -31t-84.5 31t-31.5 85v489q0 53 31.5 84t84.5 31t84.5 -31.5t31.5 -83.5zM91 595v-489q0 -40 23 -63.5t62 -23.5t62 23.5t23 63.5v489q0 39 -23.5 62.5t-61.5 23.5t-61.5 -23.5t-23.5 -62.5zM292 850l-71 -108h-29l64 108h36z
M203 850l-71 -108h-29l64 108h36z" />
    <glyph glyph-name="ohungarumlaut" unicode="&#x151;" horiz-adv-x="323" 
d="M267 436v-342q0 -48 -30 -76t-76 -28t-75.5 28t-29.5 76v342q0 48 30 76t75 28q46 0 76 -28t30 -76zM236 94v342q0 34 -21.5 54.5t-53.5 20.5t-53 -20.5t-21 -54.5v-342q0 -35 21 -55t53 -20q33 0 54 20t21 55zM277 710l-71 -108h-29l64 108h36zM188 710l-71 -108h-29
l64 108h36z" />
    <glyph glyph-name="OE" unicode="&#x152;" horiz-adv-x="481" 
d="M176 700h273v-29h-165v-304h146v-29h-146v-309h165v-29h-273q-54 0 -85 31t-31 85v469q0 53 31 84t85 31zM91 116q0 -40 23.5 -63.5t61.5 -23.5h77v642h-77q-39 0 -62 -23t-23 -63v-469z" />
    <glyph glyph-name="oe" unicode="&#x153;" horiz-adv-x="497" 
d="M447 436v-85q0 -43 -41 -64l-139 -69v-124q0 -34 21 -54.5t53 -20.5t53.5 20.5t21.5 54.5v51h31v-51q0 -48 -30 -76t-76 -28q-30 0 -55 14t-35 38q-11 -24 -35.5 -38t-54.5 -14q-46 0 -75.5 28t-29.5 76v342q0 48 30 76t75 28q30 0 54.5 -14.5t35.5 -38.5
q11 24 35.5 38.5t54.5 14.5q46 0 76 -28.5t30 -75.5zM236 94v342q0 34 -21.5 54.5t-53.5 20.5t-53 -20.5t-21 -54.5v-342q0 -35 21 -55t53 -20q33 0 54 20t21 55zM267 436v-184l129 63q20 10 20 36v85q0 34 -21.5 54.5t-53.5 20.5q-31 0 -52.5 -20.5t-21.5 -54.5z" />
    <glyph glyph-name="Racute" unicode="&#x154;" horiz-adv-x="348" 
d="M292 0h-31v251q0 39 -23 63t-60 24h-87v-338h-31v700h116q53 0 84.5 -31t31.5 -84v-131q0 -36 -19 -65.5t-48 -36.5q30 -7 48.5 -35.5t18.5 -65.5v-251zM176 671h-85v-304h87q38 0 60.5 23.5t22.5 63.5v130q0 40 -23 63.5t-62 23.5zM234 850l-71 -108h-29l64 108h36z" />
    <glyph glyph-name="racute" unicode="&#x155;" horiz-adv-x="274" 
d="M87 437v-437h-31v437q0 49 26 76t70 27t69 -27.5t25 -75.5v-46h-31v46q0 36 -17 55t-46 19t-47 -19t-18 -55zM215 710l-71 -108h-29l64 108h36z" />
    <glyph glyph-name="Rcommaaccent" unicode="&#x156;" horiz-adv-x="348" 
d="M292 0h-31v251q0 39 -23 63t-60 24h-87v-338h-31v700h116q53 0 84.5 -31t31.5 -84v-131q0 -36 -19 -65.5t-48 -36.5q30 -7 48.5 -35.5t18.5 -65.5v-251zM176 671h-85v-304h87q38 0 60.5 23.5t22.5 63.5v130q0 40 -23 63.5t-62 23.5zM161 -52l27 10q17 -15 17 -42
q0 -22 -11.5 -39.5t-39.5 -42.5l-18 11q24 23 32.5 38t8.5 33q0 16 -16 32z" />
    <glyph glyph-name="rcommaaccent" unicode="&#x157;" horiz-adv-x="274" 
d="M87 437v-437h-31v437q0 49 26 76t70 27t69 -27.5t25 -75.5v-46h-31v46q0 36 -17 55t-46 19t-47 -19t-18 -55zM58 -52l27 10q17 -15 17 -42q0 -22 -11.5 -39.5t-39.5 -42.5l-18 11q24 23 32.5 38t8.5 33q0 16 -16 32z" />
    <glyph glyph-name="Rcaron" unicode="&#x158;" horiz-adv-x="348" 
d="M292 0h-31v251q0 39 -23 63t-60 24h-87v-338h-31v700h116q53 0 84.5 -31t31.5 -84v-131q0 -36 -19 -65.5t-48 -36.5q30 -7 48.5 -35.5t18.5 -65.5v-251zM176 671h-85v-304h87q38 0 60.5 23.5t22.5 63.5v130q0 40 -23 63.5t-62 23.5zM252 850l-66 -108h-30l-66 108h29
l52 -82l52 82h29z" />
    <glyph glyph-name="rcaron" unicode="&#x159;" horiz-adv-x="274" 
d="M87 437v-437h-31v437q0 49 26 76t70 27t69 -27.5t25 -75.5v-46h-31v46q0 36 -17 55t-46 19t-47 -19t-18 -55zM232 710l-66 -108h-30l-66 108h29l52 -82l52 82h29z" />
    <glyph glyph-name="Sacute" unicode="&#x15a;" horiz-adv-x="332" 
d="M282 195v-88q0 -55 -31 -86t-85 -31t-85 31t-31 86v58h31v-58q0 -41 23 -64.5t62 -23.5q40 0 62.5 23.5t22.5 64.5v88q0 39 -15 69.5t-37 48.5l-48.5 38t-48.5 39t-37 52t-15 76v75q0 55 31 86t85 31t85 -31t31 -86v-57h-31v57q0 40 -23.5 64t-61.5 24q-39 0 -62 -24
t-23 -64v-75q0 -38 15 -67.5t37 -47l48.5 -38t48.5 -39.5t37 -53t15 -78zM230 850l-71 -108h-29l64 108h36z" />
    <glyph glyph-name="sacute" unicode="&#x15b;" horiz-adv-x="306" 
d="M48 145h31v-51q0 -35 21 -55t53 -20t53 20t21 55v45q0 39 -18.5 66t-44.5 42.5l-52.5 32t-45 45t-18.5 69.5v42q0 48 30 76t76 28q45 0 74.5 -28t29.5 -76v-45h-31v45q0 34 -20.5 54.5t-52.5 20.5t-53.5 -20.5t-21.5 -54.5v-42q0 -35 18.5 -59t44.5 -38.5t52.5 -31
t45 -48t18.5 -78.5v-45q0 -48 -30 -76t-75 -28q-46 0 -75.5 28t-29.5 76v51zM217 710l-71 -108h-29l64 108h36z" />
    <glyph glyph-name="Scircumflex" unicode="&#x15c;" horiz-adv-x="332" 
d="M282 195v-88q0 -55 -31 -86t-85 -31t-85 31t-31 86v58h31v-58q0 -41 23 -64.5t62 -23.5q40 0 62.5 23.5t22.5 64.5v88q0 39 -15 69.5t-37 48.5l-48.5 38t-48.5 39t-37 52t-15 76v75q0 55 31 86t85 31t85 -31t31 -86v-57h-31v57q0 40 -23.5 64t-61.5 24q-39 0 -62 -24
t-23 -64v-75q0 -38 15 -67.5t37 -47l48.5 -38t48.5 -39.5t37 -53t15 -78zM181 850l66 -108h-29l-52 82l-52 -82h-29l66 108h30z" />
    <glyph glyph-name="scircumflex" unicode="&#x15d;" horiz-adv-x="306" 
d="M48 145h31v-51q0 -35 21 -55t53 -20t53 20t21 55v45q0 39 -18.5 66t-44.5 42.5l-52.5 32t-45 45t-18.5 69.5v42q0 48 30 76t76 28q45 0 74.5 -28t29.5 -76v-45h-31v45q0 34 -20.5 54.5t-52.5 20.5t-53.5 -20.5t-21.5 -54.5v-42q0 -35 18.5 -59t44.5 -38.5t52.5 -31
t45 -48t18.5 -78.5v-45q0 -48 -30 -76t-75 -28q-46 0 -75.5 28t-29.5 76v51zM168 710l66 -108h-29l-52 82l-52 -82h-29l66 108h30z" />
    <glyph glyph-name="Scedilla" unicode="&#x15e;" horiz-adv-x="332" 
d="M282 195v-88q0 -54 -30.5 -85t-83.5 -32l-3 -29q51 -2 51 -53q0 -23 -17.5 -37t-40.5 -14q-21 0 -43 16l9 19q19 -12 35 -12q12 0 20.5 8t8.5 21q0 32 -31 32h-14l-7 7l7 44q-44 6 -68.5 36t-24.5 79v58h31v-58q0 -41 23 -64.5t62 -23.5q40 0 62.5 23.5t22.5 64.5v88
q0 39 -15 69.5t-37 48.5l-48.5 38t-48.5 39t-37 52t-15 76v75q0 55 31 86t85 31t85 -31t31 -86v-57h-31v57q0 40 -23.5 64t-61.5 24q-39 0 -62 -24t-23 -64v-75q0 -38 15 -67.5t37 -47l48.5 -38t48.5 -39.5t37 -53t15 -78z" />
    <glyph glyph-name="scedilla" unicode="&#x15f;" horiz-adv-x="306" 
d="M48 145h31v-51q0 -35 21 -55t53 -20t53 20t21 55v45q0 39 -18.5 66t-44.5 42.5l-52.5 32t-45 45t-18.5 69.5v42q0 48 30 76t76 28q45 0 74.5 -28t29.5 -76v-45h-31v45q0 34 -20.5 54.5t-52.5 20.5t-53.5 -20.5t-21.5 -54.5v-42q0 -35 18.5 -59t44.5 -38.5t52.5 -31
t45 -48t18.5 -78.5v-45q0 -48 -29 -75.5t-74 -28.5l-3 -29q51 -2 51 -53q0 -23 -17.5 -37t-40.5 -14q-21 0 -43 16l9 19q19 -12 35 -12q12 0 20.5 8t8.5 21q0 32 -31 32h-14l-7 7l7 44q-37 6 -59.5 33t-22.5 69v51z" />
    <glyph glyph-name="Scaron" unicode="&#x160;" horiz-adv-x="332" 
d="M282 195v-88q0 -55 -31 -86t-85 -31t-85 31t-31 86v58h31v-58q0 -41 23 -64.5t62 -23.5q40 0 62.5 23.5t22.5 64.5v88q0 39 -15 69.5t-37 48.5l-48.5 38t-48.5 39t-37 52t-15 76v75q0 55 31 86t85 31t85 -31t31 -86v-57h-31v57q0 40 -23.5 64t-61.5 24q-39 0 -62 -24
t-23 -64v-75q0 -38 15 -67.5t37 -47l48.5 -38t48.5 -39.5t37 -53t15 -78zM247 850l-66 -108h-30l-66 108h29l52 -82l52 82h29z" />
    <glyph glyph-name="scaron" unicode="&#x161;" horiz-adv-x="306" 
d="M48 145h31v-51q0 -35 21 -55t53 -20t53 20t21 55v45q0 39 -18.5 66t-44.5 42.5l-52.5 32t-45 45t-18.5 69.5v42q0 48 30 76t76 28q45 0 74.5 -28t29.5 -76v-45h-31v45q0 34 -20.5 54.5t-52.5 20.5t-53.5 -20.5t-21.5 -54.5v-42q0 -35 18.5 -59t44.5 -38.5t52.5 -31
t45 -48t18.5 -78.5v-45q0 -48 -30 -76t-75 -28q-46 0 -75.5 28t-29.5 76v51zM234 710l-66 -108h-30l-66 108h29l52 -82l52 82h29z" />
    <glyph glyph-name="Tcommaaccent" unicode="&#x162;" horiz-adv-x="281" 
d="M20 671v29h241v-29h-105v-671h-31v671h-105zM122 -52l27 10q17 -15 17 -42q0 -22 -11.5 -39.5t-39.5 -42.5l-18 11q24 23 32.5 38t8.5 33q0 16 -16 32z" />
    <glyph glyph-name="tcommaaccent" unicode="&#x163;" horiz-adv-x="225" 
d="M16 501v29h64v131h31v-131h100v-29h-100v-410q0 -72 61 -72q23 0 41 6l1 -27q-23 -8 -42 -8q-44 0 -68 26t-24 75v410h-64zM108 -52l27 10q17 -15 17 -42q0 -22 -11.5 -39.5t-39.5 -42.5l-18 11q24 23 32.5 38t8.5 33q0 16 -16 32z" />
    <glyph glyph-name="Tcaron" unicode="&#x164;" horiz-adv-x="281" 
d="M20 671v29h241v-29h-105v-671h-31v671h-105zM222 850l-66 -108h-30l-66 108h29l52 -82l52 82h29z" />
    <glyph glyph-name="tcaron" unicode="&#x165;" horiz-adv-x="225" 
d="M188 739l29 4q5 -22 5 -40q0 -51 -30 -96l-22 5q23 42 23 90q0 17 -5 37zM16 501v29h64v131h31v-131h100v-29h-100v-410q0 -72 61 -72q23 0 41 6l1 -27q-23 -8 -42 -8q-44 0 -68 26t-24 75v410h-64z" />
    <glyph glyph-name="Tbar" unicode="&#x166;" horiz-adv-x="281" 
d="M20 671v29h241v-29h-105v-304h105v-29h-105v-338h-31v338h-105v29h105v304h-105z" />
    <glyph glyph-name="tbar" unicode="&#x167;" horiz-adv-x="225" 
d="M16 501v29h64v131h31v-131h100v-29h-100v-197h100v-28h-100v-185q0 -72 61 -72q23 0 41 6l1 -27q-23 -8 -42 -8q-44 0 -68 26t-24 75v185h-64v28h64v197h-64z" />
    <glyph glyph-name="Utilde" unicode="&#x168;" 
d="M60 700h31v-594q0 -40 23.5 -63.5t61.5 -23.5q40 0 62.5 23t22.5 64v594h31v-594q0 -54 -31.5 -85t-84.5 -31t-84.5 31t-31.5 85v594zM105 779h-24q0 29 15 45.5t39 16.5q18 0 42.5 -21t40.5 -21q28 0 30 35h24q-1 -30 -15.5 -46.5t-38.5 -16.5q-18 0 -42.5 21t-40.5 21
q-13 0 -21.5 -9t-8.5 -25z" />
    <glyph glyph-name="utilde" unicode="&#x169;" horiz-adv-x="323" 
d="M236 530h31v-436q0 -48 -30 -76t-76 -28q-45 0 -75 28t-30 76v436h31v-436q0 -35 21 -55t53 -20q33 0 54 20t21 55v436zM90 639h-24q0 29 15 45.5t39 16.5q18 0 42.5 -21t40.5 -21q28 0 30 35h24q-1 -30 -15.5 -46.5t-38.5 -16.5q-18 0 -42.5 21t-40.5 21q-13 0 -21.5 -9
t-8.5 -25z" />
    <glyph glyph-name="Umacron" unicode="&#x16a;" 
d="M60 700h31v-594q0 -40 23.5 -63.5t61.5 -23.5q40 0 62.5 23t22.5 64v594h31v-594q0 -54 -31.5 -85t-84.5 -31t-84.5 31t-31.5 85v594zM93 777v27h166v-27h-166z" />
    <glyph glyph-name="umacron" unicode="&#x16b;" horiz-adv-x="323" 
d="M236 530h31v-436q0 -48 -30 -76t-76 -28q-45 0 -75 28t-30 76v436h31v-436q0 -35 21 -55t53 -20q33 0 54 20t21 55v436zM78 637v27h166v-27h-166z" />
    <glyph glyph-name="Ubreve" unicode="&#x16c;" 
d="M60 700h31v-594q0 -40 23.5 -63.5t61.5 -23.5q40 0 62.5 23t22.5 64v594h31v-594q0 -54 -31.5 -85t-84.5 -31t-84.5 31t-31.5 85v594zM223 835h26q-1 -34 -21.5 -56t-52.5 -22q-31 0 -51.5 22t-20.5 56h26q0 -22 13 -36.5t33 -14.5q22 0 35 14t13 37z" />
    <glyph glyph-name="ubreve" unicode="&#x16d;" horiz-adv-x="323" 
d="M236 530h31v-436q0 -48 -30 -76t-76 -28q-45 0 -75 28t-30 76v436h31v-436q0 -35 21 -55t53 -20q33 0 54 20t21 55v436zM208 695h26q-1 -34 -21.5 -56t-52.5 -22q-31 0 -51.5 22t-20.5 56h26q0 -22 13 -36.5t33 -14.5q22 0 35 14t13 37z" />
    <glyph glyph-name="Uring" unicode="&#x16e;" 
d="M60 700h31v-594q0 -40 23.5 -63.5t61.5 -23.5q40 0 62.5 23t22.5 64v594h31v-594q0 -54 -31.5 -85t-84.5 -31t-84.5 31t-31.5 85v594zM113 800q0 28 18.5 46t44.5 18q27 0 45.5 -18t18.5 -46q0 -27 -18.5 -45t-45.5 -18q-26 0 -44.5 18t-18.5 45zM139 800q0 -17 10.5 -28
t26.5 -11q17 0 27.5 11t10.5 28q0 18 -10.5 29t-27.5 11q-16 0 -26.5 -11t-10.5 -29z" />
    <glyph glyph-name="uring" unicode="&#x16f;" horiz-adv-x="323" 
d="M236 530h31v-436q0 -48 -30 -76t-76 -28q-45 0 -75 28t-30 76v436h31v-436q0 -35 21 -55t53 -20q33 0 54 20t21 55v436zM98 660q0 28 18.5 46t44.5 18q27 0 45.5 -18t18.5 -46q0 -27 -18.5 -45t-45.5 -18q-26 0 -44.5 18t-18.5 45zM124 660q0 -17 10.5 -28t26.5 -11
q17 0 27.5 11t10.5 28q0 18 -10.5 29t-27.5 11q-16 0 -26.5 -11t-10.5 -29z" />
    <glyph glyph-name="Uhungarumlaut" unicode="&#x170;" 
d="M60 700h31v-594q0 -40 23.5 -63.5t61.5 -23.5q40 0 62.5 23t22.5 64v594h31v-594q0 -54 -31.5 -85t-84.5 -31t-84.5 31t-31.5 85v594zM292 850l-71 -108h-29l64 108h36zM203 850l-71 -108h-29l64 108h36z" />
    <glyph glyph-name="uhungarumlaut" unicode="&#x171;" horiz-adv-x="323" 
d="M236 530h31v-436q0 -48 -30 -76t-76 -28q-45 0 -75 28t-30 76v436h31v-436q0 -35 21 -55t53 -20q33 0 54 20t21 55v436zM277 710l-71 -108h-29l64 108h36zM188 710l-71 -108h-29l64 108h36z" />
    <glyph glyph-name="Uogonek" unicode="&#x172;" 
d="M60 700h31v-594q0 -40 23.5 -63.5t61.5 -23.5q40 0 62.5 23t22.5 64v594h31v-594q0 -82 -65 -107q-17 -7 -36 -31.5t-19 -47.5q0 -17 9.5 -27t24.5 -10t23 5v-24q-14 -8 -29 -8q-23 0 -39.5 15t-16.5 41q0 39 47 79q-5 -1 -15 -1q-53 0 -84.5 31t-31.5 85v594z" />
    <glyph glyph-name="uogonek" unicode="&#x173;" horiz-adv-x="323" 
d="M236 530h31v-436q0 -69 -57 -94q-18 -8 -37.5 -32.5t-19.5 -47.5q0 -17 9.5 -27t24.5 -10t23 5v-24q-14 -8 -29 -8q-23 0 -39.5 15t-16.5 41q0 41 47 79q-4 -1 -11 -1q-45 0 -75 28t-30 76v436h31v-436q0 -35 21 -55t53 -20q33 0 54 20t21 55v436z" />
    <glyph glyph-name="Wcircumflex" unicode="&#x174;" horiz-adv-x="505" 
d="M414 700h31v-511q0 -60 -34 -129.5t-65 -69.5q-22 0 -50.5 41.5t-42.5 89.5q-15 -48 -44 -89.5t-50 -41.5q-30 0 -64.5 68.5t-34.5 130.5v511h31v-511q0 -46 26 -105.5t42 -59.5t47 59t31 106v496h31v-496q0 -48 30 -106.5t48 -58.5q15 0 41.5 59.5t26.5 105.5v511z
M267 850l66 -108h-29l-52 82l-52 -82h-29l66 108h30z" />
    <glyph glyph-name="wcircumflex" unicode="&#x175;" horiz-adv-x="489" 
d="M433 530v-370q0 -57 -32.5 -113.5t-65.5 -56.5q-23 0 -50.5 36t-40.5 77q-12 -41 -39.5 -77t-50.5 -36q-34 0 -66 56.5t-32 113.5v370h31v-370q0 -43 24.5 -90t42.5 -47q17 0 46 47.5t29 87.5v372h31v-372q0 -41 27.5 -88t47.5 -47q18 0 42.5 47t24.5 90v370h31zM259 710
l66 -108h-29l-52 82l-52 -82h-29l66 108h30z" />
    <glyph glyph-name="Ycircumflex" unicode="&#x176;" horiz-adv-x="336" 
d="M253 700h31v-207q0 -34 -16 -72t-34.5 -65t-34.5 -54.5t-16 -43.5v-258h-31v258q0 19 -25 57t-50 86t-25 92v207h31v-207q0 -32 15 -66t38 -71t31 -56q8 20 31 56t39 70t16 67v207zM183 850l66 -108h-29l-52 82l-52 -82h-29l66 108h30z" />
    <glyph glyph-name="ycircumflex" unicode="&#x177;" horiz-adv-x="323" 
d="M236 530h31v-628q0 -46 -30 -74t-75 -28q-49 0 -77 27t-28 75q0 13 5 27t9 21t6 9l27 -12q-17 -24 -17 -45q0 -33 22 -53t53 -20q32 0 53 19.5t21 53.5v126q-25 -38 -75 -38q-45 0 -75 28t-30 76v436h31v-436q0 -34 21.5 -54.5t52.5 -20.5t53 20t22 55v436zM176 710
l66 -108h-29l-52 82l-52 -82h-29l66 108h30z" />
    <glyph glyph-name="Ydieresis" unicode="&#x178;" horiz-adv-x="336" 
d="M253 700h31v-207q0 -34 -16 -72t-34.5 -65t-34.5 -54.5t-16 -43.5v-258h-31v258q0 19 -25 57t-50 86t-25 92v207h31v-207q0 -32 15 -66t38 -71t31 -56q8 20 31 56t39 70t16 67v207zM98 810q0 23 23 23q24 0 24 -23q0 -10 -6.5 -17t-17.5 -7q-10 0 -16.5 7t-6.5 17z
M189 810q0 23 23 23q24 0 24 -23q0 -10 -6.5 -17t-17.5 -7q-10 0 -16.5 7t-6.5 17z" />
    <glyph glyph-name="Zacute" unicode="&#x179;" horiz-adv-x="296" 
d="M44 671v29h206q2 -9 2 -19q0 -77 -18 -144t-43.5 -118.5l-51.5 -104.5t-45 -126t-20 -159h178v-29h-206q-2 9 -2 19q0 89 18 164.5t43.5 129l51.5 105t44.5 116t19.5 137.5h-177zM212 850l-71 -108h-29l64 108h36z" />
    <glyph glyph-name="zacute" unicode="&#x17a;" horiz-adv-x="266" 
d="M36 501v29h192q2 -6 2 -14q0 -59 -17 -111t-41 -91.5l-47.5 -79t-40.5 -92t-17 -113.5h162v-29h-191q-2 9 -2 17q0 68 17 125.5t40.5 98.5l47.5 79.5t41 84.5t17 96h-163zM197 710l-71 -108h-29l64 108h36z" />
    <glyph glyph-name="Zdotaccent" unicode="&#x17b;" horiz-adv-x="296" 
d="M44 671v29h206q2 -9 2 -19q0 -77 -18 -144t-43.5 -118.5l-51.5 -104.5t-45 -126t-20 -159h178v-29h-206q-2 9 -2 19q0 89 18 164.5t43.5 129l51.5 105t44.5 116t19.5 137.5h-177zM125 810q0 23 23 23q24 0 24 -23q0 -10 -6.5 -17t-17.5 -7q-10 0 -16.5 7t-6.5 17z" />
    <glyph glyph-name="zdotaccent" unicode="&#x17c;" horiz-adv-x="266" 
d="M36 501v29h192q2 -6 2 -14q0 -59 -17 -111t-41 -91.5l-47.5 -79t-40.5 -92t-17 -113.5h162v-29h-191q-2 9 -2 17q0 68 17 125.5t40.5 98.5l47.5 79.5t41 84.5t17 96h-163zM110 670q0 23 23 23q24 0 24 -23q0 -10 -6.5 -17t-17.5 -7q-10 0 -16.5 7t-6.5 17z" />
    <glyph glyph-name="Zcaron" unicode="&#x17d;" horiz-adv-x="296" 
d="M44 671v29h206q2 -9 2 -19q0 -77 -18 -144t-43.5 -118.5l-51.5 -104.5t-45 -126t-20 -159h178v-29h-206q-2 9 -2 19q0 89 18 164.5t43.5 129l51.5 105t44.5 116t19.5 137.5h-177zM229 850l-66 -108h-30l-66 108h29l52 -82l52 82h29z" />
    <glyph glyph-name="zcaron" unicode="&#x17e;" horiz-adv-x="266" 
d="M36 501v29h192q2 -6 2 -14q0 -59 -17 -111t-41 -91.5l-47.5 -79t-40.5 -92t-17 -113.5h162v-29h-191q-2 9 -2 17q0 68 17 125.5t40.5 98.5l47.5 79.5t41 84.5t17 96h-163zM214 710l-66 -108h-30l-66 108h29l52 -82l52 82h29z" />
    <glyph glyph-name="florin" unicode="&#x192;" 
d="M47 373l2 28h98l14 205q3 49 28.5 76.5t70.5 27.5q7 0 14 -1t13 -3t11 -4t9.5 -4.5t7.5 -4t5 -3.5l3 -1l-13 -23q-23 16 -51 16q-30 0 -48.5 -20.5t-20.5 -56.5l-14 -204h105l-1 -28h-106l-31 -449q-3 -47 -29 -73t-70 -26q-9 0 -18 2t-16 5.5t-12 6.5t-8 5l-4 3l12 24
q23 -18 47 -18q30 0 48.5 18.5t20.5 53.5l31 448h-98z" />
    <glyph glyph-name="AEacute" unicode="&#x1fc;" horiz-adv-x="486" 
d="M454 700v-29h-165v-304h146v-29h-146v-309h165v-29h-196v338h-167v-338h-31v584q0 54 30.5 85t85.5 31h278zM91 584v-217h167v304h-82q-39 0 -62 -23.5t-23 -63.5zM339 850l-71 -108h-29l64 108h36z" />
    <glyph glyph-name="aeacute" unicode="&#x1fd;" horiz-adv-x="486" 
d="M436 441v-58q0 -51 -49 -69l-128 -49v-175q0 -35 19.5 -53t53.5 -18q32 0 52.5 18t20.5 53v50h31v-50q0 -47 -29 -73.5t-75 -26.5q-65 0 -88 50q-24 -50 -89 -50q-48 0 -76.5 26t-28.5 73v63q0 38 20 58.5t54 33.5l104 40v156q0 34 -20.5 52t-52.5 18q-34 0 -54 -18
t-20 -52v-44h-31v44q0 47 29 73.5t76 26.5q64 0 88 -52q23 52 89 52q46 0 75 -26.5t29 -72.5zM155 19q32 0 52.5 18t20.5 53v163l-92 -35q-55 -21 -55 -66v-63q0 -34 20 -52t54 -18zM259 440v-144l120 45q26 9 26 42v58q0 33 -20.5 51t-52.5 18q-34 0 -53.5 -18t-19.5 -52z
M318 710l-71 -108h-29l64 108h36z" />
    <glyph glyph-name="Oslashacute" unicode="&#x1fe;" 
d="M292 595v-489q0 -54 -31.5 -85t-84.5 -31q-47 0 -77 24l-13 -50l-22 6l16 64q-20 29 -20 72v489q0 53 31.5 84t84.5 31q42 0 72 -22l13 48l23 -6l-16 -61q24 -30 24 -74zM261 106v489q0 11 -4 29l-149 -575q24 -30 68 -30q39 0 62 23.5t23 63.5zM91 595v-489q0 -16 2 -23
l147 572q-24 26 -64 26q-38 0 -61.5 -23.5t-23.5 -62.5zM248 850l-71 -108h-29l64 108h36z" />
    <glyph glyph-name="oslashacute" unicode="&#x1ff;" horiz-adv-x="323" 
d="M267 436v-342q0 -48 -30 -76t-76 -28q-34 0 -61 16l-12 -44l-22 7l15 54q-25 28 -25 71v342q0 48 30 76t75 28q29 0 56 -15l12 43l22 -7l-14 -50q30 -30 30 -75zM236 94v342q0 22 -9 38l-119 -436q20 -19 53 -19t54 20t21 55zM87 94q0 -19 5 -30l117 431q-21 16 -48 16
q-32 0 -53 -20.5t-21 -54.5v-342zM233 710l-71 -108h-29l64 108h36z" />
    <glyph glyph-name="Scommaaccent" unicode="&#x218;" horiz-adv-x="332" 
d="M282 195v-88q0 -55 -31 -86t-85 -31t-85 31t-31 86v58h31v-58q0 -41 23 -64.5t62 -23.5q40 0 62.5 23.5t22.5 64.5v88q0 39 -15 69.5t-37 48.5l-48.5 38t-48.5 39t-37 52t-15 76v75q0 55 31 86t85 31t85 -31t31 -86v-57h-31v57q0 40 -23.5 64t-61.5 24q-39 0 -62 -24
t-23 -64v-75q0 -38 15 -67.5t37 -47l48.5 -38t48.5 -39.5t37 -53t15 -78zM159 -52l27 10q17 -15 17 -42q0 -22 -11.5 -39.5t-39.5 -42.5l-18 11q24 23 32.5 38t8.5 33q0 16 -16 32z" />
    <glyph glyph-name="scommaaccent" unicode="&#x219;" horiz-adv-x="306" 
d="M48 145h31v-51q0 -35 21 -55t53 -20t53 20t21 55v45q0 39 -18.5 66t-44.5 42.5l-52.5 32t-45 45t-18.5 69.5v42q0 48 30 76t76 28q45 0 74.5 -28t29.5 -76v-45h-31v45q0 34 -20.5 54.5t-52.5 20.5t-53.5 -20.5t-21.5 -54.5v-42q0 -35 18.5 -59t44.5 -38.5t52.5 -31
t45 -48t18.5 -78.5v-45q0 -48 -30 -76t-75 -28q-46 0 -75.5 28t-29.5 76v51zM141 -52l27 10q17 -15 17 -42q0 -22 -11.5 -39.5t-39.5 -42.5l-18 11q24 23 32.5 38t8.5 33q0 16 -16 32z" />
    <glyph glyph-name="dotlessj" unicode="&#x237;" horiz-adv-x="159" 
d="M64 530h31v-624q0 -105 -83 -105q-28 0 -45 13l10 27q16 -11 35 -11q52 0 52 76v624z" />
    <glyph glyph-name="circumflex" unicode="&#x2c6;" horiz-adv-x="222" 
d="M126 710l66 -108h-29l-52 82l-52 -82h-29l66 108h30z" />
    <glyph glyph-name="caron" unicode="&#x2c7;" horiz-adv-x="222" 
d="M192 710l-66 -108h-30l-66 108h29l52 -82l52 82h29z" />
    <glyph glyph-name="breve" unicode="&#x2d8;" horiz-adv-x="206" 
d="M150 695h26q-1 -34 -21.5 -56t-52.5 -22q-31 0 -51.5 22t-20.5 56h26q0 -22 13 -36.5t33 -14.5q22 0 35 14t13 37z" />
    <glyph glyph-name="dotaccent" unicode="&#x2d9;" horiz-adv-x="107" 
d="M30 670q0 23 23 23q24 0 24 -23q0 -10 -6.5 -17t-17.5 -7q-10 0 -16.5 7t-6.5 17z" />
    <glyph glyph-name="ring" unicode="&#x2da;" horiz-adv-x="187" 
d="M30 660q0 28 18.5 46t44.5 18q27 0 45.5 -18t18.5 -46q0 -27 -18.5 -45t-45.5 -18q-26 0 -44.5 18t-18.5 45zM56 660q0 -17 10.5 -28t26.5 -11q17 0 27.5 11t10.5 28q0 18 -10.5 29t-27.5 11q-16 0 -26.5 -11t-10.5 -29z" />
    <glyph glyph-name="ogonek" unicode="&#x2db;" horiz-adv-x="145" 
d="M97 3l18 -3q-19 -10 -38 -33.5t-19 -46.5q0 -17 9.5 -27t24.5 -10t23 5v-24q-14 -8 -29 -8q-23 0 -39.5 15t-16.5 41q0 29 25 56.5t42 34.5z" />
    <glyph glyph-name="tilde" unicode="&#x2dc;" horiz-adv-x="251" 
d="M54 639h-24q0 29 15 45.5t39 16.5q18 0 42.5 -21t40.5 -21q28 0 30 35h24q-1 -30 -15.5 -46.5t-38.5 -16.5q-18 0 -42.5 21t-40.5 21q-13 0 -21.5 -9t-8.5 -25z" />
    <glyph glyph-name="hungarumlaut" unicode="&#x2dd;" horiz-adv-x="249" 
d="M219 710l-71 -108h-29l64 108h36zM130 710l-71 -108h-29l64 108h36z" />
    <glyph glyph-name="Wgrave" unicode="&#x1e80;" horiz-adv-x="505" 
d="M414 700h31v-511q0 -60 -34 -129.5t-65 -69.5q-22 0 -50.5 41.5t-42.5 89.5q-15 -48 -44 -89.5t-50 -41.5q-30 0 -64.5 68.5t-34.5 130.5v511h31v-511q0 -46 26 -105.5t42 -59.5t47 59t31 106v496h31v-496q0 -48 30 -106.5t48 -58.5q15 0 41.5 59.5t26.5 105.5v511z
M258 742l-71 108h36l64 -108h-29z" />
    <glyph glyph-name="wgrave" unicode="&#x1e81;" horiz-adv-x="489" 
d="M433 530v-370q0 -57 -32.5 -113.5t-65.5 -56.5q-23 0 -50.5 36t-40.5 77q-12 -41 -39.5 -77t-50.5 -36q-34 0 -66 56.5t-32 113.5v370h31v-370q0 -43 24.5 -90t42.5 -47q17 0 46 47.5t29 87.5v372h31v-372q0 -41 27.5 -88t47.5 -47q18 0 42.5 47t24.5 90v370h31zM250 602
l-71 108h36l64 -108h-29z" />
    <glyph glyph-name="Wacute" unicode="&#x1e82;" horiz-adv-x="505" 
d="M414 700h31v-511q0 -60 -34 -129.5t-65 -69.5q-22 0 -50.5 41.5t-42.5 89.5q-15 -48 -44 -89.5t-50 -41.5q-30 0 -64.5 68.5t-34.5 130.5v511h31v-511q0 -46 26 -105.5t42 -59.5t47 59t31 106v496h31v-496q0 -48 30 -106.5t48 -58.5q15 0 41.5 59.5t26.5 105.5v511z
M316 850l-71 -108h-29l64 108h36z" />
    <glyph glyph-name="wacute" unicode="&#x1e83;" horiz-adv-x="489" 
d="M433 530v-370q0 -57 -32.5 -113.5t-65.5 -56.5q-23 0 -50.5 36t-40.5 77q-12 -41 -39.5 -77t-50.5 -36q-34 0 -66 56.5t-32 113.5v370h31v-370q0 -43 24.5 -90t42.5 -47q17 0 46 47.5t29 87.5v372h31v-372q0 -41 27.5 -88t47.5 -47q18 0 42.5 47t24.5 90v370h31zM308 710
l-71 -108h-29l64 108h36z" />
    <glyph glyph-name="Wdieresis" unicode="&#x1e84;" horiz-adv-x="505" 
d="M414 700h31v-511q0 -60 -34 -129.5t-65 -69.5q-22 0 -50.5 41.5t-42.5 89.5q-15 -48 -44 -89.5t-50 -41.5q-30 0 -64.5 68.5t-34.5 130.5v511h31v-511q0 -46 26 -105.5t42 -59.5t47 59t31 106v496h31v-496q0 -48 30 -106.5t48 -58.5q15 0 41.5 59.5t26.5 105.5v511z
M182 810q0 23 23 23q24 0 24 -23q0 -10 -6.5 -17t-17.5 -7q-10 0 -16.5 7t-6.5 17zM273 810q0 23 23 23q24 0 24 -23q0 -10 -6.5 -17t-17.5 -7q-10 0 -16.5 7t-6.5 17z" />
    <glyph glyph-name="wdieresis" unicode="&#x1e85;" horiz-adv-x="489" 
d="M433 530v-370q0 -57 -32.5 -113.5t-65.5 -56.5q-23 0 -50.5 36t-40.5 77q-12 -41 -39.5 -77t-50.5 -36q-34 0 -66 56.5t-32 113.5v370h31v-370q0 -43 24.5 -90t42.5 -47q17 0 46 47.5t29 87.5v372h31v-372q0 -41 27.5 -88t47.5 -47q18 0 42.5 47t24.5 90v370h31zM174 670
q0 23 23 23q24 0 24 -23q0 -10 -6.5 -17t-17.5 -7q-10 0 -16.5 7t-6.5 17zM265 670q0 23 23 23q24 0 24 -23q0 -10 -6.5 -17t-17.5 -7q-10 0 -16.5 7t-6.5 17z" />
    <glyph glyph-name="Ygrave" unicode="&#x1ef2;" horiz-adv-x="336" 
d="M253 700h31v-207q0 -34 -16 -72t-34.5 -65t-34.5 -54.5t-16 -43.5v-258h-31v258q0 19 -25 57t-50 86t-25 92v207h31v-207q0 -32 15 -66t38 -71t31 -56q8 20 31 56t39 70t16 67v207zM174 742l-71 108h36l64 -108h-29z" />
    <glyph glyph-name="ygrave" unicode="&#x1ef3;" horiz-adv-x="323" 
d="M236 530h31v-628q0 -46 -30 -74t-75 -28q-49 0 -77 27t-28 75q0 13 5 27t9 21t6 9l27 -12q-17 -24 -17 -45q0 -33 22 -53t53 -20q32 0 53 19.5t21 53.5v126q-25 -38 -75 -38q-45 0 -75 28t-30 76v436h31v-436q0 -34 21.5 -54.5t52.5 -20.5t53 20t22 55v436zM167 602
l-71 108h36l64 -108h-29z" />
    <glyph glyph-name="endash" unicode="&#x2013;" horiz-adv-x="500" 
d="M20 261v28h460v-28h-460z" />
    <glyph glyph-name="emdash" unicode="&#x2014;" horiz-adv-x="1000" 
d="M20 261v28h962v-28h-962z" />
    <glyph glyph-name="quoteleft" unicode="&#x2018;" horiz-adv-x="107" 
d="M68 586q-5 -1 -15 -2t-15 -2q-5 23 -5 44q0 61 38 116l23 -5q-31 -54 -31 -109q0 -22 5 -42z" />
    <glyph glyph-name="quoteright" unicode="&#x2019;" horiz-adv-x="107" 
d="M39 738l30 3q5 -22 5 -44q0 -59 -38 -116l-23 5q31 54 31 110q0 22 -5 42z" />
    <glyph glyph-name="quotesinglbase" unicode="&#x201a;" horiz-adv-x="107" 
d="M39 54q5 1 15 2t15 2q5 -23 5 -44q0 -59 -38 -116l-23 5q31 54 31 109q0 22 -5 42z" />
    <glyph glyph-name="quotedblleft" unicode="&#x201c;" horiz-adv-x="194" 
d="M155 586q-5 -1 -15 -2t-15 -2q-5 23 -5 44q0 61 38 116l23 -5q-31 -54 -31 -109q0 -22 5 -42zM68 586q-5 -1 -15 -2t-15 -2q-5 23 -5 44q0 61 38 116l23 -5q-31 -54 -31 -109q0 -22 5 -42z" />
    <glyph glyph-name="quotedblright" unicode="&#x201d;" horiz-adv-x="194" 
d="M39 738l30 3q5 -22 5 -44q0 -59 -38 -116l-23 5q31 54 31 110q0 22 -5 42zM126 738l30 3q5 -22 5 -44q0 -59 -38 -116l-23 5q31 54 31 110q0 22 -5 42z" />
    <glyph glyph-name="quotedblbase" unicode="&#x201e;" horiz-adv-x="194" 
d="M39 54q5 1 15 2t15 2q5 -23 5 -44q0 -59 -38 -116l-23 5q31 54 31 109q0 22 -5 42zM126 54q5 1 15 2t15 2q5 -23 5 -44q0 -59 -38 -116l-23 5q31 54 31 109q0 22 -5 42z" />
    <glyph glyph-name="dagger" unicode="&#x2020;" 
d="M29 501v29h132v210h30v-210h131v-29h-131v-558h-30v558h-132z" />
    <glyph glyph-name="daggerdbl" unicode="&#x2021;" 
d="M29 501v29h132v210h30v-210h131v-29h-131v-315h131v-29h-131v-214h-30v214h-132v29h132v315h-132z" />
    <glyph glyph-name="bullet" unicode="&#x2022;" horiz-adv-x="252" 
d="M50 275q0 32 22 54t54 22t54 -22t22 -54t-22 -54t-54 -22t-54 22t-22 54z" />
    <glyph glyph-name="ellipsis" unicode="&#x2026;" horiz-adv-x="329" 
d="M142 19q0 22 23 22q22 0 22 -22q0 -23 -22 -23q-23 0 -23 23zM32 19q0 22 22 22q23 0 23 -22q0 -23 -23 -23q-22 0 -22 23zM252 19q0 22 23 22q22 0 22 -22q0 -23 -22 -23q-23 0 -23 23z" />
    <glyph glyph-name="perthousand" unicode="&#x2030;" horiz-adv-x="700" 
d="M76 0l308 700h29l-308 -700h-29zM440 227v-159q0 -37 -20.5 -57.5t-57.5 -20.5t-58 20.5t-21 57.5v159q0 35 21 55.5t58 20.5t57.5 -20.5t20.5 -55.5zM310 227v-159q0 -23 15 -37.5t37 -14.5q23 0 37 14t14 38v159q0 23 -14 36.5t-37 13.5q-22 0 -37 -13.5t-15 -36.5z
M654 227v-159q0 -37 -20.5 -57.5t-57.5 -20.5t-58 20.5t-21 57.5v159q0 35 21 55.5t58 20.5t57.5 -20.5t20.5 -55.5zM524 227v-159q0 -23 15 -37.5t37 -14.5q23 0 37 14t14 38v159q0 23 -14 36.5t-37 13.5q-22 0 -37 -13.5t-15 -36.5zM203 634v-159q0 -37 -20.5 -57.5
t-57.5 -20.5t-58 20.5t-21 57.5v159q0 35 21 55.5t58 20.5t57.5 -20.5t20.5 -55.5zM73 634v-159q0 -23 15 -37.5t37 -14.5q23 0 37 14t14 38v159q0 23 -14 36.5t-37 13.5q-22 0 -37 -13.5t-15 -36.5z" />
    <glyph glyph-name="guilsinglleft" unicode="&#x2039;" horiz-adv-x="210" 
d="M32 270l113 177h33l-113 -177l113 -177h-33z" />
    <glyph glyph-name="guilsinglright" unicode="&#x203a;" horiz-adv-x="210" 
d="M65 447l113 -177l-113 -177h-33l113 177l-113 177h33z" />
    <glyph glyph-name="fraction" unicode="&#x2044;" horiz-adv-x="380" 
d="M22 0l307 700h29l-307 -700h-29z" />
    <glyph glyph-name="foursuperior" unicode="&#x2074;" horiz-adv-x="203" 
d="M167 613v-193h-27v72h-104v22q0 36 30.5 122.5t30.5 139.5h27q0 -56 -30.5 -143.5t-30.5 -115.5h77v96h27z" />
    <glyph glyph-name="Euro" unicode="&#x20ac;" 
d="M26 386v29h65v180q0 53 31.5 84t84.5 31t84.5 -31t31.5 -84v-58h-31v58q0 40 -23 63t-62 23q-38 0 -61.5 -23.5t-23.5 -62.5v-180h152v-29h-152v-79h153v-29h-153v-172q0 -40 23.5 -63.5t61.5 -23.5q40 0 62.5 23t22.5 64v59h31v-59q0 -54 -31.5 -85t-84.5 -31t-84.5 31
t-31.5 85v172h-64v29h64v79h-65z" />
    <glyph glyph-name="trademark" unicode="&#x2122;" horiz-adv-x="320" 
d="M222 494h-21v163q0 27 -23 27q-22 0 -22 -27v-163h-21v163q0 21 12.5 34t31.5 13q23 0 33 -16q9 16 33 16q19 0 31 -12.5t12 -34.5v-163h-21v163q0 12 -6.5 19.5t-15.5 7.5q-23 0 -23 -27v-163zM14 680v20h101v-20h-39v-186h-21v186h-41z" />
    <glyph glyph-name="minus" unicode="&#x2212;" 
d="M37 264v28h276v-28h-276z" />
    <glyph glyph-name="commaaccent" horiz-adv-x="129" 
d="M55 -52l27 10q17 -15 17 -42q0 -22 -11.5 -39.5t-39.5 -42.5l-18 11q24 23 32.5 38t8.5 33q0 16 -16 32z" />
    <glyph glyph-name="four.tab" 
d="M284 373v-373h-31v144h-206v28q0 54 30 145t60.5 194t30.5 189h31q0 -88 -30.5 -192.5t-60.5 -194t-30 -140.5h175v200h31z" />
    <glyph glyph-name="one.tab" 
d="M198 700h27v-700h-31v648q-55 -72 -125 -95v30q41 17 76.5 51t52.5 66z" />
    <glyph glyph-name="three.tab" 
d="M91 537h-31v58q0 53 31.5 84t84.5 31t84.5 -31t31.5 -84v-141q0 -37 -17.5 -65t-46.5 -37q29 -9 46.5 -37t17.5 -64v-145q0 -54 -31.5 -85t-84.5 -31t-84.5 31t-31.5 85v60h31v-60q0 -40 23 -63.5t62 -23.5t62 23.5t23 63.5v145q0 37 -24 62t-60 25h-49v29h49q38 0 61 24
t23 63v141q0 39 -24 62.5t-61 23.5q-39 0 -62 -23t-23 -63v-58z" />
    <glyph glyph-name="two.tab" 
d="M261 537v57q0 40 -23 63.5t-62 23.5t-62 -23.5t-23 -63.5v-57h-31v57q0 54 31.5 85t84.5 31t84.5 -31t31.5 -85v-57q0 -45 -20.5 -96.5t-49.5 -100.5l-58.5 -98.5t-50.5 -105.5t-22 -107h201v-29h-232v19q0 66 31.5 141t69 130.5t69 123.5t31.5 123z" />
    <glyph glyph-name="seven.tab" 
d="M54 671v29h243v-28q0 -70 -23.5 -161t-51.5 -166t-51.5 -171t-23.5 -174h-31q0 79 24 176t52 172.5t51.5 165.5t23.5 157h-213z" />
    </font>
</defs>
</svg>
