<svg xmlns="http://www.w3.org/2000/svg" viewBox="0 0 449.07 511.01"><defs><style>.cls-1{fill:#fff;}</style></defs><g id="Layer_2" data-name="Layer 2"><g id="Layer_1-2" data-name="Layer 1"><path class="cls-1" d="M52.14,42.57l1-.91c4.9,5.11,9.64,10.41,14.77,15.28,4.08,3.87,9.3,3.53,12.93-.23,3.47-3.58,3.59-8.49.22-12.62-1-1.28-2.31-2.39-3.45-3.6Q63.55,25.73,49.51,10.94c-3.39-3.59-9-4.57-12.54-1.11-11.7,11.33-23.28,22.8-34.52,34.6C-2.23,49.34.16,56.61,6.46,59c4.2,1.59,7.52,0,10.34-2.92,5.05-5.16,10-10.47,14.92-15.72l1,.87V233.88c-6.19-6.46-11.19-12-16.53-17.17-4.28-4.16-9.5-4-13.33-.2-3.65,3.66-3.91,8.93,0,13q16,16.44,32.42,32.48c3.7,3.62,9,3.84,12.62.29,11.21-10.89,22.35-21.86,33.11-33.18,5-5.31,2.09-14.09-5-14.94-2.93-.36-6.79,1.38-9.19,3.4-5,4.21-9.31,9.24-14.7,14.75Zm81.67,31.7c-.32,3.52-.23,8.1,4.08,10.16a13.36,13.36,0,0,0,9.26.68c4.65-1.62,5.28-6.23,5.43-10.79.77-23.29,16-44.13,38.23-52.33,21.92-8.1,47.47-2,63.07,15.08a57.82,57.82,0,0,1,15.72,38.8c.14,6.28,4.31,10.7,9.6,10.54s9.28-4.57,9-11a77.41,77.41,0,0,0-1.5-13.34C277.81,20.31,241-5.17,198.36.89,163.44,5.85,134.63,38.26,133.81,74.27Z"/><path class="cls-1" d="M235.53,511c-9.66-2.84-19.73-4.73-28.9-8.71a90.77,90.77,0,0,1-44.88-41.6c-25.56-48.27-50.61-96.8-75.85-145.23q-9.56-18.33-19-36.7c-3.27-6.35-2.59-9.88,2.84-14.38,8.81-7.31,17.13-15.39,28.5-18.78,23.12-6.91,42.91-1.21,59.44,16.11,3.86,4,7.24,8.55,11.86,14v-6.58q.09-94.06.22-188.14c0-18.61,12.26-35.58,29.28-41.1,23.59-7.64,49.17,8.27,53.37,33.31a74,74,0,0,1,.95,11.9q.12,43.66.05,87.33v6.2a42.59,42.59,0,0,1,33.32-4.89c11.7,2.91,20.33,10.15,26.45,21,10.9-9.61,23.24-13.72,37.39-10.41s23.33,12.66,29.48,25.85c1.22-.74,2.3-1.36,3.34-2.05,25.71-17.17,61.09-.79,64.69,29.94.22,1.79.68,3.56,1,5.33V408.18c-1,7.35-1.4,14.85-3.17,22-9.83,39.85-33.43,66.95-73.65,78.27-3.62,1-7.32,1.7-11,2.55ZM86.15,275.39c.68,1.41,1.36,2.91,2.12,4.37Q102.63,307.38,117,335c20.18,38.73,39.83,77.74,60.75,116.06,14,25.68,36.22,40.6,66.07,41.11,36.24.63,72.49.29,108.74.09,19.33-.1,35.89-7.61,49.83-20.74,18.84-17.74,27.53-40,27.63-65.6.23-53.07.09-106.13.1-159.2,0-1,0-2-.06-3-1.16-16.11-13.87-26.41-28.76-23.3-10.22,2.13-17.7,12-18,24-.19,7.14.07,14.3-.12,21.45a8.72,8.72,0,0,1-8.06,8.61c-5,.46-8.84-2.14-9.93-7a28.66,28.66,0,0,1-.5-5.94c-.12-12.64.19-25.29-.36-37.91a23.47,23.47,0,0,0-20.84-22c-9.85-1-19.91,6.11-23.1,16.84A40.33,40.33,0,0,0,319,229.29c-.16,11.48,0,23-.07,34.43a31.65,31.65,0,0,1-.25,5c-.82,5.13-4.91,8.63-9.57,8.35-5-.3-8.68-4.18-8.71-9.68-.08-17.14.14-34.27-.11-51.4-.21-14.5-10.79-25-24.42-24.83-13.43.16-22.49,10.21-22.52,25.06,0,17.64,0,35.27,0,52.9a39.5,39.5,0,0,1-.08,4.49c-.6,5.36-4.62,8.95-9.67,8.76-4.84-.18-8.5-3.82-8.94-9-.14-1.66,0-3.33,0-5V86.2c0-2.16.06-4.33-.06-6.48-.66-11.34-9.71-21.64-20.1-22.95-11.38-1.43-21.77,5.56-25.08,17.43a46.46,46.46,0,0,0-1.28,12.31q-.22,106.31-.27,212.59c0,5-.79,9.33-6.13,11.28s-8.83-.89-11.95-4.73q-11.5-14.11-23.09-28.16C129.57,256.69,105.39,255.78,86.15,275.39Z"/><path class="cls-1" d="M52.14,42.57v189.7c5.39-5.51,9.7-10.54,14.7-14.75,2.4-2,6.26-3.76,9.19-3.4,7.11.85,10.07,9.63,5,14.94-10.76,11.32-21.9,22.29-33.11,33.18-3.64,3.55-8.92,3.33-12.62-.29Q18.94,245.89,2.9,229.47c-3.92-4-3.66-9.3,0-13,3.83-3.84,9-4,13.33.2,5.34,5.19,10.34,10.71,16.53,17.17V41.23l-1-.87c-5,5.25-9.87,10.56-14.92,15.72C14,59,10.66,60.59,6.46,59c-6.3-2.39-8.69-9.66-4-14.57C13.69,32.63,25.27,21.16,37,9.83c3.56-3.46,9.15-2.48,12.54,1.11q14,14.84,28.11,29.55c1.14,1.21,2.4,2.32,3.45,3.6,3.37,4.13,3.25,9-.22,12.62-3.63,3.76-8.85,4.1-12.93.23-5.13-4.87-9.87-10.17-14.77-15.28Z"/><path class="cls-1" d="M133.81,74.27c.82-36,29.63-68.42,64.55-73.38C241-5.17,277.81,20.31,286.74,62.11a77.41,77.41,0,0,1,1.5,13.34c.24,6.39-3.61,10.8-9,11s-9.46-4.26-9.6-10.54a57.82,57.82,0,0,0-15.72-38.8C238.28,20,212.73,13.89,190.81,22c-22.18,8.2-37.46,29-38.23,52.33-.15,4.56-.78,9.17-5.43,10.79a13.36,13.36,0,0,1-9.26-.68C133.58,82.37,133.49,77.79,133.81,74.27Z"/></g></g></svg>