<?xml version="1.0" standalone="no"?>
<!DOCTYPE svg PUBLIC "-//W3C//DTD SVG 1.1//EN" "http://www.w3.org/Graphics/SVG/1.1/DTD/svg11.dtd" >
<svg xmlns="http://www.w3.org/2000/svg">
<defs>
  <font id="zadicon" horiz-adv-x="266.6666666666667">
    <font-face font-family="zadicon"
      units-per-em="256" ascent="256"
      descent="0" />
    <missing-glyph horiz-adv-x="0" />
    <glyph glyph-name="account"
      unicode="&#xEA02;"
      horiz-adv-x="256" d="M114 255.396C91.885 251.325 86.623 249.736 72.226 242.779C36.22 225.381 10.811 192.399 2.292 152C-0.183 140.259 -0.183 115.74 2.293 104C4.87 91.781 7.581 83.897 13.221 72.226C30.665 36.126 63.495 10.834 104 2.292C115.741 -0.183 140.259 -0.183 152 2.292C164.669 4.964 174.258 8.373 186.426 14.529C220.859 31.952 245.393 64.578 253.707 104C256.183 115.74 256.183 140.259 253.708 152C245.275 191.989 219.973 225.104 184.623 242.414C165.73 251.666 152.195 254.968 131 255.495C123.025 255.694 115.375 255.649 114 255.396M148.296 232.35C198.65 222.656 234.161 179.5 234.161 128C234.161 101.461 225.812 78.792 208.577 58.533C203.556 52.631 198.017 47.25 195.366 45.7C194.47 45.176 191.845 46.427 187.749 49.33C179.393 55.255 172.701 58.515 163.309 61.237C156.04 63.344 153.599 63.5 128 63.5C104.757 63.5 99.494 63.225 94 61.723C85.232 59.326 73.64 53.737 67.31 48.854C63.768 46.121 61.655 45.105 60.687 45.67C57.989 47.246 52.484 52.585 47.423 58.533C30.188 78.792 21.839 101.461 21.839 128C21.839 178.586 55.78 220.806 105.5 232.069C118.612 235.039 133.812 235.139 148.296 232.35M119 201.84C114.847 201.257 109.511 199.453 104.222 196.845C90.49 190.072 79.201 175.734 75.998 161C75.204 157.345 74.943 148.792 75.219 135.5C75.594 117.489 75.87 114.885 77.996 109.31C83.434 95.046 96.701 82.347 111.155 77.57C133.111 70.313 157.233 78.047 170.964 96.746C179.178 107.932 180.299 112.358 180.781 135.5C181.057 148.792 180.796 157.345 180.002 161C178.153 169.505 173.466 178.068 166.455 185.75C158.272 194.716 147.595 200.333 135.678 201.943C131.375 202.524 127.325 202.944 126.678 202.877C126.03 202.809 122.575 202.342 119 201.84M142.868 177.475C149.705 173.754 155.371 167.296 158.028 160.197C159.916 155.15 160.091 152.872 159.811 137.05C159.457 117.051 158.502 113.787 150.645 105.703C144.024 98.89 138.142 96.5 128 96.5C117.858 96.5 111.976 98.89 105.355 105.703C97.498 113.787 96.543 117.051 96.189 137.05C95.835 157.049 96.967 162.096 103.525 169.758C110.525 177.936 118.187 181.164 129.512 180.707C136.088 180.441 138.483 179.862 142.868 177.475M159.129 40.148C162.775 38.963 167.891 36.802 170.497 35.346C175.214 32.709 175.225 32.691 172.868 31.385C169.146 29.324 156.227 25.196 148 23.44C138.083 21.323 117.914 21.323 108 23.441C94.885 26.242 80.572 31.498 81.586 33.14C81.894 33.637 84.7 35.33 87.823 36.902C92.802 39.408 98.06 40.92 107 42.416C108.375 42.646 119.175 42.715 131 42.568C149.835 42.335 153.322 42.035 159.129 40.148" />
    <glyph glyph-name="add-circle"
      unicode="&#xEA03;"
      horiz-adv-x="256" d="M114 255.396C91.885 251.325 86.623 249.736 72.226 242.779C36.22 225.381 10.811 192.399 2.292 152C-0.183 140.259 -0.183 115.741 2.292 104C10.811 63.601 36.22 30.619 72.226 13.221C92.09 3.622 105.779 0.5 128 0.5C150.221 0.5 163.91 3.622 183.774 13.221C219.78 30.619 245.189 63.601 253.708 104C256.183 115.741 256.183 140.259 253.708 152C245.275 191.989 219.973 225.104 184.623 242.414C165.73 251.666 152.195 254.968 131 255.495C123.025 255.694 115.375 255.649 114 255.396M148.296 232.35C198.65 222.656 234.161 179.5 234.161 128C234.161 87.543 212.586 51.921 177 33.623C160.88 25.334 146.345 21.839 128 21.839C87.057 21.839 50.93 44.093 32.772 80.5C25.259 95.565 21.839 110.423 21.839 128C21.839 178.586 55.78 220.806 105.5 232.069C118.612 235.039 133.812 235.139 148.296 232.35M122.381 190.09C117.577 187.161 117 183.972 117 160.351L117 139L95.468 139C71.52 139 68.273 138.362 65.566 133.128C63.588 129.302 63.588 126.698 65.566 122.872C68.273 117.638 71.52 117 95.468 117L117 117L117 95.468C117 71.52 117.638 68.273 122.872 65.566C126.698 63.588 129.302 63.588 133.128 65.566C138.362 68.273 139 71.52 139 95.468L139 117L160.532 117C184.48 117 187.727 117.638 190.434 122.872C192.412 126.698 192.412 129.302 190.434 133.128C187.727 138.362 184.48 139 160.532 139L139 139L139 160.532C139 184.48 138.362 187.727 133.128 190.434C129.133 192.5 126.177 192.405 122.381 190.09" />
    <glyph glyph-name="add-group"
      unicode="&#xEA04;"
      horiz-adv-x="256" d="M120.766 242.085L117.5 239.169L117.171 226.085L116.841 213L104.497 213C92.754 213 92.007 212.877 89.15 210.473C85.38 207.3 84.434 203.292 86.365 198.67C88.661 193.174 92.021 192 105.45 192L117 192L117 180.968C117 168.256 118.311 163.925 122.872 161.566C126.698 159.588 129.302 159.588 133.128 161.566C137.689 163.925 139 168.256 139 180.968L139 192L150.55 192C163.979 192 167.339 193.174 169.635 198.67C171.566 203.292 170.62 207.3 166.85 210.473C163.993 212.877 163.246 213 151.503 213L139.159 213L138.829 226.085L138.5 239.169L135.234 242.085C130.718 246.116 125.282 246.116 120.766 242.085M49.384 158.651C30.253 153.773 18.357 134.55 22.417 115.076C26.476 95.607 44.865 82.841 64.333 85.976C88.937 89.939 102.804 116.264 92.06 138.612C84.517 154.302 66.15 162.927 49.384 158.651M188.746 158.914C178.539 156.509 168.056 147.791 163.587 137.991C153.451 115.767 167.376 89.926 191.615 85.981C211.085 82.812 229.521 95.593 233.583 115.076C236.095 127.121 233.162 137.99 224.854 147.428C216.069 157.408 201.722 161.972 188.746 158.914M63.074 137.86C68.174 136.332 72.616 131.513 74.114 125.885C75.243 121.645 75.146 120.878 72.921 116.437C69.853 110.313 66.441 107.845 60.215 107.247C54.179 106.667 48.931 108.887 45.73 113.373C44.001 115.797 43.5 117.889 43.5 122.677C43.5 130.112 45.502 133.419 52.02 136.75C57.075 139.333 57.886 139.414 63.074 137.86M203.98 136.75C210.498 133.419 212.5 130.112 212.5 122.677C212.5 117.889 211.999 115.797 210.27 113.373C207.069 108.887 201.821 106.667 195.785 107.247C189.559 107.845 186.147 110.313 183.079 116.437C180.854 120.878 180.757 121.645 181.886 125.885C183.833 133.2 190.247 138.533 197.538 138.898C198.659 138.954 201.558 137.987 203.98 136.75M49.061 73.951C32.91 71.766 19.808 65.756 9.93 56C4.301 50.441 3.106 48.622 1.674 43.434C-0.243 36.488 -0.557 21.896 1.108 17.119C3.264 10.934 2.638 11 59.373 11L110.846 11L113.923 14.077C116.999 17.153 117 17.156 117 28.566C117 45.774 113.575 53.139 101.881 61.081C86.393 71.598 66.859 76.358 49.061 73.951M187.81 73.987C175.086 72.446 165.341 68.684 153.797 60.856C142.451 53.163 139 45.632 139 28.566C139 17.156 139.001 17.153 142.077 14.077L145.154 11L196.53 11C232.819 11 248.64 11.334 250.405 12.139C251.779 12.765 253.6 14.745 254.452 16.54C256.567 20.996 256.498 35.563 254.326 43.434C252.89 48.637 251.698 50.444 245.951 56.134C232.418 69.531 209.391 76.602 187.81 73.987M71 51.95C85.051 48.826 96 40.986 96 34.05C96 32.02 95.637 32 58.375 32L20.75 32L21.393 35.214C22.608 41.289 31.483 47.68 43.5 51.133C50.263 53.077 64.088 53.488 71 51.95M211.356 51.416C218.746 49.51 227.851 44.829 231.285 41.169C232.662 39.701 234.097 37.037 234.474 35.25L235.159 32L197.579 32C160.363 32 160 32.02 160 34.05C160 40.881 169.473 47.915 183.5 51.501C190.633 53.324 204.113 53.283 211.356 51.416" />
    <glyph glyph-name="file-add"
      unicode="&#xEA05;"
      horiz-adv-x="256" d="M123.321 233.387C117.581 230.556 117 227.771 117 203.099L117 181L94.547 181C70.26 181 67.867 180.577 65.425 175.855C62.986 171.138 63.612 167.188 67.4 163.4L70.8 160L93.849 160L116.897 160L117.199 136.416L117.5 112.832L120.766 109.916C125.282 105.883 130.718 105.883 135.234 109.916L138.5 112.832L138.801 136.416L139.103 160L162.151 160L185.2 160L188.6 163.4C192.388 167.188 193.014 171.138 190.575 175.855C188.133 180.577 185.74 181 161.453 181L139 181L139 203.099C139 227.934 138.426 230.621 132.522 233.423C128.421 235.369 127.331 235.364 123.321 233.387M9 106.348C-0.065 103.361 0 103.667 0 64.097C0 27.899 0.17 26.481 4.904 23.264C7.343 21.607 14.679 21.484 125.834 21.234C207.329 21.051 245.4 21.3 248.129 22.035C250.874 22.774 252.69 24.084 254.042 26.301C255.877 29.31 255.993 31.551 255.993 64C255.993 96.41 255.875 98.693 254.048 101.689C251.408 106.018 245.996 107.566 241.296 105.336C234.981 102.339 235 102.444 235 71.277L235 43L128 43L21 43L21 71.035C21 102.19 20.862 102.906 14.328 105.636C12.533 106.386 10.937 106.964 10.782 106.921C10.627 106.878 9.825 106.62 9 106.348" />
    <glyph glyph-name="book-bookmark"
      unicode="&#xEA06;"
      horiz-adv-x="256" d="M41.576 253.517C33.866 250.347 26.688 243.309 23.738 236.026L21.5 230.5L21.221 133.631C21.037 69.729 21.296 34.846 21.981 31.131C24.049 19.92 32.071 9.037 41.948 4.043C49.622 0.162 53.599 0 141.099 0C233.543 0 229.94 -0.218 233.035 5.566C235.243 9.691 235.243 246.309 233.035 250.434C229.932 256.233 233.937 256.002 136.8 255.976L47.5 255.953L41.576 253.517M107 190.104L107 145.207L110.535 142.104C116.345 137.002 118.738 137.602 134.674 148.16C142.278 153.199 148.962 157.324 149.527 157.327C150.092 157.331 156.718 153.208 164.251 148.167C178.747 138.465 181.354 137.58 186.941 140.47C188.531 141.292 190.272 143.34 190.892 145.119C191.637 147.257 192 162.501 192 191.649L192 235L202.5 235L213 235L213 155L213 75L135.75 74.994C65.069 74.989 52.955 74.644 45.25 72.417L43 71.767L43 149.661C43 220.009 43.158 227.78 44.628 229.88C47.881 234.524 50.612 234.919 79.75 234.961L107 235L107 190.104M171 202.018L171 169.037L161.891 175.018C150.083 182.771 148.57 182.801 137.369 175.5C132.728 172.475 128.722 170 128.466 170C128.21 170 128 184.625 128 202.5L128 235L149.5 235L171 235L171 202.018M213 36.977L213 20.953L133.75 21.227C56.556 21.493 54.412 21.552 51.105 23.5C45.388 26.867 43.5 30.3 43.5 37.323C43.5 42.101 44.002 44.204 45.718 46.61C50.463 53.262 46.184 52.952 133.75 52.977L213 53L213 36.977" />
    <glyph glyph-name="bulb"
      unicode="&#xEA07;"
      horiz-adv-x="256" d="M122.381 254.09C118.067 251.46 117 247.526 117 234.252C117 220.965 118.293 217.038 123.478 214.577C127.61 212.617 128.39 212.617 132.522 214.577C137.726 217.047 139 220.951 139 234.433C139 247.779 137.748 252.045 133.128 254.434C129.133 256.5 126.177 256.405 122.381 254.09M41.5 221.046C38.64 219.863 35.367 215.944 34.63 212.819C33.657 208.698 35.447 205.383 42.77 197.743C50.997 189.162 56.526 185 59.7 185C66.279 185 71.847 191.868 70.444 198.255C69.628 201.969 54.405 218.105 49.539 220.415C45.849 222.165 44.468 222.274 41.5 221.046M206.292 220.413C201.406 217.942 186.345 201.849 185.556 198.255C184.153 191.868 189.721 185 196.3 185C197.62 185 200.455 186.274 202.6 187.831C208.499 192.112 220.979 205.914 221.156 208.351C221.502 213.142 220.755 215.631 218.193 218.227C214.747 221.717 210.437 222.508 206.292 220.413M121.5 202.33C108.018 201.035 94.358 195.782 83.302 187.643C70.625 178.311 58.997 160.734 55.421 145.5C53.277 136.362 53.297 119.664 55.463 110.604C60.007 91.599 74.17 72.76 91.035 63.287L95.998 60.5L95.999 40.399C96 18.325 96.648 14.751 101.059 12.47C105.212 10.322 150.788 10.322 154.941 12.47C159.352 14.751 160 18.325 160.001 40.399L160.002 60.5L164.965 63.287C181.83 72.76 195.993 91.599 200.537 110.604C202.703 119.664 202.723 136.362 200.579 145.5C194.45 171.613 171.076 194.902 145.5 200.378C137.578 202.074 127.428 202.9 121.5 202.33M144.845 178.43C150.013 176.722 154.912 174.144 159.452 170.745C191.836 146.492 187.06 97.449 150.62 80.057C145.94 77.824 141.411 74.997 140.555 73.775C139.276 71.948 139 68.051 139 51.777L139 32L128 32L117 32L117 51.777C117 68.051 116.724 71.948 115.445 73.775C114.589 74.997 110.06 77.824 105.38 80.057C86.439 89.098 75 107.199 75 128.131C75 145.327 82.552 160.263 96.546 170.743C110.259 181.012 128.33 183.889 144.845 178.43M6.315 137.536C2.983 136.087 0 131.582 0 128C0 124.313 3.017 119.891 6.534 118.421C11.466 116.361 32.077 116.468 36.522 118.577C39.576 120.027 43 125.007 43 128C43 130.993 39.576 135.973 36.522 137.423C32.14 139.502 11.017 139.581 6.315 137.536M219.321 137.387C216.404 135.948 213 130.893 213 128C213 125.007 216.424 120.027 219.478 118.577C223.923 116.468 244.534 116.361 249.466 118.421C252.983 119.891 256 124.313 256 128C256 131.687 252.983 136.109 249.466 137.579C244.553 139.632 223.602 139.498 219.321 137.387" />
    <glyph glyph-name="board"
      unicode="&#xEA08;"
      horiz-adv-x="256" d="M14.077 241.923L11 238.846L11 128L11 17.154L14.077 14.077L17.154 11L128 11L238.846 11L241.923 14.077L245 17.154L245 128L245 238.846L241.923 241.923L238.846 245L128 245L17.154 245L14.077 241.923M224 128L224 32L128 32L32 32L32 128L32 224L128 224L224 224L224 128M60 201.248C53.621 198.062 53.003 195.366 53.002 170.718C53 147.057 53.575 143.819 58.328 140.704C60.604 139.214 64.057 139 85.888 139L110.846 139L113.923 142.077L117 145.154L117 170.112C117 191.943 116.786 195.396 115.296 197.672C112.181 202.425 108.943 203 85.282 202.998C66.548 202.997 63.01 202.752 60 201.248M145.452 201.594C138.679 198.644 139 202.313 139 127.758C139 53.534 138.626 57.829 145.367 54.63C150.624 52.136 190.957 52.232 196 54.752C203.236 58.366 202.997 55.868 202.997 128C202.997 187.406 202.859 192.776 201.248 196C198.051 202.4 195.394 203.002 170.5 202.959C154.483 202.932 147.671 202.561 145.452 201.594M96 170.5L96 160L85.5 160L75 160L75 170.5L75 181L85.5 181L96 181L96 170.5M181 128L181 75L170.5 75L160 75L160 128L160 181L170.5 181L181 181L181 128M58.353 115.535C53.619 112.219 53 108.728 53.002 85.349C53.004 52.329 52.329 53.004 85.349 53.002C103.477 53 107.783 53.278 110.633 54.63C116.963 57.634 117 57.815 117 85.646L117 110.846L113.923 113.923L110.846 117L85.646 117C65.128 117 60.056 116.728 58.353 115.535M96 85.5L96 75L85.5 75L75 75L75 85.5L75 96L85.5 96L96 96L96 85.5" />
    <glyph glyph-name="chart"
      unicode="&#xEA09;"
      horiz-adv-x="256" d="M103.212 233.871C101.202 233.292 99.159 231.674 97.955 229.712C96.036 226.579 95.993 224.564 96.244 148.272L96.5 70.045L99.273 67.272L102.045 64.5L128 64.5L153.955 64.5L156.727 67.272L159.5 70.045L159.756 148.272C160.006 224.376 159.96 226.587 158.058 229.689C156.748 231.827 154.852 233.225 152.302 233.933C147.603 235.238 107.776 235.188 103.212 233.871M139 149L139 85L128 85L117 85L117 149L117 213L128 213L139 213L139 149M14.077 177.923L11 174.846L11 123.47C11 87.181 11.334 71.36 12.139 69.595C14.418 64.593 17.71 64 43.151 64.004C64.513 64.007 66.771 64.173 69.689 65.952C71.831 67.258 73.224 69.143 73.933 71.698C74.606 74.121 74.991 92.849 74.994 123.349C74.999 165.518 74.806 171.606 73.37 174.633C70.366 180.963 70.185 181 42.354 181L17.154 181L14.077 177.923M53 122.5L53 85L42.5 85L32 85L32 122.5L32 160L42.5 160L53 160L53 122.5M188 137.248C181.421 133.962 181.003 131.854 181.007 102C181.009 86.481 181.449 73.925 182.067 71.698C182.776 69.143 184.169 67.258 186.311 65.952C189.229 64.173 191.487 64.007 212.849 64.004C238.29 64 241.582 64.593 243.861 69.595C244.631 71.283 245 81.661 245 101.582C245 127.682 244.804 131.369 243.296 133.672C240.181 138.425 236.943 139 213.282 138.998C194.548 138.997 191.01 138.752 188 137.248M224 101L224 85L213.5 85L203 85L203 101L203 117L213.5 117L224 117L224 101M6.315 41.536C2.983 40.087 0 35.582 0 32C0 28.313 3.017 23.891 6.534 22.421C11.626 20.294 244.374 20.294 249.466 22.421C252.983 23.891 256 28.313 256 32C256 35.687 252.983 40.109 249.466 41.579C244.451 43.674 11.136 43.633 6.315 41.536" />
    <glyph glyph-name="check"
      unicode="&#xEA0A;"
      horiz-adv-x="256" d="M232 202.285C230.324 201.989 207.498 179.872 162.758 135.196L96.015 68.55L61.258 103.146C24.084 140.147 23.781 140.382 17.215 137.288C12.813 135.212 11 132.37 11 127.541C11 123.59 11.621 122.907 51.264 83.264L91.528 43L96.006 43L100.485 43L172.742 115.258C242.914 185.43 245 187.624 245 191.293C245 196.052 242.531 199.88 238.328 201.636C236.533 202.386 234.937 202.939 234.782 202.864C234.627 202.789 233.375 202.529 232 202.285" />
    <glyph glyph-name="clock"
      unicode="&#xEA0B;"
      horiz-adv-x="256" d="M114 255.396C91.885 251.325 86.623 249.736 72.226 242.779C36.22 225.381 10.811 192.399 2.292 152C-0.183 140.259 -0.183 115.741 2.292 104C10.811 63.601 36.22 30.619 72.226 13.221C92.09 3.622 105.779 0.5 128 0.5C150.221 0.5 163.91 3.622 183.774 13.221C219.78 30.619 245.189 63.601 253.708 104C256.183 115.741 256.183 140.259 253.708 152C245.275 191.989 219.973 225.104 184.623 242.414C165.73 251.666 152.195 254.968 131 255.495C123.025 255.694 115.375 255.649 114 255.396M148.296 232.35C198.65 222.656 234.161 179.5 234.161 128C234.161 87.543 212.586 51.921 177 33.623C160.88 25.334 146.345 21.839 128 21.839C87.057 21.839 50.93 44.093 32.772 80.5C25.259 95.565 21.839 110.423 21.839 128C21.839 178.586 55.78 220.806 105.5 232.069C118.612 235.039 133.812 235.139 148.296 232.35M123.99 201.241C117.238 197.872 117.003 196.488 117.003 160C117.003 123.503 117.236 122.131 124 118.752C127.117 117.195 131.06 117.003 160 117.003C196.761 117.003 197.888 117.201 201.332 124.25C203.109 127.886 203.109 128.114 201.332 131.75C197.975 138.62 196.128 138.997 165.75 138.998L139 139L139 165.532C139 194.069 138.51 197.365 133.834 200.318C129.848 202.835 127.605 203.045 123.99 201.241" />
    <glyph glyph-name="close"
      unicode="&#xEA0C;"
      horiz-adv-x="256" d="M46.077 209.923C43.53 207.377 43 206.051 43 202.233L43 197.621L77.731 162.797L112.462 127.973L78.836 94.237C60.342 75.681 44.713 59.517 44.105 58.316C43.497 57.114 43 54.482 43 52.467C43 45.385 51.583 40.699 58.316 44.105C59.517 44.713 75.688 60.348 94.25 78.849L128 112.489L161.75 78.849C180.313 60.348 196.483 44.713 197.684 44.105C204.417 40.699 213 45.385 213 52.467C213 54.482 212.503 57.114 211.895 58.316C211.287 59.517 195.652 75.687 177.151 94.25L143.511 128L177.151 161.75C195.652 180.312 211.287 196.483 211.895 197.684C216.466 206.72 206.72 216.466 197.684 211.895C196.483 211.287 180.313 195.652 161.75 177.151L128 143.511L94.25 177.151C75.688 195.652 59.517 211.287 58.316 211.895C54.142 214.006 49.396 213.242 46.077 209.923" />
    <glyph glyph-name="warning-circle"
      unicode="&#xEA0D;"
      horiz-adv-x="256" d="M114 255.396C91.885 251.325 86.623 249.736 72.226 242.779C36.22 225.381 10.811 192.399 2.292 152C-0.183 140.259 -0.183 115.741 2.292 104C10.811 63.601 36.22 30.619 72.226 13.221C92.09 3.622 105.779 0.5 128 0.5C150.221 0.5 163.91 3.622 183.774 13.221C219.78 30.619 245.189 63.601 253.708 104C256.183 115.741 256.183 140.259 253.708 152C245.275 191.989 219.973 225.104 184.623 242.414C165.73 251.666 152.195 254.968 131 255.495C123.025 255.694 115.375 255.649 114 255.396M148.296 232.35C198.65 222.656 234.161 179.5 234.161 128C234.161 87.543 212.586 51.921 177 33.623C160.88 25.334 146.345 21.839 128 21.839C87.057 21.839 50.93 44.093 32.772 80.5C25.259 95.565 21.839 110.423 21.839 128C21.839 178.586 55.78 220.806 105.5 232.069C118.612 235.039 133.812 235.139 148.296 232.35M122.304 190.044C117.155 186.904 116.845 184.272 117.19 146.667L117.5 112.834L120.766 109.917C125.283 105.883 130.717 105.883 135.234 109.917L138.5 112.834L138.81 146.667C139.02 169.49 138.758 181.736 138.006 184.298C136.774 188.495 132.225 191.993 128 191.993C126.625 191.993 124.062 191.116 122.304 190.044M120.789 82.102C112.622 74.806 120.473 61.552 131.148 64.614C135.486 65.858 138.455 70.136 138.455 75.145C138.455 80.651 133.841 85 128 85C125.035 85 123.212 84.268 120.789 82.102" />
    <glyph glyph-name="warning-hex"
      unicode="&#xEA0E;"
      horiz-adv-x="256" d="M74.5 254.449C70.332 252.311 3.336 185.228 1.496 181.35C0.23 178.682 0 170.507 0 128.164C0 95.46 0.366 77.155 1.057 75.315C2.406 71.719 70.384 3.52 74.624 1.508C79.38 -0.748 176.62 -0.748 181.376 1.508C185.616 3.52 253.594 71.719 254.943 75.315C256.397 79.189 256.397 176.811 254.943 180.685C253.594 184.281 185.616 252.48 181.376 254.492C176.565 256.775 78.958 256.735 74.5 254.449M203.244 203.256L235 171.512L235 128.012L235 84.512L203.256 52.756L171.512 21L128.012 21L84.512 21L52.756 52.744L21 84.488L21 127.988L21 171.488L52.744 203.244L84.488 235L127.988 235L171.488 235L203.244 203.256M122.304 190.044C117.155 186.904 116.845 184.272 117.19 146.667L117.5 112.834L120.766 109.917C125.283 105.883 130.717 105.883 135.234 109.917L138.5 112.834L138.81 146.667C139.02 169.49 138.758 181.736 138.006 184.298C136.774 188.495 132.225 191.993 128 191.993C126.625 191.993 124.062 191.116 122.304 190.044M120.789 82.102C112.622 74.806 120.473 61.552 131.148 64.614C135.486 65.858 138.455 70.136 138.455 75.145C138.455 80.651 133.841 85 128 85C125.035 85 123.212 84.268 120.789 82.102" />
    <glyph glyph-name="warning-triangle"
      unicode="&#xEA0F;"
      horiz-adv-x="256" d="M120.782 231.25C119.356 229.738 94.071 182.568 64.595 126.429C22.615 46.479 11 23.577 11 20.756C11 18.067 11.78 16.374 14.077 14.077L17.154 11L127.03 11C210.088 11 237.546 11.292 239.528 12.195C242.587 13.589 245 17.748 245 21.629C245 24.908 139.082 227.152 135.218 231.25C133.116 233.48 131.751 234 128 234C124.249 234 122.884 233.48 120.782 231.25M172.625 116.25L216.75 32.5L172.375 32.24C147.969 32.097 108.027 32.097 83.616 32.24L39.232 32.5L83.357 116.25C107.626 162.312 127.711 200 127.991 200C128.271 200 148.356 162.312 172.625 116.25M120.766 146.084L117.5 143.168L117.19 120.334C117.02 107.775 117.144 96.088 117.465 94.362C118.186 90.486 122.192 86.336 126.026 85.494C130.173 84.584 135.495 87.415 137.473 91.585C138.866 94.519 139.057 98.496 138.8 119.091L138.5 143.167L135.234 146.084C130.718 150.117 125.282 150.117 120.766 146.084M123.321 73.387C119.407 71.457 116.618 66.017 117.494 62.026C118.305 58.335 122.335 54.305 126.026 53.494C130.121 52.595 135.495 55.416 137.423 59.478C138.29 61.307 139 63.341 139 64C139 66.993 135.576 71.973 132.522 73.423C128.421 75.369 127.331 75.364 123.321 73.387" />
    <glyph glyph-name="single-content"
      unicode="&#xEA10;"
      horiz-adv-x="256" d="M27.241 254.675C25.999 253.985 24.199 252.313 23.241 250.96C21.614 248.66 21.483 240.782 21.234 130.166C21.051 48.671 21.3 10.6 22.035 7.871C22.774 5.126 24.084 3.31 26.301 1.958C29.416 0.059 32.091 0.007 128 0.007C223.909 0.007 226.584 0.059 229.699 1.958C231.916 3.31 233.226 5.126 233.965 7.871C234.7 10.6 234.949 48.671 234.766 130.166C234.516 241.321 234.393 248.657 232.736 251.096C231.766 252.524 229.832 254.211 228.439 254.846C224.623 256.584 30.383 256.419 27.241 254.675M213 128L213 21L128 21L43 21L43 128L43 235L128 235L213 235L213 128M67.4 188.6C64.973 186.173 64 184.299 64 182.05C64 177.781 66.299 173.64 69.472 172.195C73.223 170.486 182.777 170.486 186.528 172.195C189.701 173.64 192 177.781 192 182.05C192 184.299 191.027 186.173 188.6 188.6L185.2 192L128 192L70.8 192L67.4 188.6M70.315 137.536C66.983 136.087 64 131.582 64 128C64 124.313 67.017 119.891 70.534 118.421C75.57 116.317 180.43 116.317 185.466 118.421C188.983 119.891 192 124.313 192 128C192 131.687 188.983 136.109 185.466 137.579C180.507 139.651 75.086 139.612 70.315 137.536M69.11 83.604C65.988 81.874 64.08 78.318 64.035 74.15C64.009 71.646 64.858 69.942 67.4 67.4L70.8 64L96 64L121.2 64L124.6 67.4C128.286 71.086 128.961 74.797 126.805 79.528C124.493 84.603 122.21 85.003 95.8 84.965C77.554 84.938 70.905 84.599 69.11 83.604" />
    <glyph glyph-name="restore"
      unicode="&#xEA11;"
      horiz-adv-x="256" d="M107.5 243.508C84.889 239.509 61.819 227.612 45.999 211.792L39.109 204.902L38.53 208.201C34.221 232.735 34.056 233.398 31.695 235.759C26.067 241.388 15.803 238.742 14.385 231.298C13.599 227.171 21.235 177.117 23.519 171.422C24.295 169.488 26.135 167.689 28.47 166.581C32.05 164.883 32.593 164.894 43.343 166.888C49.479 168.026 61.475 170.107 70 171.513C78.525 172.919 86.955 174.536 88.734 175.107C95.746 177.357 98.383 186.118 93.691 191.573C90.491 195.294 84.415 195.672 69.389 193.085C62.728 191.938 56.895 191 56.426 191C55.121 191 64.924 200.718 70.067 204.523C81.367 212.882 96.119 219.459 109.5 222.104C120.252 224.229 141.676 223.744 151.284 221.159C195.91 209.151 226.423 167.589 223.665 122.568C220.931 77.957 187.693 40.975 143.619 33.505C88.394 24.146 36.318 65.377 32.366 121.587C31.578 132.808 29.826 136.402 24.417 137.895C19.776 139.177 15.185 137.458 12.564 133.457C10.956 131.004 10.794 129.283 11.302 120.071C11.644 113.875 12.934 105.407 14.42 99.612C17.205 88.748 25.352 70.833 32.043 60.86C37.448 52.803 52.569 37.705 60.86 32.086C70.484 25.564 88.539 17.274 99.612 14.293C108.64 11.862 111.109 11.631 128 11.631C144.891 11.631 147.36 11.862 156.388 14.293C167.461 17.274 185.516 25.564 195.14 32.086C203.431 37.705 218.552 52.803 223.957 60.86C230.495 70.605 238.75 88.628 241.707 99.612C244.138 108.64 244.369 111.109 244.369 128C244.369 144.891 244.138 147.36 241.707 156.388C238.726 167.461 230.436 185.516 223.914 195.14C218.295 203.431 203.197 218.552 195.14 223.957C185.267 230.581 167.283 238.782 156.388 241.629C144.002 244.866 120.326 245.776 107.5 243.508M123.241 190.675C117.71 187.603 117.525 186.608 117.181 158C117.005 143.425 117.16 129.492 117.524 127.038C118.146 122.847 119.529 121.221 140.343 100.199C152.529 87.891 163.715 77.186 165.2 76.41C174.679 71.46 184.66 80.906 179.894 90.316C179.285 91.517 169.856 101.5 158.939 112.5L139.09 132.5L138.795 158.5C138.535 181.385 138.289 184.811 136.736 187.096C133.638 191.654 127.795 193.204 123.241 190.675" />
    <glyph glyph-name="image-add"
      unicode="&#xEA12;"
      horiz-adv-x="256" d="M6.5 255.055C5.4 254.604 3.6 253.236 2.5 252.013C0.528 249.822 0.496 248.169 0.204 135.645C-0.004 55.732 0.232 20.377 0.992 17.756C3.029 10.724 -0.012 11 75.373 11L142.846 11L145.923 14.077C151.121 19.274 149.432 28.608 142.881 30.892C140.692 31.655 121.209 32 80.351 32L21 32L21 133.5L21 235L122.5 235L224 235L224 175.649C224 134.791 224.345 115.308 225.108 113.119C227.392 106.568 236.726 104.879 241.923 110.077L245 113.154L245 180.627C245 254.93 245.184 252.694 238.881 254.892C235.089 256.213 9.718 256.372 6.5 255.055M85.882 211.679C72.872 206.817 64 194.592 64 181.527C64 169.126 72.697 156.163 83.869 151.912C100.89 145.435 119.606 153.64 125.844 170.313C131.486 185.391 124.611 202.638 110 210.06C104.427 212.89 91.455 213.761 85.882 211.679M101.128 190.434C110.398 185.64 106.601 171 96.088 171C85.661 171 81.542 184.701 90.353 190.074C94.176 192.405 97.126 192.503 101.128 190.434M152.04 124.5C138.495 111.025 127.081 100 126.676 100C126.27 100 118.723 105.432 109.906 112.071C89.178 127.677 87.936 128.398 83.267 127.522C80.206 126.948 76.65 123.947 62.695 110.164C53.416 100.999 45.188 92.285 44.412 90.8C39.458 81.324 48.91 71.337 58.316 76.108C59.517 76.717 66.365 83.026 73.532 90.127L86.565 103.038L105.478 88.911C124.237 74.899 124.427 74.788 128.831 75.284C133.121 75.768 134.257 76.77 162.137 104.636C193.349 135.835 193.787 136.431 190.545 143.264C188.667 147.221 185.486 149 180.286 149C176.896 149 175.11 147.451 152.04 124.5M206.306 82.59C203.549 80.222 203.491 79.949 203 66.84L202.5 53.5L189.16 53C176.051 52.509 175.778 52.451 173.41 49.694C169.188 44.779 170.863 35.75 176.472 33.195C178.038 32.481 183.91 32 191.047 32L203 32L203 19.95C203 6.677 204.006 3.23 208.472 1.195C213.203 -0.961 216.914 -0.286 220.6 3.4L224 6.8L224 19.4L224 32L236.6 32L249.2 32L252.6 35.4C256.286 39.086 256.961 42.797 254.805 47.528C252.77 51.994 249.323 53 236.05 53L224 53L224 64.953C224 72.09 223.519 77.962 222.805 79.528C220.25 85.137 211.221 86.812 206.306 82.59" />
    <glyph glyph-name="picture"
      unicode="&#xEA13;"
      horiz-adv-x="256" d="M14.077 241.923L11 238.846L11 128L11 17.154L14.077 14.077L17.154 11L128 11L238.846 11L241.923 14.077L245 17.154L245 128L245 238.846L241.923 241.923L238.846 245L128 245L17.154 245L14.077 241.923M224 128L224 32L128 32L32 32L32 128L32 224L128 224L224 224L224 128M111.326 201.977C96.966 199.064 85.776 185.862 85.728 171.775C85.702 163.883 87.16 158.612 90.953 152.885C99.411 140.116 116.764 135.288 130.5 141.882C149.096 150.81 154.809 172.907 142.833 189.583C136.016 199.076 122.75 204.294 111.326 201.977M123.485 179.418C124.813 178.548 126.414 176.274 127.045 174.365C129.978 165.476 122.496 158.031 113.585 160.972C102.983 164.471 105.748 181 116.936 181C119.21 181 122.157 180.288 123.485 179.418M186.5 126.099C184.85 125.057 173.191 113.846 160.59 101.185L137.681 78.165L115.09 96.419C102.666 106.459 91.517 115.197 90.316 115.837C89.114 116.477 86.449 117 84.393 117C80.927 117 79.693 116.035 67.462 103.75C53.418 89.645 52.028 87.262 54.454 81.455C56.112 77.487 60.019 75 64.594 75C67.849 75 69.244 75.966 77.096 83.649C83.656 90.068 86.266 92.038 87.218 91.288C87.923 90.732 98.524 82.324 110.777 72.604C123.029 62.883 134.231 54.483 135.671 53.935C137.422 53.269 139.316 53.279 141.396 53.966C145.22 55.228 200.422 110.199 201.925 114.241C204.21 120.387 198.6 128.007 191.8 127.996C190.535 127.994 188.15 127.14 186.5 126.099" />
    <glyph glyph-name="archive-drawer"
      unicode="&#xEA14;"
      horiz-adv-x="256" d="M80.11 254.604C74.336 251.404 73.189 242.657 77.923 237.923L80.846 235L128 235L175.154 235L178.077 237.923C182.904 242.75 181.495 252.087 175.528 254.805C171.554 256.616 83.405 256.431 80.11 254.604M45.923 210.077C41.096 205.25 42.505 195.913 48.472 193.195C52.243 191.476 203.757 191.476 207.528 193.195C213.495 195.913 214.904 205.25 210.077 210.077L207.154 213L128 213L48.846 213L45.923 210.077M17.5 169.464C10.502 165.909 11 172.304 11 85.936C11 29.856 11.318 7.396 12.139 5.595C14.795 -0.235 9.941 0 127.752 0C204.178 0 236.63 0.324 238.881 1.108C245.236 3.324 245 0.07 245 85.486C245 156.901 244.864 163.277 243.296 165.672C239.679 171.191 243.821 171.001 127.782 170.994C33.662 170.988 20.132 170.801 17.5 169.464M224 85L224 21L128 21L32 21L32 85L32 149L128 149L224 149L224 85M78.077 113.923L75 110.846L75 96L75 81.154L78.077 78.077L81.154 75L128 75L174.846 75L177.923 78.077L181 81.154L181 96L181 110.846L177.923 113.923C174.428 117.418 169.822 117.994 165.059 115.53C161.552 113.717 160 109.52 160 101.851L160 96L128 96L96 96L96 102.099C96 112.353 92.423 117 84.53 117C82.093 117 80.298 116.144 78.077 113.923" />
    <glyph glyph-name="gps"
      unicode="&#xEA15;"
      horiz-adv-x="256" d="M16.11 243.604C13.22 242.003 11.087 238.391 11.027 235C10.962 231.362 74.944 28.997 77.162 25.822C78.192 24.349 80.604 22.626 82.523 21.992C85.454 21.025 86.61 21.133 89.756 22.67C93.413 24.458 93.99 25.597 114.655 71.821C126.29 97.848 136.031 119.365 136.303 119.636C136.574 119.907 157.258 129.276 182.267 140.456C207.276 151.635 228.914 161.553 230.351 162.494C235.37 165.783 235.573 174.793 230.719 178.82C228.604 180.573 24.365 245.01 21.066 244.965C19.655 244.945 17.425 244.333 16.11 243.604M116 193.547C157.525 180.483 191.818 169.501 192.206 169.142C192.594 168.782 177.294 161.581 158.206 153.138C136.956 143.739 122.475 136.763 120.856 135.144C119.237 133.525 112.261 119.044 102.862 97.794C94.419 78.706 87.218 63.406 86.858 63.794C86.499 64.182 75.517 98.475 62.453 140C49.389 181.525 38.464 216.141 38.176 216.924C37.837 217.847 38.153 218.163 39.076 217.824C39.859 217.536 74.475 206.611 116 193.547" />
    <glyph glyph-name="bell"
      unicode="&#xEA16;"
      horiz-adv-x="256" d="M115.5 254.959C97.202 252.112 81.745 244.325 68.349 231.206C58.085 221.155 51.402 210.108 46.444 195C43.765 186.838 43.626 185.406 42.934 159C42.538 143.875 41.767 129.825 41.219 127.779C39.842 122.632 35.863 116.111 29.71 108.917C14.526 91.164 11.931 86.654 11.22 76.78C10.802 70.989 11.093 69.33 13.325 64.768C18.197 54.81 28.023 47.973 45.362 42.477C69.165 34.931 88.735 32.59 128 32.59C165.853 32.59 182.022 34.353 206 41.093C225.766 46.649 237.492 54.174 242.576 64.566C244.914 69.344 245.201 70.937 244.78 76.78C244.14 85.668 241.355 90.887 230.136 104.224C220.314 115.9 216.319 122.028 214.781 127.779C214.233 129.825 213.462 143.875 213.066 159C212.374 185.406 212.235 186.838 209.556 195C197.662 231.243 168.402 253.911 131.5 255.471C126 255.703 118.8 255.473 115.5 254.959M143 232.836C159.63 229.651 177.366 215.278 185.588 198.325C190.76 187.661 192 179.254 192 154.87C192 129.994 193.268 122.148 199.089 111C201.243 106.875 206.423 99.45 210.6 94.5C219.468 83.989 224 77.331 224 74.81C224 69.96 207.212 62.434 187.834 58.599C169.363 54.942 154.087 53.713 127.5 53.742C96.156 53.776 79.457 55.521 57.948 61.013C43.991 64.577 32 70.973 32 74.855C32 77.33 36.574 84.038 45.394 94.5C53.179 103.734 58.881 113.286 61.643 121.72C62.814 125.295 63.41 133.559 64.007 154.5C64.446 169.9 65.324 184.525 65.959 187C67.827 194.289 73.518 205.083 78.687 211.145C90.701 225.235 103.22 231.873 122.5 234.378C126.421 234.887 136.088 234.16 143 232.836M98 21.2C98 19.82 101.927 13.95 105.295 10.296C111.665 3.386 117.835 0.689 127.5 0.591C136.631 0.499 141.981 2.415 148.476 8.106C151.849 11.061 158 19.353 158 20.946C158 21.251 144.5 21.5 128 21.5C111.5 21.5 98 21.365 98 21.2" />
    <glyph glyph-name="question"
      unicode="&#xEA17;"
      horiz-adv-x="256" d="M114 255.396C91.885 251.325 86.623 249.736 72.226 242.779C36.22 225.381 10.811 192.399 2.292 152C-0.183 140.259 -0.183 115.741 2.292 104C10.811 63.601 36.22 30.619 72.226 13.221C92.09 3.622 105.779 0.5 128 0.5C150.221 0.5 163.91 3.622 183.774 13.221C219.78 30.619 245.189 63.601 253.708 104C256.183 115.741 256.183 140.259 253.708 152C245.275 191.989 219.973 225.104 184.623 242.414C165.73 251.666 152.195 254.968 131 255.495C123.025 255.694 115.375 255.649 114 255.396M148.296 232.35C198.65 222.656 234.161 179.5 234.161 128C234.161 87.543 212.586 51.921 177 33.623C160.88 25.334 146.345 21.839 128 21.839C87.057 21.839 50.93 44.093 32.772 80.5C25.259 95.565 21.839 110.423 21.839 128C21.839 178.586 55.78 220.806 105.5 232.069C118.612 235.039 133.812 235.139 148.296 232.35M121.785 201.959C112.3 200.501 100.806 196.172 97.75 192.907C94.122 189.031 93.88 182.398 97.25 179.241C101.744 175.032 104.287 174.797 113.262 177.763C120.297 180.088 123.179 180.486 133 180.493C142.808 180.499 145.015 180.198 147.997 178.446C153.394 175.275 156 170.673 156 164.312C156 156.06 153.337 151.981 138.169 137C123.487 122.499 119.915 117.195 118.003 107.051C116.245 97.723 120.433 91 128 91C134.39 91 137.322 94.691 139.519 105.5C139.952 107.633 144.234 112.547 154.331 122.5C166.491 134.487 169.062 137.578 172.211 144C180.799 161.513 179.302 177.123 167.842 189.555C162.753 195.076 157.034 198.431 149.463 200.334C141.612 202.309 128.91 203.054 121.785 201.959M123.321 73.387C119.407 71.457 116.618 66.017 117.494 62.026C118.305 58.335 122.335 54.305 126.026 53.494C130.121 52.595 135.495 55.416 137.423 59.478C138.29 61.307 139 63.341 139 64C139 66.993 135.576 71.973 132.522 73.423C128.421 75.369 127.331 75.364 123.321 73.387" />
    <glyph glyph-name="trash"
      unicode="&#xEA18;"
      horiz-adv-x="256" d="M80.383 254.417C75.533 252.024 75 249.652 75 230.453L75 213L41.45 213C5.054 213 3.598 212.802 1.195 207.528C-0.961 202.797 -0.286 199.086 3.4 195.4L6.8 192L128 192L249.2 192L252.6 195.4C256.286 199.086 256.961 202.797 254.805 207.528C252.402 212.802 250.946 213 214.55 213L181 213L181 230.55C181 250.229 180.303 253.002 174.881 254.892C172.736 255.639 157.355 255.993 127.601 255.977C89.969 255.958 83.043 255.729 80.383 254.417M160 224L160 213L128 213L96 213L96 224L96 235L128 235L160 235L160 224M40.542 170.271C37.195 169.421 34.25 167.018 33.074 164.179C32.265 162.225 32.025 141.979 32.223 92.478L32.5 23.5L34.953 18.516C37.977 12.369 44.458 5.938 50.75 2.839L55.5 0.5L128 0.5L200.5 0.5L205.484 2.953C211.631 5.977 218.062 12.458 221.161 18.75L223.5 23.5L223.761 93C224.015 160.509 223.966 162.591 222.063 165.689C218.483 171.516 209.412 171.814 204.796 166.255C203.774 165.024 203.394 150.309 203 96.597C202.46 23.046 202.676 25.77 197.146 22.81C193.553 20.888 62.447 20.888 58.854 22.81C53.311 25.777 53.522 23.039 53.223 95.827C52.915 170.509 53.268 166.737 46.328 169.636C44.533 170.386 42.937 170.948 42.782 170.884C42.627 170.82 41.619 170.544 40.542 170.271M81.388 138.02C80.227 137.551 78.314 135.943 77.138 134.448C75.044 131.787 75 130.987 75 95.942L75 60.153L77.527 57.15C80.7 53.38 84.708 52.434 89.33 54.365C95.875 57.099 96 57.877 96 96C96 133.984 95.855 134.909 89.466 137.579C85.641 139.177 84.417 139.244 81.388 138.02M123.321 137.387C117.239 134.388 117 132.82 117 96C117 58.994 117.227 57.544 123.478 54.577C127.61 52.617 128.39 52.617 132.522 54.577C138.773 57.544 139 58.994 139 96C139 133.006 138.773 134.456 132.522 137.423C128.421 139.369 127.331 139.364 123.321 137.387M166.315 137.575C160.161 134.823 160 133.766 160 96C160 57.877 160.125 57.099 166.67 54.365C171.292 52.434 175.3 53.38 178.473 57.15L181 60.153L181 96.061L181 131.968L178.25 134.987C174.967 138.59 170.669 139.522 166.315 137.575" />
    <glyph glyph-name="search"
      unicode="&#xEA19;"
      horiz-adv-x="256" d="M88.633 243.502C69.189 239.485 52.187 230.367 38.763 216.758C27.101 204.936 18.208 189.504 13.834 173.5C12.017 166.855 11.642 162.791 11.62 149.5C11.589 131.527 12.915 124.841 19.464 109.945C31.137 83.395 56.596 62.394 85 55.884C110.78 49.975 136.94 54.964 161 70.376L166.5 73.899L198.066 42.45L229.632 11L234.393 11C238.322 11 239.665 11.511 242.077 13.923C244.489 16.335 245 17.678 245 21.607L245 26.368L213.55 57.934L182.101 89.5L185.624 95C197.297 113.223 202.333 129.682 202.297 149.5C202.249 175.964 193.074 197.917 174.06 217.061C161.706 229.5 147.912 237.406 130.238 242.177C120.217 244.882 98.639 245.569 88.633 243.502M125.5 221.652C147.984 215.315 167.168 198.57 175.599 177.922C184.649 155.756 182.335 128.463 169.826 109.813C154.65 87.188 132.713 75 107.168 75C86.07 75 68.571 82.147 54.352 96.572C38.914 112.234 32.521 127.585 32.521 149C32.521 165.585 35.554 176.568 43.627 189.213C54.556 206.333 72.803 218.87 92.162 222.559C100.851 224.215 118.07 223.747 125.5 221.652" />
    <glyph glyph-name="settings"
      unicode="&#xEA1A;"
      horiz-adv-x="256" d="M101.225 253.996C96.996 251.417 96.371 249.585 94.49 234.258C92.263 216.107 92.874 217.472 85.232 213.567C81.529 211.676 76.25 208.62 73.5 206.776L68.5 203.425L54.956 209.142C47.507 212.286 40.233 215.154 38.791 215.516C35.559 216.327 30.029 213.87 28.065 210.75C20.292 198.403 5.682 171.809 5.266 169.252C4.478 164.395 7.594 160.714 20.862 150.832L32.5 142.165L32.394 127.979L32.288 113.793L22.394 106.333C16.952 102.23 10.759 97.061 8.63 94.847C5.227 91.306 4.822 90.38 5.272 87.16C5.571 85.025 10.148 75.966 16.259 65.418C30.084 41.553 29.618 42.195 34.077 40.859C37.729 39.765 38.711 40.028 52.716 45.865C60.847 49.254 67.869 52.021 68.32 52.014C68.771 52.006 71.021 50.714 73.32 49.141C75.619 47.569 80.765 44.6 84.756 42.543C92.831 38.38 92.383 39.229 94.012 25C95.884 8.653 96.79 5.354 100.197 2.488L103.266 -0.095L128.554 0.203C161.001 0.584 159.024 -0.882 161.988 25C163.617 39.229 163.169 38.38 171.244 42.543C175.235 44.6 180.381 47.569 182.68 49.141C184.979 50.714 187.229 52.005 187.68 52.011C188.131 52.017 195.135 49.245 203.245 45.851C217.186 40.017 218.195 39.744 221.745 40.849C223.81 41.491 226.288 43.111 227.251 44.448C232.505 51.742 250.287 84.005 250.703 87C251.365 91.757 249.328 94.122 235.261 104.931L223.712 113.805L223.606 127.985L223.5 142.165L235.138 150.832C248.417 160.722 251.527 164.398 250.724 169.252C250.302 171.808 235.747 198.308 227.932 210.75C225.973 213.869 220.442 216.328 217.209 215.516C215.767 215.154 208.469 212.267 200.991 209.1L187.394 203.342L182.447 206.738C179.726 208.605 174.471 211.68 170.768 213.57C163.126 217.471 163.737 216.106 161.51 234.258C159.629 249.585 159.004 251.417 154.775 253.996C151.747 255.842 149.727 255.993 128 255.993C106.273 255.993 104.253 255.842 101.225 253.996M140 233.708C140 230.331 143.193 208.134 144.076 205.369C145.113 202.125 145.532 201.856 160.311 194.982C164.058 193.24 169.908 189.681 173.311 187.074C184.559 178.458 183.216 178.507 201.242 186.072C207.7 188.782 213.39 191 213.886 191C214.833 191 226.533 171.132 225.878 170.637C198.333 149.852 200.497 152.669 201.608 139.031C202.14 132.504 202.14 123.496 201.608 116.969C200.54 103.862 199.877 104.996 215.5 93.215C221 89.067 225.67 85.54 225.878 85.376C226.57 84.83 214.805 65 213.789 65C213.24 65 207.55 67.194 201.145 69.875C194.74 72.556 188.547 75.043 187.382 75.4C184.337 76.336 180.897 74.745 173.242 68.863C169.534 66.013 163.575 62.38 160 60.789C146.53 54.794 145.119 53.894 144.076 50.631C143.193 47.866 140 25.669 140 22.292C140 21.308 137.139 21 128 21C118.861 21 116 21.308 116 22.292C116 25.669 112.807 47.866 111.924 50.631C110.881 53.894 109.47 54.794 96 60.789C92.425 62.38 86.466 66.013 82.758 68.863C75.103 74.745 71.663 76.336 68.618 75.4C67.453 75.043 61.26 72.556 54.855 69.875C48.45 67.194 42.76 65 42.211 65C41.195 65 29.43 84.83 30.122 85.376C30.33 85.54 35 89.067 40.5 93.215C56.192 105.048 55.533 103.917 54.349 116.998C53.688 124.302 53.688 131.698 54.349 139.002C55.581 152.613 57.737 149.799 30.122 170.637C29.467 171.132 41.167 191 42.114 191C42.61 191 48.3 188.782 54.758 186.072C72.784 178.507 71.441 178.458 82.689 187.074C86.092 189.681 91.942 193.24 95.689 194.982C110.468 201.856 110.887 202.125 111.924 205.369C112.807 208.134 116 230.331 116 233.708C116 234.692 118.861 235 128 235C137.139 235 140 234.692 140 233.708M120.715 169.994C98.57 166.114 82.418 143.762 85.943 121.874C89.675 98.699 111.637 82.321 134.126 85.943C162.223 90.468 178.299 120.009 166.587 145.592C158.583 163.074 139.415 173.271 120.715 169.994M135.685 147.94C139.534 146.492 145.846 140.221 147.575 136.128C149.255 132.152 149.437 124.29 147.94 120.315C146.492 116.466 140.221 110.154 136.128 108.425C134.273 107.641 130.616 107 128 107C125.384 107 121.727 107.641 119.872 108.425C115.779 110.154 109.508 116.466 108.06 120.315C106.563 124.29 106.745 132.152 108.425 136.128C110.081 140.049 116.387 146.453 120 147.883C123.366 149.216 132.211 149.248 135.685 147.94" />
    <glyph glyph-name="fill-add"
      unicode="&#xEA1B;"
      horiz-adv-x="256" d="M128 256A128 128 0 1 1 256 128A128.3733333333333 128.3733333333333 0 0 1 128 256zM192 117.3333333333334H138.6666666666667V64H117.3333333333333V117.3333333333334H64V138.6666666666667H117.3333333333333V192H138.6666666666667V138.6666666666667H192z" />
    <glyph glyph-name="fill-remove"
      unicode="&#xEA1C;"
      horiz-adv-x="256" d="M128 256A128 128 0 1 1 256 128A128.3733333333333 128.3733333333333 0 0 1 128 256zM180.8 90.2826666666667L165.7173333333333 75.2L128 112.9173333333334L90.2826666666667 75.2L75.2 90.2826666666667L112.9173333333333 128L75.2 165.7173333333333L90.2826666666667 180.8L128 143.0826666666667L165.7173333333333 180.8L180.8 165.7173333333333L143.0826666666667 128z" />
    <glyph glyph-name="fill-account"
      unicode="&#xEA1D;"
      horiz-adv-x="256" d="M128 256C57.4186666666667 256 0 198.5813333333333 0 128S57.4186666666667 0 128 0S256 57.4186666666667 256 128S198.5813333333333 256 128 256zM85.3333333333333 149.3333333333334C85.3333333333333 172.896 105.0026666666667 192 128 192S170.6666666666667 172.896 170.6666666666667 149.3333333333334V138.6666666666667C170.6666666666667 115.104 150.9973333333333 96 128 96S85.3333333333333 115.104 85.3333333333333 138.6666666666667V149.3333333333334zM128 21.3333333333333C102.048 21.3333333333333 78.24 30.6773333333333 59.7226666666667 46.144C68.672 63.0293333333333 86.2186666666667 74.6666666666667 106.6666666666667 74.6666666666667H149.3333333333333C169.7813333333333 74.6666666666667 187.328 63.0293333333333 196.2773333333333 46.144C177.76 30.6773333333334 153.952 21.3333333333333 128 21.3333333333333z" />
    <glyph glyph-name="fill-paragraph"
      unicode="&#xEA1E;"
      horiz-adv-x="256" d="M21.3333333333333 245.3333333333334V10.6666666666667A10.6666666666667 10.6666666666667 0 0 1 32 0H224A10.6666666666667 10.6666666666667 0 0 1 234.6666666666667 10.6666666666667V245.3333333333334A10.6666666666667 10.6666666666667 0 0 1 224 256H32A10.6666666666667 10.6666666666667 0 0 1 21.3333333333333 245.3333333333334zM53.3333333333333 202.6666666666667H117.3333333333333V138.6666666666667H53.3333333333333zM202.6666666666667 53.3333333333333H53.3333333333333V74.6666666666667H202.6666666666667zM202.6666666666667 96H53.3333333333333V117.3333333333334H202.6666666666667zM202.6666666666667 138.6666666666667H138.6666666666667V160H202.6666666666667zM202.6666666666667 181.3333333333333H138.6666666666667V202.6666666666667H202.6666666666667z" />
    <glyph glyph-name="fill-flag"
      unicode="&#xEA1F;"
      horiz-adv-x="256" d="M33.0666666666667 199.4666666666667C29.8666666666667 204.8 23.4666666666667 206.9333333333333 19.2 203.7333333333334C13.8666666666667 200.5333333333333 11.7333333333333 194.1333333333333 14.9333333333333 188.8L116.2666666666667 12.8C118.4 9.6 121.6 7.4666666666667 125.8666666666667 7.4666666666667C128 7.4666666666667 129.0666666666667 7.4666666666667 131.2 8.5333333333333C136.5333333333333 11.7333333333333 137.6 18.1333333333333 135.4666666666667 23.4666666666667L33.0666666666667 199.4666666666667zM241.0666666666667 160L193.0666666666667 243.2C192 245.3333333333334 188.8 247.4666666666667 185.6 247.4666666666667C182.4 247.4666666666667 179.2 247.4666666666667 177.0666666666666 244.2666666666667C163.2 231.4666666666667 147.2 230.4 131.2 230.4L119.4666666666667 230.4C98.1333333333333 230.4 74.6666666666667 228.2666666666667 56.5333333333333 201.6L116.2666666666667 99.2C118.4 100.2666666666667 119.4666666666667 101.3333333333333 120.5333333333333 103.4666666666667C133.3333333333333 125.8666666666667 148.2666666666667 126.9333333333333 168.5333333333333 126.9333333333333L179.2 126.9333333333333C198.4 126.9333333333333 219.7333333333333 128 240 146.1333333333333C243.2 149.3333333333334 243.2 154.6666666666667 241.0666666666667 160z" />
    <glyph glyph-name="fill-webpage"
      unicode="&#xEA20;"
      horiz-adv-x="256" d="M245.3333333333333 245.3333333333334H10.6666666666667A10.6666666666667 10.6666666666667 0 0 1 0 234.6666666666667V21.3333333333333A10.6666666666667 10.6666666666667 0 0 1 10.6666666666667 10.6666666666667H245.3333333333333A10.6666666666667 10.6666666666667 0 0 1 256 21.3333333333333V234.6666666666667A10.6666666666667 10.6666666666667 0 0 1 245.3333333333333 245.3333333333334zM74.6666666666667 224A10.6666666666667 10.6666666666667 0 1 0 64 213.3333333333334A10.6666666666667 10.6666666666667 0 0 0 74.6666666666667 224zM32 224A10.6666666666667 10.6666666666667 0 1 0 21.3333333333333 213.3333333333334A10.6666666666667 10.6666666666667 0 0 0 32 224zM234.6666666666667 32H21.3333333333333V181.3333333333334H234.6666666666667zM42.6666666666667 160H85.3333333333333V53.3333333333333H42.6666666666667V160zM106.6666666666667 160H213.3333333333333V53.3333333333333H106.6666666666667V160z" />
    <glyph glyph-name="fill-bulb"
      unicode="&#xEA21;"
      horiz-adv-x="256" d="M0 138.6666666666667H32V117.3333333333334H0V138.6666666666667zM29.94256 210.9690666666667L45.02736 226.0538666666667L67.65456 203.4266666666667L52.56976 188.3418666666667L29.94256 210.9690666666667zM117.3333333333333 256H138.6666666666667V224H117.3333333333333V256zM188.3397333333333 203.4281066666667L210.9669333333333 226.0553066666667L226.0517333333333 210.9705066666667L203.4245333333333 188.3433066666667L188.3397333333333 203.4281066666667zM224 138.6666666666667H256V117.3333333333334H224V138.6666666666667zM128 202.6666666666667C86.8266666666667 202.6666666666667 53.3333333333333 169.1626666666667 53.3333333333333 128C53.3333333333333 99.0506666666667 70.1973333333334 72.8533333333334 96 60.5973333333334V10.6666666666667H160V60.5973333333334C185.8026666666667 72.8426666666667 202.6666666666667 99.04 202.6666666666667 128C202.6666666666667 169.1626666666667 169.1733333333333 202.6666666666667 128 202.6666666666667z" />
    <glyph glyph-name="fill-calendar"
      unicode="&#xEA22;"
      horiz-adv-x="256" d="M202.6666666666667 224V245.3333333333334A10.6666666666667 10.6666666666667 0 0 1 181.3333333333333 245.3333333333334V224zM74.6666666666667 224V245.3333333333334A10.6666666666667 10.6666666666667 0 0 1 53.3333333333333 245.3333333333334V224zM224 10.6666666666667H32A32 32 0 0 0 0 42.6666666666667V181.3333333333334A32 32 0 0 0 32 213.3333333333334H224A32 32 0 0 0 256 181.3333333333334V42.6666666666667A32 32 0 0 0 224 10.6666666666667zM234.6666666666667 160H21.3333333333333V42.6666666666667A10.6666666666667 10.6666666666667 0 0 1 32 32H224A10.6666666666667 10.6666666666667 0 0 1 234.6666666666667 42.6666666666667zM42.6666666666667 138.6666666666667H85.3333333333333V106.6666666666667H42.6666666666667V138.6666666666667zM106.6666666666667 138.6666666666667H149.3333333333333V106.6666666666667H106.6666666666667V138.6666666666667zM42.6666666666667 85.3333333333333H85.3333333333333V53.3333333333333H42.6666666666667V85.3333333333333zM106.6666666666667 85.3333333333333H149.3333333333333V53.3333333333333H106.6666666666667V85.3333333333333zM170.6666666666667 138.6666666666667H213.3333333333333V106.6666666666667H170.6666666666667V138.6666666666667z" />
    <glyph glyph-name="fill-board"
      unicode="&#xEA23;"
      horiz-adv-x="256" d="M234.6666666666667 245.3333333333334H21.3333333333333A10.6666666666667 10.6666666666667 0 0 1 10.6666666666667 234.6666666666667V21.3333333333333A10.6666666666667 10.6666666666667 0 0 1 21.3333333333333 10.6666666666667H234.6666666666667A10.6666666666667 10.6666666666667 0 0 1 245.3333333333333 21.3333333333333V234.6666666666667A10.6666666666667 10.6666666666667 0 0 1 234.6666666666667 245.3333333333334zM117.3333333333333 53.3333333333333H53.3333333333333V117.3333333333334H117.3333333333333zM117.3333333333333 138.6666666666667H53.3333333333333V202.6666666666667H117.3333333333333zM202.6666666666667 53.3333333333333H138.6666666666667V202.6666666666667H202.6666666666667z" />
    <glyph glyph-name="fill-chart"
      unicode="&#xEA24;"
      horiz-adv-x="256" d="M0 42.6666666666667H256V21.3333333333333H0V42.6666666666667zM42.6666666666667 64H64C69.888 64 74.6666666666667 68.7786666666667 74.6666666666667 74.6666666666667V170.6666666666667C74.6666666666667 176.5546666666667 69.888 181.3333333333334 64 181.3333333333334H42.6666666666667C36.7786666666667 181.3333333333334 32 176.5546666666667 32 170.6666666666667V74.6666666666667C32 68.7786666666667 36.7786666666667 64 42.6666666666667 64zM117.3333333333333 64H138.6666666666667C144.5546666666667 64 149.3333333333333 68.7786666666667 149.3333333333333 74.6666666666667V224C149.3333333333333 229.888 144.5546666666667 234.6666666666667 138.6666666666667 234.6666666666667H117.3333333333333C111.4453333333333 234.6666666666667 106.6666666666667 229.888 106.6666666666667 224V74.6666666666667C106.6666666666667 68.7786666666667 111.4453333333333 64 117.3333333333333 64zM181.3333333333333 128V74.6666666666667C181.3333333333333 68.7786666666667 186.112 64 192 64H213.3333333333333C219.2213333333333 64 224 68.7786666666667 224 74.6666666666667V128C224 133.888 219.2213333333333 138.6666666666667 213.3333333333333 138.6666666666667H192C186.112 138.6666666666667 181.3333333333333 133.888 181.3333333333333 128z" />
    <glyph glyph-name="fill-leaf-edit"
      unicode="&#xEA25;"
      horiz-adv-x="256" d="M94.9333333333333 109.8666666666667L67.2 82.1333333333333A10.3146666666667 10.3146666666667 0 0 1 67.2 67.2A10.3146666666667 10.3146666666667 0 0 1 82.1333333333333 67.2L109.8666666666667 94.9333333333333A113.184 113.184 0 0 1 132.2666666666667 92.8A93.3973333333333 93.3973333333333 0 0 1 199.4666666666667 121.6C240 161.0666666666667 245.3333333333333 231.4666666666667 245.3333333333333 233.6A12.1066666666667 12.1066666666667 0 0 1 242.1333333333334 242.1333333333334A12.1066666666667 12.1066666666667 0 0 1 233.6 245.3333333333334C230.4 245.3333333333334 161.0666666666667 240 120.5333333333333 199.4666666666667A95.3386666666667 95.3386666666667 0 0 1 94.9333333333333 109.8666666666667zM224 10.6666666666667H21.3333333333333A10.6666666666667 10.6666666666667 0 0 0 10.6666666666667 21.3333333333333V224A10.6666666666667 10.6666666666667 0 0 0 21.3333333333333 234.6666666666667H96V213.3333333333334H32V32H213.3333333333333V96H234.6666666666667V21.3333333333333A10.6666666666667 10.6666666666667 0 0 0 224 10.6666666666667z" />
    <glyph glyph-name="fill-edit"
      unicode="&#xEA26;"
      horiz-adv-x="256" d="M202.6666666666667 10.6666666666667H21.3333333333333A10.6666666666667 10.6666666666667 0 0 0 10.6666666666667 21.3333333333333V202.6666666666667A10.6666666666667 10.6666666666667 0 0 0 21.3333333333333 213.3333333333334H106.6666666666667V192H32V32H192V106.6666666666667H213.3333333333334V21.3333333333334A10.6666666666667 10.6666666666667 0 0 0 202.6666666666667 10.6666666666667zM213.3333333333333 249.7493333333334L86.6773333333333 123.0933333333333L68.4693333333333 68.4693333333333L123.0933333333333 86.6773333333333L249.7493333333334 213.3333333333334L213.3333333333333 249.7493333333334z" />
    <glyph glyph-name="fill-file"
      unicode="&#xEA27;"
      horiz-adv-x="256" d="M149.3333333333333 74.6666666666667A10.6666666666667 10.6666666666667 0 0 0 160 85.3333333333333H234.6666666666667V245.3333333333334A10.6666666666667 10.6666666666667 0 0 1 224 256H32A10.6666666666667 10.6666666666667 0 0 1 21.3333333333333 245.3333333333334V10.6666666666667A10.6666666666667 10.6666666666667 0 0 1 32 0H149.3333333333333zM228.416 64L170.6666666666667 64L170.6666666666667 6.2506666666667L228.416 64z" />
    <glyph glyph-name="fill-filter"
      unicode="&#xEA28;"
      horiz-adv-x="256" d="M254.784 239.616C252.9386666666667 243.136 249.3013333333334 245.3333333333334 245.3333333333333 245.3333333333334H10.6666666666667C6.6986666666667 245.3333333333334 3.0613333333333 243.136 1.216 239.616C-0.6293333333333 236.1066666666667 -0.3626666666667 231.8506666666667 1.888 228.5973333333333L96 92.672V21.3333333333333C96 15.4346666666667 100.7786666666667 10.6666666666667 106.6666666666667 10.6666666666667H149.3333333333334C155.2213333333334 10.6666666666667 160 15.4346666666667 160 21.3333333333333V92.672L254.1013333333333 228.5973333333333C256.3626666666667 231.8506666666667 256.6293333333333 236.1066666666667 254.784 239.616z" />
    <glyph glyph-name="fill-picture"
      unicode="&#xEA29;"
      horiz-adv-x="256" d="M234.6666666666667 245.3333333333334H21.3333333333333A10.6666666666667 10.6666666666667 0 0 1 10.6666666666667 234.6666666666667V21.3333333333333A10.6666666666667 10.6666666666667 0 0 1 21.3333333333333 10.6666666666667H234.6666666666667A10.6666666666667 10.6666666666667 0 0 1 245.3333333333333 21.3333333333333V234.6666666666667A10.6666666666667 10.6666666666667 0 0 1 234.6666666666667 245.3333333333334zM117.3333333333333 192A21.3333333333333 21.3333333333333 0 1 0 96 170.6666666666667A21.3333333333333 21.3333333333333 0 0 0 117.3333333333333 192zM146.208 56.4586666666667A10.6666666666667 10.6666666666667 0 0 0 132.0106666666667 55.6693333333333L86.144 92.3733333333333L53.3333333333333 59.584L38.2506666666667 74.6666666666667L77.792 114.208A10.6666666666667 10.6666666666667 0 0 0 92 114.9973333333334L137.8666666666667 78.2933333333334L202.6666666666667 143.0826666666667L217.7493333333334 128z" />
    <glyph glyph-name="fill-question"
      unicode="&#xEA2A;"
      horiz-adv-x="256" d="M128 256C57.4186666666667 256 0 198.5813333333333 0 128S57.4186666666667 0 128 0S256 57.4186666666667 256 128S198.5813333333333 256 128 256zM122.6666666666667 53.3333333333333C113.8346666666667 53.3333333333333 106.6666666666667 60.5013333333334 106.6666666666667 69.3333333333333S113.8346666666667 85.3333333333333 122.6666666666667 85.3333333333333S138.6666666666667 78.1653333333333 138.6666666666667 69.3333333333333S131.4986666666667 53.3333333333333 122.6666666666667 53.3333333333333zM168.6506666666667 147.9786666666667C165.3546666666667 142.6986666666667 159.0933333333333 136.768 149.856 130.176C134.912 119.1253333333334 135.3173333333333 116.672 135.3173333333333 106.6666666666667H109.1093333333333C109.1093333333333 114.4853333333333 108.9386666666667 120.4906666666667 113.1626666666667 127.7973333333333C115.8613333333333 132.48 120.8106666666667 137.4613333333333 128 142.7306666666667C136.6293333333333 148.896 145.0133333333333 154.8373333333333 145.0133333333333 165.184C145.0133333333333 174.88 136.7146666666667 178.336 127.0186666666667 178.336C117.1306666666667 178.336 105.856 175.104 93.1946666666667 168.64L82.4106666666667 190.2933333333333C105.4186666666667 203.1893333333333 141.728 209.024 161.5786666666667 192.864C176.1493333333333 180.992 176.2346666666667 160.1173333333333 168.6506666666667 147.9786666666667z" />
    <glyph glyph-name="fill-info"
      unicode="&#xEA2B;"
      horiz-adv-x="256" d="M128 256C57.4186666666667 256 0 198.5813333333333 0 128S57.4186666666667 0 128 0S256 57.4186666666667 256 128S198.5813333333333 256 128 256zM156.352 60.9706666666667C149.3013333333333 58.1973333333334 124.864 46.528 110.784 58.9333333333334C106.5813333333333 62.624 104.4906666666666 67.3066666666667 104.4906666666666 72.992C104.4906666666666 83.6373333333334 107.9893333333333 92.9173333333334 114.2933333333333 115.2C115.4026666666667 119.4133333333334 116.7573333333333 124.8746666666667 116.7573333333333 129.2053333333334C116.7573333333333 136.6826666666667 113.92 138.6666666666667 106.2293333333333 138.6666666666667C102.4746666666666 138.6666666666667 98.3146666666666 137.3333333333334 94.5493333333333 135.9253333333334L96.6293333333333 144.448C105.024 147.8613333333333 115.5626666666666 152.0213333333334 124.5866666666666 152.0213333333334C138.1226666666666 152.0213333333334 148.0853333333333 145.2693333333334 148.0853333333333 132.4266666666667C148.0853333333333 128.7253333333334 147.4453333333333 122.2400000000001 146.1013333333333 117.76L138.3146666666666 90.2186666666667C136.7039999999999 84.6506666666667 133.7919999999999 72.3733333333333 138.3039999999999 68.736C142.7413333333333 65.1413333333334 153.2479999999999 67.0506666666667 158.4319999999999 69.4933333333333L156.352 60.9706666666667zM143.488 170.6666666666667C134.656 170.6666666666667 127.488 177.8346666666667 127.488 186.6666666666667S134.656 202.6666666666667 143.488 202.6666666666667S159.488 195.4986666666667 159.488 186.6666666666667S152.32 170.6666666666667 143.488 170.6666666666667z" />
    <glyph glyph-name="fill-settings"
      unicode="&#xEA2C;"
      horiz-adv-x="256" d="M222.6346666666667 112.5013333333334A96.352 96.352 0 0 1 224 128A96.352 96.352 0 0 1 222.6346666666667 143.4986666666667L245.0346666666667 165.1413333333333A10.6666666666667 10.6666666666667 0 0 1 246.8586666666667 178.1333333333333L230.8586666666667 205.8666666666667A10.7626666666667 10.7626666666667 0 0 1 218.6666666666667 210.784L188.8 202.2506666666667A96.1813333333333 96.1813333333333 0 0 1 161.8453333333333 217.728L154.3466666666667 247.9146666666667A10.6666666666667 10.6666666666667 0 0 1 144 256H112A10.6666666666667 10.6666666666667 0 0 1 101.6533333333333 247.9146666666667L94.112 217.728A96.1813333333333 96.1813333333333 0 0 1 67.2 202.2506666666667L37.3333333333333 210.784A10.7733333333333 10.7733333333333 0 0 1 25.1413333333333 205.8666666666667L9.1413333333333 178.1333333333333A10.6666666666667 10.6666666666667 0 0 1 10.9653333333333 165.1306666666667L33.3653333333333 143.488A96.352 96.352 0 0 1 32 128A96.352 96.352 0 0 1 33.3653333333333 112.5013333333333L10.9653333333333 90.8586666666667A10.6666666666667 10.6666666666667 0 0 1 9.1413333333333 77.8666666666667L25.1413333333333 50.1333333333333A10.6666666666667 10.6666666666667 0 0 1 34.3893333333333 44.8A11.1786666666667 11.1786666666667 0 0 1 37.3226666666667 45.2053333333333L67.1893333333333 53.7386666666667A96.1813333333333 96.1813333333333 0 0 1 94.144 38.2613333333333L101.6853333333333 8.0746666666666A10.6666666666667 10.6666666666667 0 0 1 112 0H144A10.6666666666667 10.6666666666667 0 0 1 154.3466666666667 8.0853333333333L161.888 38.272A96.1813333333333 96.1813333333333 0 0 1 188.8 53.7493333333334L218.6666666666667 45.216A11.1786666666667 11.1786666666667 0 0 1 221.6 44.8106666666667A10.6666666666667 10.6666666666667 0 0 1 230.848 50.144L246.848 77.8773333333334A10.6666666666667 10.6666666666667 0 0 1 245.024 90.88zM128 85.3333333333333A42.6666666666667 42.6666666666667 0 1 0 170.6666666666667 128A42.6666666666667 42.6666666666667 0 0 0 128 85.3333333333333z" />
    <glyph glyph-name="fill-triangle-left"
      unicode="&#xEA2D;"
      horiz-adv-x="256" d="M196.768 233.5466666666667C193.1626666666667 235.3386666666667 188.832 234.944 185.6 232.5333333333334L57.6 136.5333333333333C54.912 134.5173333333334 53.3333333333333 131.36 53.3333333333333 128S54.912 121.4826666666667 57.6 119.4666666666667L185.6 23.4666666666667C187.4773333333333 22.0586666666667 189.7386666666667 21.3333333333333 192 21.3333333333333C193.6213333333333 21.3333333333333 195.264 21.7066666666667 196.768 22.4533333333333C200.384 24.2666666666667 202.6666666666667 27.9573333333333 202.6666666666667 32V224C202.6666666666667 228.0426666666667 200.384 231.7333333333334 196.768 233.5466666666667z" />
    <glyph glyph-name="fill-triangle-right"
      unicode="&#xEA2E;"
      horiz-adv-x="256" d="M70.4 232.5333333333334C67.168 234.9546666666667 62.848 235.3493333333334 59.232 233.5466666666667C55.616 231.7333333333334 53.3333333333333 228.0426666666667 53.3333333333333 224V32C53.3333333333333 27.9573333333333 55.616 24.2666666666667 59.232 22.4533333333333C60.736 21.7066666666667 62.3786666666667 21.3333333333333 64 21.3333333333333C66.2613333333333 21.3333333333333 68.5226666666667 22.0586666666667 70.4 23.4666666666667L198.4 119.4666666666667C201.088 121.472 202.6666666666667 124.64 202.6666666666667 128S201.088 134.5173333333334 198.4 136.5333333333333L70.4 232.5333333333334z" />
    <glyph glyph-name="fill-video"
      unicode="&#xEA2F;"
      horiz-adv-x="256" d="M224 234.6666666666667H32A32 32 0 0 1 0 202.6666666666667V53.3333333333333A32 32 0 0 1 32 21.3333333333333H224A32 32 0 0 1 256 53.3333333333333V202.6666666666667A32 32 0 0 1 224 234.6666666666667zM96 74.6666666666667V181.3333333333334L181.3333333333333 128z" />
    <glyph glyph-name="fill-warning"
      unicode="&#xEA30;"
      horiz-adv-x="256" d="M254.56 37.3333333333333L137.2266666666666 240A11.0933333333333 11.0933333333333 0 0 1 118.7733333333333 240L1.44 37.3333333333333A10.6666666666667 10.6666666666667 0 0 1 10.6666666666667 21.3333333333333H245.3333333333333A10.6666666666667 10.6666666666667 0 0 1 254.56 37.3333333333333zM140.864 170.6666666666667L135.8186666666667 100.2666666666667H120.1813333333333L115.424 170.6666666666667zM128 53.3333333333333A15.648 15.648 0 1 0 143.648 68.9813333333333A15.648 15.648 0 0 0 128 53.3333333333333z" />
    <glyph glyph-name="fill-link"
      unicode="&#xEA31;"
      horiz-adv-x="256" d="M151.9146666666667 151.9146666666667C146.688 157.1413333333333 140.6933333333333 161.28 134.2186666666667 164.384C130.2186666666667 160.3626666666667 128 155.008 128 149.3333333333334C128 147.0613333333333 128.4266666666667 144.9066666666667 129.088 142.848C131.8506666666667 141.1306666666667 134.4746666666667 139.1893333333334 136.832 136.832C144.8853333333333 128.768 149.3333333333333 118.0586666666667 149.3333333333333 106.6666666666667S144.896 84.5546666666667 136.8426666666667 76.4906666666667L104.8426666666667 44.5013333333334C88.7146666666667 28.3733333333334 60.6186666666667 28.3733333333334 44.5013333333333 44.5013333333334C36.4373333333333 52.5653333333333 32 63.2746666666667 32 74.6666666666667S36.4373333333333 96.768 44.4906666666667 104.832L66.9333333333333 127.2746666666667C65.0453333333333 134.3893333333334 64 141.7706666666667 64 149.3333333333334C64 151.0613333333333 64.1386666666667 152.7786666666667 64.2453333333333 154.4853333333334C63.296 153.6426666666667 62.3253333333333 152.8213333333334 61.408 151.9146666666667L29.408 119.9146666666667C17.3226666666667 107.8293333333334 10.6666666666667 91.7653333333333 10.6666666666667 74.6666666666667S17.3226666666667 41.504 29.408 29.4186666666667C41.504 17.3226666666667 57.568 10.6666666666667 74.6666666666667 10.6666666666667S107.8293333333333 17.3226666666667 119.9253333333333 29.4186666666667L151.9253333333333 61.408C164 73.504 170.6666666666667 89.568 170.6666666666667 106.6666666666667S164 139.8293333333334 151.9146666666667 151.9146666666667zM226.592 226.5813333333334C214.496 238.6773333333334 198.432 245.3333333333334 181.3333333333333 245.3333333333334S148.1706666666667 238.6773333333334 136.0746666666667 226.5813333333334L104.0746666666667 194.592C92 182.496 85.3333333333333 166.432 85.3333333333333 149.3333333333334S91.9893333333333 116.1706666666667 104.0746666666667 104.0853333333334C109.3013333333333 98.8586666666667 115.296 94.72 121.7706666666667 91.616C125.7813333333333 95.6373333333334 128 100.992 128 106.6666666666667C128 108.992 127.5626666666667 111.2 126.8693333333333 113.3013333333334C124.1173333333333 114.9546666666667 121.504 116.8426666666667 119.1786666666667 119.168C111.1146666666667 127.232 106.6666666666667 137.9413333333334 106.6666666666667 149.3333333333334S111.104 171.4453333333334 119.1573333333333 179.5093333333334L151.1573333333333 211.4986666666667C159.2213333333333 219.5626666666667 169.9413333333333 224 181.3333333333333 224S203.4453333333333 219.5626666666667 211.5093333333333 211.4986666666667C219.5626666666667 203.4346666666667 224 192.7253333333334 224 181.3333333333334S219.5626666666667 159.232 211.5093333333333 151.168L189.0346666666667 128.6933333333333C190.9333333333333 121.5893333333334 192 114.2186666666667 192 106.6666666666667C192 104.9386666666667 191.872 103.232 191.776 101.5253333333334C192.7253333333334 102.368 193.696 103.1786666666667 194.6026666666667 104.0853333333334L226.6026666666667 136.0853333333334C238.6773333333334 148.1706666666667 245.3333333333333 164.2346666666667 245.3333333333333 181.3333333333334S238.6773333333334 214.496 226.592 226.5813333333334z" />
    <glyph glyph-name="fill-pin"
      unicode="&#xEA32;"
      horiz-adv-x="256" d="M128 256C81.0666666666667 256 32 219.7333333333334 32 160C32 103.4666666666667 117.3333333333333 17.0666666666667 120.5333333333333 13.8666666666667C122.6666666666667 11.7333333333333 124.8 10.6666666666667 128 10.6666666666667S133.3333333333334 11.7333333333333 135.4666666666667 13.8666666666667C138.6666666666667 17.0666666666667 224 103.4666666666667 224 160C224 219.7333333333334 174.9333333333333 256 128 256zM128 128C109.8666666666667 128 96 141.8666666666667 96 160S109.8666666666667 192 128 192S160 178.1333333333333 160 160S146.1333333333333 128 128 128z" />
    <glyph glyph-name="fill-bell"
      unicode="&#xEA33;"
      horiz-adv-x="256" d="M213.3333333333333 149.3333333333334V170.6666666666667A85.3333333333333 85.3333333333333 0 0 1 42.6666666666667 170.6666666666667V149.3333333333334A47.3706666666667 47.3706666666667 0 0 0 26.1653333333333 115.2746666666667A44.6186666666667 44.6186666666667 0 0 1 10.6666666666667 85.3333333333333C10.6666666666667 58.6666666666667 54.528 42.6666666666667 128 42.6666666666667S245.3333333333333 58.6666666666667 245.3333333333333 85.3333333333333A44.6186666666667 44.6186666666667 0 0 1 229.8346666666667 115.2746666666667A47.3706666666667 47.3706666666667 0 0 0 213.3333333333333 149.3333333333334zM97.5466666666667 22.4A31.9146666666667 31.9146666666667 0 0 1 158.4533333333333 22.4C148.9173333333333 21.696 138.784 21.3333333333334 128 21.3333333333334S107.0826666666667 21.6746666666667 97.5466666666667 22.4z" />
    <glyph glyph-name="down"
      unicode="&#xEA34;"
      horiz-adv-x="256" d="M128 81.7813333333334A14.1866666666667 14.1866666666667 0 0 0 117.9413333333333 85.9413333333334L50.9973333333333 152.8853333333333L71.1146666666667 173.0133333333334L128 116.1066666666667L184.8853333333333 173.0133333333334L205.0026666666667 152.896L138.0586666666667 85.952C135.2853333333333 83.1786666666667 131.6373333333333 81.792 128 81.792z" />
    <glyph glyph-name="left"
      unicode="&#xEA35;"
      horiz-adv-x="256" d="M81.7813333333333 128A14.1866666666667 14.1866666666667 0 0 0 85.9413333333333 138.0586666666667L152.8853333333333 205.0026666666667L173.0133333333333 184.8853333333333L116.1066666666667 128L173.0133333333333 71.1146666666667L152.896 50.9973333333334L85.952 117.9413333333334C83.1786666666667 120.7146666666667 81.792 124.3626666666667 81.792 128z" />
    <glyph glyph-name="right"
      unicode="&#xEA36;"
      horiz-adv-x="256" d="M174.2186666666667 128A14.1866666666667 14.1866666666667 0 0 0 170.0586666666667 117.9413333333334L103.1146666666667 50.9973333333334L82.9866666666667 71.1146666666667L139.8933333333333 128L82.9866666666667 184.8853333333333L103.104 205.0026666666667L170.048 138.0586666666667C172.8213333333334 135.2853333333334 174.208 131.6373333333334 174.208 128z" />
    <glyph glyph-name="up"
      unicode="&#xEA37;"
      horiz-adv-x="256" d="M128 174.2186666666667A14.1866666666667 14.1866666666667 0 0 1 117.9413333333333 170.0586666666667L50.9973333333333 103.1146666666667L71.1146666666667 82.9866666666667L128 139.8933333333334L184.8853333333333 82.9866666666667L205.0026666666667 103.104L138.0586666666667 170.048C135.2853333333333 172.8213333333334 131.6373333333333 174.208 128 174.208z" />
    <glyph glyph-name="fill-check"
      unicode="&#xEA38;"
      horiz-adv-x="256" d="M128 256A128 128 0 1 1 256 128A128.3733333333333 128.3733333333333 0 0 1 128 256zM106.6666666666667 70.2506666666667L48.9173333333333 128L64 143.0826666666667L106.6666666666667 100.416L192 185.7493333333333L207.0826666666667 170.6666666666667z" />
    <glyph glyph-name="home-minimal"
      unicode="&#xEA39;"
      horiz-adv-x="256" d="M121.973 243.288C114.551 238.149 15.005 157.822 13.175 155.495L11 152.73L11 80.412C11 28.463 11.321 7.39 12.139 5.595C14.593 0.209 16.351 0 59.151 0.004C96.36 0.007 98.673 0.113 101.689 1.952C103.831 3.258 105.224 5.143 105.933 7.698C106.572 9.997 106.991 24.05 106.994 43.25L107 75L128 75L149 75L149.006 43.25C149.009 24.05 149.428 9.997 150.067 7.698C150.776 5.143 152.169 3.258 154.311 1.952C157.327 0.113 159.64 0.007 196.849 0.004C239.649 0 241.407 0.209 243.861 5.595C244.679 7.39 245 28.463 245 80.412L245 152.73L242.825 155.495C240.995 157.822 141.449 238.149 134.027 243.288C130.859 245.482 125.141 245.482 121.973 243.288M176.858 182L223.911 144.5L223.955 82.75L224 21L197.549 21L171.099 21L170.799 54.75C170.472 91.621 170.391 92.134 164.439 94.846C160.892 96.462 95.108 96.462 91.561 94.846C85.609 92.134 85.528 91.621 85.201 54.75L84.901 21L58.451 21L32 21L32.046 82.75L32.092 144.5L79.296 182.22C105.258 202.966 127.244 219.841 128.153 219.72C129.062 219.599 150.979 202.625 176.858 182" />
    <glyph glyph-name="fill-folder"
      unicode="&#xEA3A;"
      horiz-adv-x="256" d="M245.3333333333333 170.6666666666667H53.3333333333333A10.6666666666667 10.6666666666667 0 0 1 42.6666666666667 160V42.6666666666667A10.6666666666667 10.6666666666667 0 1 0 21.3333333333333 42.6666666666667V224H68.96L87.0933333333333 196.7466666666667A10.6666666666667 10.6666666666667 0 0 1 96 192H202.6666666666667V181.3333333333334H224V202.6666666666667A10.6666666666667 10.6666666666667 0 0 1 213.3333333333334 213.3333333333334H101.7066666666667L83.5733333333333 240.5866666666667A10.6666666666667 10.6666666666667 0 0 1 74.6666666666667 245.3333333333334H10.6666666666667A10.6666666666667 10.6666666666667 0 0 1 0 234.6666666666667V42.6666666666667A32.1173333333333 32.1173333333333 0 0 1 32 10.6666666666667L42.6666666666667 10.6666666666667V10.6666666666667H224A32.128 32.128 0 0 1 256 42.6666666666667V160A10.6666666666667 10.6666666666667 0 0 1 245.3333333333333 170.6666666666667z" />
    <glyph glyph-name="add"
      unicode="&#xEA3C;"
      horiz-adv-x="256" d="M234.6666666666667 138.6666666666667H138.6666666666667V234.6666666666667C138.6666666666667 241.0666666666667 134.4 245.3333333333334 128 245.3333333333334S117.3333333333333 241.0666666666667 117.3333333333333 234.6666666666667V138.6666666666667H21.3333333333333C14.9333333333333 138.6666666666667 10.6666666666667 134.4 10.6666666666667 128S14.9333333333333 117.3333333333334 21.3333333333333 117.3333333333334H117.3333333333333V21.3333333333333C117.3333333333333 14.9333333333333 121.6 10.6666666666667 128 10.6666666666667S138.6666666666667 14.9333333333334 138.6666666666667 21.3333333333333V117.3333333333334H234.6666666666667C241.0666666666667 117.3333333333334 245.3333333333333 121.6 245.3333333333333 128S241.0666666666667 138.6666666666667 234.6666666666667 138.6666666666667z" />
    <glyph glyph-name="fill-dong"
      unicode="&#xEA3D;"
      horiz-adv-x="256" d="M128 256C198.688 256 256 198.688 256 128S198.688 0 128 0S0 57.312 0 128S57.312 256 128 256zM176.4586666666667 64.8853333333333H85.3333333333333V64L85.408 62.752A10.6666666666667 10.6666666666667 0 0 1 96 53.3333333333333H165.792L167.04 53.408A10.6666666666667 10.6666666666667 0 0 1 176.4586666666667 64V64.8853333333333zM166.6666666666667 192H146.72V179.2213333333334H115.7866666666667V164.8213333333333H146.72V142.8053333333333L146.24 143.6906666666667L145.0346666666667 145.4933333333334A25.6213333333333 25.6213333333333 0 0 1 140.4906666666667 150.208L138.6773333333333 151.552L136.736 152.768C132.128 155.4133333333333 126.848 156.736 120.896 156.736C113.8773333333333 156.736 107.6586666666667 155.008 102.2293333333333 151.552C96.8106666666667 148.1066666666667 92.64 143.2 89.7173333333333 136.832C86.7946666666667 130.4746666666667 85.3333333333333 123.0293333333334 85.3333333333333 114.5066666666667C85.3333333333333 105.984 86.8266666666667 98.496 89.8026666666667 92.0213333333333C92.7786666666667 85.5466666666667 96.9493333333333 80.5653333333333 102.3146666666667 77.056C107.6906666666667 73.5466666666667 113.8773333333334 71.7973333333333 120.896 71.7973333333333C127.7013333333334 71.7973333333333 133.6213333333333 73.44 138.6773333333333 76.736A24 24 0 0 1 146.2506666666667 84.5226666666667L147.0506666666667 85.9946666666667V72.928H166.6666666666667V164.8213333333334H181.3333333333333V179.2213333333334H166.6666666666667V192zM126.3146666666667 140.8746666666667C132.9066666666667 140.8746666666667 138.016 138.56 141.6213333333333 133.92C145.248 129.28 147.0506666666667 122.7093333333334 147.0506666666667 114.1866666666667C147.0506666666667 105.5466666666667 145.2373333333334 98.9333333333333 141.6213333333333 94.2826666666667C138.016 89.6533333333333 132.9066666666667 87.328 126.3146666666667 87.328C119.616 87.328 114.4106666666667 89.7066666666667 110.688 94.4533333333334C106.9653333333333 99.1893333333333 105.1093333333333 105.8773333333334 105.1093333333333 114.5066666666667C105.1093333333333 122.9226666666667 106.9653333333333 129.4186666666667 110.688 134.0053333333334C114.4106666666667 138.592 119.616 140.8746666666667 126.3146666666667 140.8746666666667z" />
    <glyph glyph-name="fill-pinch"
      unicode="&#xEA3E;"
      horiz-adv-x="256" d="M201.7499733333333 186.6666666666667L242.20832 227.1250133333334L227.1250133333334 242.20832L186.6666666666667 201.7499733333334L138.6666666666667 249.7499733333334L138.6666666666667 138.6666666666667L249.7499733333333 138.6666666666667zM54.2500266666667 69.3333333333333L13.79168 28.8749866666667L28.8749866666667 13.79168L69.3333333333333 54.2500266666667L117.3333333333333 6.2500266666667L117.3333333333333 117.3333333333334L6.2500266666667 117.3333333333334z" />
    <glyph glyph-name="fill-hand"
      unicode="&#xEA3F;"
      horiz-adv-x="256" d="M193.36128 154.90432L106.6666666666667 170.6666666666667V222.8587733333333C106.6666666666667 233.48576 99.4055466666667 243.33472 88.9166933333333 245.0417066666667C75.5508266666667 247.2154666666667 64 236.9576533333334 64 224V106.6666666666667H53.3333333333333V138.6666666666667H42.6666666666667C30.8848 138.6666666666667 21.3333333333333 129.11584 21.3333333333333 117.3333333333334V86.44992C21.3333333333333 71.9173333333334 26.2792533333333 57.8170666666667 35.35808 46.4688L64 10.6666666666667H202.6666666666667L219.26496 118.5546666666667C221.9003733333333 135.6868266666667 210.416 151.8034133333334 193.36128 154.90432z" />
    <glyph glyph-name="p-search"
      unicode="&#xEA40;"
      horiz-adv-x="256" d="M41.576 253.517C33.866 250.347 26.688 243.309 23.738 236.026L21.5 230.5L21.5 128.5C21.5 30.934 21.582 26.263 23.397 21.05C25.715 14.389 32.504 6.833 39.48 3.15L44.5 0.5L83.169 0.5L121.838 0.5L124.404 2.91C127.831 6.129 128.636 10.858 126.516 15.325C125.597 17.261 124.093 19.217 123.173 19.67C122.253 20.124 105.138 20.722 85.139 20.998L48.778 21.5L45.889 24.962L43 28.424L43 127.99C43 218.42 43.15 227.769 44.631 229.883C48.221 235.008 48.102 235 117.567 235C175.314 235 182.565 234.826 185.643 233.365C191.992 230.353 192 230.291 192 187.199C192 161.308 192.371 147.235 193.108 145.119C194.403 141.406 198.439 139 203.373 139C205.927 139 207.671 139.824 209.962 142.116L213.078 145.232L212.789 189.366L212.5 233.5L209.534 238.855C205.752 245.683 199.281 251.377 192.36 253.967C187.084 255.941 184.888 255.999 117.212 255.976L47.5 255.953L41.576 253.517M184.715 105.994C162.57 102.114 146.418 79.762 149.943 57.874C154.389 30.265 183.618 13.89 208.671 24.973L213.405 27.067L225.953 14.642C239.465 1.261 241.194 0 246.034 0C250.426 0 256 5.574 256 9.966C256 14.806 254.739 16.535 241.358 30.047L228.933 42.595L231.027 47.329C237.35 61.622 234.777 78.893 224.446 91.501C215.483 102.439 198.917 108.482 184.715 105.994M199.685 83.94C203.534 82.492 209.846 76.221 211.575 72.128C213.255 68.152 213.437 60.29 211.94 56.315C210.492 52.466 204.221 46.154 200.128 44.425C198.273 43.641 194.616 43 192 43C189.384 43 185.727 43.641 183.872 44.425C179.779 46.154 173.508 52.466 172.06 56.315C170.563 60.29 170.745 68.152 172.425 72.128C174.081 76.049 180.387 82.453 184 83.883C187.366 85.216 196.211 85.248 199.685 83.94" />
    <glyph glyph-name="pin"
      unicode="&#xEA41;"
      horiz-adv-x="256" d="M111.843 254.458C82.868 249.944 55.088 229.965 42.19 204.365C34.411 188.925 30.71 167.99 32.878 151.691C35.315 133.375 45.503 110.408 62.459 85.01C77.741 62.118 102.978 30.929 117.289 17.25C123.172 11.626 124.245 11 128 11C131.755 11 132.828 11.626 138.711 17.25C161.431 38.968 195.535 84.61 209.365 111.809C221.524 135.721 225.314 151.998 223.21 171.269C219.923 201.376 204.333 226.124 179.014 241.43C158.768 253.669 135.611 258.1600000000001 111.843 254.458M148.15 231.844C162.567 228.058 177.69 218.379 186.524 207.282C202.099 187.716 206.436 162.763 198.369 139.129C192.977 123.332 178.221 98.45 160.635 75.5C151.661 63.789 128.953 37 128 37C127.639 37 121.872 43.412 115.185 51.25C78.208 94.59 57.505 129.285 54.04 153.721C52.922 161.599 53.998 174.04 56.557 182.844C60.291 195.688 69.455 209.383 79.758 217.516C99.574 233.159 123.806 238.235 148.15 231.844M120.715 201.994C98.574 198.115 82.419 175.758 85.943 153.874C89.675 130.699 111.637 114.321 134.126 117.943C162.223 122.468 178.299 152.009 166.587 177.592C158.583 195.074 139.415 205.271 120.715 201.994M135.685 179.94C139.534 178.492 145.846 172.221 147.575 168.128C149.401 163.808 149.401 156.192 147.575 151.872C145.846 147.779 139.534 141.508 135.685 140.06C131.71 138.563 123.848 138.745 119.872 140.425C115.779 142.154 109.508 148.466 108.06 152.315C106.575 156.259 106.74 164.459 108.381 168.282C110.001 172.059 115.852 177.89 119.757 179.621C123.218 181.156 131.989 181.331 135.685 179.94" />
    <glyph glyph-name="gender"
      unicode="&#xEA42;"
      horiz-adv-x="256" d="M197.303 243.803C194.179 242.294 191.678 236.532 192.422 232.563C192.757 230.779 194.184 228.235 195.595 226.91C197.874 224.767 199.317 224.445 208.602 224L219.045 223.5L206.58 211.072L194.115 198.645L188.267 202.254C167.585 215.02 140.801 216.652 118.231 206.523L112.006 203.73L105.253 206.721C93.726 211.827 85.558 213.301 71.703 212.776C61.846 212.402 57.929 211.782 51.329 209.55C27.134 201.369 8.258 180.891 1.903 155.928C0.145 149.021 0.106 129.234 1.837 122C8.485 94.22 31.641 71.106 58.023 65.916L64 64.74L64 53.979L64 43.219L56.396 42.835C49.3 42.476 48.598 42.234 45.896 39.21C43.732 36.788 43 34.965 43 32C43 29.035 43.732 27.212 45.896 24.79C48.598 21.766 49.3 21.524 56.396 21.165L64 20.781L64 13.791C64 7.174 64.182 6.618 67.4 3.4C71.086 -0.286 74.797 -0.961 79.528 1.195C83.336 2.93 85 6.961 85 14.45L85 21L91.099 21C98.702 21 103.345 23.1 105.423 27.478C107.383 31.61 107.383 32.39 105.423 36.522C103.341 40.908 98.704 43 91.065 43L84.932 43L85.216 53.688L85.5 64.376L92 66.058C98.839 67.827 108.769 71.563 110.542 73.035C111.167 73.553 113.59 72.956 116.545 71.556C131.65 64.397 146.512 62.468 163.391 65.476C191.823 70.543 215.238 93.062 222.163 122C223.894 129.234 223.855 149.021 222.097 155.928C220.061 163.924 216.335 172.581 212.439 178.366L209 183.473L221.75 196.257L234.5 209.042L235 198.169C235.311 191.416 235.991 186.706 236.796 185.74C238.77 183.37 244.59 180.919 246.659 181.587C255.802 184.538 256 185.233 256 214.373L256 238.846L252.923 241.923L249.846 245L224.673 244.932C209.105 244.89 198.662 244.46 197.303 243.803M89.684 189.871L93.867 188.5L89.285 182.5C79.755 170.023 75.045 155.765 75.017 139.312C74.987 121.213 80.276 105.484 90.7 92.673C91.965 91.119 93 89.484 93 89.042C93 86.261 71.015 84.868 61.339 87.036C42.124 91.342 24.803 110.849 22.058 131.273C18.25 159.607 35.102 183.456 64.5 191.34C68.055 192.293 85.376 191.283 89.684 189.871M166.886 189.107C174.766 186.368 178.516 183.858 186.985 175.655C212.746 150.703 205.268 106.906 172.525 90.968C163.951 86.794 151.976 84.433 145.08 85.556C130.366 87.954 128.899 88.789 132.953 92.458C136.382 95.56 142.794 107.239 145.605 115.5C147.8 121.95 148.415 125.864 148.783 135.703C149.561 156.559 145.104 169.456 130.836 187.636C130.215 188.428 131.693 189.246 135.723 190.341C143.943 192.574 158.577 191.995 166.886 189.107M116.5 171.503C122.079 163.85 124.622 158.593 126.568 150.691C128.708 142 128.097 129.938 125.062 120.95C122.951 114.698 114.04 101 112.085 101C110.062 101 101.07 114.636 98.948 120.919C94.543 133.967 95.497 150.496 101.304 161.758C103.633 166.274 111.158 176.989 112 176.989C112.275 176.989 114.3 174.52 116.5 171.503" />
    <glyph glyph-name="users-wm"
      unicode="&#xEA43;"
      horiz-adv-x="256" d="M162.951 233.939C154.654 232.718 145.922 229.101 142.123 225.313C139.014 222.213 138.788 221.574 139.275 217.256C140.259 208.519 147.37 205.662 157 210.133C162.751 212.803 173.503 213.679 179.595 211.973C182.136 211.262 186.754 208.809 189.857 206.521C200.25 198.861 203.547 188.601 202.822 166.174C202.459 154.951 202.096 152.813 199.652 147.5C196.715 141.116 192.485 136.099 187.356 132.918C182.371 129.826 180.644 125.029 181.263 115.991C181.901 106.682 184.488 101.108 190.037 97.088C192.227 95.502 203.24 90.51 214.51 85.996L235 77.789L235 60.394L235 43L219.25 42.994C200.709 42.988 196.666 42.14 193.952 37.689C191.643 33.902 191.489 30.888 193.415 27.165C196.152 21.872 198.161 21.5 224 21.5C242.898 21.5 248.252 21.797 250.434 22.965C255.659 25.761 256 27.711 255.994 54.7C255.989 80.429 255.498 84.504 251.74 90.026C248.211 95.21 245.52 96.697 223.867 105.433C209.42 111.261 203.402 114.156 203.163 115.393C202.962 116.438 204.995 119.416 208.233 122.819C214.454 129.356 218.536 135.927 221.33 143.903C223.825 151.024 224.953 183.07 223.022 191.953C218.434 213.058 201.18 229.816 180.185 233.56C171.638 235.084 170.845 235.101 162.951 233.939M75.5 223.286C60.493 219.666 49.333 212.107 40.96 199.89C35.833 192.408 32.918 183.427 32.067 172.49C31.101 160.068 27.243 151.932 15.313 137.158C8.514 128.739 9.731 122.522 19.8 114.234C26.443 108.766 30.83 106.285 39.358 103.176L46.802 100.462L29.152 93.481C14.085 87.521 10.822 85.842 6.851 82C3.878 79.124 1.805 76.057 1.105 73.5C-0.395 68.015 -0.356 30.875 1.154 27.561C1.789 26.168 3.476 24.234 4.904 23.264C7.32 21.623 12.813 21.482 84 21.238C155.365 20.994 160.735 21.095 164 22.738C170.495 26.007 171.131 28.753 170.782 52C170.498 70.891 170.3 72.826 168.266 76.653C164.766 83.237 160.287 86.064 141.622 93.466L124.126 100.405L131.813 103.361C148.536 109.793 160 119.941 160 128.312C160 130.729 159.367 131.74 150.696 143.168C142.904 153.438 140.17 160.202 138.558 173.201C136.448 190.208 132.73 198.27 122.089 208.911C115.839 215.161 107.099 220.091 97.955 222.525C92.796 223.897 79.855 224.336 75.5 223.286M90.535 201.909C98.078 200.514 102.569 198.196 107.739 193.026C113.586 187.179 116.087 181.382 117.165 171.178C118.712 156.536 122.499 146.336 131.027 133.843L134.959 128.083L128.73 125.131C125.303 123.508 118.057 121.226 112.628 120.06C107.198 118.894 101.915 117.49 100.888 116.94C94.694 113.625 94.374 99.676 100.29 90.898C103.328 86.389 107.137 84.377 129.75 75.331L149 67.631L149 55.315L149 43L85 43L21 43L21.009 55.25L21.018 67.5L37.259 73.891C63.394 84.175 67.099 86.067 70.377 90.81C73.699 95.618 75.347 102.717 74.508 108.6C73.588 115.046 70.275 117.389 58.587 119.865C53.135 121.019 45.769 123.324 42.217 124.985C35.856 127.962 35.784 128.04 37.371 130.253C46.638 143.177 51.813 155.902 53.132 169C54.349 181.089 57.849 189.121 64.114 194.197C70.855 199.659 73.643 200.874 84.066 202.89C84.378 202.951 87.289 202.509 90.535 201.909" />
    <glyph glyph-name="tablet-mobile"
      unicode="&#xEA44;"
      horiz-adv-x="256" d="M14.736 254.804C9.226 253.327 2.609 246.477 1.17 240.759C-0.49 234.17 -0.49 85.83 1.17 79.241C2.716 73.098 9.171 66.698 15.402 65.129C18.502 64.348 39.78 64 84.363 64L148.841 64L149.171 40.25C149.481 17.89 149.634 16.229 151.785 11.862C154.237 6.886 159.499 2.578 165.08 0.977C169.965 -0.424 234.951 -0.293 240.598 1.129C246.829 2.698 253.284 9.098 254.83 15.241C256.326 21.181 256.487 149.708 255.005 155.041C253.87 159.128 250.136 164.516 246.839 166.825C245.587 167.703 242.523 168.938 240.031 169.57L235.5 170.719L235 205.11C234.581 233.937 234.238 240.066 232.883 243C230.831 247.44 227.215 251.294 222.887 253.653C219.663 255.411 214.665 255.508 119 255.656C54.069 255.757 17.168 255.455 14.736 254.804M213 203L213 171L202.5 171L192 171L192 187.599C192 205.782 191.09 209.727 186.405 211.861C184.631 212.67 167.652 213 127.903 213C66.197 213 67.278 213.105 65.108 206.881C63.57 202.469 63.57 117.531 65.108 113.119C67.21 107.09 67.88 107 110.45 107L149 107L149 96L149 85L85 85L21 85L21 160L21 235L117 235L213 235L213 203M171 181.519L171 171.038L168.25 170.429C161.371 168.906 158.895 167.61 155.195 163.595C150.309 158.295 149 152.982 149 138.451L149 128L117 128L85 128L85 160L85 192L128 192L171 192L171 181.519M38.014 169.289C33.64 167.044 31.793 163.583 32.371 158.711C32.916 154.115 34.442 152.132 38.854 150.288C49.042 146.03 57.737 158.77 50.25 166.987C46.742 170.837 42.562 171.623 38.014 169.289M235 106.5L235 64L203 64L171 64L171 106.5L171 149L203 149L235 149L235 106.5M235 32L235 21L203 21L171 21L171 32L171 43L203 43L235 43L235 32" />
    <glyph glyph-name="focus"
      unicode="&#xEA45;"
      horiz-adv-x="256" d="M6.5 255.08C5.4 254.616 3.6 253.236 2.5 252.013C0.609 249.911 0.5 248.382 0.5 223.976L0.5 198.161L2.91 195.596C4.235 194.185 6.779 192.757 8.563 192.422C12.697 191.647 18.325 194.224 19.861 197.595C20.574 199.159 21 206.626 21 217.547L21 235L38.55 235C58.57 235 61.074 235.664 62.995 241.486C64.487 246.005 63.557 250.128 60.369 253.124C57.864 255.48 57.631 255.502 33.171 255.712C19.602 255.828 7.6 255.544 6.5 255.08M199 255.319C193.66 253.278 191.078 247.322 193.005 241.486C194.926 235.664 197.43 235 217.45 235L235 235L235 217.547C235 206.626 235.426 199.159 236.139 197.595C237.675 194.224 243.303 191.647 247.437 192.422C249.221 192.757 251.765 194.185 253.09 195.596L255.5 198.161L255.5 224.058L255.5 249.955L252.729 252.727L249.958 255.5L225.229 255.696C211.628 255.804 199.825 255.634 199 255.319M119 233.84C108.503 232.366 97.299 226.246 89.545 217.75C78.558 205.712 74.371 194.208 75.218 178.386C76.387 156.536 89.816 138.481 110.652 130.747C115.401 128.984 118.661 128.576 128 128.576C137.339 128.576 140.599 128.984 145.348 130.747C166.184 138.481 179.613 156.536 180.782 178.386C181.629 194.208 177.442 205.712 166.455 217.75C158.272 226.716 147.595 232.333 135.678 233.943C131.375 234.524 127.325 234.944 126.678 234.877C126.03 234.809 122.575 234.342 119 233.84M142.868 209.475C162.639 198.715 165.805 173.316 149.299 157.877C130.038 139.86 97.924 152.948 96.245 179.5C95.333 193.935 103.7 206.379 117.882 211.679C120.162 212.531 124.463 212.911 129.512 212.707C136.088 212.441 138.483 211.862 142.868 209.475M102 115.489C67.581 110.26 50.624 99.548 44.423 79.119C43.541 76.211 43.018 69.804 43.011 61.827L43 49.154L46.077 46.077L49.154 43L128 43L206.846 43L209.923 46.077L213 49.154L212.989 61.827C212.974 79.762 210.412 87.246 201.024 96.783C191.609 106.349 174.681 112.799 150.678 115.967C140.155 117.356 112.501 117.085 102 115.489M157.777 93.142C171.744 90.135 179.269 87.318 183.888 83.364C188.983 79.003 190.685 75.856 191.574 69.156L192.258 64L128.129 64L64 64L64.006 66.75C64.021 74.212 68.409 81.618 75.362 85.915C79.548 88.502 94.106 92.64 105.5 94.482C118.131 96.524 145.301 95.828 157.777 93.142M6.5 63.055C5.4 62.604 3.6 61.236 2.5 60.013C0.609 57.911 0.5 56.382 0.5 31.918L0.5 6.045L3.273 3.273L6.045 0.5L31.942 0.5L57.839 0.5L60.404 2.91C61.815 4.235 63.243 6.779 63.578 8.563C64.353 12.697 61.776 18.325 58.405 19.861C56.841 20.574 49.374 21 38.453 21L21 21L21 38.55C21 58.229 20.303 61.002 14.881 62.892C11.221 64.167 9.31 64.205 6.5 63.055M240.476 62.652C235.616 60.458 235 57.735 235 38.453L235 21L217.547 21C206.626 21 199.159 20.574 197.595 19.861C194.224 18.325 191.647 12.697 192.422 8.563C192.757 6.779 194.185 4.235 195.596 2.91L198.161 0.5L224.058 0.5L249.955 0.5L252.727 3.273L255.5 6.045L255.5 32L255.5 57.955L252.946 60.508C249.858 63.597 244.579 64.504 240.476 62.652" />
    <glyph glyph-name="oa"
      unicode="&#xEA46;"
      horiz-adv-x="256" d="M102.056 243.454C84.562 239.196 68.033 225.867 60.16 209.669C54.551 198.129 53.54 192.891 53.56 175.5C53.58 159.026 54.586 153.661 60.163 140.262C63.359 132.586 70.047 121.837 74.775 116.78C77.745 113.601 78.161 113.858 65.5 111.065C31.285 103.519 19.664 95.87 13.005 76.514C11.193 71.249 11 68.103 11 43.92L11 17.154L14.077 14.077L17.154 11L74.354 11C137.434 11 134.193 10.672 137.373 17.374C138.99 20.781 138.881 22.292 136.695 26.835C134.228 31.961 133.811 32 81.05 32L32 32L32 49.134C32 68.42 32.745 72.174 37.732 77.999C40.802 81.587 42.404 82.378 53.821 85.943C73.176 91.988 86.312 94.198 113.5 95.984C128.994 97.002 135.681 98.745 144.421 104.041C158.134 112.352 171.197 129.465 177.064 146.803C180.129 155.864 180.373 157.583 180.773 173C181.265 191.91 180.274 197.523 174.24 210C171.464 215.739 168.604 219.509 162.056 226.056C152.734 235.379 144.074 240.446 132.356 243.433C124.961 245.319 109.761 245.329 102.056 243.454M126.022 222.996C133.549 221.568 141.327 217.323 147.099 211.491C156.674 201.818 159.972 192.593 159.968 175.5C159.965 162.643 158.044 153.782 153.301 144.743C148.769 136.103 137.974 124.341 131.706 121.21C118.381 114.555 104.667 117.296 93.224 128.901C85.584 136.65 81.324 143.407 77.928 153.166C75.282 160.766 75.027 162.688 75.024 175C75.021 194.1 77.622 201.65 87.589 211.459C98.141 221.843 111.289 225.79 126.022 222.996M194.475 100.893C189.278 90.397 185.803 84.525 184.5 84.037C183.4 83.625 174.959 82.224 165.742 80.923L148.984 78.558L162.523 65.529L176.063 52.5L172.993 34.622C171.304 24.789 170.053 16.64 170.211 16.513C170.37 16.386 177.7 20.097 186.5 24.758L202.5 33.233L219.106 24.647C233.76 17.069 235.663 16.321 235.304 18.28C235.08 19.501 233.6 27.7 232.016 36.5L229.134 52.5L242.713 65.472L256.293 78.443L237.953 81.249C227.866 82.791 219.526 84.154 219.419 84.277C219.313 84.4 215.572 91.812 211.107 100.75C206.642 109.687 202.867 117 202.719 117C202.571 117 198.861 109.752 194.475 100.893" />
    <glyph glyph-name="signature"
      unicode="&#xEA47;"
      horiz-adv-x="256" d="M109.923 242.077C105.273 237.427 105.964 231.018 111.79 224.77L114.336 222.04L104.918 217.645C73.686 203.072 48.305 190.681 46.685 189.215C45.656 188.284 44.386 186.721 43.862 185.742C43.155 184.42 28.558 92.522 21.348 44C20.634 39.198 24.278 33.817 29.034 32.648C34.264 31.363 173.278 53.07 176.838 55.728C178.558 57.012 184.498 68.427 195.338 91.28L211.305 124.94L214.763 121.903C221.286 116.176 226.557 115.824 231.288 120.799C234.526 124.203 235.422 127.747 234.003 131.539C232.76 134.861 127.136 241.269 122.8 243.568C118.249 245.981 113.248 245.402 109.923 242.077M162.949 173.551L195.387 141.101L188.652 126.801C184.948 118.935 177.755 103.758 172.669 93.074L163.421 73.648L113.46 65.958C85.982 61.729 63.426 58.32 63.335 58.384C63.244 58.448 72.019 67.669 82.835 78.877L102.5 99.253L107.285 97.627C118.171 93.926 130.278 96.679 138.825 104.799C146.644 112.226 148.494 116.665 148.497 128C148.5 136.664 148.239 137.971 145.534 142.855C134.987 161.896 111.076 165.642 95.302 150.725C86.854 142.734 83.37 129.354 86.945 118.627L88.236 114.755L68.37 94.87C57.444 83.934 48.387 75.339 48.243 75.771C47.797 77.11 62.995 173.396 63.769 174.141C64.485 174.829 129.011 205.799 130.006 205.932C130.284 205.97 145.109 191.398 162.949 173.551M121.643 137.365C125.268 135.645 128 131.585 128 127.918C128 124.485 124.239 119.279 120.924 118.123C116.471 116.571 112.25 117.805 109.448 121.48C104.996 127.316 106.8 134.7 113.378 137.563C117.39 139.309 117.555 139.305 121.643 137.365M5.11 19.604C1.988 17.874 0.08 14.318 0.035 10.15C0.009 7.646 0.858 5.942 3.4 3.4L6.8 0L128 0L249.2 0L252.6 3.4C256.286 7.086 256.961 10.797 254.805 15.528C252.187 21.276 258.551 21.003 127.8 20.965C29.865 20.936 7.056 20.683 5.11 19.604" />
    <glyph glyph-name="log-out"
      unicode="&#xEA49;"
      horiz-adv-x="256" d="M103 255.294C97.696 253.355 95.078 247.325 97.005 241.486C99.208 234.809 97.233 235 163.95 235L224 235L224 128L224 21L164.047 21C121.344 21 103.375 20.672 101.595 19.861C98.224 18.325 95.647 12.697 96.422 8.563C96.757 6.779 98.185 4.235 99.595 2.91L102.16 0.5L169.135 0.229C242.25 -0.066 241.249 -0.138 243.861 5.595C244.693 7.42 245 40.489 245 128.097C245 260.163 245.363 252.632 238.881 254.892C235.597 256.037 106.081 256.42 103 255.294M70.784 191.179C69.84 190.804 56.003 177.48 40.034 161.568L11 132.639L11 128L11 123.361L40.002 94.43C71.494 63.017 72.521 62.255 79.181 65.416C83.212 67.328 85 70.486 85 75.689C85 79.014 83.6 80.696 66.307 98.142L47.614 117L114.839 117C188.518 117 187.35 116.909 190.434 122.872C192.412 126.698 192.412 129.302 190.434 133.128C187.35 139.091 188.518 139 114.839 139L47.614 139L66.307 157.858C83.783 175.488 85 176.957 85 180.408C85 188.716 77.981 194.034 70.784 191.179" />
    <glyph glyph-name="call-center"
      unicode="&#xEA4A;"
      horiz-adv-x="256" d="M109 254.424C84.718 250.022 63.049 238.836 45.658 221.726C31.529 207.825 19.666 187.274 14.263 167.337L11.597 157.5L11.233 112.732L10.87 67.963L13.487 62.232C16.913 54.73 22.098 49.436 29.5 45.882L35.5 43.002L57.173 43.001L78.846 43L81.923 46.077L85 49.154L85 90.112C85 127.018 84.831 131.328 83.296 133.672C80.184 138.421 76.934 139 53.403 139L31.742 139L32.447 146.25C35.336 175.96 49.798 201.046 73.5 217.463C106.077 240.028 150.208 240.046 182.351 217.508C206.552 200.538 220.643 176.168 223.553 146.25L224.258 139L202.597 139C179.066 139 175.816 138.421 172.704 133.672C171.169 131.328 171 127.018 171 90.112L171 49.154L174.142 46.012L177.284 42.87L200.731 43.185L224.178 43.5L223.547 39.561C222.181 31.034 215.565 23.848 207.316 21.933C205.217 21.446 190.372 21.037 174.327 21.024L145.154 21L142.077 17.923C136.995 12.841 138.244 4.536 144.54 1.548C147.252 0.261 152.691 0 176.765 0C192.694 0 208.151 0.456 211.114 1.014C226.35 3.882 239.722 16.522 243.897 32C244.804 35.363 245.026 51.786 244.774 97L244.437 157.5L241.754 167.337C236.378 187.049 225.026 206.807 210.726 221.342C184.773 247.72 144.417 260.8450000000001 109 254.424M64 90.421L64 63.841L51.02 64.171C38.367 64.492 37.97 64.57 35.27 67.271L32.5 70.042L32.199 93.521L31.897 117L47.949 117L64 117L64 90.421M223.801 93.521L223.5 70.042L220.73 67.271C218.03 64.57 217.633 64.492 204.98 64.171L192 63.841L192 90.421L192 117L208.051 117L224.103 117L223.801 93.521" />
    <glyph glyph-name="help"
      unicode="&#xEA4B;"
      horiz-adv-x="256" d="M150.499 254.634C141.067 251.626 132.213 242.68 129.393 233.312C128.355 229.861 128 221.982 128 202.379C128 177.889 128.149 175.678 130.156 170.313C132.685 163.552 140.557 154.651 145.627 152.818C148.95 151.616 149 151.509 149.006 145.549C149.014 136.711 150.529 132.258 154.311 129.952C156.065 128.882 158.517 128.006 159.759 128.004C161.002 128.002 171.352 132.666 182.759 138.369L203.5 148.738L217 149.236C227.564 149.625 231.725 150.203 236.131 151.894C243.58 154.752 250.874 162.374 253.9 170.462C256.021 176.131 256.099 177.528 255.806 204.437C255.511 231.52 255.418 232.666 253.161 237.25C250.062 243.542 243.631 250.023 237.484 253.047L232.5 255.5L193.5 255.705C164.147 255.86 153.51 255.595 150.499 254.634M229.602 233.102C234.232 230.022 234.483 228.674 234.827 205C235.317 171.268 235.156 171 214.353 171L200.975 171L186.107 163.553L171.239 156.107L170.591 160.159C169.758 165.365 165.571 169.63 160.4 170.539C150 172.367 149 175.113 149 201.843C149 213.342 149.28 224.15 149.622 225.861C150.342 229.462 154.182 233.681 157.327 234.328C158.522 234.574 174.8 234.714 193.5 234.638C220.776 234.527 227.916 234.223 229.602 233.102M4.856 211.484C3.402 210.694 1.714 208.619 1.106 206.874C-0.496 202.279 -0.45 31.082 1.154 27.561C1.789 26.168 3.476 24.234 4.904 23.264C7.339 21.609 14.233 21.484 116 21.242C217.828 21 224.715 21.092 228 22.742C235.098 26.307 235.072 26.104 234.77 76C234.524 116.599 234.345 120.728 232.736 123.096C227.676 130.542 216.444 128.861 214.067 120.302C213.415 117.953 213.009 102.459 213.006 79.75L213 43L117 43L21 43L21 117.5L21 192L59.55 192C104.454 192 103.325 191.775 106.413 201.341C107.166 203.675 104.389 209.614 101.647 211.535C98.565 213.693 8.837 213.646 4.856 211.484M78.176 158.862C76.348 158.335 72.894 155.946 70.501 153.553C63.502 146.555 62.166 138.073 66.647 129.081C75.071 112.176 100.167 114.37 105.552 132.483C110.503 149.134 95.291 163.793 78.176 158.862M77.594 105.943C67.36 104.229 55.335 96.055 48.956 86.478C46.395 82.634 43 71.755 43 67.395L43 64L85.5 64L128 64L128 66.911C128 71.034 124.694 81.139 121.642 86.348C116.086 95.828 104.323 103.741 92.566 105.907C85.968 107.122 84.654 107.126 77.594 105.943" />
    <glyph glyph-name="pr"
      unicode="&#xEA4C;"
      horiz-adv-x="256" d="M48.476 254.612C46.812 253.883 44.9 252.076 44.226 250.596C43.282 248.525 43 223.051 43 139.973C43 18.652 43.418 25.585 35.922 22.586C32.359 21.16 31.641 21.16 28.078 22.586C21.175 25.347 21 26.509 21 69.52C21 102.703 21.178 107 22.55 107C25.907 107 29.855 110.032 30.995 113.486C32.487 118.006 31.556 122.129 28.368 125.124C26.057 127.295 24.984 127.5 15.942 127.5C6.46 127.5 5.929 127.384 3.273 124.728L0.5 121.956L0.221 74.833C-0.113 18.32 -0.39 20.183 9.88 9.914C20.588 -0.795 11.113 0 128 0C244.887 0 235.412 -0.795 246.12 9.914C256.884 20.677 256.068 9.77 255.763 138.778L255.5 249.955L252.727 252.727L249.955 255.5L150.727 255.719C70.156 255.896 50.931 255.688 48.476 254.612M235 133.52C235 19.349 235.398 25.577 227.902 22.578C224.425 21.186 214.404 21 143.05 21L62.14 21L63.07 24.243C63.617 26.15 64 70.254 64 131.243L64 235L149.5 235L235 235L235 133.52M92 201.248C85.621 198.062 85.003 195.366 85.002 170.718C85 147.057 85.575 143.819 90.328 140.704C92.702 139.149 97.907 139 149.888 139L206.846 139L209.923 142.077L213 145.154L213 170.112C213 191.943 212.786 195.396 211.296 197.672C207.828 202.964 207.403 203 149.282 202.998C100.082 202.997 95.202 202.848 92 201.248M192 170.5L192 160L149.5 160L107 160L107 170.5L107 181L149.5 181L192 181L192 170.5M89.15 114.473C85.38 111.3 84.434 107.292 86.365 102.67C89.223 95.83 87.615 96 149.403 96C190.305 96 205.596 96.314 207.528 97.195C213.495 99.913 214.904 109.25 210.077 114.077L207.154 117L149.654 117L92.153 117L89.15 114.473M91.321 73.4C87.407 71.454 84.619 66.011 85.494 62.026C86.338 58.185 90.492 54.181 94.362 53.48C96.088 53.167 122.175 53.044 152.333 53.205L207.165 53.5L210.083 56.766C214.118 61.283 214.118 66.717 210.082 71.234L207.165 74.5L150.832 74.74C101.165 74.952 94.124 74.794 91.321 73.4" />
    </font>
</defs>
</svg>
